%TF.GenerationSoftware,KiCad,Pcbnew,(5.1.12)-1*%
%TF.CreationDate,2022-08-18T11:38:46-07:00*%
%TF.ProjectId,HighPressureSensorArray,48696768-5072-4657-9373-75726553656e,rev?*%
%TF.SameCoordinates,Original*%
%TF.FileFunction,Paste,Top*%
%TF.FilePolarity,Positive*%
%FSLAX46Y46*%
G04 Gerber Fmt 4.6, Leading zero omitted, Abs format (unit mm)*
G04 Created by KiCad (PCBNEW (5.1.12)-1) date 2022-08-18 11:38:46*
%MOMM*%
%LPD*%
G01*
G04 APERTURE LIST*
%ADD10R,1.300000X1.300000*%
G04 APERTURE END LIST*
G36*
G01*
X104725000Y-66250000D02*
X104725000Y-66750000D01*
G75*
G02*
X104500000Y-66975000I-225000J0D01*
G01*
X104050000Y-66975000D01*
G75*
G02*
X103825000Y-66750000I0J225000D01*
G01*
X103825000Y-66250000D01*
G75*
G02*
X104050000Y-66025000I225000J0D01*
G01*
X104500000Y-66025000D01*
G75*
G02*
X104725000Y-66250000I0J-225000D01*
G01*
G37*
G36*
G01*
X103175000Y-66250000D02*
X103175000Y-66750000D01*
G75*
G02*
X102950000Y-66975000I-225000J0D01*
G01*
X102500000Y-66975000D01*
G75*
G02*
X102275000Y-66750000I0J225000D01*
G01*
X102275000Y-66250000D01*
G75*
G02*
X102500000Y-66025000I225000J0D01*
G01*
X102950000Y-66025000D01*
G75*
G02*
X103175000Y-66250000I0J-225000D01*
G01*
G37*
G36*
G01*
X99225000Y-69225000D02*
X99225000Y-69775000D01*
G75*
G02*
X99025000Y-69975000I-200000J0D01*
G01*
X98625000Y-69975000D01*
G75*
G02*
X98425000Y-69775000I0J200000D01*
G01*
X98425000Y-69225000D01*
G75*
G02*
X98625000Y-69025000I200000J0D01*
G01*
X99025000Y-69025000D01*
G75*
G02*
X99225000Y-69225000I0J-200000D01*
G01*
G37*
G36*
G01*
X97575000Y-69225000D02*
X97575000Y-69775000D01*
G75*
G02*
X97375000Y-69975000I-200000J0D01*
G01*
X96975000Y-69975000D01*
G75*
G02*
X96775000Y-69775000I0J200000D01*
G01*
X96775000Y-69225000D01*
G75*
G02*
X96975000Y-69025000I200000J0D01*
G01*
X97375000Y-69025000D01*
G75*
G02*
X97575000Y-69225000I0J-200000D01*
G01*
G37*
G36*
G01*
X97575000Y-66725000D02*
X97575000Y-67275000D01*
G75*
G02*
X97375000Y-67475000I-200000J0D01*
G01*
X96975000Y-67475000D01*
G75*
G02*
X96775000Y-67275000I0J200000D01*
G01*
X96775000Y-66725000D01*
G75*
G02*
X96975000Y-66525000I200000J0D01*
G01*
X97375000Y-66525000D01*
G75*
G02*
X97575000Y-66725000I0J-200000D01*
G01*
G37*
G36*
G01*
X99225000Y-66725000D02*
X99225000Y-67275000D01*
G75*
G02*
X99025000Y-67475000I-200000J0D01*
G01*
X98625000Y-67475000D01*
G75*
G02*
X98425000Y-67275000I0J200000D01*
G01*
X98425000Y-66725000D01*
G75*
G02*
X98625000Y-66525000I200000J0D01*
G01*
X99025000Y-66525000D01*
G75*
G02*
X99225000Y-66725000I0J-200000D01*
G01*
G37*
D10*
X102712600Y-64200400D03*
X102712600Y-62200400D03*
X104712600Y-64200400D03*
X104712600Y-62200400D03*
M02*
