%FSLAX45Y45*%
G04 Gerber Fmt 4.5, Leading zero omitted, Abs format (unit mm)*
G04 Created by KiCad (PCBNEW (5.1.12)-1) date 2022-08-18 11:38:49*
%MOMM*%
%LPD*%
G01*
G04 APERTURE LIST*
%TA.AperFunction,Profile*%
%ADD10C,0.050000*%
%TD*%
%ADD11C,0.200000*%
%ADD12C,0.300000*%
G04 APERTURE END LIST*
D10*
X8950000Y-8350000D02*
X11750000Y-8350000D01*
X8950000Y-4900000D02*
X8950000Y-8350000D01*
X11750000Y-4900000D02*
X8950000Y-4900000D01*
X11750000Y-8350000D02*
X11750000Y-4900000D01*
D11*
X9731265Y-7078733D02*
X9771265Y-7118733D01*
X9771265Y-7078733D02*
X9731265Y-7118733D01*
X10488000Y-7538000D02*
X10528000Y-7578000D01*
X10528000Y-7538000D02*
X10488000Y-7578000D01*
X10055000Y-8000000D02*
G75*
G03*
X10055000Y-8000000I-55000J0D01*
G01*
X10309000Y-8000000D02*
G75*
G03*
X10309000Y-8000000I-55000J0D01*
G01*
X10563000Y-8000000D02*
G75*
G03*
X10563000Y-8000000I-55000J0D01*
G01*
X10817000Y-8000000D02*
G75*
G03*
X10817000Y-8000000I-55000J0D01*
G01*
D12*
X9233928Y-8818214D02*
X9233928Y-8518214D01*
X9305357Y-8518214D01*
X9348214Y-8532500D01*
X9376786Y-8561072D01*
X9391071Y-8589643D01*
X9405357Y-8646786D01*
X9405357Y-8689643D01*
X9391071Y-8746786D01*
X9376786Y-8775357D01*
X9348214Y-8803929D01*
X9305357Y-8818214D01*
X9233928Y-8818214D01*
X9533928Y-8818214D02*
X9533928Y-8618214D01*
X9533928Y-8675357D02*
X9548214Y-8646786D01*
X9562500Y-8632500D01*
X9591071Y-8618214D01*
X9619643Y-8618214D01*
X9719643Y-8818214D02*
X9719643Y-8618214D01*
X9719643Y-8518214D02*
X9705357Y-8532500D01*
X9719643Y-8546786D01*
X9733928Y-8532500D01*
X9719643Y-8518214D01*
X9719643Y-8546786D01*
X9905357Y-8818214D02*
X9876786Y-8803929D01*
X9862500Y-8775357D01*
X9862500Y-8518214D01*
X10062500Y-8818214D02*
X10033928Y-8803929D01*
X10019643Y-8775357D01*
X10019643Y-8518214D01*
X10405357Y-8818214D02*
X10405357Y-8518214D01*
X10505357Y-8732500D01*
X10605357Y-8518214D01*
X10605357Y-8818214D01*
X10876786Y-8818214D02*
X10876786Y-8661072D01*
X10862500Y-8632500D01*
X10833928Y-8618214D01*
X10776786Y-8618214D01*
X10748214Y-8632500D01*
X10876786Y-8803929D02*
X10848214Y-8818214D01*
X10776786Y-8818214D01*
X10748214Y-8803929D01*
X10733928Y-8775357D01*
X10733928Y-8746786D01*
X10748214Y-8718214D01*
X10776786Y-8703929D01*
X10848214Y-8703929D01*
X10876786Y-8689643D01*
X11019643Y-8618214D02*
X11019643Y-8918214D01*
X11019643Y-8632500D02*
X11048214Y-8618214D01*
X11105357Y-8618214D01*
X11133928Y-8632500D01*
X11148214Y-8646786D01*
X11162500Y-8675357D01*
X11162500Y-8761072D01*
X11148214Y-8789643D01*
X11133928Y-8803929D01*
X11105357Y-8818214D01*
X11048214Y-8818214D01*
X11019643Y-8803929D01*
X11291071Y-8789643D02*
X11305357Y-8803929D01*
X11291071Y-8818214D01*
X11276786Y-8803929D01*
X11291071Y-8789643D01*
X11291071Y-8818214D01*
X11291071Y-8632500D02*
X11305357Y-8646786D01*
X11291071Y-8661072D01*
X11276786Y-8646786D01*
X11291071Y-8632500D01*
X11291071Y-8661072D01*
X8907500Y-9292500D02*
X8947500Y-9332500D01*
X8947500Y-9292500D02*
X8907500Y-9332500D01*
X9291071Y-9148214D02*
X9319643Y-9148214D01*
X9348214Y-9162500D01*
X9362500Y-9176786D01*
X9376786Y-9205357D01*
X9391071Y-9262500D01*
X9391071Y-9333929D01*
X9376786Y-9391072D01*
X9362500Y-9419643D01*
X9348214Y-9433929D01*
X9319643Y-9448214D01*
X9291071Y-9448214D01*
X9262500Y-9433929D01*
X9248214Y-9419643D01*
X9233928Y-9391072D01*
X9219643Y-9333929D01*
X9219643Y-9262500D01*
X9233928Y-9205357D01*
X9248214Y-9176786D01*
X9262500Y-9162500D01*
X9291071Y-9148214D01*
X9519643Y-9419643D02*
X9533928Y-9433929D01*
X9519643Y-9448214D01*
X9505357Y-9433929D01*
X9519643Y-9419643D01*
X9519643Y-9448214D01*
X9791071Y-9248214D02*
X9791071Y-9448214D01*
X9719643Y-9133929D02*
X9648214Y-9348214D01*
X9833928Y-9348214D01*
X10005357Y-9148214D02*
X10033928Y-9148214D01*
X10062500Y-9162500D01*
X10076786Y-9176786D01*
X10091071Y-9205357D01*
X10105357Y-9262500D01*
X10105357Y-9333929D01*
X10091071Y-9391072D01*
X10076786Y-9419643D01*
X10062500Y-9433929D01*
X10033928Y-9448214D01*
X10005357Y-9448214D01*
X9976786Y-9433929D01*
X9962500Y-9419643D01*
X9948214Y-9391072D01*
X9933928Y-9333929D01*
X9933928Y-9262500D01*
X9948214Y-9205357D01*
X9962500Y-9176786D01*
X9976786Y-9162500D01*
X10005357Y-9148214D01*
X10291071Y-9148214D02*
X10319643Y-9148214D01*
X10348214Y-9162500D01*
X10362500Y-9176786D01*
X10376786Y-9205357D01*
X10391071Y-9262500D01*
X10391071Y-9333929D01*
X10376786Y-9391072D01*
X10362500Y-9419643D01*
X10348214Y-9433929D01*
X10319643Y-9448214D01*
X10291071Y-9448214D01*
X10262500Y-9433929D01*
X10248214Y-9419643D01*
X10233928Y-9391072D01*
X10219643Y-9333929D01*
X10219643Y-9262500D01*
X10233928Y-9205357D01*
X10248214Y-9176786D01*
X10262500Y-9162500D01*
X10291071Y-9148214D01*
X10519643Y-9448214D02*
X10519643Y-9248214D01*
X10519643Y-9276786D02*
X10533928Y-9262500D01*
X10562500Y-9248214D01*
X10605357Y-9248214D01*
X10633928Y-9262500D01*
X10648214Y-9291072D01*
X10648214Y-9448214D01*
X10648214Y-9291072D02*
X10662500Y-9262500D01*
X10691071Y-9248214D01*
X10733928Y-9248214D01*
X10762500Y-9262500D01*
X10776786Y-9291072D01*
X10776786Y-9448214D01*
X10919643Y-9448214D02*
X10919643Y-9248214D01*
X10919643Y-9276786D02*
X10933928Y-9262500D01*
X10962500Y-9248214D01*
X11005357Y-9248214D01*
X11033928Y-9262500D01*
X11048214Y-9291072D01*
X11048214Y-9448214D01*
X11048214Y-9291072D02*
X11062500Y-9262500D01*
X11091071Y-9248214D01*
X11133928Y-9248214D01*
X11162500Y-9262500D01*
X11176786Y-9291072D01*
X11176786Y-9448214D01*
X11762500Y-9133929D02*
X11505357Y-9519643D01*
X12148214Y-9148214D02*
X12176786Y-9148214D01*
X12205357Y-9162500D01*
X12219643Y-9176786D01*
X12233928Y-9205357D01*
X12248214Y-9262500D01*
X12248214Y-9333929D01*
X12233928Y-9391072D01*
X12219643Y-9419643D01*
X12205357Y-9433929D01*
X12176786Y-9448214D01*
X12148214Y-9448214D01*
X12119643Y-9433929D01*
X12105357Y-9419643D01*
X12091071Y-9391072D01*
X12076786Y-9333929D01*
X12076786Y-9262500D01*
X12091071Y-9205357D01*
X12105357Y-9176786D01*
X12119643Y-9162500D01*
X12148214Y-9148214D01*
X12376786Y-9419643D02*
X12391071Y-9433929D01*
X12376786Y-9448214D01*
X12362500Y-9433929D01*
X12376786Y-9419643D01*
X12376786Y-9448214D01*
X12576786Y-9148214D02*
X12605357Y-9148214D01*
X12633928Y-9162500D01*
X12648214Y-9176786D01*
X12662500Y-9205357D01*
X12676786Y-9262500D01*
X12676786Y-9333929D01*
X12662500Y-9391072D01*
X12648214Y-9419643D01*
X12633928Y-9433929D01*
X12605357Y-9448214D01*
X12576786Y-9448214D01*
X12548214Y-9433929D01*
X12533928Y-9419643D01*
X12519643Y-9391072D01*
X12505357Y-9333929D01*
X12505357Y-9262500D01*
X12519643Y-9205357D01*
X12533928Y-9176786D01*
X12548214Y-9162500D01*
X12576786Y-9148214D01*
X12962500Y-9448214D02*
X12791071Y-9448214D01*
X12876786Y-9448214D02*
X12876786Y-9148214D01*
X12848214Y-9191072D01*
X12819643Y-9219643D01*
X12791071Y-9233929D01*
X13233928Y-9148214D02*
X13091071Y-9148214D01*
X13076786Y-9291072D01*
X13091071Y-9276786D01*
X13119643Y-9262500D01*
X13191071Y-9262500D01*
X13219643Y-9276786D01*
X13233928Y-9291072D01*
X13248214Y-9319643D01*
X13248214Y-9391072D01*
X13233928Y-9419643D01*
X13219643Y-9433929D01*
X13191071Y-9448214D01*
X13119643Y-9448214D01*
X13091071Y-9433929D01*
X13076786Y-9419643D01*
X13348214Y-9148214D02*
X13548214Y-9148214D01*
X13419643Y-9448214D01*
X13648214Y-9148214D02*
X13648214Y-9205357D01*
X13762500Y-9148214D02*
X13762500Y-9205357D01*
X14205357Y-9562500D02*
X14191071Y-9548214D01*
X14162500Y-9505357D01*
X14148214Y-9476786D01*
X14133928Y-9433929D01*
X14119643Y-9362500D01*
X14119643Y-9305357D01*
X14133928Y-9233929D01*
X14148214Y-9191072D01*
X14162500Y-9162500D01*
X14191071Y-9119643D01*
X14205357Y-9105357D01*
X14305357Y-9176786D02*
X14319643Y-9162500D01*
X14348214Y-9148214D01*
X14419643Y-9148214D01*
X14448214Y-9162500D01*
X14462500Y-9176786D01*
X14476786Y-9205357D01*
X14476786Y-9233929D01*
X14462500Y-9276786D01*
X14291071Y-9448214D01*
X14476786Y-9448214D01*
X14833928Y-9448214D02*
X14833928Y-9148214D01*
X14962500Y-9448214D02*
X14962500Y-9291072D01*
X14948214Y-9262500D01*
X14919643Y-9248214D01*
X14876786Y-9248214D01*
X14848214Y-9262500D01*
X14833928Y-9276786D01*
X15148214Y-9448214D02*
X15119643Y-9433929D01*
X15105357Y-9419643D01*
X15091071Y-9391072D01*
X15091071Y-9305357D01*
X15105357Y-9276786D01*
X15119643Y-9262500D01*
X15148214Y-9248214D01*
X15191071Y-9248214D01*
X15219643Y-9262500D01*
X15233928Y-9276786D01*
X15248214Y-9305357D01*
X15248214Y-9391072D01*
X15233928Y-9419643D01*
X15219643Y-9433929D01*
X15191071Y-9448214D01*
X15148214Y-9448214D01*
X15419643Y-9448214D02*
X15391071Y-9433929D01*
X15376786Y-9405357D01*
X15376786Y-9148214D01*
X15648214Y-9433929D02*
X15619643Y-9448214D01*
X15562500Y-9448214D01*
X15533928Y-9433929D01*
X15519643Y-9405357D01*
X15519643Y-9291072D01*
X15533928Y-9262500D01*
X15562500Y-9248214D01*
X15619643Y-9248214D01*
X15648214Y-9262500D01*
X15662500Y-9291072D01*
X15662500Y-9319643D01*
X15519643Y-9348214D01*
X15776786Y-9433929D02*
X15805357Y-9448214D01*
X15862500Y-9448214D01*
X15891071Y-9433929D01*
X15905357Y-9405357D01*
X15905357Y-9391072D01*
X15891071Y-9362500D01*
X15862500Y-9348214D01*
X15819643Y-9348214D01*
X15791071Y-9333929D01*
X15776786Y-9305357D01*
X15776786Y-9291072D01*
X15791071Y-9262500D01*
X15819643Y-9248214D01*
X15862500Y-9248214D01*
X15891071Y-9262500D01*
X16005357Y-9562500D02*
X16019643Y-9548214D01*
X16048214Y-9505357D01*
X16062500Y-9476786D01*
X16076786Y-9433929D01*
X16091071Y-9362500D01*
X16091071Y-9305357D01*
X16076786Y-9233929D01*
X16062500Y-9191072D01*
X16048214Y-9162500D01*
X16019643Y-9119643D01*
X16005357Y-9105357D01*
X8947500Y-9708500D02*
G75*
G03*
X8947500Y-9708500I-55000J0D01*
G01*
X9391071Y-9844214D02*
X9219643Y-9844214D01*
X9305357Y-9844214D02*
X9305357Y-9544214D01*
X9276786Y-9587072D01*
X9248214Y-9615643D01*
X9219643Y-9629929D01*
X9519643Y-9815643D02*
X9533928Y-9829929D01*
X9519643Y-9844214D01*
X9505357Y-9829929D01*
X9519643Y-9815643D01*
X9519643Y-9844214D01*
X9819643Y-9844214D02*
X9648214Y-9844214D01*
X9733928Y-9844214D02*
X9733928Y-9544214D01*
X9705357Y-9587072D01*
X9676786Y-9615643D01*
X9648214Y-9629929D01*
X10005357Y-9544214D02*
X10033928Y-9544214D01*
X10062500Y-9558500D01*
X10076786Y-9572786D01*
X10091071Y-9601357D01*
X10105357Y-9658500D01*
X10105357Y-9729929D01*
X10091071Y-9787072D01*
X10076786Y-9815643D01*
X10062500Y-9829929D01*
X10033928Y-9844214D01*
X10005357Y-9844214D01*
X9976786Y-9829929D01*
X9962500Y-9815643D01*
X9948214Y-9787072D01*
X9933928Y-9729929D01*
X9933928Y-9658500D01*
X9948214Y-9601357D01*
X9962500Y-9572786D01*
X9976786Y-9558500D01*
X10005357Y-9544214D01*
X10291071Y-9544214D02*
X10319643Y-9544214D01*
X10348214Y-9558500D01*
X10362500Y-9572786D01*
X10376786Y-9601357D01*
X10391071Y-9658500D01*
X10391071Y-9729929D01*
X10376786Y-9787072D01*
X10362500Y-9815643D01*
X10348214Y-9829929D01*
X10319643Y-9844214D01*
X10291071Y-9844214D01*
X10262500Y-9829929D01*
X10248214Y-9815643D01*
X10233928Y-9787072D01*
X10219643Y-9729929D01*
X10219643Y-9658500D01*
X10233928Y-9601357D01*
X10248214Y-9572786D01*
X10262500Y-9558500D01*
X10291071Y-9544214D01*
X10519643Y-9844214D02*
X10519643Y-9644214D01*
X10519643Y-9672786D02*
X10533928Y-9658500D01*
X10562500Y-9644214D01*
X10605357Y-9644214D01*
X10633928Y-9658500D01*
X10648214Y-9687072D01*
X10648214Y-9844214D01*
X10648214Y-9687072D02*
X10662500Y-9658500D01*
X10691071Y-9644214D01*
X10733928Y-9644214D01*
X10762500Y-9658500D01*
X10776786Y-9687072D01*
X10776786Y-9844214D01*
X10919643Y-9844214D02*
X10919643Y-9644214D01*
X10919643Y-9672786D02*
X10933928Y-9658500D01*
X10962500Y-9644214D01*
X11005357Y-9644214D01*
X11033928Y-9658500D01*
X11048214Y-9687072D01*
X11048214Y-9844214D01*
X11048214Y-9687072D02*
X11062500Y-9658500D01*
X11091071Y-9644214D01*
X11133928Y-9644214D01*
X11162500Y-9658500D01*
X11176786Y-9687072D01*
X11176786Y-9844214D01*
X11762500Y-9529929D02*
X11505357Y-9915643D01*
X12148214Y-9544214D02*
X12176786Y-9544214D01*
X12205357Y-9558500D01*
X12219643Y-9572786D01*
X12233928Y-9601357D01*
X12248214Y-9658500D01*
X12248214Y-9729929D01*
X12233928Y-9787072D01*
X12219643Y-9815643D01*
X12205357Y-9829929D01*
X12176786Y-9844214D01*
X12148214Y-9844214D01*
X12119643Y-9829929D01*
X12105357Y-9815643D01*
X12091071Y-9787072D01*
X12076786Y-9729929D01*
X12076786Y-9658500D01*
X12091071Y-9601357D01*
X12105357Y-9572786D01*
X12119643Y-9558500D01*
X12148214Y-9544214D01*
X12376786Y-9815643D02*
X12391071Y-9829929D01*
X12376786Y-9844214D01*
X12362500Y-9829929D01*
X12376786Y-9815643D01*
X12376786Y-9844214D01*
X12576786Y-9544214D02*
X12605357Y-9544214D01*
X12633928Y-9558500D01*
X12648214Y-9572786D01*
X12662500Y-9601357D01*
X12676786Y-9658500D01*
X12676786Y-9729929D01*
X12662500Y-9787072D01*
X12648214Y-9815643D01*
X12633928Y-9829929D01*
X12605357Y-9844214D01*
X12576786Y-9844214D01*
X12548214Y-9829929D01*
X12533928Y-9815643D01*
X12519643Y-9787072D01*
X12505357Y-9729929D01*
X12505357Y-9658500D01*
X12519643Y-9601357D01*
X12533928Y-9572786D01*
X12548214Y-9558500D01*
X12576786Y-9544214D01*
X12933928Y-9644214D02*
X12933928Y-9844214D01*
X12862500Y-9529929D02*
X12791071Y-9744214D01*
X12976786Y-9744214D01*
X13062500Y-9544214D02*
X13248214Y-9544214D01*
X13148214Y-9658500D01*
X13191071Y-9658500D01*
X13219643Y-9672786D01*
X13233928Y-9687072D01*
X13248214Y-9715643D01*
X13248214Y-9787072D01*
X13233928Y-9815643D01*
X13219643Y-9829929D01*
X13191071Y-9844214D01*
X13105357Y-9844214D01*
X13076786Y-9829929D01*
X13062500Y-9815643D01*
X13348214Y-9544214D02*
X13533928Y-9544214D01*
X13433928Y-9658500D01*
X13476786Y-9658500D01*
X13505357Y-9672786D01*
X13519643Y-9687072D01*
X13533928Y-9715643D01*
X13533928Y-9787072D01*
X13519643Y-9815643D01*
X13505357Y-9829929D01*
X13476786Y-9844214D01*
X13391071Y-9844214D01*
X13362500Y-9829929D01*
X13348214Y-9815643D01*
X13648214Y-9544214D02*
X13648214Y-9601357D01*
X13762500Y-9544214D02*
X13762500Y-9601357D01*
X14205357Y-9958500D02*
X14191071Y-9944214D01*
X14162500Y-9901357D01*
X14148214Y-9872786D01*
X14133928Y-9829929D01*
X14119643Y-9758500D01*
X14119643Y-9701357D01*
X14133928Y-9629929D01*
X14148214Y-9587072D01*
X14162500Y-9558500D01*
X14191071Y-9515643D01*
X14205357Y-9501357D01*
X14448214Y-9644214D02*
X14448214Y-9844214D01*
X14376786Y-9529929D02*
X14305357Y-9744214D01*
X14491071Y-9744214D01*
X14833928Y-9844214D02*
X14833928Y-9544214D01*
X14962500Y-9844214D02*
X14962500Y-9687072D01*
X14948214Y-9658500D01*
X14919643Y-9644214D01*
X14876786Y-9644214D01*
X14848214Y-9658500D01*
X14833928Y-9672786D01*
X15148214Y-9844214D02*
X15119643Y-9829929D01*
X15105357Y-9815643D01*
X15091071Y-9787072D01*
X15091071Y-9701357D01*
X15105357Y-9672786D01*
X15119643Y-9658500D01*
X15148214Y-9644214D01*
X15191071Y-9644214D01*
X15219643Y-9658500D01*
X15233928Y-9672786D01*
X15248214Y-9701357D01*
X15248214Y-9787072D01*
X15233928Y-9815643D01*
X15219643Y-9829929D01*
X15191071Y-9844214D01*
X15148214Y-9844214D01*
X15419643Y-9844214D02*
X15391071Y-9829929D01*
X15376786Y-9801357D01*
X15376786Y-9544214D01*
X15648214Y-9829929D02*
X15619643Y-9844214D01*
X15562500Y-9844214D01*
X15533928Y-9829929D01*
X15519643Y-9801357D01*
X15519643Y-9687072D01*
X15533928Y-9658500D01*
X15562500Y-9644214D01*
X15619643Y-9644214D01*
X15648214Y-9658500D01*
X15662500Y-9687072D01*
X15662500Y-9715643D01*
X15519643Y-9744214D01*
X15776786Y-9829929D02*
X15805357Y-9844214D01*
X15862500Y-9844214D01*
X15891071Y-9829929D01*
X15905357Y-9801357D01*
X15905357Y-9787072D01*
X15891071Y-9758500D01*
X15862500Y-9744214D01*
X15819643Y-9744214D01*
X15791071Y-9729929D01*
X15776786Y-9701357D01*
X15776786Y-9687072D01*
X15791071Y-9658500D01*
X15819643Y-9644214D01*
X15862500Y-9644214D01*
X15891071Y-9658500D01*
X16005357Y-9958500D02*
X16019643Y-9944214D01*
X16048214Y-9901357D01*
X16062500Y-9872786D01*
X16076786Y-9829929D01*
X16091071Y-9758500D01*
X16091071Y-9701357D01*
X16076786Y-9629929D01*
X16062500Y-9587072D01*
X16048214Y-9558500D01*
X16019643Y-9515643D01*
X16005357Y-9501357D01*
M02*
