%TF.GenerationSoftware,KiCad,Pcbnew,(5.1.12)-1*%
%TF.CreationDate,2022-08-18T11:38:46-07:00*%
%TF.ProjectId,HighPressureSensorArray,48696768-5072-4657-9373-75726553656e,rev?*%
%TF.SameCoordinates,Original*%
%TF.FileFunction,Copper,L1,Top*%
%TF.FilePolarity,Positive*%
%FSLAX46Y46*%
G04 Gerber Fmt 4.6, Leading zero omitted, Abs format (unit mm)*
G04 Created by KiCad (PCBNEW (5.1.12)-1) date 2022-08-18 11:38:46*
%MOMM*%
%LPD*%
G01*
G04 APERTURE LIST*
%TA.AperFunction,ComponentPad*%
%ADD10R,2.200000X2.200000*%
%TD*%
%TA.AperFunction,ComponentPad*%
%ADD11C,2.200000*%
%TD*%
%TA.AperFunction,SMDPad,CuDef*%
%ADD12R,1.300000X1.300000*%
%TD*%
%TA.AperFunction,ViaPad*%
%ADD13C,0.800000*%
%TD*%
%TA.AperFunction,Conductor*%
%ADD14C,0.250000*%
%TD*%
G04 APERTURE END LIST*
%TA.AperFunction,SMDPad,CuDef*%
G36*
G01*
X104725000Y-66250000D02*
X104725000Y-66750000D01*
G75*
G02*
X104500000Y-66975000I-225000J0D01*
G01*
X104050000Y-66975000D01*
G75*
G02*
X103825000Y-66750000I0J225000D01*
G01*
X103825000Y-66250000D01*
G75*
G02*
X104050000Y-66025000I225000J0D01*
G01*
X104500000Y-66025000D01*
G75*
G02*
X104725000Y-66250000I0J-225000D01*
G01*
G37*
%TD.AperFunction*%
%TA.AperFunction,SMDPad,CuDef*%
G36*
G01*
X103175000Y-66250000D02*
X103175000Y-66750000D01*
G75*
G02*
X102950000Y-66975000I-225000J0D01*
G01*
X102500000Y-66975000D01*
G75*
G02*
X102275000Y-66750000I0J225000D01*
G01*
X102275000Y-66250000D01*
G75*
G02*
X102500000Y-66025000I225000J0D01*
G01*
X102950000Y-66025000D01*
G75*
G02*
X103175000Y-66250000I0J-225000D01*
G01*
G37*
%TD.AperFunction*%
D10*
X100000000Y-80000000D03*
D11*
X102540000Y-80000000D03*
X105080000Y-80000000D03*
X107620000Y-80000000D03*
%TA.AperFunction,SMDPad,CuDef*%
G36*
G01*
X99225000Y-69225000D02*
X99225000Y-69775000D01*
G75*
G02*
X99025000Y-69975000I-200000J0D01*
G01*
X98625000Y-69975000D01*
G75*
G02*
X98425000Y-69775000I0J200000D01*
G01*
X98425000Y-69225000D01*
G75*
G02*
X98625000Y-69025000I200000J0D01*
G01*
X99025000Y-69025000D01*
G75*
G02*
X99225000Y-69225000I0J-200000D01*
G01*
G37*
%TD.AperFunction*%
%TA.AperFunction,SMDPad,CuDef*%
G36*
G01*
X97575000Y-69225000D02*
X97575000Y-69775000D01*
G75*
G02*
X97375000Y-69975000I-200000J0D01*
G01*
X96975000Y-69975000D01*
G75*
G02*
X96775000Y-69775000I0J200000D01*
G01*
X96775000Y-69225000D01*
G75*
G02*
X96975000Y-69025000I200000J0D01*
G01*
X97375000Y-69025000D01*
G75*
G02*
X97575000Y-69225000I0J-200000D01*
G01*
G37*
%TD.AperFunction*%
%TA.AperFunction,SMDPad,CuDef*%
G36*
G01*
X97575000Y-66725000D02*
X97575000Y-67275000D01*
G75*
G02*
X97375000Y-67475000I-200000J0D01*
G01*
X96975000Y-67475000D01*
G75*
G02*
X96775000Y-67275000I0J200000D01*
G01*
X96775000Y-66725000D01*
G75*
G02*
X96975000Y-66525000I200000J0D01*
G01*
X97375000Y-66525000D01*
G75*
G02*
X97575000Y-66725000I0J-200000D01*
G01*
G37*
%TD.AperFunction*%
%TA.AperFunction,SMDPad,CuDef*%
G36*
G01*
X99225000Y-66725000D02*
X99225000Y-67275000D01*
G75*
G02*
X99025000Y-67475000I-200000J0D01*
G01*
X98625000Y-67475000D01*
G75*
G02*
X98425000Y-67275000I0J200000D01*
G01*
X98425000Y-66725000D01*
G75*
G02*
X98625000Y-66525000I200000J0D01*
G01*
X99025000Y-66525000D01*
G75*
G02*
X99225000Y-66725000I0J-200000D01*
G01*
G37*
%TD.AperFunction*%
D12*
X102712600Y-64200400D03*
X102712600Y-62200400D03*
X104712600Y-64200400D03*
X104712600Y-62200400D03*
D13*
X105080000Y-75580000D03*
X97512653Y-70987333D03*
D14*
X100407122Y-64200400D02*
X102712600Y-64200400D01*
X98099990Y-66507532D02*
X100407122Y-64200400D01*
X98099990Y-68975010D02*
X98099990Y-66507532D01*
X97575000Y-69500000D02*
X98099990Y-68975010D01*
X105080000Y-80000000D02*
X105080000Y-75580000D01*
X97175000Y-69500000D02*
X97575000Y-69500000D01*
X97575000Y-69500000D02*
X97575000Y-70924986D01*
X97575000Y-70924986D02*
X97512653Y-70987333D01*
X102540000Y-66685000D02*
X102725000Y-66500000D01*
X102540000Y-80000000D02*
X102540000Y-66685000D01*
X103687601Y-63225399D02*
X104712600Y-62200400D01*
X103687601Y-65537399D02*
X103687601Y-63225399D01*
X102725000Y-66500000D02*
X103687601Y-65537399D01*
X102540000Y-70715000D02*
X102540000Y-70960000D01*
X98825000Y-67000000D02*
X102540000Y-70715000D01*
X100000000Y-69500000D02*
X102500000Y-72000000D01*
X98825000Y-69500000D02*
X100000000Y-69500000D01*
X104275000Y-64638000D02*
X104712600Y-64200400D01*
X104275000Y-66500000D02*
X104275000Y-64638000D01*
X104275000Y-72137500D02*
X104275000Y-66500000D01*
X106000000Y-73862500D02*
X104275000Y-72137500D01*
X106000000Y-78380000D02*
X106000000Y-73862500D01*
X107620000Y-80000000D02*
X106000000Y-78380000D01*
X100799600Y-62200400D02*
X102712600Y-62200400D01*
X97175000Y-65825000D02*
X100799600Y-62200400D01*
X97175000Y-67000000D02*
X97175000Y-65825000D01*
X96449990Y-67725010D02*
X97175000Y-67000000D01*
X100000000Y-74500000D02*
X96449990Y-70949990D01*
X96449990Y-70949990D02*
X96449990Y-67725010D01*
X100000000Y-80000000D02*
X100000000Y-74500000D01*
M02*
