M48
; DRILL file {KiCad (5.1.12)-1} date 12/20/21 11:44:03
; FORMAT={-:-/ absolute / metric / decimal}
; #@! TF.CreationDate,2021-12-20T11:44:03-08:00
; #@! TF.GenerationSoftware,Kicad,Pcbnew,(5.1.12)-1
; #@! TF.FileFunction,Plated,1,2,PTH
FMAT,2
METRIC
T1C0.400
T2C1.000
%
G90
G05
T1
X120.075Y-88.325
X124.172Y-81.941
X124.192Y-80.896
X124.217Y-79.846
X124.235Y-77.863
X124.335Y-76.868
X124.356Y-78.855
X124.52Y-46.73
X124.52Y-48.73
X124.53Y-52.03
X124.53Y-54.03
X124.56Y-75.893
X124.58Y-57.33
X124.58Y-59.33
X124.63Y-62.63
X124.675Y-64.63
X125.123Y-75.066
X126.5Y-85.0
X128.185Y-67.885
X128.5Y-86.5
X129.87Y-46.73
X129.93Y-48.73
X129.93Y-57.33
X129.93Y-62.63
X129.93Y-64.63
X130.03Y-59.33
X130.07Y-52.03
X130.07Y-54.03
X135.075Y-83.691
X135.405Y-75.698
X135.957Y-82.848
X135.957Y-76.531
X136.144Y-77.514
X136.25Y-81.75
X136.335Y-80.736
X136.336Y-79.586
X136.367Y-78.489
X140.025Y-88.475
T2
X124.55Y-91.5
X127.09Y-91.5
X129.63Y-91.5
X132.17Y-91.5
X134.71Y-91.5
X137.25Y-91.5
T0
M30
