%TF.GenerationSoftware,KiCad,Pcbnew,(5.1.12)-1*%
%TF.CreationDate,2021-12-20T11:42:42-08:00*%
%TF.ProjectId,HighPressureSensorArray,48696768-5072-4657-9373-75726553656e,rev?*%
%TF.SameCoordinates,Original*%
%TF.FileFunction,Copper,L2,Bot*%
%TF.FilePolarity,Positive*%
%FSLAX46Y46*%
G04 Gerber Fmt 4.6, Leading zero omitted, Abs format (unit mm)*
G04 Created by KiCad (PCBNEW (5.1.12)-1) date 2021-12-20 11:42:42*
%MOMM*%
%LPD*%
G01*
G04 APERTURE LIST*
%TA.AperFunction,ComponentPad*%
%ADD10R,1.700000X1.700000*%
%TD*%
%TA.AperFunction,ComponentPad*%
%ADD11O,1.700000X1.700000*%
%TD*%
%TA.AperFunction,ViaPad*%
%ADD12C,0.800000*%
%TD*%
%TA.AperFunction,Conductor*%
%ADD13C,0.250000*%
%TD*%
G04 APERTURE END LIST*
D10*
X137250000Y-91500000D03*
D11*
X134710000Y-91500000D03*
X132170000Y-91500000D03*
X129630000Y-91500000D03*
X127090000Y-91500000D03*
X124550000Y-91500000D03*
D12*
X135075014Y-83690823D03*
X128500000Y-86500000D03*
X128185000Y-67885000D03*
X140025000Y-88475000D03*
X126500000Y-84999992D03*
X120075000Y-88325000D03*
X129930400Y-64630400D03*
X135957465Y-76531326D03*
X129930400Y-62630400D03*
X135404961Y-75697802D03*
X130030400Y-59330400D03*
X136366985Y-78488605D03*
X129930400Y-57330400D03*
X136143606Y-77513861D03*
X130069600Y-54030400D03*
X136335351Y-80736365D03*
X130069600Y-52030400D03*
X136336190Y-79586190D03*
X129930400Y-48730400D03*
X135957015Y-82847552D03*
X129869600Y-46730400D03*
X136249994Y-81750000D03*
X124519600Y-48730400D03*
X124192304Y-80895655D03*
X124519600Y-46730400D03*
X124171929Y-81941350D03*
X124530400Y-54030400D03*
X124356250Y-78855314D03*
X124530400Y-52030400D03*
X124217049Y-79845590D03*
X124580400Y-59330400D03*
X124334858Y-76867717D03*
X124580400Y-57330400D03*
X124234774Y-77862708D03*
X124675076Y-64630400D03*
X125122606Y-75066477D03*
X124630400Y-62630400D03*
X124560360Y-75893462D03*
D13*
X135075014Y-83690823D02*
X132265837Y-86500000D01*
X132265837Y-86500000D02*
X128500000Y-86500000D01*
X123174992Y-88325000D02*
X126500000Y-84999992D01*
X120075000Y-88325000D02*
X123174992Y-88325000D01*
X128185000Y-83314992D02*
X126500000Y-84999992D01*
X128185000Y-67885000D02*
X128185000Y-83314992D01*
X134214998Y-91500000D02*
X133960000Y-91500000D01*
X134710000Y-90790000D02*
X134710000Y-91500000D01*
X137025000Y-88475000D02*
X134710000Y-90790000D01*
X140025000Y-88475000D02*
X137025000Y-88475000D01*
X136225001Y-76263790D02*
X135957465Y-76531326D01*
X136225001Y-75475001D02*
X136225001Y-76263790D01*
X129930400Y-69180400D02*
X136225001Y-75475001D01*
X129930400Y-64630400D02*
X129930400Y-69180400D01*
X129205399Y-69498240D02*
X135404961Y-75697802D01*
X129205399Y-63355401D02*
X129205399Y-69498240D01*
X129930400Y-62630400D02*
X129205399Y-63355401D01*
X130030400Y-59330400D02*
X131500000Y-60800000D01*
X137175007Y-77680583D02*
X136366985Y-78488605D01*
X137175007Y-74970651D02*
X137175007Y-77680583D01*
X131500000Y-60800000D02*
X131500000Y-69295644D01*
X131500000Y-69295644D02*
X137175007Y-74970651D01*
X136725001Y-76932466D02*
X136143606Y-77513861D01*
X136725001Y-75225001D02*
X136725001Y-76932466D01*
X130936501Y-69436501D02*
X136725001Y-75225001D01*
X130936501Y-62563499D02*
X130936501Y-69436501D01*
X129305399Y-60932397D02*
X130936501Y-62563499D01*
X129305399Y-57955401D02*
X129305399Y-60932397D01*
X129930400Y-57330400D02*
X129305399Y-57955401D01*
X132750000Y-56710800D02*
X132750000Y-69272821D01*
X132750000Y-69272821D02*
X138075029Y-74597850D01*
X138075029Y-74597850D02*
X138075029Y-78996687D01*
X138075029Y-78996687D02*
X136335351Y-80736365D01*
X130069600Y-54030400D02*
X132750000Y-56710800D01*
X132250000Y-57500000D02*
X132250000Y-69409233D01*
X132250000Y-69409233D02*
X137625018Y-74784251D01*
X130069600Y-52030400D02*
X129344599Y-52755401D01*
X129344599Y-52755401D02*
X129344599Y-54594599D01*
X137625018Y-74784251D02*
X137625018Y-78297362D01*
X137625018Y-78297362D02*
X136336190Y-79586190D01*
X129344599Y-54594599D02*
X132250000Y-57500000D01*
X129980400Y-48730400D02*
X129930400Y-48730400D01*
X134000000Y-52750000D02*
X129980400Y-48730400D01*
X134000000Y-69250000D02*
X134000000Y-52750000D01*
X139000000Y-74250000D02*
X134000000Y-69250000D01*
X136522700Y-82847552D02*
X139000000Y-80370252D01*
X135957015Y-82847552D02*
X136522700Y-82847552D01*
X139000000Y-80370252D02*
X139000000Y-74250000D01*
X136815679Y-81750000D02*
X136249994Y-81750000D01*
X133500000Y-69386410D02*
X138525040Y-74411450D01*
X138525040Y-80040639D02*
X136815679Y-81750000D01*
X138525040Y-74411450D02*
X138525040Y-80040639D01*
X133500000Y-53693899D02*
X133500000Y-69386410D01*
X129205399Y-47394601D02*
X129205399Y-49399298D01*
X129869600Y-46730400D02*
X129205399Y-47394601D01*
X129205399Y-49399298D02*
X133500000Y-53693899D01*
X121700011Y-51549989D02*
X121700011Y-78969047D01*
X124519600Y-48730400D02*
X121700011Y-51549989D01*
X121700011Y-78969047D02*
X123626619Y-80895655D01*
X123626619Y-80895655D02*
X124192304Y-80895655D01*
X121250000Y-79585106D02*
X123606244Y-81941350D01*
X124519600Y-46730400D02*
X121250000Y-50000000D01*
X121250000Y-50000000D02*
X121250000Y-79585106D01*
X123606244Y-81941350D02*
X124171929Y-81941350D01*
X123790565Y-78855314D02*
X124356250Y-78855314D01*
X124530400Y-54030400D02*
X122600033Y-55960767D01*
X122600033Y-55960767D02*
X122600033Y-77664782D01*
X122600033Y-77664782D02*
X123790565Y-78855314D01*
X123651364Y-79845590D02*
X124217049Y-79845590D01*
X122150022Y-78344248D02*
X123651364Y-79845590D01*
X124530400Y-52030400D02*
X122150022Y-54410778D01*
X122150022Y-54410778D02*
X122150022Y-78344248D01*
X124580400Y-59330400D02*
X123500055Y-60410745D01*
X123500055Y-60410745D02*
X123500055Y-76032914D01*
X123500055Y-76032914D02*
X124334858Y-76867717D01*
X123050044Y-76677978D02*
X124234774Y-77862708D01*
X124580400Y-57330400D02*
X123050044Y-58860756D01*
X123050044Y-58860756D02*
X123050044Y-76677978D01*
X125122606Y-75066477D02*
X124500000Y-74443871D01*
X124500000Y-64805476D02*
X124675076Y-64630400D01*
X124500000Y-74443871D02*
X124500000Y-64805476D01*
X123950066Y-63310734D02*
X123950066Y-75283168D01*
X124630400Y-62630400D02*
X123950066Y-63310734D01*
X123950066Y-75283168D02*
X124560360Y-75893462D01*
M02*
