%FSLAX45Y45*%
G04 Gerber Fmt 4.5, Leading zero omitted, Abs format (unit mm)*
G04 Created by KiCad (PCBNEW (5.1.12)-1) date 2021-12-20 11:44:47*
%MOMM*%
%LPD*%
G01*
G04 APERTURE LIST*
%TA.AperFunction,Profile*%
%ADD10C,0.050000*%
%TD*%
%ADD11C,0.200000*%
%ADD12C,0.300000*%
G04 APERTURE END LIST*
D10*
X11450000Y-4150000D02*
X11600000Y-4150000D01*
X11450000Y-9600000D02*
X11450000Y-4150000D01*
X11600000Y-9600000D02*
X11450000Y-9600000D01*
X11750000Y-4150000D02*
X11600000Y-4150000D01*
X11750000Y-9600000D02*
X11600000Y-9600000D01*
X14250000Y-4150000D02*
X14450000Y-4150000D01*
X14450000Y-9600000D02*
X14450000Y-4150000D01*
X14250000Y-9600000D02*
X14450000Y-9600000D01*
X11750000Y-4150000D02*
X14250000Y-4150000D01*
X11750000Y-9600000D02*
X14250000Y-9600000D01*
D11*
X11987500Y-8812500D02*
X12027500Y-8852500D01*
X12027500Y-8812500D02*
X11987500Y-8852500D01*
X12397193Y-8174135D02*
X12437193Y-8214135D01*
X12437193Y-8174135D02*
X12397193Y-8214135D01*
X12399230Y-8069565D02*
X12439230Y-8109565D01*
X12439230Y-8069565D02*
X12399230Y-8109565D01*
X12401705Y-7964559D02*
X12441705Y-8004559D01*
X12441705Y-7964559D02*
X12401705Y-8004559D01*
X12403477Y-7766271D02*
X12443477Y-7806271D01*
X12443477Y-7766271D02*
X12403477Y-7806271D01*
X12413486Y-7666772D02*
X12453486Y-7706772D01*
X12453486Y-7666772D02*
X12413486Y-7706772D01*
X12415625Y-7865531D02*
X12455625Y-7905531D01*
X12455625Y-7865531D02*
X12415625Y-7905531D01*
X12431960Y-4653040D02*
X12471960Y-4693040D01*
X12471960Y-4653040D02*
X12431960Y-4693040D01*
X12431960Y-4853040D02*
X12471960Y-4893040D01*
X12471960Y-4853040D02*
X12431960Y-4893040D01*
X12433040Y-5183040D02*
X12473040Y-5223040D01*
X12473040Y-5183040D02*
X12433040Y-5223040D01*
X12433040Y-5383040D02*
X12473040Y-5423040D01*
X12473040Y-5383040D02*
X12433040Y-5423040D01*
X12436036Y-7569346D02*
X12476036Y-7609346D01*
X12476036Y-7569346D02*
X12436036Y-7609346D01*
X12438040Y-5713040D02*
X12478040Y-5753040D01*
X12478040Y-5713040D02*
X12438040Y-5753040D01*
X12438040Y-5913040D02*
X12478040Y-5953040D01*
X12478040Y-5913040D02*
X12438040Y-5953040D01*
X12443040Y-6243040D02*
X12483040Y-6283040D01*
X12483040Y-6243040D02*
X12443040Y-6283040D01*
X12447508Y-6443040D02*
X12487508Y-6483040D01*
X12487508Y-6443040D02*
X12447508Y-6483040D01*
X12492261Y-7486648D02*
X12532261Y-7526648D01*
X12532261Y-7486648D02*
X12492261Y-7526648D01*
X12630000Y-8479999D02*
X12670000Y-8519999D01*
X12670000Y-8479999D02*
X12630000Y-8519999D01*
X12798500Y-6768500D02*
X12838500Y-6808500D01*
X12838500Y-6768500D02*
X12798500Y-6808500D01*
X12830000Y-8630000D02*
X12870000Y-8670000D01*
X12870000Y-8630000D02*
X12830000Y-8670000D01*
X12966960Y-4653040D02*
X13006960Y-4693040D01*
X13006960Y-4653040D02*
X12966960Y-4693040D01*
X12973040Y-4853040D02*
X13013040Y-4893040D01*
X13013040Y-4853040D02*
X12973040Y-4893040D01*
X12973040Y-5713040D02*
X13013040Y-5753040D01*
X13013040Y-5713040D02*
X12973040Y-5753040D01*
X12973040Y-6243040D02*
X13013040Y-6283040D01*
X13013040Y-6243040D02*
X12973040Y-6283040D01*
X12973040Y-6443040D02*
X13013040Y-6483040D01*
X13013040Y-6443040D02*
X12973040Y-6483040D01*
X12983040Y-5913040D02*
X13023040Y-5953040D01*
X13023040Y-5913040D02*
X12983040Y-5953040D01*
X12986960Y-5183040D02*
X13026960Y-5223040D01*
X13026960Y-5183040D02*
X12986960Y-5223040D01*
X12986960Y-5383040D02*
X13026960Y-5423040D01*
X13026960Y-5383040D02*
X12986960Y-5423040D01*
X13487501Y-8349082D02*
X13527501Y-8389082D01*
X13527501Y-8349082D02*
X13487501Y-8389082D01*
X13520496Y-7549780D02*
X13560496Y-7589780D01*
X13560496Y-7549780D02*
X13520496Y-7589780D01*
X13575701Y-8264755D02*
X13615701Y-8304755D01*
X13615701Y-8264755D02*
X13575701Y-8304755D01*
X13575746Y-7633133D02*
X13615746Y-7673133D01*
X13615746Y-7633133D02*
X13575746Y-7673133D01*
X13594361Y-7731386D02*
X13634361Y-7771386D01*
X13634361Y-7731386D02*
X13594361Y-7771386D01*
X13604999Y-8155000D02*
X13644999Y-8195000D01*
X13644999Y-8155000D02*
X13604999Y-8195000D01*
X13613535Y-8053636D02*
X13653535Y-8093636D01*
X13653535Y-8053636D02*
X13613535Y-8093636D01*
X13613619Y-7938619D02*
X13653619Y-7978619D01*
X13653619Y-7938619D02*
X13613619Y-7978619D01*
X13616698Y-7828860D02*
X13656698Y-7868860D01*
X13656698Y-7828860D02*
X13616698Y-7868860D01*
X13982500Y-8827500D02*
X14022500Y-8867500D01*
X14022500Y-8827500D02*
X13982500Y-8867500D01*
X12505000Y-9150000D02*
G75*
G03*
X12505000Y-9150000I-50000J0D01*
G01*
X12759000Y-9150000D02*
G75*
G03*
X12759000Y-9150000I-50000J0D01*
G01*
X13013000Y-9150000D02*
G75*
G03*
X13013000Y-9150000I-50000J0D01*
G01*
X13267000Y-9150000D02*
G75*
G03*
X13267000Y-9150000I-50000J0D01*
G01*
X13521000Y-9150000D02*
G75*
G03*
X13521000Y-9150000I-50000J0D01*
G01*
X13775000Y-9150000D02*
G75*
G03*
X13775000Y-9150000I-50000J0D01*
G01*
D12*
X11733928Y-10068214D02*
X11733928Y-9768214D01*
X11805357Y-9768214D01*
X11848214Y-9782500D01*
X11876786Y-9811072D01*
X11891071Y-9839643D01*
X11905357Y-9896786D01*
X11905357Y-9939643D01*
X11891071Y-9996786D01*
X11876786Y-10025357D01*
X11848214Y-10053929D01*
X11805357Y-10068214D01*
X11733928Y-10068214D01*
X12033928Y-10068214D02*
X12033928Y-9868214D01*
X12033928Y-9925357D02*
X12048214Y-9896786D01*
X12062500Y-9882500D01*
X12091071Y-9868214D01*
X12119643Y-9868214D01*
X12219643Y-10068214D02*
X12219643Y-9868214D01*
X12219643Y-9768214D02*
X12205357Y-9782500D01*
X12219643Y-9796786D01*
X12233928Y-9782500D01*
X12219643Y-9768214D01*
X12219643Y-9796786D01*
X12405357Y-10068214D02*
X12376786Y-10053929D01*
X12362500Y-10025357D01*
X12362500Y-9768214D01*
X12562500Y-10068214D02*
X12533928Y-10053929D01*
X12519643Y-10025357D01*
X12519643Y-9768214D01*
X12905357Y-10068214D02*
X12905357Y-9768214D01*
X13005357Y-9982500D01*
X13105357Y-9768214D01*
X13105357Y-10068214D01*
X13376786Y-10068214D02*
X13376786Y-9911072D01*
X13362500Y-9882500D01*
X13333928Y-9868214D01*
X13276786Y-9868214D01*
X13248214Y-9882500D01*
X13376786Y-10053929D02*
X13348214Y-10068214D01*
X13276786Y-10068214D01*
X13248214Y-10053929D01*
X13233928Y-10025357D01*
X13233928Y-9996786D01*
X13248214Y-9968214D01*
X13276786Y-9953929D01*
X13348214Y-9953929D01*
X13376786Y-9939643D01*
X13519643Y-9868214D02*
X13519643Y-10168214D01*
X13519643Y-9882500D02*
X13548214Y-9868214D01*
X13605357Y-9868214D01*
X13633928Y-9882500D01*
X13648214Y-9896786D01*
X13662500Y-9925357D01*
X13662500Y-10011072D01*
X13648214Y-10039643D01*
X13633928Y-10053929D01*
X13605357Y-10068214D01*
X13548214Y-10068214D01*
X13519643Y-10053929D01*
X13791071Y-10039643D02*
X13805357Y-10053929D01*
X13791071Y-10068214D01*
X13776786Y-10053929D01*
X13791071Y-10039643D01*
X13791071Y-10068214D01*
X13791071Y-9882500D02*
X13805357Y-9896786D01*
X13791071Y-9911072D01*
X13776786Y-9896786D01*
X13791071Y-9882500D01*
X13791071Y-9911072D01*
X11407500Y-10542500D02*
X11447500Y-10582500D01*
X11447500Y-10542500D02*
X11407500Y-10582500D01*
X11791071Y-10398214D02*
X11819643Y-10398214D01*
X11848214Y-10412500D01*
X11862500Y-10426786D01*
X11876786Y-10455357D01*
X11891071Y-10512500D01*
X11891071Y-10583929D01*
X11876786Y-10641072D01*
X11862500Y-10669643D01*
X11848214Y-10683929D01*
X11819643Y-10698214D01*
X11791071Y-10698214D01*
X11762500Y-10683929D01*
X11748214Y-10669643D01*
X11733928Y-10641072D01*
X11719643Y-10583929D01*
X11719643Y-10512500D01*
X11733928Y-10455357D01*
X11748214Y-10426786D01*
X11762500Y-10412500D01*
X11791071Y-10398214D01*
X12019643Y-10669643D02*
X12033928Y-10683929D01*
X12019643Y-10698214D01*
X12005357Y-10683929D01*
X12019643Y-10669643D01*
X12019643Y-10698214D01*
X12291071Y-10498214D02*
X12291071Y-10698214D01*
X12219643Y-10383929D02*
X12148214Y-10598214D01*
X12333928Y-10598214D01*
X12505357Y-10398214D02*
X12533928Y-10398214D01*
X12562500Y-10412500D01*
X12576786Y-10426786D01*
X12591071Y-10455357D01*
X12605357Y-10512500D01*
X12605357Y-10583929D01*
X12591071Y-10641072D01*
X12576786Y-10669643D01*
X12562500Y-10683929D01*
X12533928Y-10698214D01*
X12505357Y-10698214D01*
X12476786Y-10683929D01*
X12462500Y-10669643D01*
X12448214Y-10641072D01*
X12433928Y-10583929D01*
X12433928Y-10512500D01*
X12448214Y-10455357D01*
X12462500Y-10426786D01*
X12476786Y-10412500D01*
X12505357Y-10398214D01*
X12791071Y-10398214D02*
X12819643Y-10398214D01*
X12848214Y-10412500D01*
X12862500Y-10426786D01*
X12876786Y-10455357D01*
X12891071Y-10512500D01*
X12891071Y-10583929D01*
X12876786Y-10641072D01*
X12862500Y-10669643D01*
X12848214Y-10683929D01*
X12819643Y-10698214D01*
X12791071Y-10698214D01*
X12762500Y-10683929D01*
X12748214Y-10669643D01*
X12733928Y-10641072D01*
X12719643Y-10583929D01*
X12719643Y-10512500D01*
X12733928Y-10455357D01*
X12748214Y-10426786D01*
X12762500Y-10412500D01*
X12791071Y-10398214D01*
X13019643Y-10698214D02*
X13019643Y-10498214D01*
X13019643Y-10526786D02*
X13033928Y-10512500D01*
X13062500Y-10498214D01*
X13105357Y-10498214D01*
X13133928Y-10512500D01*
X13148214Y-10541072D01*
X13148214Y-10698214D01*
X13148214Y-10541072D02*
X13162500Y-10512500D01*
X13191071Y-10498214D01*
X13233928Y-10498214D01*
X13262500Y-10512500D01*
X13276786Y-10541072D01*
X13276786Y-10698214D01*
X13419643Y-10698214D02*
X13419643Y-10498214D01*
X13419643Y-10526786D02*
X13433928Y-10512500D01*
X13462500Y-10498214D01*
X13505357Y-10498214D01*
X13533928Y-10512500D01*
X13548214Y-10541072D01*
X13548214Y-10698214D01*
X13548214Y-10541072D02*
X13562500Y-10512500D01*
X13591071Y-10498214D01*
X13633928Y-10498214D01*
X13662500Y-10512500D01*
X13676786Y-10541072D01*
X13676786Y-10698214D01*
X14262500Y-10383929D02*
X14005357Y-10769643D01*
X14648214Y-10398214D02*
X14676786Y-10398214D01*
X14705357Y-10412500D01*
X14719643Y-10426786D01*
X14733928Y-10455357D01*
X14748214Y-10512500D01*
X14748214Y-10583929D01*
X14733928Y-10641072D01*
X14719643Y-10669643D01*
X14705357Y-10683929D01*
X14676786Y-10698214D01*
X14648214Y-10698214D01*
X14619643Y-10683929D01*
X14605357Y-10669643D01*
X14591071Y-10641072D01*
X14576786Y-10583929D01*
X14576786Y-10512500D01*
X14591071Y-10455357D01*
X14605357Y-10426786D01*
X14619643Y-10412500D01*
X14648214Y-10398214D01*
X14876786Y-10669643D02*
X14891071Y-10683929D01*
X14876786Y-10698214D01*
X14862500Y-10683929D01*
X14876786Y-10669643D01*
X14876786Y-10698214D01*
X15076786Y-10398214D02*
X15105357Y-10398214D01*
X15133928Y-10412500D01*
X15148214Y-10426786D01*
X15162500Y-10455357D01*
X15176786Y-10512500D01*
X15176786Y-10583929D01*
X15162500Y-10641072D01*
X15148214Y-10669643D01*
X15133928Y-10683929D01*
X15105357Y-10698214D01*
X15076786Y-10698214D01*
X15048214Y-10683929D01*
X15033928Y-10669643D01*
X15019643Y-10641072D01*
X15005357Y-10583929D01*
X15005357Y-10512500D01*
X15019643Y-10455357D01*
X15033928Y-10426786D01*
X15048214Y-10412500D01*
X15076786Y-10398214D01*
X15462500Y-10698214D02*
X15291071Y-10698214D01*
X15376786Y-10698214D02*
X15376786Y-10398214D01*
X15348214Y-10441072D01*
X15319643Y-10469643D01*
X15291071Y-10483929D01*
X15733928Y-10398214D02*
X15591071Y-10398214D01*
X15576786Y-10541072D01*
X15591071Y-10526786D01*
X15619643Y-10512500D01*
X15691071Y-10512500D01*
X15719643Y-10526786D01*
X15733928Y-10541072D01*
X15748214Y-10569643D01*
X15748214Y-10641072D01*
X15733928Y-10669643D01*
X15719643Y-10683929D01*
X15691071Y-10698214D01*
X15619643Y-10698214D01*
X15591071Y-10683929D01*
X15576786Y-10669643D01*
X15848214Y-10398214D02*
X16048214Y-10398214D01*
X15919643Y-10698214D01*
X16148214Y-10398214D02*
X16148214Y-10455357D01*
X16262500Y-10398214D02*
X16262500Y-10455357D01*
X16705357Y-10812500D02*
X16691071Y-10798214D01*
X16662500Y-10755357D01*
X16648214Y-10726786D01*
X16633928Y-10683929D01*
X16619643Y-10612500D01*
X16619643Y-10555357D01*
X16633928Y-10483929D01*
X16648214Y-10441072D01*
X16662500Y-10412500D01*
X16691071Y-10369643D01*
X16705357Y-10355357D01*
X16791071Y-10398214D02*
X16976786Y-10398214D01*
X16876786Y-10512500D01*
X16919643Y-10512500D01*
X16948214Y-10526786D01*
X16962500Y-10541072D01*
X16976786Y-10569643D01*
X16976786Y-10641072D01*
X16962500Y-10669643D01*
X16948214Y-10683929D01*
X16919643Y-10698214D01*
X16833928Y-10698214D01*
X16805357Y-10683929D01*
X16791071Y-10669643D01*
X17148214Y-10526786D02*
X17119643Y-10512500D01*
X17105357Y-10498214D01*
X17091071Y-10469643D01*
X17091071Y-10455357D01*
X17105357Y-10426786D01*
X17119643Y-10412500D01*
X17148214Y-10398214D01*
X17205357Y-10398214D01*
X17233928Y-10412500D01*
X17248214Y-10426786D01*
X17262500Y-10455357D01*
X17262500Y-10469643D01*
X17248214Y-10498214D01*
X17233928Y-10512500D01*
X17205357Y-10526786D01*
X17148214Y-10526786D01*
X17119643Y-10541072D01*
X17105357Y-10555357D01*
X17091071Y-10583929D01*
X17091071Y-10641072D01*
X17105357Y-10669643D01*
X17119643Y-10683929D01*
X17148214Y-10698214D01*
X17205357Y-10698214D01*
X17233928Y-10683929D01*
X17248214Y-10669643D01*
X17262500Y-10641072D01*
X17262500Y-10583929D01*
X17248214Y-10555357D01*
X17233928Y-10541072D01*
X17205357Y-10526786D01*
X17619643Y-10698214D02*
X17619643Y-10398214D01*
X17748214Y-10698214D02*
X17748214Y-10541072D01*
X17733928Y-10512500D01*
X17705357Y-10498214D01*
X17662500Y-10498214D01*
X17633928Y-10512500D01*
X17619643Y-10526786D01*
X17933928Y-10698214D02*
X17905357Y-10683929D01*
X17891071Y-10669643D01*
X17876786Y-10641072D01*
X17876786Y-10555357D01*
X17891071Y-10526786D01*
X17905357Y-10512500D01*
X17933928Y-10498214D01*
X17976786Y-10498214D01*
X18005357Y-10512500D01*
X18019643Y-10526786D01*
X18033928Y-10555357D01*
X18033928Y-10641072D01*
X18019643Y-10669643D01*
X18005357Y-10683929D01*
X17976786Y-10698214D01*
X17933928Y-10698214D01*
X18205357Y-10698214D02*
X18176786Y-10683929D01*
X18162500Y-10655357D01*
X18162500Y-10398214D01*
X18433928Y-10683929D02*
X18405357Y-10698214D01*
X18348214Y-10698214D01*
X18319643Y-10683929D01*
X18305357Y-10655357D01*
X18305357Y-10541072D01*
X18319643Y-10512500D01*
X18348214Y-10498214D01*
X18405357Y-10498214D01*
X18433928Y-10512500D01*
X18448214Y-10541072D01*
X18448214Y-10569643D01*
X18305357Y-10598214D01*
X18562500Y-10683929D02*
X18591071Y-10698214D01*
X18648214Y-10698214D01*
X18676786Y-10683929D01*
X18691071Y-10655357D01*
X18691071Y-10641072D01*
X18676786Y-10612500D01*
X18648214Y-10598214D01*
X18605357Y-10598214D01*
X18576786Y-10583929D01*
X18562500Y-10555357D01*
X18562500Y-10541072D01*
X18576786Y-10512500D01*
X18605357Y-10498214D01*
X18648214Y-10498214D01*
X18676786Y-10512500D01*
X18791071Y-10812500D02*
X18805357Y-10798214D01*
X18833928Y-10755357D01*
X18848214Y-10726786D01*
X18862500Y-10683929D01*
X18876786Y-10612500D01*
X18876786Y-10555357D01*
X18862500Y-10483929D01*
X18848214Y-10441072D01*
X18833928Y-10412500D01*
X18805357Y-10369643D01*
X18791071Y-10355357D01*
X11447500Y-10958500D02*
G75*
G03*
X11447500Y-10958500I-50000J0D01*
G01*
X11891071Y-11094214D02*
X11719643Y-11094214D01*
X11805357Y-11094214D02*
X11805357Y-10794214D01*
X11776786Y-10837072D01*
X11748214Y-10865643D01*
X11719643Y-10879929D01*
X12019643Y-11065643D02*
X12033928Y-11079929D01*
X12019643Y-11094214D01*
X12005357Y-11079929D01*
X12019643Y-11065643D01*
X12019643Y-11094214D01*
X12219643Y-10794214D02*
X12248214Y-10794214D01*
X12276786Y-10808500D01*
X12291071Y-10822786D01*
X12305357Y-10851357D01*
X12319643Y-10908500D01*
X12319643Y-10979929D01*
X12305357Y-11037072D01*
X12291071Y-11065643D01*
X12276786Y-11079929D01*
X12248214Y-11094214D01*
X12219643Y-11094214D01*
X12191071Y-11079929D01*
X12176786Y-11065643D01*
X12162500Y-11037072D01*
X12148214Y-10979929D01*
X12148214Y-10908500D01*
X12162500Y-10851357D01*
X12176786Y-10822786D01*
X12191071Y-10808500D01*
X12219643Y-10794214D01*
X12505357Y-10794214D02*
X12533928Y-10794214D01*
X12562500Y-10808500D01*
X12576786Y-10822786D01*
X12591071Y-10851357D01*
X12605357Y-10908500D01*
X12605357Y-10979929D01*
X12591071Y-11037072D01*
X12576786Y-11065643D01*
X12562500Y-11079929D01*
X12533928Y-11094214D01*
X12505357Y-11094214D01*
X12476786Y-11079929D01*
X12462500Y-11065643D01*
X12448214Y-11037072D01*
X12433928Y-10979929D01*
X12433928Y-10908500D01*
X12448214Y-10851357D01*
X12462500Y-10822786D01*
X12476786Y-10808500D01*
X12505357Y-10794214D01*
X12791071Y-10794214D02*
X12819643Y-10794214D01*
X12848214Y-10808500D01*
X12862500Y-10822786D01*
X12876786Y-10851357D01*
X12891071Y-10908500D01*
X12891071Y-10979929D01*
X12876786Y-11037072D01*
X12862500Y-11065643D01*
X12848214Y-11079929D01*
X12819643Y-11094214D01*
X12791071Y-11094214D01*
X12762500Y-11079929D01*
X12748214Y-11065643D01*
X12733928Y-11037072D01*
X12719643Y-10979929D01*
X12719643Y-10908500D01*
X12733928Y-10851357D01*
X12748214Y-10822786D01*
X12762500Y-10808500D01*
X12791071Y-10794214D01*
X13019643Y-11094214D02*
X13019643Y-10894214D01*
X13019643Y-10922786D02*
X13033928Y-10908500D01*
X13062500Y-10894214D01*
X13105357Y-10894214D01*
X13133928Y-10908500D01*
X13148214Y-10937072D01*
X13148214Y-11094214D01*
X13148214Y-10937072D02*
X13162500Y-10908500D01*
X13191071Y-10894214D01*
X13233928Y-10894214D01*
X13262500Y-10908500D01*
X13276786Y-10937072D01*
X13276786Y-11094214D01*
X13419643Y-11094214D02*
X13419643Y-10894214D01*
X13419643Y-10922786D02*
X13433928Y-10908500D01*
X13462500Y-10894214D01*
X13505357Y-10894214D01*
X13533928Y-10908500D01*
X13548214Y-10937072D01*
X13548214Y-11094214D01*
X13548214Y-10937072D02*
X13562500Y-10908500D01*
X13591071Y-10894214D01*
X13633928Y-10894214D01*
X13662500Y-10908500D01*
X13676786Y-10937072D01*
X13676786Y-11094214D01*
X14262500Y-10779929D02*
X14005357Y-11165643D01*
X14648214Y-10794214D02*
X14676786Y-10794214D01*
X14705357Y-10808500D01*
X14719643Y-10822786D01*
X14733928Y-10851357D01*
X14748214Y-10908500D01*
X14748214Y-10979929D01*
X14733928Y-11037072D01*
X14719643Y-11065643D01*
X14705357Y-11079929D01*
X14676786Y-11094214D01*
X14648214Y-11094214D01*
X14619643Y-11079929D01*
X14605357Y-11065643D01*
X14591071Y-11037072D01*
X14576786Y-10979929D01*
X14576786Y-10908500D01*
X14591071Y-10851357D01*
X14605357Y-10822786D01*
X14619643Y-10808500D01*
X14648214Y-10794214D01*
X14876786Y-11065643D02*
X14891071Y-11079929D01*
X14876786Y-11094214D01*
X14862500Y-11079929D01*
X14876786Y-11065643D01*
X14876786Y-11094214D01*
X15076786Y-10794214D02*
X15105357Y-10794214D01*
X15133928Y-10808500D01*
X15148214Y-10822786D01*
X15162500Y-10851357D01*
X15176786Y-10908500D01*
X15176786Y-10979929D01*
X15162500Y-11037072D01*
X15148214Y-11065643D01*
X15133928Y-11079929D01*
X15105357Y-11094214D01*
X15076786Y-11094214D01*
X15048214Y-11079929D01*
X15033928Y-11065643D01*
X15019643Y-11037072D01*
X15005357Y-10979929D01*
X15005357Y-10908500D01*
X15019643Y-10851357D01*
X15033928Y-10822786D01*
X15048214Y-10808500D01*
X15076786Y-10794214D01*
X15276786Y-10794214D02*
X15462500Y-10794214D01*
X15362500Y-10908500D01*
X15405357Y-10908500D01*
X15433928Y-10922786D01*
X15448214Y-10937072D01*
X15462500Y-10965643D01*
X15462500Y-11037072D01*
X15448214Y-11065643D01*
X15433928Y-11079929D01*
X15405357Y-11094214D01*
X15319643Y-11094214D01*
X15291071Y-11079929D01*
X15276786Y-11065643D01*
X15605357Y-11094214D02*
X15662500Y-11094214D01*
X15691071Y-11079929D01*
X15705357Y-11065643D01*
X15733928Y-11022786D01*
X15748214Y-10965643D01*
X15748214Y-10851357D01*
X15733928Y-10822786D01*
X15719643Y-10808500D01*
X15691071Y-10794214D01*
X15633928Y-10794214D01*
X15605357Y-10808500D01*
X15591071Y-10822786D01*
X15576786Y-10851357D01*
X15576786Y-10922786D01*
X15591071Y-10951357D01*
X15605357Y-10965643D01*
X15633928Y-10979929D01*
X15691071Y-10979929D01*
X15719643Y-10965643D01*
X15733928Y-10951357D01*
X15748214Y-10922786D01*
X16005357Y-10894214D02*
X16005357Y-11094214D01*
X15933928Y-10779929D02*
X15862500Y-10994214D01*
X16048214Y-10994214D01*
X16148214Y-10794214D02*
X16148214Y-10851357D01*
X16262500Y-10794214D02*
X16262500Y-10851357D01*
X16705357Y-11208500D02*
X16691071Y-11194214D01*
X16662500Y-11151357D01*
X16648214Y-11122786D01*
X16633928Y-11079929D01*
X16619643Y-11008500D01*
X16619643Y-10951357D01*
X16633928Y-10879929D01*
X16648214Y-10837072D01*
X16662500Y-10808500D01*
X16691071Y-10765643D01*
X16705357Y-10751357D01*
X16948214Y-10794214D02*
X16891071Y-10794214D01*
X16862500Y-10808500D01*
X16848214Y-10822786D01*
X16819643Y-10865643D01*
X16805357Y-10922786D01*
X16805357Y-11037072D01*
X16819643Y-11065643D01*
X16833928Y-11079929D01*
X16862500Y-11094214D01*
X16919643Y-11094214D01*
X16948214Y-11079929D01*
X16962500Y-11065643D01*
X16976786Y-11037072D01*
X16976786Y-10965643D01*
X16962500Y-10937072D01*
X16948214Y-10922786D01*
X16919643Y-10908500D01*
X16862500Y-10908500D01*
X16833928Y-10922786D01*
X16819643Y-10937072D01*
X16805357Y-10965643D01*
X17333928Y-11094214D02*
X17333928Y-10794214D01*
X17462500Y-11094214D02*
X17462500Y-10937072D01*
X17448214Y-10908500D01*
X17419643Y-10894214D01*
X17376786Y-10894214D01*
X17348214Y-10908500D01*
X17333928Y-10922786D01*
X17648214Y-11094214D02*
X17619643Y-11079929D01*
X17605357Y-11065643D01*
X17591071Y-11037072D01*
X17591071Y-10951357D01*
X17605357Y-10922786D01*
X17619643Y-10908500D01*
X17648214Y-10894214D01*
X17691071Y-10894214D01*
X17719643Y-10908500D01*
X17733928Y-10922786D01*
X17748214Y-10951357D01*
X17748214Y-11037072D01*
X17733928Y-11065643D01*
X17719643Y-11079929D01*
X17691071Y-11094214D01*
X17648214Y-11094214D01*
X17919643Y-11094214D02*
X17891071Y-11079929D01*
X17876786Y-11051357D01*
X17876786Y-10794214D01*
X18148214Y-11079929D02*
X18119643Y-11094214D01*
X18062500Y-11094214D01*
X18033928Y-11079929D01*
X18019643Y-11051357D01*
X18019643Y-10937072D01*
X18033928Y-10908500D01*
X18062500Y-10894214D01*
X18119643Y-10894214D01*
X18148214Y-10908500D01*
X18162500Y-10937072D01*
X18162500Y-10965643D01*
X18019643Y-10994214D01*
X18276786Y-11079929D02*
X18305357Y-11094214D01*
X18362500Y-11094214D01*
X18391071Y-11079929D01*
X18405357Y-11051357D01*
X18405357Y-11037072D01*
X18391071Y-11008500D01*
X18362500Y-10994214D01*
X18319643Y-10994214D01*
X18291071Y-10979929D01*
X18276786Y-10951357D01*
X18276786Y-10937072D01*
X18291071Y-10908500D01*
X18319643Y-10894214D01*
X18362500Y-10894214D01*
X18391071Y-10908500D01*
X18505357Y-11208500D02*
X18519643Y-11194214D01*
X18548214Y-11151357D01*
X18562500Y-11122786D01*
X18576786Y-11079929D01*
X18591071Y-11008500D01*
X18591071Y-10951357D01*
X18576786Y-10879929D01*
X18562500Y-10837072D01*
X18548214Y-10808500D01*
X18519643Y-10765643D01*
X18505357Y-10751357D01*
M02*
