%FSLAX45Y45*%
G04 Gerber Fmt 4.5, Leading zero omitted, Abs format (unit mm)*
G04 Created by KiCad (PCBNEW (5.1.12)-1) date 2021-12-20 11:44:47*
%MOMM*%
%LPD*%
G01*
G04 APERTURE LIST*
%TA.AperFunction,Profile*%
%ADD10C,0.050000*%
%TD*%
%ADD11C,0.200000*%
%ADD12C,0.300000*%
G04 APERTURE END LIST*
D10*
X11450000Y-4150000D02*
X11600000Y-4150000D01*
X11450000Y-9600000D02*
X11450000Y-4150000D01*
X11600000Y-9600000D02*
X11450000Y-9600000D01*
X11750000Y-4150000D02*
X11600000Y-4150000D01*
X11750000Y-9600000D02*
X11600000Y-9600000D01*
X14250000Y-4150000D02*
X14450000Y-4150000D01*
X14450000Y-9600000D02*
X14450000Y-4150000D01*
X14250000Y-9600000D02*
X14450000Y-9600000D01*
X11750000Y-4150000D02*
X14250000Y-4150000D01*
X11750000Y-9600000D02*
X14250000Y-9600000D01*
D11*
X11645000Y-4345000D02*
X11855000Y-4555000D01*
X11855000Y-4345000D02*
X11645000Y-4555000D01*
X11645000Y-9195000D02*
X11855000Y-9405000D01*
X11855000Y-9195000D02*
X11645000Y-9405000D01*
X14045000Y-4345000D02*
X14255000Y-4555000D01*
X14255000Y-4345000D02*
X14045000Y-4555000D01*
X14045000Y-9195000D02*
X14255000Y-9405000D01*
X14255000Y-9195000D02*
X14045000Y-9405000D01*
D12*
X11733928Y-10068214D02*
X11733928Y-9768214D01*
X11805357Y-9768214D01*
X11848214Y-9782500D01*
X11876786Y-9811072D01*
X11891071Y-9839643D01*
X11905357Y-9896786D01*
X11905357Y-9939643D01*
X11891071Y-9996786D01*
X11876786Y-10025357D01*
X11848214Y-10053929D01*
X11805357Y-10068214D01*
X11733928Y-10068214D01*
X12033928Y-10068214D02*
X12033928Y-9868214D01*
X12033928Y-9925357D02*
X12048214Y-9896786D01*
X12062500Y-9882500D01*
X12091071Y-9868214D01*
X12119643Y-9868214D01*
X12219643Y-10068214D02*
X12219643Y-9868214D01*
X12219643Y-9768214D02*
X12205357Y-9782500D01*
X12219643Y-9796786D01*
X12233928Y-9782500D01*
X12219643Y-9768214D01*
X12219643Y-9796786D01*
X12405357Y-10068214D02*
X12376786Y-10053929D01*
X12362500Y-10025357D01*
X12362500Y-9768214D01*
X12562500Y-10068214D02*
X12533928Y-10053929D01*
X12519643Y-10025357D01*
X12519643Y-9768214D01*
X12905357Y-10068214D02*
X12905357Y-9768214D01*
X13005357Y-9982500D01*
X13105357Y-9768214D01*
X13105357Y-10068214D01*
X13376786Y-10068214D02*
X13376786Y-9911072D01*
X13362500Y-9882500D01*
X13333928Y-9868214D01*
X13276786Y-9868214D01*
X13248214Y-9882500D01*
X13376786Y-10053929D02*
X13348214Y-10068214D01*
X13276786Y-10068214D01*
X13248214Y-10053929D01*
X13233928Y-10025357D01*
X13233928Y-9996786D01*
X13248214Y-9968214D01*
X13276786Y-9953929D01*
X13348214Y-9953929D01*
X13376786Y-9939643D01*
X13519643Y-9868214D02*
X13519643Y-10168214D01*
X13519643Y-9882500D02*
X13548214Y-9868214D01*
X13605357Y-9868214D01*
X13633928Y-9882500D01*
X13648214Y-9896786D01*
X13662500Y-9925357D01*
X13662500Y-10011072D01*
X13648214Y-10039643D01*
X13633928Y-10053929D01*
X13605357Y-10068214D01*
X13548214Y-10068214D01*
X13519643Y-10053929D01*
X13791071Y-10039643D02*
X13805357Y-10053929D01*
X13791071Y-10068214D01*
X13776786Y-10053929D01*
X13791071Y-10039643D01*
X13791071Y-10068214D01*
X13791071Y-9882500D02*
X13805357Y-9896786D01*
X13791071Y-9911072D01*
X13776786Y-9896786D01*
X13791071Y-9882500D01*
X13791071Y-9911072D01*
X11237500Y-10457500D02*
X11447500Y-10667500D01*
X11447500Y-10457500D02*
X11237500Y-10667500D01*
X11719643Y-10426786D02*
X11733928Y-10412500D01*
X11762500Y-10398214D01*
X11833928Y-10398214D01*
X11862500Y-10412500D01*
X11876786Y-10426786D01*
X11891071Y-10455357D01*
X11891071Y-10483929D01*
X11876786Y-10526786D01*
X11705357Y-10698214D01*
X11891071Y-10698214D01*
X12019643Y-10669643D02*
X12033928Y-10683929D01*
X12019643Y-10698214D01*
X12005357Y-10683929D01*
X12019643Y-10669643D01*
X12019643Y-10698214D01*
X12319643Y-10698214D02*
X12148214Y-10698214D01*
X12233928Y-10698214D02*
X12233928Y-10398214D01*
X12205357Y-10441072D01*
X12176786Y-10469643D01*
X12148214Y-10483929D01*
X12505357Y-10398214D02*
X12533928Y-10398214D01*
X12562500Y-10412500D01*
X12576786Y-10426786D01*
X12591071Y-10455357D01*
X12605357Y-10512500D01*
X12605357Y-10583929D01*
X12591071Y-10641072D01*
X12576786Y-10669643D01*
X12562500Y-10683929D01*
X12533928Y-10698214D01*
X12505357Y-10698214D01*
X12476786Y-10683929D01*
X12462500Y-10669643D01*
X12448214Y-10641072D01*
X12433928Y-10583929D01*
X12433928Y-10512500D01*
X12448214Y-10455357D01*
X12462500Y-10426786D01*
X12476786Y-10412500D01*
X12505357Y-10398214D01*
X12791071Y-10398214D02*
X12819643Y-10398214D01*
X12848214Y-10412500D01*
X12862500Y-10426786D01*
X12876786Y-10455357D01*
X12891071Y-10512500D01*
X12891071Y-10583929D01*
X12876786Y-10641072D01*
X12862500Y-10669643D01*
X12848214Y-10683929D01*
X12819643Y-10698214D01*
X12791071Y-10698214D01*
X12762500Y-10683929D01*
X12748214Y-10669643D01*
X12733928Y-10641072D01*
X12719643Y-10583929D01*
X12719643Y-10512500D01*
X12733928Y-10455357D01*
X12748214Y-10426786D01*
X12762500Y-10412500D01*
X12791071Y-10398214D01*
X13019643Y-10698214D02*
X13019643Y-10498214D01*
X13019643Y-10526786D02*
X13033928Y-10512500D01*
X13062500Y-10498214D01*
X13105357Y-10498214D01*
X13133928Y-10512500D01*
X13148214Y-10541072D01*
X13148214Y-10698214D01*
X13148214Y-10541072D02*
X13162500Y-10512500D01*
X13191071Y-10498214D01*
X13233928Y-10498214D01*
X13262500Y-10512500D01*
X13276786Y-10541072D01*
X13276786Y-10698214D01*
X13419643Y-10698214D02*
X13419643Y-10498214D01*
X13419643Y-10526786D02*
X13433928Y-10512500D01*
X13462500Y-10498214D01*
X13505357Y-10498214D01*
X13533928Y-10512500D01*
X13548214Y-10541072D01*
X13548214Y-10698214D01*
X13548214Y-10541072D02*
X13562500Y-10512500D01*
X13591071Y-10498214D01*
X13633928Y-10498214D01*
X13662500Y-10512500D01*
X13676786Y-10541072D01*
X13676786Y-10698214D01*
X14262500Y-10383929D02*
X14005357Y-10769643D01*
X14648214Y-10398214D02*
X14676786Y-10398214D01*
X14705357Y-10412500D01*
X14719643Y-10426786D01*
X14733928Y-10455357D01*
X14748214Y-10512500D01*
X14748214Y-10583929D01*
X14733928Y-10641072D01*
X14719643Y-10669643D01*
X14705357Y-10683929D01*
X14676786Y-10698214D01*
X14648214Y-10698214D01*
X14619643Y-10683929D01*
X14605357Y-10669643D01*
X14591071Y-10641072D01*
X14576786Y-10583929D01*
X14576786Y-10512500D01*
X14591071Y-10455357D01*
X14605357Y-10426786D01*
X14619643Y-10412500D01*
X14648214Y-10398214D01*
X14876786Y-10669643D02*
X14891071Y-10683929D01*
X14876786Y-10698214D01*
X14862500Y-10683929D01*
X14876786Y-10669643D01*
X14876786Y-10698214D01*
X15076786Y-10398214D02*
X15105357Y-10398214D01*
X15133928Y-10412500D01*
X15148214Y-10426786D01*
X15162500Y-10455357D01*
X15176786Y-10512500D01*
X15176786Y-10583929D01*
X15162500Y-10641072D01*
X15148214Y-10669643D01*
X15133928Y-10683929D01*
X15105357Y-10698214D01*
X15076786Y-10698214D01*
X15048214Y-10683929D01*
X15033928Y-10669643D01*
X15019643Y-10641072D01*
X15005357Y-10583929D01*
X15005357Y-10512500D01*
X15019643Y-10455357D01*
X15033928Y-10426786D01*
X15048214Y-10412500D01*
X15076786Y-10398214D01*
X15348214Y-10526786D02*
X15319643Y-10512500D01*
X15305357Y-10498214D01*
X15291071Y-10469643D01*
X15291071Y-10455357D01*
X15305357Y-10426786D01*
X15319643Y-10412500D01*
X15348214Y-10398214D01*
X15405357Y-10398214D01*
X15433928Y-10412500D01*
X15448214Y-10426786D01*
X15462500Y-10455357D01*
X15462500Y-10469643D01*
X15448214Y-10498214D01*
X15433928Y-10512500D01*
X15405357Y-10526786D01*
X15348214Y-10526786D01*
X15319643Y-10541072D01*
X15305357Y-10555357D01*
X15291071Y-10583929D01*
X15291071Y-10641072D01*
X15305357Y-10669643D01*
X15319643Y-10683929D01*
X15348214Y-10698214D01*
X15405357Y-10698214D01*
X15433928Y-10683929D01*
X15448214Y-10669643D01*
X15462500Y-10641072D01*
X15462500Y-10583929D01*
X15448214Y-10555357D01*
X15433928Y-10541072D01*
X15405357Y-10526786D01*
X15576786Y-10426786D02*
X15591071Y-10412500D01*
X15619643Y-10398214D01*
X15691071Y-10398214D01*
X15719643Y-10412500D01*
X15733928Y-10426786D01*
X15748214Y-10455357D01*
X15748214Y-10483929D01*
X15733928Y-10526786D01*
X15562500Y-10698214D01*
X15748214Y-10698214D01*
X15848214Y-10398214D02*
X16048214Y-10398214D01*
X15919643Y-10698214D01*
X16148214Y-10398214D02*
X16148214Y-10455357D01*
X16262500Y-10398214D02*
X16262500Y-10455357D01*
X16705357Y-10812500D02*
X16691071Y-10798214D01*
X16662500Y-10755357D01*
X16648214Y-10726786D01*
X16633928Y-10683929D01*
X16619643Y-10612500D01*
X16619643Y-10555357D01*
X16633928Y-10483929D01*
X16648214Y-10441072D01*
X16662500Y-10412500D01*
X16691071Y-10369643D01*
X16705357Y-10355357D01*
X16948214Y-10498214D02*
X16948214Y-10698214D01*
X16876786Y-10383929D02*
X16805357Y-10598214D01*
X16991071Y-10598214D01*
X17333928Y-10698214D02*
X17333928Y-10398214D01*
X17462500Y-10698214D02*
X17462500Y-10541072D01*
X17448214Y-10512500D01*
X17419643Y-10498214D01*
X17376786Y-10498214D01*
X17348214Y-10512500D01*
X17333928Y-10526786D01*
X17648214Y-10698214D02*
X17619643Y-10683929D01*
X17605357Y-10669643D01*
X17591071Y-10641072D01*
X17591071Y-10555357D01*
X17605357Y-10526786D01*
X17619643Y-10512500D01*
X17648214Y-10498214D01*
X17691071Y-10498214D01*
X17719643Y-10512500D01*
X17733928Y-10526786D01*
X17748214Y-10555357D01*
X17748214Y-10641072D01*
X17733928Y-10669643D01*
X17719643Y-10683929D01*
X17691071Y-10698214D01*
X17648214Y-10698214D01*
X17919643Y-10698214D02*
X17891071Y-10683929D01*
X17876786Y-10655357D01*
X17876786Y-10398214D01*
X18148214Y-10683929D02*
X18119643Y-10698214D01*
X18062500Y-10698214D01*
X18033928Y-10683929D01*
X18019643Y-10655357D01*
X18019643Y-10541072D01*
X18033928Y-10512500D01*
X18062500Y-10498214D01*
X18119643Y-10498214D01*
X18148214Y-10512500D01*
X18162500Y-10541072D01*
X18162500Y-10569643D01*
X18019643Y-10598214D01*
X18276786Y-10683929D02*
X18305357Y-10698214D01*
X18362500Y-10698214D01*
X18391071Y-10683929D01*
X18405357Y-10655357D01*
X18405357Y-10641072D01*
X18391071Y-10612500D01*
X18362500Y-10598214D01*
X18319643Y-10598214D01*
X18291071Y-10583929D01*
X18276786Y-10555357D01*
X18276786Y-10541072D01*
X18291071Y-10512500D01*
X18319643Y-10498214D01*
X18362500Y-10498214D01*
X18391071Y-10512500D01*
X18505357Y-10812500D02*
X18519643Y-10798214D01*
X18548214Y-10755357D01*
X18562500Y-10726786D01*
X18576786Y-10683929D01*
X18591071Y-10612500D01*
X18591071Y-10555357D01*
X18576786Y-10483929D01*
X18562500Y-10441072D01*
X18548214Y-10412500D01*
X18519643Y-10369643D01*
X18505357Y-10355357D01*
X19048214Y-10812500D02*
X19033928Y-10798214D01*
X19005357Y-10755357D01*
X18991071Y-10726786D01*
X18976786Y-10683929D01*
X18962500Y-10612500D01*
X18962500Y-10555357D01*
X18976786Y-10483929D01*
X18991071Y-10441072D01*
X19005357Y-10412500D01*
X19033928Y-10369643D01*
X19048214Y-10355357D01*
X19162500Y-10498214D02*
X19162500Y-10698214D01*
X19162500Y-10526786D02*
X19176786Y-10512500D01*
X19205357Y-10498214D01*
X19248214Y-10498214D01*
X19276786Y-10512500D01*
X19291071Y-10541072D01*
X19291071Y-10698214D01*
X19476786Y-10698214D02*
X19448214Y-10683929D01*
X19433928Y-10669643D01*
X19419643Y-10641072D01*
X19419643Y-10555357D01*
X19433928Y-10526786D01*
X19448214Y-10512500D01*
X19476786Y-10498214D01*
X19519643Y-10498214D01*
X19548214Y-10512500D01*
X19562500Y-10526786D01*
X19576786Y-10555357D01*
X19576786Y-10641072D01*
X19562500Y-10669643D01*
X19548214Y-10683929D01*
X19519643Y-10698214D01*
X19476786Y-10698214D01*
X19662500Y-10498214D02*
X19776786Y-10498214D01*
X19705357Y-10398214D02*
X19705357Y-10655357D01*
X19719643Y-10683929D01*
X19748214Y-10698214D01*
X19776786Y-10698214D01*
X20105357Y-10498214D02*
X20105357Y-10798214D01*
X20105357Y-10512500D02*
X20133928Y-10498214D01*
X20191071Y-10498214D01*
X20219643Y-10512500D01*
X20233928Y-10526786D01*
X20248214Y-10555357D01*
X20248214Y-10641072D01*
X20233928Y-10669643D01*
X20219643Y-10683929D01*
X20191071Y-10698214D01*
X20133928Y-10698214D01*
X20105357Y-10683929D01*
X20419643Y-10698214D02*
X20391071Y-10683929D01*
X20376786Y-10655357D01*
X20376786Y-10398214D01*
X20662500Y-10698214D02*
X20662500Y-10541072D01*
X20648214Y-10512500D01*
X20619643Y-10498214D01*
X20562500Y-10498214D01*
X20533928Y-10512500D01*
X20662500Y-10683929D02*
X20633928Y-10698214D01*
X20562500Y-10698214D01*
X20533928Y-10683929D01*
X20519643Y-10655357D01*
X20519643Y-10626786D01*
X20533928Y-10598214D01*
X20562500Y-10583929D01*
X20633928Y-10583929D01*
X20662500Y-10569643D01*
X20762500Y-10498214D02*
X20876786Y-10498214D01*
X20805357Y-10398214D02*
X20805357Y-10655357D01*
X20819643Y-10683929D01*
X20848214Y-10698214D01*
X20876786Y-10698214D01*
X21091071Y-10683929D02*
X21062500Y-10698214D01*
X21005357Y-10698214D01*
X20976786Y-10683929D01*
X20962500Y-10655357D01*
X20962500Y-10541072D01*
X20976786Y-10512500D01*
X21005357Y-10498214D01*
X21062500Y-10498214D01*
X21091071Y-10512500D01*
X21105357Y-10541072D01*
X21105357Y-10569643D01*
X20962500Y-10598214D01*
X21362500Y-10698214D02*
X21362500Y-10398214D01*
X21362500Y-10683929D02*
X21333928Y-10698214D01*
X21276786Y-10698214D01*
X21248214Y-10683929D01*
X21233928Y-10669643D01*
X21219643Y-10641072D01*
X21219643Y-10555357D01*
X21233928Y-10526786D01*
X21248214Y-10512500D01*
X21276786Y-10498214D01*
X21333928Y-10498214D01*
X21362500Y-10512500D01*
X21476786Y-10812500D02*
X21491071Y-10798214D01*
X21519643Y-10755357D01*
X21533928Y-10726786D01*
X21548214Y-10683929D01*
X21562500Y-10612500D01*
X21562500Y-10555357D01*
X21548214Y-10483929D01*
X21533928Y-10441072D01*
X21519643Y-10412500D01*
X21491071Y-10369643D01*
X21476786Y-10355357D01*
M02*
