%TF.GenerationSoftware,KiCad,Pcbnew,(5.1.12)-1*%
%TF.CreationDate,2022-08-18T12:31:04-07:00*%
%TF.ProjectId,HighPressureSensorArray,48696768-5072-4657-9373-75726553656e,rev?*%
%TF.SameCoordinates,Original*%
%TF.FileFunction,Copper,L1,Top*%
%TF.FilePolarity,Positive*%
%FSLAX46Y46*%
G04 Gerber Fmt 4.6, Leading zero omitted, Abs format (unit mm)*
G04 Created by KiCad (PCBNEW (5.1.12)-1) date 2022-08-18 12:31:04*
%MOMM*%
%LPD*%
G01*
G04 APERTURE LIST*
%TA.AperFunction,EtchedComponent*%
%ADD10C,0.100000*%
%TD*%
%TA.AperFunction,SMDPad,CuDef*%
%ADD11R,1.500000X1.000000*%
%TD*%
%TA.AperFunction,SMDPad,CuDef*%
%ADD12R,1.750000X0.450000*%
%TD*%
%TA.AperFunction,SMDPad,CuDef*%
%ADD13R,1.300000X1.300000*%
%TD*%
%TA.AperFunction,ComponentPad*%
%ADD14R,2.200000X2.200000*%
%TD*%
%TA.AperFunction,ComponentPad*%
%ADD15C,2.200000*%
%TD*%
%TA.AperFunction,ViaPad*%
%ADD16C,0.800000*%
%TD*%
%TA.AperFunction,Conductor*%
%ADD17C,0.250000*%
%TD*%
G04 APERTURE END LIST*
D10*
G36*
X120550000Y-91100000D02*
G01*
X120550000Y-91600000D01*
X120150000Y-91600000D01*
X120150000Y-91100000D01*
X120550000Y-91100000D01*
G37*
G36*
X121350000Y-91100000D02*
G01*
X121350000Y-91600000D01*
X120950000Y-91600000D01*
X120950000Y-91100000D01*
X121350000Y-91100000D01*
G37*
D11*
X120750000Y-90700000D03*
X120750000Y-93300000D03*
X120750000Y-92000000D03*
%TA.AperFunction,SMDPad,CuDef*%
G36*
G01*
X125725000Y-43550000D02*
X125725000Y-43050000D01*
G75*
G02*
X125950000Y-42825000I225000J0D01*
G01*
X126400000Y-42825000D01*
G75*
G02*
X126625000Y-43050000I0J-225000D01*
G01*
X126625000Y-43550000D01*
G75*
G02*
X126400000Y-43775000I-225000J0D01*
G01*
X125950000Y-43775000D01*
G75*
G02*
X125725000Y-43550000I0J225000D01*
G01*
G37*
%TD.AperFunction*%
%TA.AperFunction,SMDPad,CuDef*%
G36*
G01*
X124175000Y-43550000D02*
X124175000Y-43050000D01*
G75*
G02*
X124400000Y-42825000I225000J0D01*
G01*
X124850000Y-42825000D01*
G75*
G02*
X125075000Y-43050000I0J-225000D01*
G01*
X125075000Y-43550000D01*
G75*
G02*
X124850000Y-43775000I-225000J0D01*
G01*
X124400000Y-43775000D01*
G75*
G02*
X124175000Y-43550000I0J225000D01*
G01*
G37*
%TD.AperFunction*%
%TA.AperFunction,SMDPad,CuDef*%
G36*
G01*
X124175000Y-53450000D02*
X124175000Y-52950000D01*
G75*
G02*
X124400000Y-52725000I225000J0D01*
G01*
X124850000Y-52725000D01*
G75*
G02*
X125075000Y-52950000I0J-225000D01*
G01*
X125075000Y-53450000D01*
G75*
G02*
X124850000Y-53675000I-225000J0D01*
G01*
X124400000Y-53675000D01*
G75*
G02*
X124175000Y-53450000I0J225000D01*
G01*
G37*
%TD.AperFunction*%
%TA.AperFunction,SMDPad,CuDef*%
G36*
G01*
X125725000Y-53450000D02*
X125725000Y-52950000D01*
G75*
G02*
X125950000Y-52725000I225000J0D01*
G01*
X126400000Y-52725000D01*
G75*
G02*
X126625000Y-52950000I0J-225000D01*
G01*
X126625000Y-53450000D01*
G75*
G02*
X126400000Y-53675000I-225000J0D01*
G01*
X125950000Y-53675000D01*
G75*
G02*
X125725000Y-53450000I0J225000D01*
G01*
G37*
%TD.AperFunction*%
%TA.AperFunction,SMDPad,CuDef*%
G36*
G01*
X125725000Y-63450000D02*
X125725000Y-62950000D01*
G75*
G02*
X125950000Y-62725000I225000J0D01*
G01*
X126400000Y-62725000D01*
G75*
G02*
X126625000Y-62950000I0J-225000D01*
G01*
X126625000Y-63450000D01*
G75*
G02*
X126400000Y-63675000I-225000J0D01*
G01*
X125950000Y-63675000D01*
G75*
G02*
X125725000Y-63450000I0J225000D01*
G01*
G37*
%TD.AperFunction*%
%TA.AperFunction,SMDPad,CuDef*%
G36*
G01*
X124175000Y-63450000D02*
X124175000Y-62950000D01*
G75*
G02*
X124400000Y-62725000I225000J0D01*
G01*
X124850000Y-62725000D01*
G75*
G02*
X125075000Y-62950000I0J-225000D01*
G01*
X125075000Y-63450000D01*
G75*
G02*
X124850000Y-63675000I-225000J0D01*
G01*
X124400000Y-63675000D01*
G75*
G02*
X124175000Y-63450000I0J225000D01*
G01*
G37*
%TD.AperFunction*%
%TA.AperFunction,SMDPad,CuDef*%
G36*
G01*
X124075000Y-72950000D02*
X124075000Y-72450000D01*
G75*
G02*
X124300000Y-72225000I225000J0D01*
G01*
X124750000Y-72225000D01*
G75*
G02*
X124975000Y-72450000I0J-225000D01*
G01*
X124975000Y-72950000D01*
G75*
G02*
X124750000Y-73175000I-225000J0D01*
G01*
X124300000Y-73175000D01*
G75*
G02*
X124075000Y-72950000I0J225000D01*
G01*
G37*
%TD.AperFunction*%
%TA.AperFunction,SMDPad,CuDef*%
G36*
G01*
X125625000Y-72950000D02*
X125625000Y-72450000D01*
G75*
G02*
X125850000Y-72225000I225000J0D01*
G01*
X126300000Y-72225000D01*
G75*
G02*
X126525000Y-72450000I0J-225000D01*
G01*
X126525000Y-72950000D01*
G75*
G02*
X126300000Y-73175000I-225000J0D01*
G01*
X125850000Y-73175000D01*
G75*
G02*
X125625000Y-72950000I0J225000D01*
G01*
G37*
%TD.AperFunction*%
%TA.AperFunction,SMDPad,CuDef*%
G36*
G01*
X134875000Y-36550000D02*
X134875000Y-37050000D01*
G75*
G02*
X134650000Y-37275000I-225000J0D01*
G01*
X134200000Y-37275000D01*
G75*
G02*
X133975000Y-37050000I0J225000D01*
G01*
X133975000Y-36550000D01*
G75*
G02*
X134200000Y-36325000I225000J0D01*
G01*
X134650000Y-36325000D01*
G75*
G02*
X134875000Y-36550000I0J-225000D01*
G01*
G37*
%TD.AperFunction*%
%TA.AperFunction,SMDPad,CuDef*%
G36*
G01*
X136425000Y-36550000D02*
X136425000Y-37050000D01*
G75*
G02*
X136200000Y-37275000I-225000J0D01*
G01*
X135750000Y-37275000D01*
G75*
G02*
X135525000Y-37050000I0J225000D01*
G01*
X135525000Y-36550000D01*
G75*
G02*
X135750000Y-36325000I225000J0D01*
G01*
X136200000Y-36325000D01*
G75*
G02*
X136425000Y-36550000I0J-225000D01*
G01*
G37*
%TD.AperFunction*%
%TA.AperFunction,SMDPad,CuDef*%
G36*
G01*
X136525000Y-45450000D02*
X136525000Y-45950000D01*
G75*
G02*
X136300000Y-46175000I-225000J0D01*
G01*
X135850000Y-46175000D01*
G75*
G02*
X135625000Y-45950000I0J225000D01*
G01*
X135625000Y-45450000D01*
G75*
G02*
X135850000Y-45225000I225000J0D01*
G01*
X136300000Y-45225000D01*
G75*
G02*
X136525000Y-45450000I0J-225000D01*
G01*
G37*
%TD.AperFunction*%
%TA.AperFunction,SMDPad,CuDef*%
G36*
G01*
X134975000Y-45450000D02*
X134975000Y-45950000D01*
G75*
G02*
X134750000Y-46175000I-225000J0D01*
G01*
X134300000Y-46175000D01*
G75*
G02*
X134075000Y-45950000I0J225000D01*
G01*
X134075000Y-45450000D01*
G75*
G02*
X134300000Y-45225000I225000J0D01*
G01*
X134750000Y-45225000D01*
G75*
G02*
X134975000Y-45450000I0J-225000D01*
G01*
G37*
%TD.AperFunction*%
%TA.AperFunction,SMDPad,CuDef*%
G36*
G01*
X136525000Y-55350000D02*
X136525000Y-55850000D01*
G75*
G02*
X136300000Y-56075000I-225000J0D01*
G01*
X135850000Y-56075000D01*
G75*
G02*
X135625000Y-55850000I0J225000D01*
G01*
X135625000Y-55350000D01*
G75*
G02*
X135850000Y-55125000I225000J0D01*
G01*
X136300000Y-55125000D01*
G75*
G02*
X136525000Y-55350000I0J-225000D01*
G01*
G37*
%TD.AperFunction*%
%TA.AperFunction,SMDPad,CuDef*%
G36*
G01*
X134975000Y-55350000D02*
X134975000Y-55850000D01*
G75*
G02*
X134750000Y-56075000I-225000J0D01*
G01*
X134300000Y-56075000D01*
G75*
G02*
X134075000Y-55850000I0J225000D01*
G01*
X134075000Y-55350000D01*
G75*
G02*
X134300000Y-55125000I225000J0D01*
G01*
X134750000Y-55125000D01*
G75*
G02*
X134975000Y-55350000I0J-225000D01*
G01*
G37*
%TD.AperFunction*%
%TA.AperFunction,SMDPad,CuDef*%
G36*
G01*
X134975000Y-65650000D02*
X134975000Y-66150000D01*
G75*
G02*
X134750000Y-66375000I-225000J0D01*
G01*
X134300000Y-66375000D01*
G75*
G02*
X134075000Y-66150000I0J225000D01*
G01*
X134075000Y-65650000D01*
G75*
G02*
X134300000Y-65425000I225000J0D01*
G01*
X134750000Y-65425000D01*
G75*
G02*
X134975000Y-65650000I0J-225000D01*
G01*
G37*
%TD.AperFunction*%
%TA.AperFunction,SMDPad,CuDef*%
G36*
G01*
X136525000Y-65650000D02*
X136525000Y-66150000D01*
G75*
G02*
X136300000Y-66375000I-225000J0D01*
G01*
X135850000Y-66375000D01*
G75*
G02*
X135625000Y-66150000I0J225000D01*
G01*
X135625000Y-65650000D01*
G75*
G02*
X135850000Y-65425000I225000J0D01*
G01*
X136300000Y-65425000D01*
G75*
G02*
X136525000Y-65650000I0J-225000D01*
G01*
G37*
%TD.AperFunction*%
%TA.AperFunction,SMDPad,CuDef*%
G36*
G01*
X132075000Y-85950000D02*
X132075000Y-85450000D01*
G75*
G02*
X132300000Y-85225000I225000J0D01*
G01*
X132750000Y-85225000D01*
G75*
G02*
X132975000Y-85450000I0J-225000D01*
G01*
X132975000Y-85950000D01*
G75*
G02*
X132750000Y-86175000I-225000J0D01*
G01*
X132300000Y-86175000D01*
G75*
G02*
X132075000Y-85950000I0J225000D01*
G01*
G37*
%TD.AperFunction*%
%TA.AperFunction,SMDPad,CuDef*%
G36*
G01*
X133625000Y-85950000D02*
X133625000Y-85450000D01*
G75*
G02*
X133850000Y-85225000I225000J0D01*
G01*
X134300000Y-85225000D01*
G75*
G02*
X134525000Y-85450000I0J-225000D01*
G01*
X134525000Y-85950000D01*
G75*
G02*
X134300000Y-86175000I-225000J0D01*
G01*
X133850000Y-86175000D01*
G75*
G02*
X133625000Y-85950000I0J225000D01*
G01*
G37*
%TD.AperFunction*%
%TA.AperFunction,SMDPad,CuDef*%
G36*
G01*
X133625000Y-87750000D02*
X133625000Y-87250000D01*
G75*
G02*
X133850000Y-87025000I225000J0D01*
G01*
X134300000Y-87025000D01*
G75*
G02*
X134525000Y-87250000I0J-225000D01*
G01*
X134525000Y-87750000D01*
G75*
G02*
X134300000Y-87975000I-225000J0D01*
G01*
X133850000Y-87975000D01*
G75*
G02*
X133625000Y-87750000I0J225000D01*
G01*
G37*
%TD.AperFunction*%
%TA.AperFunction,SMDPad,CuDef*%
G36*
G01*
X132075000Y-87750000D02*
X132075000Y-87250000D01*
G75*
G02*
X132300000Y-87025000I225000J0D01*
G01*
X132750000Y-87025000D01*
G75*
G02*
X132975000Y-87250000I0J-225000D01*
G01*
X132975000Y-87750000D01*
G75*
G02*
X132750000Y-87975000I-225000J0D01*
G01*
X132300000Y-87975000D01*
G75*
G02*
X132075000Y-87750000I0J225000D01*
G01*
G37*
%TD.AperFunction*%
%TA.AperFunction,SMDPad,CuDef*%
G36*
G01*
X138775000Y-73325000D02*
X138775000Y-73875000D01*
G75*
G02*
X138575000Y-74075000I-200000J0D01*
G01*
X138175000Y-74075000D01*
G75*
G02*
X137975000Y-73875000I0J200000D01*
G01*
X137975000Y-73325000D01*
G75*
G02*
X138175000Y-73125000I200000J0D01*
G01*
X138575000Y-73125000D01*
G75*
G02*
X138775000Y-73325000I0J-200000D01*
G01*
G37*
%TD.AperFunction*%
%TA.AperFunction,SMDPad,CuDef*%
G36*
G01*
X140425000Y-73325000D02*
X140425000Y-73875000D01*
G75*
G02*
X140225000Y-74075000I-200000J0D01*
G01*
X139825000Y-74075000D01*
G75*
G02*
X139625000Y-73875000I0J200000D01*
G01*
X139625000Y-73325000D01*
G75*
G02*
X139825000Y-73125000I200000J0D01*
G01*
X140225000Y-73125000D01*
G75*
G02*
X140425000Y-73325000I0J-200000D01*
G01*
G37*
%TD.AperFunction*%
%TA.AperFunction,SMDPad,CuDef*%
G36*
G01*
X140425000Y-71725000D02*
X140425000Y-72275000D01*
G75*
G02*
X140225000Y-72475000I-200000J0D01*
G01*
X139825000Y-72475000D01*
G75*
G02*
X139625000Y-72275000I0J200000D01*
G01*
X139625000Y-71725000D01*
G75*
G02*
X139825000Y-71525000I200000J0D01*
G01*
X140225000Y-71525000D01*
G75*
G02*
X140425000Y-71725000I0J-200000D01*
G01*
G37*
%TD.AperFunction*%
%TA.AperFunction,SMDPad,CuDef*%
G36*
G01*
X138775000Y-71725000D02*
X138775000Y-72275000D01*
G75*
G02*
X138575000Y-72475000I-200000J0D01*
G01*
X138175000Y-72475000D01*
G75*
G02*
X137975000Y-72275000I0J200000D01*
G01*
X137975000Y-71725000D01*
G75*
G02*
X138175000Y-71525000I200000J0D01*
G01*
X138575000Y-71525000D01*
G75*
G02*
X138775000Y-71725000I0J-200000D01*
G01*
G37*
%TD.AperFunction*%
%TA.AperFunction,SMDPad,CuDef*%
G36*
G01*
X140425000Y-78604590D02*
X140425000Y-79154590D01*
G75*
G02*
X140225000Y-79354590I-200000J0D01*
G01*
X139825000Y-79354590D01*
G75*
G02*
X139625000Y-79154590I0J200000D01*
G01*
X139625000Y-78604590D01*
G75*
G02*
X139825000Y-78404590I200000J0D01*
G01*
X140225000Y-78404590D01*
G75*
G02*
X140425000Y-78604590I0J-200000D01*
G01*
G37*
%TD.AperFunction*%
%TA.AperFunction,SMDPad,CuDef*%
G36*
G01*
X138775000Y-78604590D02*
X138775000Y-79154590D01*
G75*
G02*
X138575000Y-79354590I-200000J0D01*
G01*
X138175000Y-79354590D01*
G75*
G02*
X137975000Y-79154590I0J200000D01*
G01*
X137975000Y-78604590D01*
G75*
G02*
X138175000Y-78404590I200000J0D01*
G01*
X138575000Y-78404590D01*
G75*
G02*
X138775000Y-78604590I0J-200000D01*
G01*
G37*
%TD.AperFunction*%
%TA.AperFunction,SMDPad,CuDef*%
G36*
G01*
X138775000Y-76563774D02*
X138775000Y-77113774D01*
G75*
G02*
X138575000Y-77313774I-200000J0D01*
G01*
X138175000Y-77313774D01*
G75*
G02*
X137975000Y-77113774I0J200000D01*
G01*
X137975000Y-76563774D01*
G75*
G02*
X138175000Y-76363774I200000J0D01*
G01*
X138575000Y-76363774D01*
G75*
G02*
X138775000Y-76563774I0J-200000D01*
G01*
G37*
%TD.AperFunction*%
%TA.AperFunction,SMDPad,CuDef*%
G36*
G01*
X140425000Y-76563774D02*
X140425000Y-77113774D01*
G75*
G02*
X140225000Y-77313774I-200000J0D01*
G01*
X139825000Y-77313774D01*
G75*
G02*
X139625000Y-77113774I0J200000D01*
G01*
X139625000Y-76563774D01*
G75*
G02*
X139825000Y-76363774I200000J0D01*
G01*
X140225000Y-76363774D01*
G75*
G02*
X140425000Y-76563774I0J-200000D01*
G01*
G37*
%TD.AperFunction*%
%TA.AperFunction,SMDPad,CuDef*%
G36*
G01*
X138775000Y-82686222D02*
X138775000Y-83236222D01*
G75*
G02*
X138575000Y-83436222I-200000J0D01*
G01*
X138175000Y-83436222D01*
G75*
G02*
X137975000Y-83236222I0J200000D01*
G01*
X137975000Y-82686222D01*
G75*
G02*
X138175000Y-82486222I200000J0D01*
G01*
X138575000Y-82486222D01*
G75*
G02*
X138775000Y-82686222I0J-200000D01*
G01*
G37*
%TD.AperFunction*%
%TA.AperFunction,SMDPad,CuDef*%
G36*
G01*
X140425000Y-82686222D02*
X140425000Y-83236222D01*
G75*
G02*
X140225000Y-83436222I-200000J0D01*
G01*
X139825000Y-83436222D01*
G75*
G02*
X139625000Y-83236222I0J200000D01*
G01*
X139625000Y-82686222D01*
G75*
G02*
X139825000Y-82486222I200000J0D01*
G01*
X140225000Y-82486222D01*
G75*
G02*
X140425000Y-82686222I0J-200000D01*
G01*
G37*
%TD.AperFunction*%
%TA.AperFunction,SMDPad,CuDef*%
G36*
G01*
X140425000Y-80645406D02*
X140425000Y-81195406D01*
G75*
G02*
X140225000Y-81395406I-200000J0D01*
G01*
X139825000Y-81395406D01*
G75*
G02*
X139625000Y-81195406I0J200000D01*
G01*
X139625000Y-80645406D01*
G75*
G02*
X139825000Y-80445406I200000J0D01*
G01*
X140225000Y-80445406D01*
G75*
G02*
X140425000Y-80645406I0J-200000D01*
G01*
G37*
%TD.AperFunction*%
%TA.AperFunction,SMDPad,CuDef*%
G36*
G01*
X138775000Y-80645406D02*
X138775000Y-81195406D01*
G75*
G02*
X138575000Y-81395406I-200000J0D01*
G01*
X138175000Y-81395406D01*
G75*
G02*
X137975000Y-81195406I0J200000D01*
G01*
X137975000Y-80645406D01*
G75*
G02*
X138175000Y-80445406I200000J0D01*
G01*
X138575000Y-80445406D01*
G75*
G02*
X138775000Y-80645406I0J-200000D01*
G01*
G37*
%TD.AperFunction*%
%TA.AperFunction,SMDPad,CuDef*%
G36*
G01*
X140425000Y-86767857D02*
X140425000Y-87317857D01*
G75*
G02*
X140225000Y-87517857I-200000J0D01*
G01*
X139825000Y-87517857D01*
G75*
G02*
X139625000Y-87317857I0J200000D01*
G01*
X139625000Y-86767857D01*
G75*
G02*
X139825000Y-86567857I200000J0D01*
G01*
X140225000Y-86567857D01*
G75*
G02*
X140425000Y-86767857I0J-200000D01*
G01*
G37*
%TD.AperFunction*%
%TA.AperFunction,SMDPad,CuDef*%
G36*
G01*
X138775000Y-86767857D02*
X138775000Y-87317857D01*
G75*
G02*
X138575000Y-87517857I-200000J0D01*
G01*
X138175000Y-87517857D01*
G75*
G02*
X137975000Y-87317857I0J200000D01*
G01*
X137975000Y-86767857D01*
G75*
G02*
X138175000Y-86567857I200000J0D01*
G01*
X138575000Y-86567857D01*
G75*
G02*
X138775000Y-86767857I0J-200000D01*
G01*
G37*
%TD.AperFunction*%
%TA.AperFunction,SMDPad,CuDef*%
G36*
G01*
X138775000Y-84727038D02*
X138775000Y-85277038D01*
G75*
G02*
X138575000Y-85477038I-200000J0D01*
G01*
X138175000Y-85477038D01*
G75*
G02*
X137975000Y-85277038I0J200000D01*
G01*
X137975000Y-84727038D01*
G75*
G02*
X138175000Y-84527038I200000J0D01*
G01*
X138575000Y-84527038D01*
G75*
G02*
X138775000Y-84727038I0J-200000D01*
G01*
G37*
%TD.AperFunction*%
%TA.AperFunction,SMDPad,CuDef*%
G36*
G01*
X140425000Y-84727038D02*
X140425000Y-85277038D01*
G75*
G02*
X140225000Y-85477038I-200000J0D01*
G01*
X139825000Y-85477038D01*
G75*
G02*
X139625000Y-85277038I0J200000D01*
G01*
X139625000Y-84727038D01*
G75*
G02*
X139825000Y-84527038I200000J0D01*
G01*
X140225000Y-84527038D01*
G75*
G02*
X140425000Y-84727038I0J-200000D01*
G01*
G37*
%TD.AperFunction*%
%TA.AperFunction,SMDPad,CuDef*%
G36*
G01*
X119675000Y-85276016D02*
X119675000Y-84726016D01*
G75*
G02*
X119875000Y-84526016I200000J0D01*
G01*
X120275000Y-84526016D01*
G75*
G02*
X120475000Y-84726016I0J-200000D01*
G01*
X120475000Y-85276016D01*
G75*
G02*
X120275000Y-85476016I-200000J0D01*
G01*
X119875000Y-85476016D01*
G75*
G02*
X119675000Y-85276016I0J200000D01*
G01*
G37*
%TD.AperFunction*%
%TA.AperFunction,SMDPad,CuDef*%
G36*
G01*
X121325000Y-85276016D02*
X121325000Y-84726016D01*
G75*
G02*
X121525000Y-84526016I200000J0D01*
G01*
X121925000Y-84526016D01*
G75*
G02*
X122125000Y-84726016I0J-200000D01*
G01*
X122125000Y-85276016D01*
G75*
G02*
X121925000Y-85476016I-200000J0D01*
G01*
X121525000Y-85476016D01*
G75*
G02*
X121325000Y-85276016I0J200000D01*
G01*
G37*
%TD.AperFunction*%
%TA.AperFunction,SMDPad,CuDef*%
G36*
G01*
X119675000Y-87317857D02*
X119675000Y-86767857D01*
G75*
G02*
X119875000Y-86567857I200000J0D01*
G01*
X120275000Y-86567857D01*
G75*
G02*
X120475000Y-86767857I0J-200000D01*
G01*
X120475000Y-87317857D01*
G75*
G02*
X120275000Y-87517857I-200000J0D01*
G01*
X119875000Y-87517857D01*
G75*
G02*
X119675000Y-87317857I0J200000D01*
G01*
G37*
%TD.AperFunction*%
%TA.AperFunction,SMDPad,CuDef*%
G36*
G01*
X121325000Y-87317857D02*
X121325000Y-86767857D01*
G75*
G02*
X121525000Y-86567857I200000J0D01*
G01*
X121925000Y-86567857D01*
G75*
G02*
X122125000Y-86767857I0J-200000D01*
G01*
X122125000Y-87317857D01*
G75*
G02*
X121925000Y-87517857I-200000J0D01*
G01*
X121525000Y-87517857D01*
G75*
G02*
X121325000Y-87317857I0J200000D01*
G01*
G37*
%TD.AperFunction*%
%TA.AperFunction,SMDPad,CuDef*%
G36*
G01*
X119675000Y-81192344D02*
X119675000Y-80642344D01*
G75*
G02*
X119875000Y-80442344I200000J0D01*
G01*
X120275000Y-80442344D01*
G75*
G02*
X120475000Y-80642344I0J-200000D01*
G01*
X120475000Y-81192344D01*
G75*
G02*
X120275000Y-81392344I-200000J0D01*
G01*
X119875000Y-81392344D01*
G75*
G02*
X119675000Y-81192344I0J200000D01*
G01*
G37*
%TD.AperFunction*%
%TA.AperFunction,SMDPad,CuDef*%
G36*
G01*
X121325000Y-81192344D02*
X121325000Y-80642344D01*
G75*
G02*
X121525000Y-80442344I200000J0D01*
G01*
X121925000Y-80442344D01*
G75*
G02*
X122125000Y-80642344I0J-200000D01*
G01*
X122125000Y-81192344D01*
G75*
G02*
X121925000Y-81392344I-200000J0D01*
G01*
X121525000Y-81392344D01*
G75*
G02*
X121325000Y-81192344I0J200000D01*
G01*
G37*
%TD.AperFunction*%
%TA.AperFunction,SMDPad,CuDef*%
G36*
G01*
X121325000Y-83234180D02*
X121325000Y-82684180D01*
G75*
G02*
X121525000Y-82484180I200000J0D01*
G01*
X121925000Y-82484180D01*
G75*
G02*
X122125000Y-82684180I0J-200000D01*
G01*
X122125000Y-83234180D01*
G75*
G02*
X121925000Y-83434180I-200000J0D01*
G01*
X121525000Y-83434180D01*
G75*
G02*
X121325000Y-83234180I0J200000D01*
G01*
G37*
%TD.AperFunction*%
%TA.AperFunction,SMDPad,CuDef*%
G36*
G01*
X119675000Y-83234180D02*
X119675000Y-82684180D01*
G75*
G02*
X119875000Y-82484180I200000J0D01*
G01*
X120275000Y-82484180D01*
G75*
G02*
X120475000Y-82684180I0J-200000D01*
G01*
X120475000Y-83234180D01*
G75*
G02*
X120275000Y-83434180I-200000J0D01*
G01*
X119875000Y-83434180D01*
G75*
G02*
X119675000Y-83234180I0J200000D01*
G01*
G37*
%TD.AperFunction*%
%TA.AperFunction,SMDPad,CuDef*%
G36*
G01*
X119675000Y-77108672D02*
X119675000Y-76558672D01*
G75*
G02*
X119875000Y-76358672I200000J0D01*
G01*
X120275000Y-76358672D01*
G75*
G02*
X120475000Y-76558672I0J-200000D01*
G01*
X120475000Y-77108672D01*
G75*
G02*
X120275000Y-77308672I-200000J0D01*
G01*
X119875000Y-77308672D01*
G75*
G02*
X119675000Y-77108672I0J200000D01*
G01*
G37*
%TD.AperFunction*%
%TA.AperFunction,SMDPad,CuDef*%
G36*
G01*
X121325000Y-77108672D02*
X121325000Y-76558672D01*
G75*
G02*
X121525000Y-76358672I200000J0D01*
G01*
X121925000Y-76358672D01*
G75*
G02*
X122125000Y-76558672I0J-200000D01*
G01*
X122125000Y-77108672D01*
G75*
G02*
X121925000Y-77308672I-200000J0D01*
G01*
X121525000Y-77308672D01*
G75*
G02*
X121325000Y-77108672I0J200000D01*
G01*
G37*
%TD.AperFunction*%
%TA.AperFunction,SMDPad,CuDef*%
G36*
G01*
X121325000Y-79150508D02*
X121325000Y-78600508D01*
G75*
G02*
X121525000Y-78400508I200000J0D01*
G01*
X121925000Y-78400508D01*
G75*
G02*
X122125000Y-78600508I0J-200000D01*
G01*
X122125000Y-79150508D01*
G75*
G02*
X121925000Y-79350508I-200000J0D01*
G01*
X121525000Y-79350508D01*
G75*
G02*
X121325000Y-79150508I0J200000D01*
G01*
G37*
%TD.AperFunction*%
%TA.AperFunction,SMDPad,CuDef*%
G36*
G01*
X119675000Y-79150508D02*
X119675000Y-78600508D01*
G75*
G02*
X119875000Y-78400508I200000J0D01*
G01*
X120275000Y-78400508D01*
G75*
G02*
X120475000Y-78600508I0J-200000D01*
G01*
X120475000Y-79150508D01*
G75*
G02*
X120275000Y-79350508I-200000J0D01*
G01*
X119875000Y-79350508D01*
G75*
G02*
X119675000Y-79150508I0J200000D01*
G01*
G37*
%TD.AperFunction*%
%TA.AperFunction,SMDPad,CuDef*%
G36*
G01*
X119675000Y-72175000D02*
X119675000Y-71625000D01*
G75*
G02*
X119875000Y-71425000I200000J0D01*
G01*
X120275000Y-71425000D01*
G75*
G02*
X120475000Y-71625000I0J-200000D01*
G01*
X120475000Y-72175000D01*
G75*
G02*
X120275000Y-72375000I-200000J0D01*
G01*
X119875000Y-72375000D01*
G75*
G02*
X119675000Y-72175000I0J200000D01*
G01*
G37*
%TD.AperFunction*%
%TA.AperFunction,SMDPad,CuDef*%
G36*
G01*
X121325000Y-72175000D02*
X121325000Y-71625000D01*
G75*
G02*
X121525000Y-71425000I200000J0D01*
G01*
X121925000Y-71425000D01*
G75*
G02*
X122125000Y-71625000I0J-200000D01*
G01*
X122125000Y-72175000D01*
G75*
G02*
X121925000Y-72375000I-200000J0D01*
G01*
X121525000Y-72375000D01*
G75*
G02*
X121325000Y-72175000I0J200000D01*
G01*
G37*
%TD.AperFunction*%
%TA.AperFunction,SMDPad,CuDef*%
G36*
G01*
X121325000Y-73775000D02*
X121325000Y-73225000D01*
G75*
G02*
X121525000Y-73025000I200000J0D01*
G01*
X121925000Y-73025000D01*
G75*
G02*
X122125000Y-73225000I0J-200000D01*
G01*
X122125000Y-73775000D01*
G75*
G02*
X121925000Y-73975000I-200000J0D01*
G01*
X121525000Y-73975000D01*
G75*
G02*
X121325000Y-73775000I0J200000D01*
G01*
G37*
%TD.AperFunction*%
%TA.AperFunction,SMDPad,CuDef*%
G36*
G01*
X119675000Y-73775000D02*
X119675000Y-73225000D01*
G75*
G02*
X119875000Y-73025000I200000J0D01*
G01*
X120275000Y-73025000D01*
G75*
G02*
X120475000Y-73225000I0J-200000D01*
G01*
X120475000Y-73775000D01*
G75*
G02*
X120275000Y-73975000I-200000J0D01*
G01*
X119875000Y-73975000D01*
G75*
G02*
X119675000Y-73775000I0J200000D01*
G01*
G37*
%TD.AperFunction*%
%TA.AperFunction,SMDPad,CuDef*%
G36*
G01*
X126725000Y-88225000D02*
X126725000Y-88775000D01*
G75*
G02*
X126525000Y-88975000I-200000J0D01*
G01*
X126125000Y-88975000D01*
G75*
G02*
X125925000Y-88775000I0J200000D01*
G01*
X125925000Y-88225000D01*
G75*
G02*
X126125000Y-88025000I200000J0D01*
G01*
X126525000Y-88025000D01*
G75*
G02*
X126725000Y-88225000I0J-200000D01*
G01*
G37*
%TD.AperFunction*%
%TA.AperFunction,SMDPad,CuDef*%
G36*
G01*
X125075000Y-88225000D02*
X125075000Y-88775000D01*
G75*
G02*
X124875000Y-88975000I-200000J0D01*
G01*
X124475000Y-88975000D01*
G75*
G02*
X124275000Y-88775000I0J200000D01*
G01*
X124275000Y-88225000D01*
G75*
G02*
X124475000Y-88025000I200000J0D01*
G01*
X124875000Y-88025000D01*
G75*
G02*
X125075000Y-88225000I0J-200000D01*
G01*
G37*
%TD.AperFunction*%
%TA.AperFunction,SMDPad,CuDef*%
G36*
G01*
X125075000Y-86225000D02*
X125075000Y-86775000D01*
G75*
G02*
X124875000Y-86975000I-200000J0D01*
G01*
X124475000Y-86975000D01*
G75*
G02*
X124275000Y-86775000I0J200000D01*
G01*
X124275000Y-86225000D01*
G75*
G02*
X124475000Y-86025000I200000J0D01*
G01*
X124875000Y-86025000D01*
G75*
G02*
X125075000Y-86225000I0J-200000D01*
G01*
G37*
%TD.AperFunction*%
%TA.AperFunction,SMDPad,CuDef*%
G36*
G01*
X126725000Y-86225000D02*
X126725000Y-86775000D01*
G75*
G02*
X126525000Y-86975000I-200000J0D01*
G01*
X126125000Y-86975000D01*
G75*
G02*
X125925000Y-86775000I0J200000D01*
G01*
X125925000Y-86225000D01*
G75*
G02*
X126125000Y-86025000I200000J0D01*
G01*
X126525000Y-86025000D01*
G75*
G02*
X126725000Y-86225000I0J-200000D01*
G01*
G37*
%TD.AperFunction*%
%TA.AperFunction,SMDPad,CuDef*%
G36*
G01*
X129075000Y-87725000D02*
X129075000Y-88275000D01*
G75*
G02*
X128875000Y-88475000I-200000J0D01*
G01*
X128475000Y-88475000D01*
G75*
G02*
X128275000Y-88275000I0J200000D01*
G01*
X128275000Y-87725000D01*
G75*
G02*
X128475000Y-87525000I200000J0D01*
G01*
X128875000Y-87525000D01*
G75*
G02*
X129075000Y-87725000I0J-200000D01*
G01*
G37*
%TD.AperFunction*%
%TA.AperFunction,SMDPad,CuDef*%
G36*
G01*
X130725000Y-87725000D02*
X130725000Y-88275000D01*
G75*
G02*
X130525000Y-88475000I-200000J0D01*
G01*
X130125000Y-88475000D01*
G75*
G02*
X129925000Y-88275000I0J200000D01*
G01*
X129925000Y-87725000D01*
G75*
G02*
X130125000Y-87525000I200000J0D01*
G01*
X130525000Y-87525000D01*
G75*
G02*
X130725000Y-87725000I0J-200000D01*
G01*
G37*
%TD.AperFunction*%
D12*
X133600000Y-83475000D03*
X133600000Y-82825000D03*
X133600000Y-82175000D03*
X133600000Y-81525000D03*
X133600000Y-80875000D03*
X133600000Y-80225000D03*
X133600000Y-79575000D03*
X133600000Y-78925000D03*
X133600000Y-78275000D03*
X133600000Y-77625000D03*
X133600000Y-76975000D03*
X133600000Y-76325000D03*
X126400000Y-76325000D03*
X126400000Y-76975000D03*
X126400000Y-77625000D03*
X126400000Y-78275000D03*
X126400000Y-78925000D03*
X126400000Y-79575000D03*
X126400000Y-80225000D03*
X126400000Y-80875000D03*
X126400000Y-81525000D03*
X126400000Y-82175000D03*
X126400000Y-82825000D03*
X126400000Y-83475000D03*
D13*
X136212600Y-68250400D03*
X136212600Y-70250400D03*
X134212600Y-68250400D03*
X134212600Y-70250400D03*
X136212600Y-58350400D03*
X136212600Y-60350400D03*
X134212600Y-58350400D03*
X134212600Y-60350400D03*
X136212600Y-48450400D03*
X136212600Y-50450400D03*
X134212600Y-48450400D03*
X134212600Y-50450400D03*
X134212600Y-40550400D03*
X134212600Y-38550400D03*
X136212600Y-40550400D03*
X136212600Y-38550400D03*
X124312600Y-40550400D03*
X124312600Y-38550400D03*
X126312600Y-40550400D03*
X126312600Y-38550400D03*
X126312600Y-48450400D03*
X126312600Y-50450400D03*
X124312600Y-48450400D03*
X124312600Y-50450400D03*
X124312600Y-60350400D03*
X124312600Y-58350400D03*
X126312600Y-60350400D03*
X126312600Y-58350400D03*
X124312600Y-70250400D03*
X124312600Y-68250400D03*
X126312600Y-70250400D03*
X126312600Y-68250400D03*
D14*
X137000000Y-93750000D03*
D15*
X134460000Y-93750000D03*
X131920000Y-93750000D03*
X129380000Y-93750000D03*
X126840000Y-93750000D03*
X124300000Y-93750000D03*
D16*
X135075014Y-83690823D03*
X128500000Y-86500000D03*
X140025000Y-88475000D03*
X126500000Y-84999992D03*
X120075000Y-88325000D03*
X127000004Y-74000000D03*
X132899996Y-70200000D03*
X136071928Y-76416863D03*
X132900000Y-68400000D03*
X135346918Y-75675918D03*
X136366985Y-78488605D03*
X132799998Y-60300000D03*
X136143606Y-77513861D03*
X132800002Y-58400000D03*
X136335351Y-80736365D03*
X132800000Y-50500000D03*
X136336190Y-79586190D03*
X132800000Y-48500000D03*
X135957015Y-82847552D03*
X132800000Y-40500000D03*
X136249994Y-81750000D03*
X132800000Y-38600000D03*
X124192304Y-80895655D03*
X123000000Y-40600000D03*
X124171929Y-81941350D03*
X123000000Y-38600000D03*
X124359739Y-78825371D03*
X123000000Y-50400006D03*
X124243979Y-79818660D03*
X123000000Y-48500000D03*
X124367944Y-76842625D03*
X122999992Y-60300000D03*
X124231006Y-77833680D03*
X123000000Y-58400000D03*
X123025010Y-70300000D03*
X125154397Y-75044205D03*
X123000000Y-68300000D03*
X124566795Y-75862583D03*
D17*
X135024999Y-83640808D02*
X135075014Y-83690823D01*
X134725000Y-82175000D02*
X135024999Y-82474999D01*
X133600000Y-82175000D02*
X134725000Y-82175000D01*
X135024999Y-82474999D02*
X135024999Y-83640808D01*
X128500000Y-87825000D02*
X128675000Y-88000000D01*
X128500000Y-86500000D02*
X128500000Y-87825000D01*
X131920000Y-91250000D02*
X131920000Y-93750000D01*
X128675000Y-88005000D02*
X131920000Y-91250000D01*
X128675000Y-88000000D02*
X128675000Y-88005000D01*
X130275000Y-85700000D02*
X132525000Y-85700000D01*
X132525000Y-85700000D02*
X132525000Y-87500000D01*
X132525000Y-85700000D02*
X128625000Y-85700000D01*
X127562500Y-84637500D02*
X126400000Y-83475000D01*
X128625000Y-85700000D02*
X127562500Y-84637500D01*
X140025000Y-87042857D02*
X140025000Y-88475000D01*
X140025000Y-88475000D02*
X140025000Y-88475000D01*
X126400000Y-84899992D02*
X126500000Y-84999992D01*
X126400000Y-83475000D02*
X126400000Y-84899992D01*
X120075000Y-87042857D02*
X120075000Y-88325000D01*
X120075000Y-88325000D02*
X120075000Y-88325000D01*
X130325000Y-88000000D02*
X130325000Y-88191410D01*
X120075000Y-90025000D02*
X120750000Y-90700000D01*
X120075000Y-88325000D02*
X120075000Y-90025000D01*
X132525000Y-87500000D02*
X132525000Y-89265000D01*
X131260000Y-88000000D02*
X132525000Y-89265000D01*
X130325000Y-88000000D02*
X131260000Y-88000000D01*
X140000000Y-72025000D02*
X140000000Y-87000000D01*
X140025000Y-72000000D02*
X140000000Y-72025000D01*
X120075000Y-71900000D02*
X120075000Y-87042857D01*
X127000004Y-73625004D02*
X126075000Y-72700000D01*
X127000004Y-74000000D02*
X127000004Y-73625004D01*
X127287601Y-69225401D02*
X126312600Y-68250400D01*
X127287601Y-71487399D02*
X127287601Y-69225401D01*
X126075000Y-72700000D02*
X127287601Y-71487399D01*
X126312600Y-63337600D02*
X126175000Y-63200000D01*
X126312600Y-68250400D02*
X126312600Y-63337600D01*
X127287601Y-59325401D02*
X126312600Y-58350400D01*
X127287601Y-62087399D02*
X127287601Y-59325401D01*
X126175000Y-63200000D02*
X127287601Y-62087399D01*
X126312600Y-53337600D02*
X126175000Y-53200000D01*
X126312600Y-58350400D02*
X126312600Y-53337600D01*
X127287601Y-49425401D02*
X126312600Y-48450400D01*
X127287601Y-52087399D02*
X127287601Y-49425401D01*
X126175000Y-53200000D02*
X127287601Y-52087399D01*
X126312600Y-43437600D02*
X126175000Y-43300000D01*
X126312600Y-48450400D02*
X126312600Y-43437600D01*
X127287601Y-39525401D02*
X126312600Y-38550400D01*
X127287601Y-42187399D02*
X127287601Y-39525401D01*
X126175000Y-43300000D02*
X127287601Y-42187399D01*
X128063000Y-36800000D02*
X134425000Y-36800000D01*
X126312600Y-38550400D02*
X128063000Y-36800000D01*
X134462200Y-36800000D02*
X136212600Y-38550400D01*
X134425000Y-36800000D02*
X134462200Y-36800000D01*
X135187601Y-45037399D02*
X134525000Y-45700000D01*
X135187601Y-39575399D02*
X135187601Y-45037399D01*
X136212600Y-38550400D02*
X135187601Y-39575399D01*
X134525000Y-46762800D02*
X136212600Y-48450400D01*
X134525000Y-45700000D02*
X134525000Y-46762800D01*
X135187601Y-54937399D02*
X134525000Y-55600000D01*
X135187601Y-49475399D02*
X135187601Y-54937399D01*
X136212600Y-48450400D02*
X135187601Y-49475399D01*
X134525000Y-56662800D02*
X136212600Y-58350400D01*
X134525000Y-55600000D02*
X134525000Y-56662800D01*
X135187601Y-65237399D02*
X134525000Y-65900000D01*
X135187601Y-59375399D02*
X135187601Y-65237399D01*
X136212600Y-58350400D02*
X135187601Y-59375399D01*
X134525000Y-66562800D02*
X136212600Y-68250400D01*
X134525000Y-65900000D02*
X134525000Y-66562800D01*
X134460000Y-91210000D02*
X134460000Y-93750000D01*
X132520000Y-89270000D02*
X134460000Y-91210000D01*
X132525000Y-89265000D02*
X132520000Y-89270000D01*
X133600000Y-82825000D02*
X133600000Y-83475000D01*
X133600000Y-85225000D02*
X134075000Y-85700000D01*
X133600000Y-83475000D02*
X133600000Y-85225000D01*
X134075000Y-85700000D02*
X134075000Y-87500000D01*
X127435002Y-81525000D02*
X126400000Y-81525000D01*
X132635002Y-76325000D02*
X127435002Y-81525000D01*
X133600000Y-76325000D02*
X132635002Y-76325000D01*
X132564998Y-82825000D02*
X133600000Y-82825000D01*
X131264998Y-81525000D02*
X132564998Y-82825000D01*
X126400000Y-81525000D02*
X131264998Y-81525000D01*
X126173002Y-74348002D02*
X124525000Y-72700000D01*
X126274778Y-74348002D02*
X126173002Y-74348002D01*
X128251776Y-76325000D02*
X126274778Y-74348002D01*
X133600000Y-76325000D02*
X128251776Y-76325000D01*
X124525000Y-72038000D02*
X126312600Y-70250400D01*
X124525000Y-72700000D02*
X124525000Y-72038000D01*
X125287601Y-63862601D02*
X124625000Y-63200000D01*
X125287601Y-69225401D02*
X125287601Y-63862601D01*
X126312600Y-70250400D02*
X125287601Y-69225401D01*
X124625000Y-62038000D02*
X126312600Y-60350400D01*
X124625000Y-63200000D02*
X124625000Y-62038000D01*
X125287601Y-53862601D02*
X124625000Y-53200000D01*
X125287601Y-59325401D02*
X125287601Y-53862601D01*
X126312600Y-60350400D02*
X125287601Y-59325401D01*
X124625000Y-52138000D02*
X126312600Y-50450400D01*
X124625000Y-53200000D02*
X124625000Y-52138000D01*
X125287601Y-43962601D02*
X124625000Y-43300000D01*
X125287601Y-49425401D02*
X125287601Y-43962601D01*
X126312600Y-50450400D02*
X125287601Y-49425401D01*
X124625000Y-42238000D02*
X126312600Y-40550400D01*
X124625000Y-43300000D02*
X124625000Y-42238000D01*
X135174990Y-35999990D02*
X135975000Y-36800000D01*
X126978008Y-35999990D02*
X135174990Y-35999990D01*
X125337599Y-37640399D02*
X126978008Y-35999990D01*
X125337599Y-39575399D02*
X125337599Y-37640399D01*
X126312600Y-40550400D02*
X125337599Y-39575399D01*
X137187601Y-39575399D02*
X136212600Y-40550400D01*
X137187601Y-37562601D02*
X137187601Y-39575399D01*
X136425000Y-36800000D02*
X137187601Y-37562601D01*
X135975000Y-36800000D02*
X136425000Y-36800000D01*
X136212600Y-45562400D02*
X136075000Y-45700000D01*
X136212600Y-40550400D02*
X136212600Y-45562400D01*
X137187601Y-49475399D02*
X136212600Y-50450400D01*
X137187601Y-46812601D02*
X137187601Y-49475399D01*
X136075000Y-45700000D02*
X137187601Y-46812601D01*
X136212600Y-55462400D02*
X136075000Y-55600000D01*
X136212600Y-50450400D02*
X136212600Y-55462400D01*
X137187601Y-59375399D02*
X136212600Y-60350400D01*
X137187601Y-56712601D02*
X137187601Y-59375399D01*
X136075000Y-55600000D02*
X137187601Y-56712601D01*
X136212600Y-65762400D02*
X136075000Y-65900000D01*
X136212600Y-60350400D02*
X136212600Y-65762400D01*
X137187601Y-69275399D02*
X136212600Y-70250400D01*
X137187601Y-67012601D02*
X137187601Y-69275399D01*
X136075000Y-65900000D02*
X137187601Y-67012601D01*
X137000000Y-91250000D02*
X137000000Y-93750000D01*
X134075000Y-88325000D02*
X137000000Y-91250000D01*
X134075000Y-87500000D02*
X134075000Y-88325000D01*
X126325000Y-86025000D02*
X126325000Y-86500000D01*
X125199999Y-83960001D02*
X125200011Y-83960013D01*
X125275000Y-82825000D02*
X125199999Y-82900001D01*
X125200011Y-83960013D02*
X125200011Y-84900011D01*
X126400000Y-82825000D02*
X125275000Y-82825000D01*
X125200011Y-84900011D02*
X126325000Y-86025000D01*
X125199999Y-82900001D02*
X125199999Y-83960001D01*
X129380000Y-90030000D02*
X129380000Y-93750000D01*
X126325000Y-86975000D02*
X129380000Y-90030000D01*
X126325000Y-86500000D02*
X126325000Y-86975000D01*
X126325000Y-87717478D02*
X126325000Y-88500000D01*
X125599990Y-86007532D02*
X125599990Y-86992468D01*
X124750000Y-84146413D02*
X124750000Y-85157542D01*
X124749988Y-84146401D02*
X124750000Y-84146413D01*
X124750000Y-85157542D02*
X125599990Y-86007532D01*
X124749988Y-82803599D02*
X124749988Y-84146401D01*
X124750000Y-82803587D02*
X124749988Y-82803599D01*
X124750000Y-82436281D02*
X124750000Y-82803587D01*
X125011281Y-82175000D02*
X124750000Y-82436281D01*
X125599990Y-86992468D02*
X126325000Y-87717478D01*
X126400000Y-82175000D02*
X125011281Y-82175000D01*
X126840000Y-89015000D02*
X126840000Y-93750000D01*
X126325000Y-88500000D02*
X126840000Y-89015000D01*
X133963000Y-70500000D02*
X134212600Y-70250400D01*
X137800000Y-73600000D02*
X136071928Y-75328072D01*
X133600000Y-77625000D02*
X134863791Y-77625000D01*
X134863791Y-77625000D02*
X136071928Y-76416863D01*
X136071928Y-75328072D02*
X136071928Y-76416863D01*
X138375000Y-73600000D02*
X137800000Y-73600000D01*
X134162200Y-70200000D02*
X134212600Y-70250400D01*
X132899996Y-70200000D02*
X134162200Y-70200000D01*
X138375000Y-72000000D02*
X135348796Y-75026204D01*
X135348796Y-75026204D02*
X135348796Y-75675918D01*
X134725000Y-76975000D02*
X135346918Y-76353082D01*
X135348796Y-75675918D02*
X135346918Y-75675918D01*
X133600000Y-76975000D02*
X134725000Y-76975000D01*
X135346918Y-76353082D02*
X135346918Y-75675918D01*
X134063000Y-68400000D02*
X134212600Y-68250400D01*
X132900000Y-68400000D02*
X134063000Y-68400000D01*
X133600000Y-78925000D02*
X135930590Y-78925000D01*
X135930590Y-78925000D02*
X136366985Y-78488605D01*
X136757970Y-78879590D02*
X138375000Y-78879590D01*
X136366985Y-78488605D02*
X136757970Y-78879590D01*
X134163000Y-60400000D02*
X134212600Y-60350400D01*
X134162200Y-60300000D02*
X134212600Y-60350400D01*
X132799998Y-60300000D02*
X134162200Y-60300000D01*
X134112200Y-58250000D02*
X134212600Y-58350400D01*
X138375000Y-76838774D02*
X136818693Y-76838774D01*
X135382467Y-78275000D02*
X136143606Y-77513861D01*
X133600000Y-78275000D02*
X135382467Y-78275000D01*
X136818693Y-76838774D02*
X136143606Y-77513861D01*
X134163000Y-58400000D02*
X134212600Y-58350400D01*
X132800002Y-58400000D02*
X134163000Y-58400000D01*
X135823986Y-80225000D02*
X136335351Y-80736365D01*
X138375000Y-82776014D02*
X136335351Y-80736365D01*
X133600000Y-80225000D02*
X135823986Y-80225000D01*
X138375000Y-82961222D02*
X138375000Y-82776014D01*
X134163000Y-50500000D02*
X134212600Y-50450400D01*
X132800000Y-50500000D02*
X134163000Y-50500000D01*
X137670406Y-80920406D02*
X136336190Y-79586190D01*
X138375000Y-80920406D02*
X137670406Y-80920406D01*
X133600000Y-79575000D02*
X136325000Y-79575000D01*
X136325000Y-79575000D02*
X136336190Y-79586190D01*
X134163000Y-48500000D02*
X134212600Y-48450400D01*
X132800000Y-48500000D02*
X134163000Y-48500000D01*
X135957015Y-82757015D02*
X135957015Y-82847552D01*
X134725000Y-81525000D02*
X135957015Y-82757015D01*
X133600000Y-81525000D02*
X134725000Y-81525000D01*
X135957015Y-84340944D02*
X135957015Y-82847552D01*
X138375000Y-86758929D02*
X135957015Y-84340944D01*
X138375000Y-87042857D02*
X138375000Y-86758929D01*
X134162200Y-40500000D02*
X134212600Y-40550400D01*
X132800000Y-40500000D02*
X134162200Y-40500000D01*
X133600000Y-80875000D02*
X135374994Y-80875000D01*
X135374994Y-80875000D02*
X136249994Y-81750000D01*
X137502038Y-85002038D02*
X138375000Y-85002038D01*
X136682016Y-84182016D02*
X137502038Y-85002038D01*
X136682016Y-82182022D02*
X136682016Y-84182016D01*
X136249994Y-81750000D02*
X136682016Y-82182022D01*
X134163000Y-38600000D02*
X134212600Y-38550400D01*
X132800000Y-38600000D02*
X134163000Y-38600000D01*
X123188500Y-81899459D02*
X124192304Y-80895655D01*
X121725000Y-85001016D02*
X123188500Y-83537516D01*
X126400000Y-80225000D02*
X124862959Y-80225000D01*
X124862959Y-80225000D02*
X124192304Y-80895655D01*
X123188500Y-83537516D02*
X123188500Y-81899459D01*
X124263000Y-40600000D02*
X124312600Y-40550400D01*
X123000000Y-40600000D02*
X124263000Y-40600000D01*
X123771930Y-82341349D02*
X124171929Y-81941350D01*
X126400000Y-80875000D02*
X125238279Y-80875000D01*
X125238279Y-80875000D02*
X124171929Y-81941350D01*
X121725000Y-87042857D02*
X123771930Y-84995927D01*
X123771930Y-84995927D02*
X123771930Y-82341349D01*
X124263000Y-38600000D02*
X124312600Y-38550400D01*
X123000000Y-38600000D02*
X124263000Y-38600000D01*
X126400000Y-78850000D02*
X126375001Y-78825001D01*
X126400000Y-78925000D02*
X126400000Y-78850000D01*
X122072291Y-80917344D02*
X124164264Y-78825371D01*
X124164264Y-78825371D02*
X124359739Y-78825371D01*
X126400000Y-78925000D02*
X124459368Y-78925000D01*
X121725000Y-80917344D02*
X122072291Y-80917344D01*
X124459368Y-78925000D02*
X124359739Y-78825371D01*
X124262206Y-50400006D02*
X124312600Y-50450400D01*
X123000000Y-50400006D02*
X124262206Y-50400006D01*
X121725000Y-82959180D02*
X121725000Y-82337639D01*
X121725000Y-82337639D02*
X124243979Y-79818660D01*
X126400000Y-79575000D02*
X124487639Y-79575000D01*
X124487639Y-79575000D02*
X124243979Y-79818660D01*
X124263000Y-48500000D02*
X124312600Y-48450400D01*
X123000000Y-48500000D02*
X124263000Y-48500000D01*
X121725000Y-76833672D02*
X124358991Y-76833672D01*
X125150319Y-77625000D02*
X124367944Y-76842625D01*
X124358991Y-76833672D02*
X124367944Y-76842625D01*
X126400000Y-77625000D02*
X125150319Y-77625000D01*
X124262200Y-60300000D02*
X124312600Y-60350400D01*
X122999992Y-60300000D02*
X124262200Y-60300000D01*
X126400000Y-78275000D02*
X124882370Y-78275000D01*
X121725000Y-78875508D02*
X123189178Y-78875508D01*
X123189178Y-78875508D02*
X124231006Y-77833680D01*
X124441050Y-77833680D02*
X124231006Y-77833680D01*
X124882370Y-78275000D02*
X124441050Y-77833680D01*
X124263000Y-58400000D02*
X124312600Y-58350400D01*
X123000000Y-58400000D02*
X124263000Y-58400000D01*
X125154397Y-75079397D02*
X125154397Y-75044205D01*
X126400000Y-76325000D02*
X125154397Y-75079397D01*
X124263000Y-70300000D02*
X124312600Y-70250400D01*
X123025010Y-70300000D02*
X124263000Y-70300000D01*
X122010192Y-71900000D02*
X125154397Y-75044205D01*
X121725000Y-71900000D02*
X122010192Y-71900000D01*
X125092945Y-76388733D02*
X124566795Y-75862583D01*
X125275000Y-76975000D02*
X125092945Y-76792945D01*
X125092945Y-76792945D02*
X125092945Y-76388733D01*
X126400000Y-76975000D02*
X125275000Y-76975000D01*
X124263000Y-68300000D02*
X124312600Y-68250400D01*
X123000000Y-68300000D02*
X124263000Y-68300000D01*
X122204212Y-73500000D02*
X124566795Y-75862583D01*
X121725000Y-73500000D02*
X122204212Y-73500000D01*
X123850000Y-93300000D02*
X124300000Y-93750000D01*
X120750000Y-93300000D02*
X123850000Y-93300000D01*
X124675000Y-86500000D02*
X124675000Y-88500000D01*
X121750000Y-92000000D02*
X120750000Y-92000000D01*
X124675000Y-89075000D02*
X121750000Y-92000000D01*
X124675000Y-88500000D02*
X124675000Y-89075000D01*
M02*
