M48
; DRILL file {KiCad (5.1.12)-1} date 08/18/22 12:31:06
; FORMAT={-:-/ absolute / metric / decimal}
; #@! TF.CreationDate,2022-08-18T12:31:06-07:00
; #@! TF.GenerationSoftware,Kicad,Pcbnew,(5.1.12)-1
; #@! TF.FileFunction,Plated,1,2,PTH
FMAT,2
METRIC
T1C0.400
T2C1.100
%
G90
G05
T1
X120.075Y-88.325
X123.0Y-60.3
X123.0Y-38.6
X123.0Y-40.6
X123.0Y-48.5
X123.0Y-50.4
X123.0Y-58.4
X123.0Y-68.3
X123.025Y-70.3
X124.172Y-81.941
X124.192Y-80.896
X124.231Y-77.834
X124.244Y-79.819
X124.36Y-78.825
X124.368Y-76.843
X124.567Y-75.863
X125.154Y-75.044
X126.5Y-85.0
X127.0Y-74.0
X128.5Y-86.5
X132.8Y-60.3
X132.8Y-38.6
X132.8Y-40.5
X132.8Y-48.5
X132.8Y-50.5
X132.8Y-58.4
X132.9Y-70.2
X132.9Y-68.4
X135.075Y-83.691
X135.347Y-75.676
X135.957Y-82.848
X136.072Y-76.417
X136.144Y-77.514
X136.25Y-81.75
X136.335Y-80.736
X136.336Y-79.586
X136.367Y-78.489
X140.025Y-88.475
T2
X124.3Y-93.75
X126.84Y-93.75
X129.38Y-93.75
X131.92Y-93.75
X134.46Y-93.75
X137.0Y-93.75
T0
M30
