%TF.GenerationSoftware,KiCad,Pcbnew,(5.1.12)-1*%
%TF.CreationDate,2022-08-18T12:31:04-07:00*%
%TF.ProjectId,HighPressureSensorArray,48696768-5072-4657-9373-75726553656e,rev?*%
%TF.SameCoordinates,Original*%
%TF.FileFunction,Legend,Top*%
%TF.FilePolarity,Positive*%
%FSLAX46Y46*%
G04 Gerber Fmt 4.6, Leading zero omitted, Abs format (unit mm)*
G04 Created by KiCad (PCBNEW (5.1.12)-1) date 2022-08-18 12:31:04*
%MOMM*%
%LPD*%
G01*
G04 APERTURE LIST*
%ADD10C,0.500000*%
%ADD11C,0.150000*%
%ADD12C,0.125000*%
%ADD13C,0.120000*%
%ADD14C,0.050000*%
%ADD15C,0.400000*%
%ADD16C,0.062500*%
%ADD17R,1.500000X1.000000*%
%ADD18R,1.750000X0.450000*%
%ADD19R,1.300000X1.300000*%
%ADD20C,2.100000*%
%ADD21R,2.200000X2.200000*%
%ADD22C,2.200000*%
G04 APERTURE END LIST*
D10*
X124241421Y-74950000D02*
G75*
G03*
X124241421Y-74950000I-141421J0D01*
G01*
D11*
X124357142Y-89339285D02*
X124000000Y-89339285D01*
X123964285Y-89696428D01*
X124000000Y-89660714D01*
X124071428Y-89625000D01*
X124250000Y-89625000D01*
X124321428Y-89660714D01*
X124357142Y-89696428D01*
X124392857Y-89767857D01*
X124392857Y-89946428D01*
X124357142Y-90017857D01*
X124321428Y-90053571D01*
X124250000Y-90089285D01*
X124071428Y-90089285D01*
X124000000Y-90053571D01*
X123964285Y-90017857D01*
X124607142Y-89339285D02*
X124857142Y-90089285D01*
X125107142Y-89339285D01*
X126107142Y-90053571D02*
X126214285Y-90089285D01*
X126392857Y-90089285D01*
X126464285Y-90053571D01*
X126500000Y-90017857D01*
X126535714Y-89946428D01*
X126535714Y-89875000D01*
X126500000Y-89803571D01*
X126464285Y-89767857D01*
X126392857Y-89732142D01*
X126250000Y-89696428D01*
X126178571Y-89660714D01*
X126142857Y-89625000D01*
X126107142Y-89553571D01*
X126107142Y-89482142D01*
X126142857Y-89410714D01*
X126178571Y-89375000D01*
X126250000Y-89339285D01*
X126428571Y-89339285D01*
X126535714Y-89375000D01*
X127285714Y-90017857D02*
X127250000Y-90053571D01*
X127142857Y-90089285D01*
X127071428Y-90089285D01*
X126964285Y-90053571D01*
X126892857Y-89982142D01*
X126857142Y-89910714D01*
X126821428Y-89767857D01*
X126821428Y-89660714D01*
X126857142Y-89517857D01*
X126892857Y-89446428D01*
X126964285Y-89375000D01*
X127071428Y-89339285D01*
X127142857Y-89339285D01*
X127250000Y-89375000D01*
X127285714Y-89410714D01*
X127964285Y-90089285D02*
X127607142Y-90089285D01*
X127607142Y-89339285D01*
X128589285Y-90053571D02*
X128696428Y-90089285D01*
X128875000Y-90089285D01*
X128946428Y-90053571D01*
X128982142Y-90017857D01*
X129017857Y-89946428D01*
X129017857Y-89875000D01*
X128982142Y-89803571D01*
X128946428Y-89767857D01*
X128875000Y-89732142D01*
X128732142Y-89696428D01*
X128660714Y-89660714D01*
X128625000Y-89625000D01*
X128589285Y-89553571D01*
X128589285Y-89482142D01*
X128625000Y-89410714D01*
X128660714Y-89375000D01*
X128732142Y-89339285D01*
X128910714Y-89339285D01*
X129017857Y-89375000D01*
X129339285Y-90089285D02*
X129339285Y-89339285D01*
X129517857Y-89339285D01*
X129625000Y-89375000D01*
X129696428Y-89446428D01*
X129732142Y-89517857D01*
X129767857Y-89660714D01*
X129767857Y-89767857D01*
X129732142Y-89910714D01*
X129696428Y-89982142D01*
X129625000Y-90053571D01*
X129517857Y-90089285D01*
X129339285Y-90089285D01*
X130053571Y-89875000D02*
X130410714Y-89875000D01*
X129982142Y-90089285D02*
X130232142Y-89339285D01*
X130482142Y-90089285D01*
D12*
X131523809Y-90089285D02*
X131357142Y-89732142D01*
X131238095Y-90089285D02*
X131238095Y-89339285D01*
X131428571Y-89339285D01*
X131476190Y-89375000D01*
X131500000Y-89410714D01*
X131523809Y-89482142D01*
X131523809Y-89589285D01*
X131500000Y-89660714D01*
X131476190Y-89696428D01*
X131428571Y-89732142D01*
X131238095Y-89732142D01*
X131738095Y-89696428D02*
X131904761Y-89696428D01*
X131976190Y-90089285D02*
X131738095Y-90089285D01*
X131738095Y-89339285D01*
X131976190Y-89339285D01*
X132166666Y-90053571D02*
X132238095Y-90089285D01*
X132357142Y-90089285D01*
X132404761Y-90053571D01*
X132428571Y-90017857D01*
X132452380Y-89946428D01*
X132452380Y-89875000D01*
X132428571Y-89803571D01*
X132404761Y-89767857D01*
X132357142Y-89732142D01*
X132261904Y-89696428D01*
X132214285Y-89660714D01*
X132190476Y-89625000D01*
X132166666Y-89553571D01*
X132166666Y-89482142D01*
X132190476Y-89410714D01*
X132214285Y-89375000D01*
X132261904Y-89339285D01*
X132380952Y-89339285D01*
X132452380Y-89375000D01*
X132666666Y-89696428D02*
X132833333Y-89696428D01*
X132904761Y-90089285D02*
X132666666Y-90089285D01*
X132666666Y-89339285D01*
X132904761Y-89339285D01*
X133047619Y-89339285D02*
X133333333Y-89339285D01*
X133190476Y-90089285D02*
X133190476Y-89339285D01*
D11*
X133821428Y-89339285D02*
X134285714Y-89339285D01*
X134035714Y-89625000D01*
X134142857Y-89625000D01*
X134214285Y-89660714D01*
X134250000Y-89696428D01*
X134285714Y-89767857D01*
X134285714Y-89946428D01*
X134250000Y-90017857D01*
X134214285Y-90053571D01*
X134142857Y-90089285D01*
X133928571Y-90089285D01*
X133857142Y-90053571D01*
X133821428Y-90017857D01*
X134500000Y-89339285D02*
X134750000Y-90089285D01*
X135000000Y-89339285D01*
X135178571Y-89339285D02*
X135642857Y-89339285D01*
X135392857Y-89625000D01*
X135500000Y-89625000D01*
X135571428Y-89660714D01*
X135607142Y-89696428D01*
X135642857Y-89767857D01*
X135642857Y-89946428D01*
X135607142Y-90017857D01*
X135571428Y-90053571D01*
X135500000Y-90089285D01*
X135285714Y-90089285D01*
X135214285Y-90053571D01*
X135178571Y-90017857D01*
X136678571Y-89375000D02*
X136607142Y-89339285D01*
X136500000Y-89339285D01*
X136392857Y-89375000D01*
X136321428Y-89446428D01*
X136285714Y-89517857D01*
X136250000Y-89660714D01*
X136250000Y-89767857D01*
X136285714Y-89910714D01*
X136321428Y-89982142D01*
X136392857Y-90053571D01*
X136500000Y-90089285D01*
X136571428Y-90089285D01*
X136678571Y-90053571D01*
X136714285Y-90017857D01*
X136714285Y-89767857D01*
X136571428Y-89767857D01*
X137035714Y-90089285D02*
X137035714Y-89339285D01*
X137464285Y-90089285D01*
X137464285Y-89339285D01*
X137821428Y-90089285D02*
X137821428Y-89339285D01*
X138000000Y-89339285D01*
X138107142Y-89375000D01*
X138178571Y-89446428D01*
X138214285Y-89517857D01*
X138250000Y-89660714D01*
X138250000Y-89767857D01*
X138214285Y-89910714D01*
X138178571Y-89982142D01*
X138107142Y-90053571D01*
X138000000Y-90089285D01*
X137821428Y-90089285D01*
X116127380Y-70297619D02*
X115127380Y-70297619D01*
X115603571Y-70297619D02*
X115603571Y-69726190D01*
X116127380Y-69726190D02*
X115127380Y-69726190D01*
X116127380Y-69250000D02*
X115127380Y-69250000D01*
X115175000Y-68250000D02*
X115127380Y-68345238D01*
X115127380Y-68488095D01*
X115175000Y-68630952D01*
X115270238Y-68726190D01*
X115365476Y-68773809D01*
X115555952Y-68821428D01*
X115698809Y-68821428D01*
X115889285Y-68773809D01*
X115984523Y-68726190D01*
X116079761Y-68630952D01*
X116127380Y-68488095D01*
X116127380Y-68392857D01*
X116079761Y-68250000D01*
X116032142Y-68202380D01*
X115698809Y-68202380D01*
X115698809Y-68392857D01*
X116127380Y-67773809D02*
X115127380Y-67773809D01*
X115603571Y-67773809D02*
X115603571Y-67202380D01*
X116127380Y-67202380D02*
X115127380Y-67202380D01*
X116127380Y-65964285D02*
X115127380Y-65964285D01*
X115127380Y-65583333D01*
X115175000Y-65488095D01*
X115222619Y-65440476D01*
X115317857Y-65392857D01*
X115460714Y-65392857D01*
X115555952Y-65440476D01*
X115603571Y-65488095D01*
X115651190Y-65583333D01*
X115651190Y-65964285D01*
X116127380Y-64392857D02*
X115651190Y-64726190D01*
X116127380Y-64964285D02*
X115127380Y-64964285D01*
X115127380Y-64583333D01*
X115175000Y-64488095D01*
X115222619Y-64440476D01*
X115317857Y-64392857D01*
X115460714Y-64392857D01*
X115555952Y-64440476D01*
X115603571Y-64488095D01*
X115651190Y-64583333D01*
X115651190Y-64964285D01*
X115603571Y-63964285D02*
X115603571Y-63630952D01*
X116127380Y-63488095D02*
X116127380Y-63964285D01*
X115127380Y-63964285D01*
X115127380Y-63488095D01*
X116079761Y-63107142D02*
X116127380Y-62964285D01*
X116127380Y-62726190D01*
X116079761Y-62630952D01*
X116032142Y-62583333D01*
X115936904Y-62535714D01*
X115841666Y-62535714D01*
X115746428Y-62583333D01*
X115698809Y-62630952D01*
X115651190Y-62726190D01*
X115603571Y-62916666D01*
X115555952Y-63011904D01*
X115508333Y-63059523D01*
X115413095Y-63107142D01*
X115317857Y-63107142D01*
X115222619Y-63059523D01*
X115175000Y-63011904D01*
X115127380Y-62916666D01*
X115127380Y-62678571D01*
X115175000Y-62535714D01*
X116079761Y-62154761D02*
X116127380Y-62011904D01*
X116127380Y-61773809D01*
X116079761Y-61678571D01*
X116032142Y-61630952D01*
X115936904Y-61583333D01*
X115841666Y-61583333D01*
X115746428Y-61630952D01*
X115698809Y-61678571D01*
X115651190Y-61773809D01*
X115603571Y-61964285D01*
X115555952Y-62059523D01*
X115508333Y-62107142D01*
X115413095Y-62154761D01*
X115317857Y-62154761D01*
X115222619Y-62107142D01*
X115175000Y-62059523D01*
X115127380Y-61964285D01*
X115127380Y-61726190D01*
X115175000Y-61583333D01*
X115127380Y-61154761D02*
X115936904Y-61154761D01*
X116032142Y-61107142D01*
X116079761Y-61059523D01*
X116127380Y-60964285D01*
X116127380Y-60773809D01*
X116079761Y-60678571D01*
X116032142Y-60630952D01*
X115936904Y-60583333D01*
X115127380Y-60583333D01*
X116127380Y-59535714D02*
X115651190Y-59869047D01*
X116127380Y-60107142D02*
X115127380Y-60107142D01*
X115127380Y-59726190D01*
X115175000Y-59630952D01*
X115222619Y-59583333D01*
X115317857Y-59535714D01*
X115460714Y-59535714D01*
X115555952Y-59583333D01*
X115603571Y-59630952D01*
X115651190Y-59726190D01*
X115651190Y-60107142D01*
X115603571Y-59107142D02*
X115603571Y-58773809D01*
X116127380Y-58630952D02*
X116127380Y-59107142D01*
X115127380Y-59107142D01*
X115127380Y-58630952D01*
X116127380Y-56869047D02*
X115651190Y-57202380D01*
X116127380Y-57440476D02*
X115127380Y-57440476D01*
X115127380Y-57059523D01*
X115175000Y-56964285D01*
X115222619Y-56916666D01*
X115317857Y-56869047D01*
X115460714Y-56869047D01*
X115555952Y-56916666D01*
X115603571Y-56964285D01*
X115651190Y-57059523D01*
X115651190Y-57440476D01*
X115603571Y-56440476D02*
X115603571Y-56107142D01*
X116127380Y-55964285D02*
X116127380Y-56440476D01*
X115127380Y-56440476D01*
X115127380Y-55964285D01*
X115127380Y-55678571D02*
X116127380Y-55345238D01*
X115127380Y-55011904D01*
X116127380Y-54154761D02*
X116127380Y-54726190D01*
X116127380Y-54440476D02*
X115127380Y-54440476D01*
X115270238Y-54535714D01*
X115365476Y-54630952D01*
X115413095Y-54726190D01*
X117777380Y-65464285D02*
X117301190Y-65797619D01*
X117777380Y-66035714D02*
X116777380Y-66035714D01*
X116777380Y-65654761D01*
X116825000Y-65559523D01*
X116872619Y-65511904D01*
X116967857Y-65464285D01*
X117110714Y-65464285D01*
X117205952Y-65511904D01*
X117253571Y-65559523D01*
X117301190Y-65654761D01*
X117301190Y-66035714D01*
X117253571Y-65035714D02*
X117253571Y-64273809D01*
X117539285Y-64273809D02*
X117539285Y-65035714D01*
X117777380Y-63750000D02*
X117777380Y-63559523D01*
X117729761Y-63464285D01*
X117682142Y-63416666D01*
X117539285Y-63321428D01*
X117348809Y-63273809D01*
X116967857Y-63273809D01*
X116872619Y-63321428D01*
X116825000Y-63369047D01*
X116777380Y-63464285D01*
X116777380Y-63654761D01*
X116825000Y-63750000D01*
X116872619Y-63797619D01*
X116967857Y-63845238D01*
X117205952Y-63845238D01*
X117301190Y-63797619D01*
X117348809Y-63750000D01*
X117396428Y-63654761D01*
X117396428Y-63464285D01*
X117348809Y-63369047D01*
X117301190Y-63321428D01*
X117205952Y-63273809D01*
X117682142Y-62845238D02*
X117729761Y-62797619D01*
X117777380Y-62845238D01*
X117729761Y-62892857D01*
X117682142Y-62845238D01*
X117777380Y-62845238D01*
X117777380Y-62321428D02*
X117777380Y-62130952D01*
X117729761Y-62035714D01*
X117682142Y-61988095D01*
X117539285Y-61892857D01*
X117348809Y-61845238D01*
X116967857Y-61845238D01*
X116872619Y-61892857D01*
X116825000Y-61940476D01*
X116777380Y-62035714D01*
X116777380Y-62226190D01*
X116825000Y-62321428D01*
X116872619Y-62369047D01*
X116967857Y-62416666D01*
X117205952Y-62416666D01*
X117301190Y-62369047D01*
X117348809Y-62321428D01*
X117396428Y-62226190D01*
X117396428Y-62035714D01*
X117348809Y-61940476D01*
X117301190Y-61892857D01*
X117205952Y-61845238D01*
X117777380Y-61416666D02*
X117110714Y-61416666D01*
X117205952Y-61416666D02*
X117158333Y-61369047D01*
X117110714Y-61273809D01*
X117110714Y-61130952D01*
X117158333Y-61035714D01*
X117253571Y-60988095D01*
X117777380Y-60988095D01*
X117253571Y-60988095D02*
X117158333Y-60940476D01*
X117110714Y-60845238D01*
X117110714Y-60702380D01*
X117158333Y-60607142D01*
X117253571Y-60559523D01*
X117777380Y-60559523D01*
X117777380Y-60083333D02*
X117110714Y-60083333D01*
X117205952Y-60083333D02*
X117158333Y-60035714D01*
X117110714Y-59940476D01*
X117110714Y-59797619D01*
X117158333Y-59702380D01*
X117253571Y-59654761D01*
X117777380Y-59654761D01*
X117253571Y-59654761D02*
X117158333Y-59607142D01*
X117110714Y-59511904D01*
X117110714Y-59369047D01*
X117158333Y-59273809D01*
X117253571Y-59226190D01*
X117777380Y-59226190D01*
D13*
X119750000Y-89950000D02*
X121750000Y-89950000D01*
X119750000Y-94050000D02*
X119750000Y-89950000D01*
X121750000Y-94050000D02*
X119750000Y-94050000D01*
X121750000Y-89950000D02*
X121750000Y-94050000D01*
X125259420Y-43810000D02*
X125540580Y-43810000D01*
X125259420Y-42790000D02*
X125540580Y-42790000D01*
X125259420Y-52690000D02*
X125540580Y-52690000D01*
X125259420Y-53710000D02*
X125540580Y-53710000D01*
X125259420Y-63710000D02*
X125540580Y-63710000D01*
X125259420Y-62690000D02*
X125540580Y-62690000D01*
X125159420Y-72190000D02*
X125440580Y-72190000D01*
X125159420Y-73210000D02*
X125440580Y-73210000D01*
X135340580Y-36290000D02*
X135059420Y-36290000D01*
X135340580Y-37310000D02*
X135059420Y-37310000D01*
X135440580Y-46210000D02*
X135159420Y-46210000D01*
X135440580Y-45190000D02*
X135159420Y-45190000D01*
X135440580Y-56110000D02*
X135159420Y-56110000D01*
X135440580Y-55090000D02*
X135159420Y-55090000D01*
X135440580Y-65390000D02*
X135159420Y-65390000D01*
X135440580Y-66410000D02*
X135159420Y-66410000D01*
X133159420Y-85190000D02*
X133440580Y-85190000D01*
X133159420Y-86210000D02*
X133440580Y-86210000D01*
X133159420Y-88010000D02*
X133440580Y-88010000D01*
X133159420Y-86990000D02*
X133440580Y-86990000D01*
X139437258Y-73077500D02*
X138962742Y-73077500D01*
X139437258Y-74122500D02*
X138962742Y-74122500D01*
X139437258Y-72522500D02*
X138962742Y-72522500D01*
X139437258Y-71477500D02*
X138962742Y-71477500D01*
X139437258Y-79402090D02*
X138962742Y-79402090D01*
X139437258Y-78357090D02*
X138962742Y-78357090D01*
X139437258Y-76316274D02*
X138962742Y-76316274D01*
X139437258Y-77361274D02*
X138962742Y-77361274D01*
X139437258Y-82438722D02*
X138962742Y-82438722D01*
X139437258Y-83483722D02*
X138962742Y-83483722D01*
X139437258Y-81442906D02*
X138962742Y-81442906D01*
X139437258Y-80397906D02*
X138962742Y-80397906D01*
X139437258Y-87565357D02*
X138962742Y-87565357D01*
X139437258Y-86520357D02*
X138962742Y-86520357D01*
X139437258Y-84479538D02*
X138962742Y-84479538D01*
X139437258Y-85524538D02*
X138962742Y-85524538D01*
X120662742Y-84478516D02*
X121137258Y-84478516D01*
X120662742Y-85523516D02*
X121137258Y-85523516D01*
X120662742Y-86520357D02*
X121137258Y-86520357D01*
X120662742Y-87565357D02*
X121137258Y-87565357D01*
X120662742Y-80394844D02*
X121137258Y-80394844D01*
X120662742Y-81439844D02*
X121137258Y-81439844D01*
X120662742Y-83481680D02*
X121137258Y-83481680D01*
X120662742Y-82436680D02*
X121137258Y-82436680D01*
X120662742Y-76311172D02*
X121137258Y-76311172D01*
X120662742Y-77356172D02*
X121137258Y-77356172D01*
X120662742Y-79398008D02*
X121137258Y-79398008D01*
X120662742Y-78353008D02*
X121137258Y-78353008D01*
X120662742Y-71377500D02*
X121137258Y-71377500D01*
X120662742Y-72422500D02*
X121137258Y-72422500D01*
X120662742Y-74022500D02*
X121137258Y-74022500D01*
X120662742Y-72977500D02*
X121137258Y-72977500D01*
X125737258Y-89022500D02*
X125262742Y-89022500D01*
X125737258Y-87977500D02*
X125262742Y-87977500D01*
X125737258Y-85977500D02*
X125262742Y-85977500D01*
X125737258Y-87022500D02*
X125262742Y-87022500D01*
X129737258Y-87477500D02*
X129262742Y-87477500D01*
X129737258Y-88522500D02*
X129262742Y-88522500D01*
D11*
X132875000Y-84225000D02*
X132875000Y-84000000D01*
X127125000Y-84225000D02*
X127125000Y-83925000D01*
X127125000Y-75575000D02*
X127125000Y-75875000D01*
X132875000Y-75575000D02*
X132875000Y-75875000D01*
X132875000Y-84225000D02*
X127125000Y-84225000D01*
X132875000Y-75575000D02*
X127125000Y-75575000D01*
X132875000Y-84000000D02*
X134475000Y-84000000D01*
D14*
X136862600Y-67600400D02*
X136862600Y-70900400D01*
X133562600Y-70900400D02*
X136862600Y-70900400D01*
X133562600Y-67600400D02*
X136862600Y-67600400D01*
X133562600Y-67600400D02*
X133562600Y-70900400D01*
D15*
X137613000Y-71400000D02*
G75*
G03*
X137613000Y-71400000I-200000J0D01*
G01*
D14*
X136862600Y-57700400D02*
X136862600Y-61000400D01*
X133562600Y-61000400D02*
X136862600Y-61000400D01*
X133562600Y-57700400D02*
X136862600Y-57700400D01*
X133562600Y-57700400D02*
X133562600Y-61000400D01*
D15*
X137613000Y-61500000D02*
G75*
G03*
X137613000Y-61500000I-200000J0D01*
G01*
D14*
X136862600Y-47800400D02*
X136862600Y-51100400D01*
X133562600Y-51100400D02*
X136862600Y-51100400D01*
X133562600Y-47800400D02*
X136862600Y-47800400D01*
X133562600Y-47800400D02*
X133562600Y-51100400D01*
D15*
X137613000Y-51600000D02*
G75*
G03*
X137613000Y-51600000I-200000J0D01*
G01*
X137613000Y-41700000D02*
G75*
G03*
X137613000Y-41700000I-200000J0D01*
G01*
D14*
X133562600Y-37900400D02*
X133562600Y-41200400D01*
X133562600Y-37900400D02*
X136862600Y-37900400D01*
X133562600Y-41200400D02*
X136862600Y-41200400D01*
X136862600Y-37900400D02*
X136862600Y-41200400D01*
D15*
X127713000Y-41700000D02*
G75*
G03*
X127713000Y-41700000I-200000J0D01*
G01*
D14*
X123662600Y-37900400D02*
X123662600Y-41200400D01*
X123662600Y-37900400D02*
X126962600Y-37900400D01*
X123662600Y-41200400D02*
X126962600Y-41200400D01*
X126962600Y-37900400D02*
X126962600Y-41200400D01*
X126962600Y-47800400D02*
X126962600Y-51100400D01*
X123662600Y-51100400D02*
X126962600Y-51100400D01*
X123662600Y-47800400D02*
X126962600Y-47800400D01*
X123662600Y-47800400D02*
X123662600Y-51100400D01*
D15*
X127713000Y-51600000D02*
G75*
G03*
X127713000Y-51600000I-200000J0D01*
G01*
X127713000Y-61500000D02*
G75*
G03*
X127713000Y-61500000I-200000J0D01*
G01*
D14*
X123662600Y-57700400D02*
X123662600Y-61000400D01*
X123662600Y-57700400D02*
X126962600Y-57700400D01*
X123662600Y-61000400D02*
X126962600Y-61000400D01*
X126962600Y-57700400D02*
X126962600Y-61000400D01*
D15*
X127713000Y-71400000D02*
G75*
G03*
X127713000Y-71400000I-200000J0D01*
G01*
D14*
X123662600Y-67600400D02*
X123662600Y-70900400D01*
X123662600Y-67600400D02*
X126962600Y-67600400D01*
X123662600Y-70900400D02*
X126962600Y-70900400D01*
X126962600Y-67600400D02*
X126962600Y-70900400D01*
D13*
X138560000Y-91150000D02*
X122740000Y-91150000D01*
X138560000Y-96450000D02*
X122740000Y-96450000D01*
X138560000Y-96910000D02*
X122740000Y-96910000D01*
X138560000Y-90590000D02*
X122740000Y-90590000D01*
X138560000Y-96910000D02*
X138560000Y-90590000D01*
X122740000Y-96910000D02*
X122740000Y-90590000D01*
X138800000Y-91090000D02*
X138800000Y-90350000D01*
X138800000Y-90350000D02*
X138300000Y-90350000D01*
D11*
X120125000Y-94539285D02*
X120125000Y-95075000D01*
X120089285Y-95182142D01*
X120017857Y-95253571D01*
X119910714Y-95289285D01*
X119839285Y-95289285D01*
X120482142Y-95289285D02*
X120482142Y-94539285D01*
X120767857Y-94539285D01*
X120839285Y-94575000D01*
X120875000Y-94610714D01*
X120910714Y-94682142D01*
X120910714Y-94789285D01*
X120875000Y-94860714D01*
X120839285Y-94896428D01*
X120767857Y-94932142D01*
X120482142Y-94932142D01*
X121625000Y-95289285D02*
X121196428Y-95289285D01*
X121410714Y-95289285D02*
X121410714Y-94539285D01*
X121339285Y-94646428D01*
X121267857Y-94717857D01*
X121196428Y-94753571D01*
X122166666Y-92902380D02*
X122785714Y-92902380D01*
X122452380Y-93283333D01*
X122595238Y-93283333D01*
X122690476Y-93330952D01*
X122738095Y-93378571D01*
X122785714Y-93473809D01*
X122785714Y-93711904D01*
X122738095Y-93807142D01*
X122690476Y-93854761D01*
X122595238Y-93902380D01*
X122309523Y-93902380D01*
X122214285Y-93854761D01*
X122166666Y-93807142D01*
X122785714Y-90902380D02*
X122214285Y-90902380D01*
X122500000Y-90902380D02*
X122500000Y-89902380D01*
X122404761Y-90045238D01*
X122309523Y-90140476D01*
X122214285Y-90188095D01*
X122233333Y-43577142D02*
X122185714Y-43624761D01*
X122042857Y-43672380D01*
X121947619Y-43672380D01*
X121804761Y-43624761D01*
X121709523Y-43529523D01*
X121661904Y-43434285D01*
X121614285Y-43243809D01*
X121614285Y-43100952D01*
X121661904Y-42910476D01*
X121709523Y-42815238D01*
X121804761Y-42720000D01*
X121947619Y-42672380D01*
X122042857Y-42672380D01*
X122185714Y-42720000D01*
X122233333Y-42767619D01*
X123185714Y-43672380D02*
X122614285Y-43672380D01*
X122900000Y-43672380D02*
X122900000Y-42672380D01*
X122804761Y-42815238D01*
X122709523Y-42910476D01*
X122614285Y-42958095D01*
X122163333Y-53617142D02*
X122115714Y-53664761D01*
X121972857Y-53712380D01*
X121877619Y-53712380D01*
X121734761Y-53664761D01*
X121639523Y-53569523D01*
X121591904Y-53474285D01*
X121544285Y-53283809D01*
X121544285Y-53140952D01*
X121591904Y-52950476D01*
X121639523Y-52855238D01*
X121734761Y-52760000D01*
X121877619Y-52712380D01*
X121972857Y-52712380D01*
X122115714Y-52760000D01*
X122163333Y-52807619D01*
X122544285Y-52807619D02*
X122591904Y-52760000D01*
X122687142Y-52712380D01*
X122925238Y-52712380D01*
X123020476Y-52760000D01*
X123068095Y-52807619D01*
X123115714Y-52902857D01*
X123115714Y-52998095D01*
X123068095Y-53140952D01*
X122496666Y-53712380D01*
X123115714Y-53712380D01*
X122363333Y-63577142D02*
X122315714Y-63624761D01*
X122172857Y-63672380D01*
X122077619Y-63672380D01*
X121934761Y-63624761D01*
X121839523Y-63529523D01*
X121791904Y-63434285D01*
X121744285Y-63243809D01*
X121744285Y-63100952D01*
X121791904Y-62910476D01*
X121839523Y-62815238D01*
X121934761Y-62720000D01*
X122077619Y-62672380D01*
X122172857Y-62672380D01*
X122315714Y-62720000D01*
X122363333Y-62767619D01*
X122696666Y-62672380D02*
X123315714Y-62672380D01*
X122982380Y-63053333D01*
X123125238Y-63053333D01*
X123220476Y-63100952D01*
X123268095Y-63148571D01*
X123315714Y-63243809D01*
X123315714Y-63481904D01*
X123268095Y-63577142D01*
X123220476Y-63624761D01*
X123125238Y-63672380D01*
X122839523Y-63672380D01*
X122744285Y-63624761D01*
X122696666Y-63577142D01*
X127933333Y-73157142D02*
X127885714Y-73204761D01*
X127742857Y-73252380D01*
X127647619Y-73252380D01*
X127504761Y-73204761D01*
X127409523Y-73109523D01*
X127361904Y-73014285D01*
X127314285Y-72823809D01*
X127314285Y-72680952D01*
X127361904Y-72490476D01*
X127409523Y-72395238D01*
X127504761Y-72300000D01*
X127647619Y-72252380D01*
X127742857Y-72252380D01*
X127885714Y-72300000D01*
X127933333Y-72347619D01*
X128790476Y-72585714D02*
X128790476Y-73252380D01*
X128552380Y-72204761D02*
X128314285Y-72919047D01*
X128933333Y-72919047D01*
X132433333Y-36957142D02*
X132385714Y-37004761D01*
X132242857Y-37052380D01*
X132147619Y-37052380D01*
X132004761Y-37004761D01*
X131909523Y-36909523D01*
X131861904Y-36814285D01*
X131814285Y-36623809D01*
X131814285Y-36480952D01*
X131861904Y-36290476D01*
X131909523Y-36195238D01*
X132004761Y-36100000D01*
X132147619Y-36052380D01*
X132242857Y-36052380D01*
X132385714Y-36100000D01*
X132433333Y-36147619D01*
X133338095Y-36052380D02*
X132861904Y-36052380D01*
X132814285Y-36528571D01*
X132861904Y-36480952D01*
X132957142Y-36433333D01*
X133195238Y-36433333D01*
X133290476Y-36480952D01*
X133338095Y-36528571D01*
X133385714Y-36623809D01*
X133385714Y-36861904D01*
X133338095Y-36957142D01*
X133290476Y-37004761D01*
X133195238Y-37052380D01*
X132957142Y-37052380D01*
X132861904Y-37004761D01*
X132814285Y-36957142D01*
X138453333Y-46117142D02*
X138405714Y-46164761D01*
X138262857Y-46212380D01*
X138167619Y-46212380D01*
X138024761Y-46164761D01*
X137929523Y-46069523D01*
X137881904Y-45974285D01*
X137834285Y-45783809D01*
X137834285Y-45640952D01*
X137881904Y-45450476D01*
X137929523Y-45355238D01*
X138024761Y-45260000D01*
X138167619Y-45212380D01*
X138262857Y-45212380D01*
X138405714Y-45260000D01*
X138453333Y-45307619D01*
X139310476Y-45212380D02*
X139120000Y-45212380D01*
X139024761Y-45260000D01*
X138977142Y-45307619D01*
X138881904Y-45450476D01*
X138834285Y-45640952D01*
X138834285Y-46021904D01*
X138881904Y-46117142D01*
X138929523Y-46164761D01*
X139024761Y-46212380D01*
X139215238Y-46212380D01*
X139310476Y-46164761D01*
X139358095Y-46117142D01*
X139405714Y-46021904D01*
X139405714Y-45783809D01*
X139358095Y-45688571D01*
X139310476Y-45640952D01*
X139215238Y-45593333D01*
X139024761Y-45593333D01*
X138929523Y-45640952D01*
X138881904Y-45688571D01*
X138834285Y-45783809D01*
X138543333Y-55827142D02*
X138495714Y-55874761D01*
X138352857Y-55922380D01*
X138257619Y-55922380D01*
X138114761Y-55874761D01*
X138019523Y-55779523D01*
X137971904Y-55684285D01*
X137924285Y-55493809D01*
X137924285Y-55350952D01*
X137971904Y-55160476D01*
X138019523Y-55065238D01*
X138114761Y-54970000D01*
X138257619Y-54922380D01*
X138352857Y-54922380D01*
X138495714Y-54970000D01*
X138543333Y-55017619D01*
X138876666Y-54922380D02*
X139543333Y-54922380D01*
X139114761Y-55922380D01*
X138453333Y-66297142D02*
X138405714Y-66344761D01*
X138262857Y-66392380D01*
X138167619Y-66392380D01*
X138024761Y-66344761D01*
X137929523Y-66249523D01*
X137881904Y-66154285D01*
X137834285Y-65963809D01*
X137834285Y-65820952D01*
X137881904Y-65630476D01*
X137929523Y-65535238D01*
X138024761Y-65440000D01*
X138167619Y-65392380D01*
X138262857Y-65392380D01*
X138405714Y-65440000D01*
X138453333Y-65487619D01*
X139024761Y-65820952D02*
X138929523Y-65773333D01*
X138881904Y-65725714D01*
X138834285Y-65630476D01*
X138834285Y-65582857D01*
X138881904Y-65487619D01*
X138929523Y-65440000D01*
X139024761Y-65392380D01*
X139215238Y-65392380D01*
X139310476Y-65440000D01*
X139358095Y-65487619D01*
X139405714Y-65582857D01*
X139405714Y-65630476D01*
X139358095Y-65725714D01*
X139310476Y-65773333D01*
X139215238Y-65820952D01*
X139024761Y-65820952D01*
X138929523Y-65868571D01*
X138881904Y-65916190D01*
X138834285Y-66011428D01*
X138834285Y-66201904D01*
X138881904Y-66297142D01*
X138929523Y-66344761D01*
X139024761Y-66392380D01*
X139215238Y-66392380D01*
X139310476Y-66344761D01*
X139358095Y-66297142D01*
X139405714Y-66201904D01*
X139405714Y-66011428D01*
X139358095Y-65916190D01*
X139310476Y-65868571D01*
X139215238Y-65820952D01*
D12*
X135416666Y-85978571D02*
X135392857Y-86002380D01*
X135321428Y-86026190D01*
X135273809Y-86026190D01*
X135202380Y-86002380D01*
X135154761Y-85954761D01*
X135130952Y-85907142D01*
X135107142Y-85811904D01*
X135107142Y-85740476D01*
X135130952Y-85645238D01*
X135154761Y-85597619D01*
X135202380Y-85550000D01*
X135273809Y-85526190D01*
X135321428Y-85526190D01*
X135392857Y-85550000D01*
X135416666Y-85573809D01*
X135654761Y-86026190D02*
X135750000Y-86026190D01*
X135797619Y-86002380D01*
X135821428Y-85978571D01*
X135869047Y-85907142D01*
X135892857Y-85811904D01*
X135892857Y-85621428D01*
X135869047Y-85573809D01*
X135845238Y-85550000D01*
X135797619Y-85526190D01*
X135702380Y-85526190D01*
X135654761Y-85550000D01*
X135630952Y-85573809D01*
X135607142Y-85621428D01*
X135607142Y-85740476D01*
X135630952Y-85788095D01*
X135654761Y-85811904D01*
X135702380Y-85835714D01*
X135797619Y-85835714D01*
X135845238Y-85811904D01*
X135869047Y-85788095D01*
X135892857Y-85740476D01*
X135428571Y-87578571D02*
X135404761Y-87602380D01*
X135333333Y-87626190D01*
X135285714Y-87626190D01*
X135214285Y-87602380D01*
X135166666Y-87554761D01*
X135142857Y-87507142D01*
X135119047Y-87411904D01*
X135119047Y-87340476D01*
X135142857Y-87245238D01*
X135166666Y-87197619D01*
X135214285Y-87150000D01*
X135285714Y-87126190D01*
X135333333Y-87126190D01*
X135404761Y-87150000D01*
X135428571Y-87173809D01*
X135904761Y-87626190D02*
X135619047Y-87626190D01*
X135761904Y-87626190D02*
X135761904Y-87126190D01*
X135714285Y-87197619D01*
X135666666Y-87245238D01*
X135619047Y-87269047D01*
X136214285Y-87126190D02*
X136261904Y-87126190D01*
X136309523Y-87150000D01*
X136333333Y-87173809D01*
X136357142Y-87221428D01*
X136380952Y-87316666D01*
X136380952Y-87435714D01*
X136357142Y-87530952D01*
X136333333Y-87578571D01*
X136309523Y-87602380D01*
X136261904Y-87626190D01*
X136214285Y-87626190D01*
X136166666Y-87602380D01*
X136142857Y-87578571D01*
X136119047Y-87530952D01*
X136095238Y-87435714D01*
X136095238Y-87316666D01*
X136119047Y-87221428D01*
X136142857Y-87173809D01*
X136166666Y-87150000D01*
X136214285Y-87126190D01*
D11*
X141333333Y-74154422D02*
X141000000Y-73678232D01*
X140761904Y-74154422D02*
X140761904Y-73154422D01*
X141142857Y-73154422D01*
X141238095Y-73202042D01*
X141285714Y-73249661D01*
X141333333Y-73344899D01*
X141333333Y-73487756D01*
X141285714Y-73582994D01*
X141238095Y-73630613D01*
X141142857Y-73678232D01*
X140761904Y-73678232D01*
X142285714Y-74154422D02*
X141714285Y-74154422D01*
X142000000Y-74154422D02*
X142000000Y-73154422D01*
X141904761Y-73297280D01*
X141809523Y-73392518D01*
X141714285Y-73440137D01*
X141333333Y-72495238D02*
X141000000Y-72019048D01*
X140761904Y-72495238D02*
X140761904Y-71495238D01*
X141142857Y-71495238D01*
X141238095Y-71542858D01*
X141285714Y-71590477D01*
X141333333Y-71685715D01*
X141333333Y-71828572D01*
X141285714Y-71923810D01*
X141238095Y-71971429D01*
X141142857Y-72019048D01*
X140761904Y-72019048D01*
X141714285Y-71590477D02*
X141761904Y-71542858D01*
X141857142Y-71495238D01*
X142095238Y-71495238D01*
X142190476Y-71542858D01*
X142238095Y-71590477D01*
X142285714Y-71685715D01*
X142285714Y-71780953D01*
X142238095Y-71923810D01*
X141666666Y-72495238D01*
X142285714Y-72495238D01*
X141333333Y-79352380D02*
X141000000Y-78876190D01*
X140761904Y-79352380D02*
X140761904Y-78352380D01*
X141142857Y-78352380D01*
X141238095Y-78400000D01*
X141285714Y-78447619D01*
X141333333Y-78542857D01*
X141333333Y-78685714D01*
X141285714Y-78780952D01*
X141238095Y-78828571D01*
X141142857Y-78876190D01*
X140761904Y-78876190D01*
X141666666Y-78352380D02*
X142285714Y-78352380D01*
X141952380Y-78733333D01*
X142095238Y-78733333D01*
X142190476Y-78780952D01*
X142238095Y-78828571D01*
X142285714Y-78923809D01*
X142285714Y-79161904D01*
X142238095Y-79257142D01*
X142190476Y-79304761D01*
X142095238Y-79352380D01*
X141809523Y-79352380D01*
X141714285Y-79304761D01*
X141666666Y-79257142D01*
X141333333Y-77352380D02*
X141000000Y-76876190D01*
X140761904Y-77352380D02*
X140761904Y-76352380D01*
X141142857Y-76352380D01*
X141238095Y-76400000D01*
X141285714Y-76447619D01*
X141333333Y-76542857D01*
X141333333Y-76685714D01*
X141285714Y-76780952D01*
X141238095Y-76828571D01*
X141142857Y-76876190D01*
X140761904Y-76876190D01*
X142190476Y-76685714D02*
X142190476Y-77352380D01*
X141952380Y-76304761D02*
X141714285Y-77019047D01*
X142333333Y-77019047D01*
X141333333Y-83452380D02*
X141000000Y-82976190D01*
X140761904Y-83452380D02*
X140761904Y-82452380D01*
X141142857Y-82452380D01*
X141238095Y-82500000D01*
X141285714Y-82547619D01*
X141333333Y-82642857D01*
X141333333Y-82785714D01*
X141285714Y-82880952D01*
X141238095Y-82928571D01*
X141142857Y-82976190D01*
X140761904Y-82976190D01*
X142238095Y-82452380D02*
X141761904Y-82452380D01*
X141714285Y-82928571D01*
X141761904Y-82880952D01*
X141857142Y-82833333D01*
X142095238Y-82833333D01*
X142190476Y-82880952D01*
X142238095Y-82928571D01*
X142285714Y-83023809D01*
X142285714Y-83261904D01*
X142238095Y-83357142D01*
X142190476Y-83404761D01*
X142095238Y-83452380D01*
X141857142Y-83452380D01*
X141761904Y-83404761D01*
X141714285Y-83357142D01*
X141333333Y-81352380D02*
X141000000Y-80876190D01*
X140761904Y-81352380D02*
X140761904Y-80352380D01*
X141142857Y-80352380D01*
X141238095Y-80400000D01*
X141285714Y-80447619D01*
X141333333Y-80542857D01*
X141333333Y-80685714D01*
X141285714Y-80780952D01*
X141238095Y-80828571D01*
X141142857Y-80876190D01*
X140761904Y-80876190D01*
X142190476Y-80352380D02*
X142000000Y-80352380D01*
X141904761Y-80400000D01*
X141857142Y-80447619D01*
X141761904Y-80590476D01*
X141714285Y-80780952D01*
X141714285Y-81161904D01*
X141761904Y-81257142D01*
X141809523Y-81304761D01*
X141904761Y-81352380D01*
X142095238Y-81352380D01*
X142190476Y-81304761D01*
X142238095Y-81257142D01*
X142285714Y-81161904D01*
X142285714Y-80923809D01*
X142238095Y-80828571D01*
X142190476Y-80780952D01*
X142095238Y-80733333D01*
X141904761Y-80733333D01*
X141809523Y-80780952D01*
X141761904Y-80828571D01*
X141714285Y-80923809D01*
X141333333Y-87552380D02*
X141000000Y-87076190D01*
X140761904Y-87552380D02*
X140761904Y-86552380D01*
X141142857Y-86552380D01*
X141238095Y-86600000D01*
X141285714Y-86647619D01*
X141333333Y-86742857D01*
X141333333Y-86885714D01*
X141285714Y-86980952D01*
X141238095Y-87028571D01*
X141142857Y-87076190D01*
X140761904Y-87076190D01*
X141666666Y-86552380D02*
X142333333Y-86552380D01*
X141904761Y-87552380D01*
X141333333Y-85552380D02*
X141000000Y-85076190D01*
X140761904Y-85552380D02*
X140761904Y-84552380D01*
X141142857Y-84552380D01*
X141238095Y-84600000D01*
X141285714Y-84647619D01*
X141333333Y-84742857D01*
X141333333Y-84885714D01*
X141285714Y-84980952D01*
X141238095Y-85028571D01*
X141142857Y-85076190D01*
X140761904Y-85076190D01*
X141904761Y-84980952D02*
X141809523Y-84933333D01*
X141761904Y-84885714D01*
X141714285Y-84790476D01*
X141714285Y-84742857D01*
X141761904Y-84647619D01*
X141809523Y-84600000D01*
X141904761Y-84552380D01*
X142095238Y-84552380D01*
X142190476Y-84600000D01*
X142238095Y-84647619D01*
X142285714Y-84742857D01*
X142285714Y-84790476D01*
X142238095Y-84885714D01*
X142190476Y-84933333D01*
X142095238Y-84980952D01*
X141904761Y-84980952D01*
X141809523Y-85028571D01*
X141761904Y-85076190D01*
X141714285Y-85171428D01*
X141714285Y-85361904D01*
X141761904Y-85457142D01*
X141809523Y-85504761D01*
X141904761Y-85552380D01*
X142095238Y-85552380D01*
X142190476Y-85504761D01*
X142238095Y-85457142D01*
X142285714Y-85361904D01*
X142285714Y-85171428D01*
X142238095Y-85076190D01*
X142190476Y-85028571D01*
X142095238Y-84980952D01*
X117333333Y-85452380D02*
X117000000Y-84976190D01*
X116761904Y-85452380D02*
X116761904Y-84452380D01*
X117142857Y-84452380D01*
X117238095Y-84500000D01*
X117285714Y-84547619D01*
X117333333Y-84642857D01*
X117333333Y-84785714D01*
X117285714Y-84880952D01*
X117238095Y-84928571D01*
X117142857Y-84976190D01*
X116761904Y-84976190D01*
X117809523Y-85452380D02*
X118000000Y-85452380D01*
X118095238Y-85404761D01*
X118142857Y-85357142D01*
X118238095Y-85214285D01*
X118285714Y-85023809D01*
X118285714Y-84642857D01*
X118238095Y-84547619D01*
X118190476Y-84500000D01*
X118095238Y-84452380D01*
X117904761Y-84452380D01*
X117809523Y-84500000D01*
X117761904Y-84547619D01*
X117714285Y-84642857D01*
X117714285Y-84880952D01*
X117761904Y-84976190D01*
X117809523Y-85023809D01*
X117904761Y-85071428D01*
X118095238Y-85071428D01*
X118190476Y-85023809D01*
X118238095Y-84976190D01*
X118285714Y-84880952D01*
X117357142Y-87452380D02*
X117023809Y-86976190D01*
X116785714Y-87452380D02*
X116785714Y-86452380D01*
X117166666Y-86452380D01*
X117261904Y-86500000D01*
X117309523Y-86547619D01*
X117357142Y-86642857D01*
X117357142Y-86785714D01*
X117309523Y-86880952D01*
X117261904Y-86928571D01*
X117166666Y-86976190D01*
X116785714Y-86976190D01*
X118309523Y-87452380D02*
X117738095Y-87452380D01*
X118023809Y-87452380D02*
X118023809Y-86452380D01*
X117928571Y-86595238D01*
X117833333Y-86690476D01*
X117738095Y-86738095D01*
X118928571Y-86452380D02*
X119023809Y-86452380D01*
X119119047Y-86500000D01*
X119166666Y-86547619D01*
X119214285Y-86642857D01*
X119261904Y-86833333D01*
X119261904Y-87071428D01*
X119214285Y-87261904D01*
X119166666Y-87357142D01*
X119119047Y-87404761D01*
X119023809Y-87452380D01*
X118928571Y-87452380D01*
X118833333Y-87404761D01*
X118785714Y-87357142D01*
X118738095Y-87261904D01*
X118690476Y-87071428D01*
X118690476Y-86833333D01*
X118738095Y-86642857D01*
X118785714Y-86547619D01*
X118833333Y-86500000D01*
X118928571Y-86452380D01*
X117357142Y-81452380D02*
X117023809Y-80976190D01*
X116785714Y-81452380D02*
X116785714Y-80452380D01*
X117166666Y-80452380D01*
X117261904Y-80500000D01*
X117309523Y-80547619D01*
X117357142Y-80642857D01*
X117357142Y-80785714D01*
X117309523Y-80880952D01*
X117261904Y-80928571D01*
X117166666Y-80976190D01*
X116785714Y-80976190D01*
X118309523Y-81452380D02*
X117738095Y-81452380D01*
X118023809Y-81452380D02*
X118023809Y-80452380D01*
X117928571Y-80595238D01*
X117833333Y-80690476D01*
X117738095Y-80738095D01*
X119261904Y-81452380D02*
X118690476Y-81452380D01*
X118976190Y-81452380D02*
X118976190Y-80452380D01*
X118880952Y-80595238D01*
X118785714Y-80690476D01*
X118690476Y-80738095D01*
X117357142Y-83452380D02*
X117023809Y-82976190D01*
X116785714Y-83452380D02*
X116785714Y-82452380D01*
X117166666Y-82452380D01*
X117261904Y-82500000D01*
X117309523Y-82547619D01*
X117357142Y-82642857D01*
X117357142Y-82785714D01*
X117309523Y-82880952D01*
X117261904Y-82928571D01*
X117166666Y-82976190D01*
X116785714Y-82976190D01*
X118309523Y-83452380D02*
X117738095Y-83452380D01*
X118023809Y-83452380D02*
X118023809Y-82452380D01*
X117928571Y-82595238D01*
X117833333Y-82690476D01*
X117738095Y-82738095D01*
X118690476Y-82547619D02*
X118738095Y-82500000D01*
X118833333Y-82452380D01*
X119071428Y-82452380D01*
X119166666Y-82500000D01*
X119214285Y-82547619D01*
X119261904Y-82642857D01*
X119261904Y-82738095D01*
X119214285Y-82880952D01*
X118642857Y-83452380D01*
X119261904Y-83452380D01*
X117357142Y-77452380D02*
X117023809Y-76976190D01*
X116785714Y-77452380D02*
X116785714Y-76452380D01*
X117166666Y-76452380D01*
X117261904Y-76500000D01*
X117309523Y-76547619D01*
X117357142Y-76642857D01*
X117357142Y-76785714D01*
X117309523Y-76880952D01*
X117261904Y-76928571D01*
X117166666Y-76976190D01*
X116785714Y-76976190D01*
X118309523Y-77452380D02*
X117738095Y-77452380D01*
X118023809Y-77452380D02*
X118023809Y-76452380D01*
X117928571Y-76595238D01*
X117833333Y-76690476D01*
X117738095Y-76738095D01*
X118642857Y-76452380D02*
X119261904Y-76452380D01*
X118928571Y-76833333D01*
X119071428Y-76833333D01*
X119166666Y-76880952D01*
X119214285Y-76928571D01*
X119261904Y-77023809D01*
X119261904Y-77261904D01*
X119214285Y-77357142D01*
X119166666Y-77404761D01*
X119071428Y-77452380D01*
X118785714Y-77452380D01*
X118690476Y-77404761D01*
X118642857Y-77357142D01*
X117357142Y-79452380D02*
X117023809Y-78976190D01*
X116785714Y-79452380D02*
X116785714Y-78452380D01*
X117166666Y-78452380D01*
X117261904Y-78500000D01*
X117309523Y-78547619D01*
X117357142Y-78642857D01*
X117357142Y-78785714D01*
X117309523Y-78880952D01*
X117261904Y-78928571D01*
X117166666Y-78976190D01*
X116785714Y-78976190D01*
X118309523Y-79452380D02*
X117738095Y-79452380D01*
X118023809Y-79452380D02*
X118023809Y-78452380D01*
X117928571Y-78595238D01*
X117833333Y-78690476D01*
X117738095Y-78738095D01*
X119166666Y-78785714D02*
X119166666Y-79452380D01*
X118928571Y-78404761D02*
X118690476Y-79119047D01*
X119309523Y-79119047D01*
X117357142Y-72302380D02*
X117023809Y-71826190D01*
X116785714Y-72302380D02*
X116785714Y-71302380D01*
X117166666Y-71302380D01*
X117261904Y-71350000D01*
X117309523Y-71397619D01*
X117357142Y-71492857D01*
X117357142Y-71635714D01*
X117309523Y-71730952D01*
X117261904Y-71778571D01*
X117166666Y-71826190D01*
X116785714Y-71826190D01*
X118309523Y-72302380D02*
X117738095Y-72302380D01*
X118023809Y-72302380D02*
X118023809Y-71302380D01*
X117928571Y-71445238D01*
X117833333Y-71540476D01*
X117738095Y-71588095D01*
X119214285Y-71302380D02*
X118738095Y-71302380D01*
X118690476Y-71778571D01*
X118738095Y-71730952D01*
X118833333Y-71683333D01*
X119071428Y-71683333D01*
X119166666Y-71730952D01*
X119214285Y-71778571D01*
X119261904Y-71873809D01*
X119261904Y-72111904D01*
X119214285Y-72207142D01*
X119166666Y-72254761D01*
X119071428Y-72302380D01*
X118833333Y-72302380D01*
X118738095Y-72254761D01*
X118690476Y-72207142D01*
X117357142Y-74160544D02*
X117023809Y-73684354D01*
X116785714Y-74160544D02*
X116785714Y-73160544D01*
X117166666Y-73160544D01*
X117261904Y-73208164D01*
X117309523Y-73255783D01*
X117357142Y-73351021D01*
X117357142Y-73493878D01*
X117309523Y-73589116D01*
X117261904Y-73636735D01*
X117166666Y-73684354D01*
X116785714Y-73684354D01*
X118309523Y-74160544D02*
X117738095Y-74160544D01*
X118023809Y-74160544D02*
X118023809Y-73160544D01*
X117928571Y-73303402D01*
X117833333Y-73398640D01*
X117738095Y-73446259D01*
X119166666Y-73160544D02*
X118976190Y-73160544D01*
X118880952Y-73208164D01*
X118833333Y-73255783D01*
X118738095Y-73398640D01*
X118690476Y-73589116D01*
X118690476Y-73970068D01*
X118738095Y-74065306D01*
X118785714Y-74112925D01*
X118880952Y-74160544D01*
X119071428Y-74160544D01*
X119166666Y-74112925D01*
X119214285Y-74065306D01*
X119261904Y-73970068D01*
X119261904Y-73731973D01*
X119214285Y-73636735D01*
X119166666Y-73589116D01*
X119071428Y-73541497D01*
X118880952Y-73541497D01*
X118785714Y-73589116D01*
X118738095Y-73636735D01*
X118690476Y-73731973D01*
D12*
X125178571Y-87726190D02*
X125011904Y-87488095D01*
X124892857Y-87726190D02*
X124892857Y-87226190D01*
X125083333Y-87226190D01*
X125130952Y-87250000D01*
X125154761Y-87273809D01*
X125178571Y-87321428D01*
X125178571Y-87392857D01*
X125154761Y-87440476D01*
X125130952Y-87464285D01*
X125083333Y-87488095D01*
X124892857Y-87488095D01*
X125654761Y-87726190D02*
X125369047Y-87726190D01*
X125511904Y-87726190D02*
X125511904Y-87226190D01*
X125464285Y-87297619D01*
X125416666Y-87345238D01*
X125369047Y-87369047D01*
X125821428Y-87226190D02*
X126154761Y-87226190D01*
X125940476Y-87726190D01*
X125178571Y-85726190D02*
X125011904Y-85488095D01*
X124892857Y-85726190D02*
X124892857Y-85226190D01*
X125083333Y-85226190D01*
X125130952Y-85250000D01*
X125154761Y-85273809D01*
X125178571Y-85321428D01*
X125178571Y-85392857D01*
X125154761Y-85440476D01*
X125130952Y-85464285D01*
X125083333Y-85488095D01*
X124892857Y-85488095D01*
X125654761Y-85726190D02*
X125369047Y-85726190D01*
X125511904Y-85726190D02*
X125511904Y-85226190D01*
X125464285Y-85297619D01*
X125416666Y-85345238D01*
X125369047Y-85369047D01*
X125940476Y-85440476D02*
X125892857Y-85416666D01*
X125869047Y-85392857D01*
X125845238Y-85345238D01*
X125845238Y-85321428D01*
X125869047Y-85273809D01*
X125892857Y-85250000D01*
X125940476Y-85226190D01*
X126035714Y-85226190D01*
X126083333Y-85250000D01*
X126107142Y-85273809D01*
X126130952Y-85321428D01*
X126130952Y-85345238D01*
X126107142Y-85392857D01*
X126083333Y-85416666D01*
X126035714Y-85440476D01*
X125940476Y-85440476D01*
X125892857Y-85464285D01*
X125869047Y-85488095D01*
X125845238Y-85535714D01*
X125845238Y-85630952D01*
X125869047Y-85678571D01*
X125892857Y-85702380D01*
X125940476Y-85726190D01*
X126035714Y-85726190D01*
X126083333Y-85702380D01*
X126107142Y-85678571D01*
X126130952Y-85630952D01*
X126130952Y-85535714D01*
X126107142Y-85488095D01*
X126083333Y-85464285D01*
X126035714Y-85440476D01*
X129428571Y-86976190D02*
X129261904Y-86738095D01*
X129142857Y-86976190D02*
X129142857Y-86476190D01*
X129333333Y-86476190D01*
X129380952Y-86500000D01*
X129404761Y-86523809D01*
X129428571Y-86571428D01*
X129428571Y-86642857D01*
X129404761Y-86690476D01*
X129380952Y-86714285D01*
X129333333Y-86738095D01*
X129142857Y-86738095D01*
X129904761Y-86976190D02*
X129619047Y-86976190D01*
X129761904Y-86976190D02*
X129761904Y-86476190D01*
X129714285Y-86547619D01*
X129666666Y-86595238D01*
X129619047Y-86619047D01*
X130142857Y-86976190D02*
X130238095Y-86976190D01*
X130285714Y-86952380D01*
X130309523Y-86928571D01*
X130357142Y-86857142D01*
X130380952Y-86761904D01*
X130380952Y-86571428D01*
X130357142Y-86523809D01*
X130333333Y-86500000D01*
X130285714Y-86476190D01*
X130190476Y-86476190D01*
X130142857Y-86500000D01*
X130119047Y-86523809D01*
X130095238Y-86571428D01*
X130095238Y-86690476D01*
X130119047Y-86738095D01*
X130142857Y-86761904D01*
X130190476Y-86785714D01*
X130285714Y-86785714D01*
X130333333Y-86761904D01*
X130357142Y-86738095D01*
X130380952Y-86690476D01*
D11*
X129038095Y-84752380D02*
X129038095Y-85561904D01*
X129085714Y-85657142D01*
X129133333Y-85704761D01*
X129228571Y-85752380D01*
X129419047Y-85752380D01*
X129514285Y-85704761D01*
X129561904Y-85657142D01*
X129609523Y-85561904D01*
X129609523Y-84752380D01*
X130276190Y-84752380D02*
X130371428Y-84752380D01*
X130466666Y-84800000D01*
X130514285Y-84847619D01*
X130561904Y-84942857D01*
X130609523Y-85133333D01*
X130609523Y-85371428D01*
X130561904Y-85561904D01*
X130514285Y-85657142D01*
X130466666Y-85704761D01*
X130371428Y-85752380D01*
X130276190Y-85752380D01*
X130180952Y-85704761D01*
X130133333Y-85657142D01*
X130085714Y-85561904D01*
X130038095Y-85371428D01*
X130038095Y-85133333D01*
X130085714Y-84942857D01*
X130133333Y-84847619D01*
X130180952Y-84800000D01*
X130276190Y-84752380D01*
X137819047Y-68672380D02*
X137819047Y-69481904D01*
X137866666Y-69577142D01*
X137914285Y-69624761D01*
X138009523Y-69672380D01*
X138200000Y-69672380D01*
X138295238Y-69624761D01*
X138342857Y-69577142D01*
X138390476Y-69481904D01*
X138390476Y-68672380D01*
X139390476Y-69672380D02*
X138819047Y-69672380D01*
X139104761Y-69672380D02*
X139104761Y-68672380D01*
X139009523Y-68815238D01*
X138914285Y-68910476D01*
X138819047Y-68958095D01*
X139819047Y-69291428D02*
X140580952Y-69291428D01*
X141628571Y-69577142D02*
X141580952Y-69624761D01*
X141438095Y-69672380D01*
X141342857Y-69672380D01*
X141200000Y-69624761D01*
X141104761Y-69529523D01*
X141057142Y-69434285D01*
X141009523Y-69243809D01*
X141009523Y-69100952D01*
X141057142Y-68910476D01*
X141104761Y-68815238D01*
X141200000Y-68720000D01*
X141342857Y-68672380D01*
X141438095Y-68672380D01*
X141580952Y-68720000D01*
X141628571Y-68767619D01*
X142057142Y-69672380D02*
X142057142Y-68672380D01*
X142057142Y-69148571D02*
X142628571Y-69148571D01*
X142628571Y-69672380D02*
X142628571Y-68672380D01*
X143009523Y-68672380D02*
X143628571Y-68672380D01*
X143295238Y-69053333D01*
X143438095Y-69053333D01*
X143533333Y-69100952D01*
X143580952Y-69148571D01*
X143628571Y-69243809D01*
X143628571Y-69481904D01*
X143580952Y-69577142D01*
X143533333Y-69624761D01*
X143438095Y-69672380D01*
X143152380Y-69672380D01*
X143057142Y-69624761D01*
X143009523Y-69577142D01*
D16*
X133823428Y-69354095D02*
X133823428Y-69104095D01*
X133906761Y-69282666D01*
X133990095Y-69104095D01*
X133990095Y-69354095D01*
X134097238Y-69342190D02*
X134132952Y-69354095D01*
X134192476Y-69354095D01*
X134216285Y-69342190D01*
X134228190Y-69330285D01*
X134240095Y-69306476D01*
X134240095Y-69282666D01*
X134228190Y-69258857D01*
X134216285Y-69246952D01*
X134192476Y-69235047D01*
X134144857Y-69223142D01*
X134121047Y-69211238D01*
X134109142Y-69199333D01*
X134097238Y-69175523D01*
X134097238Y-69151714D01*
X134109142Y-69127904D01*
X134121047Y-69116000D01*
X134144857Y-69104095D01*
X134204380Y-69104095D01*
X134240095Y-69116000D01*
X134466285Y-69104095D02*
X134347238Y-69104095D01*
X134335333Y-69223142D01*
X134347238Y-69211238D01*
X134371047Y-69199333D01*
X134430571Y-69199333D01*
X134454380Y-69211238D01*
X134466285Y-69223142D01*
X134478190Y-69246952D01*
X134478190Y-69306476D01*
X134466285Y-69330285D01*
X134454380Y-69342190D01*
X134430571Y-69354095D01*
X134371047Y-69354095D01*
X134347238Y-69342190D01*
X134335333Y-69330285D01*
X134621047Y-69211238D02*
X134597238Y-69199333D01*
X134585333Y-69187428D01*
X134573428Y-69163619D01*
X134573428Y-69151714D01*
X134585333Y-69127904D01*
X134597238Y-69116000D01*
X134621047Y-69104095D01*
X134668666Y-69104095D01*
X134692476Y-69116000D01*
X134704380Y-69127904D01*
X134716285Y-69151714D01*
X134716285Y-69163619D01*
X134704380Y-69187428D01*
X134692476Y-69199333D01*
X134668666Y-69211238D01*
X134621047Y-69211238D01*
X134597238Y-69223142D01*
X134585333Y-69235047D01*
X134573428Y-69258857D01*
X134573428Y-69306476D01*
X134585333Y-69330285D01*
X134597238Y-69342190D01*
X134621047Y-69354095D01*
X134668666Y-69354095D01*
X134692476Y-69342190D01*
X134704380Y-69330285D01*
X134716285Y-69306476D01*
X134716285Y-69258857D01*
X134704380Y-69235047D01*
X134692476Y-69223142D01*
X134668666Y-69211238D01*
X134799619Y-69104095D02*
X134954380Y-69104095D01*
X134871047Y-69199333D01*
X134906761Y-69199333D01*
X134930571Y-69211238D01*
X134942476Y-69223142D01*
X134954380Y-69246952D01*
X134954380Y-69306476D01*
X134942476Y-69330285D01*
X134930571Y-69342190D01*
X134906761Y-69354095D01*
X134835333Y-69354095D01*
X134811523Y-69342190D01*
X134799619Y-69330285D01*
X135037714Y-69104095D02*
X135204380Y-69104095D01*
X135097238Y-69354095D01*
X135299619Y-69258857D02*
X135490095Y-69258857D01*
X135585333Y-69104095D02*
X135740095Y-69104095D01*
X135656761Y-69199333D01*
X135692476Y-69199333D01*
X135716285Y-69211238D01*
X135728190Y-69223142D01*
X135740095Y-69246952D01*
X135740095Y-69306476D01*
X135728190Y-69330285D01*
X135716285Y-69342190D01*
X135692476Y-69354095D01*
X135621047Y-69354095D01*
X135597238Y-69342190D01*
X135585333Y-69330285D01*
X135894857Y-69104095D02*
X135918666Y-69104095D01*
X135942476Y-69116000D01*
X135954380Y-69127904D01*
X135966285Y-69151714D01*
X135978190Y-69199333D01*
X135978190Y-69258857D01*
X135966285Y-69306476D01*
X135954380Y-69330285D01*
X135942476Y-69342190D01*
X135918666Y-69354095D01*
X135894857Y-69354095D01*
X135871047Y-69342190D01*
X135859142Y-69330285D01*
X135847238Y-69306476D01*
X135835333Y-69258857D01*
X135835333Y-69199333D01*
X135847238Y-69151714D01*
X135859142Y-69127904D01*
X135871047Y-69116000D01*
X135894857Y-69104095D01*
X136168666Y-69223142D02*
X136204380Y-69235047D01*
X136216285Y-69246952D01*
X136228190Y-69270761D01*
X136228190Y-69306476D01*
X136216285Y-69330285D01*
X136204380Y-69342190D01*
X136180571Y-69354095D01*
X136085333Y-69354095D01*
X136085333Y-69104095D01*
X136168666Y-69104095D01*
X136192476Y-69116000D01*
X136204380Y-69127904D01*
X136216285Y-69151714D01*
X136216285Y-69175523D01*
X136204380Y-69199333D01*
X136192476Y-69211238D01*
X136168666Y-69223142D01*
X136085333Y-69223142D01*
X136323428Y-69282666D02*
X136442476Y-69282666D01*
X136299619Y-69354095D02*
X136382952Y-69104095D01*
X136466285Y-69354095D01*
D11*
X137895047Y-58772380D02*
X137895047Y-59581904D01*
X137942666Y-59677142D01*
X137990285Y-59724761D01*
X138085523Y-59772380D01*
X138276000Y-59772380D01*
X138371238Y-59724761D01*
X138418857Y-59677142D01*
X138466476Y-59581904D01*
X138466476Y-58772380D01*
X138895047Y-58867619D02*
X138942666Y-58820000D01*
X139037904Y-58772380D01*
X139276000Y-58772380D01*
X139371238Y-58820000D01*
X139418857Y-58867619D01*
X139466476Y-58962857D01*
X139466476Y-59058095D01*
X139418857Y-59200952D01*
X138847428Y-59772380D01*
X139466476Y-59772380D01*
X139895047Y-59391428D02*
X140656952Y-59391428D01*
X141704571Y-59677142D02*
X141656952Y-59724761D01*
X141514095Y-59772380D01*
X141418857Y-59772380D01*
X141276000Y-59724761D01*
X141180761Y-59629523D01*
X141133142Y-59534285D01*
X141085523Y-59343809D01*
X141085523Y-59200952D01*
X141133142Y-59010476D01*
X141180761Y-58915238D01*
X141276000Y-58820000D01*
X141418857Y-58772380D01*
X141514095Y-58772380D01*
X141656952Y-58820000D01*
X141704571Y-58867619D01*
X142133142Y-59772380D02*
X142133142Y-58772380D01*
X142133142Y-59248571D02*
X142704571Y-59248571D01*
X142704571Y-59772380D02*
X142704571Y-58772380D01*
X143133142Y-58867619D02*
X143180761Y-58820000D01*
X143276000Y-58772380D01*
X143514095Y-58772380D01*
X143609333Y-58820000D01*
X143656952Y-58867619D01*
X143704571Y-58962857D01*
X143704571Y-59058095D01*
X143656952Y-59200952D01*
X143085523Y-59772380D01*
X143704571Y-59772380D01*
D16*
X133823428Y-59454095D02*
X133823428Y-59204095D01*
X133906761Y-59382666D01*
X133990095Y-59204095D01*
X133990095Y-59454095D01*
X134097238Y-59442190D02*
X134132952Y-59454095D01*
X134192476Y-59454095D01*
X134216285Y-59442190D01*
X134228190Y-59430285D01*
X134240095Y-59406476D01*
X134240095Y-59382666D01*
X134228190Y-59358857D01*
X134216285Y-59346952D01*
X134192476Y-59335047D01*
X134144857Y-59323142D01*
X134121047Y-59311238D01*
X134109142Y-59299333D01*
X134097238Y-59275523D01*
X134097238Y-59251714D01*
X134109142Y-59227904D01*
X134121047Y-59216000D01*
X134144857Y-59204095D01*
X134204380Y-59204095D01*
X134240095Y-59216000D01*
X134466285Y-59204095D02*
X134347238Y-59204095D01*
X134335333Y-59323142D01*
X134347238Y-59311238D01*
X134371047Y-59299333D01*
X134430571Y-59299333D01*
X134454380Y-59311238D01*
X134466285Y-59323142D01*
X134478190Y-59346952D01*
X134478190Y-59406476D01*
X134466285Y-59430285D01*
X134454380Y-59442190D01*
X134430571Y-59454095D01*
X134371047Y-59454095D01*
X134347238Y-59442190D01*
X134335333Y-59430285D01*
X134621047Y-59311238D02*
X134597238Y-59299333D01*
X134585333Y-59287428D01*
X134573428Y-59263619D01*
X134573428Y-59251714D01*
X134585333Y-59227904D01*
X134597238Y-59216000D01*
X134621047Y-59204095D01*
X134668666Y-59204095D01*
X134692476Y-59216000D01*
X134704380Y-59227904D01*
X134716285Y-59251714D01*
X134716285Y-59263619D01*
X134704380Y-59287428D01*
X134692476Y-59299333D01*
X134668666Y-59311238D01*
X134621047Y-59311238D01*
X134597238Y-59323142D01*
X134585333Y-59335047D01*
X134573428Y-59358857D01*
X134573428Y-59406476D01*
X134585333Y-59430285D01*
X134597238Y-59442190D01*
X134621047Y-59454095D01*
X134668666Y-59454095D01*
X134692476Y-59442190D01*
X134704380Y-59430285D01*
X134716285Y-59406476D01*
X134716285Y-59358857D01*
X134704380Y-59335047D01*
X134692476Y-59323142D01*
X134668666Y-59311238D01*
X134799619Y-59204095D02*
X134954380Y-59204095D01*
X134871047Y-59299333D01*
X134906761Y-59299333D01*
X134930571Y-59311238D01*
X134942476Y-59323142D01*
X134954380Y-59346952D01*
X134954380Y-59406476D01*
X134942476Y-59430285D01*
X134930571Y-59442190D01*
X134906761Y-59454095D01*
X134835333Y-59454095D01*
X134811523Y-59442190D01*
X134799619Y-59430285D01*
X135037714Y-59204095D02*
X135204380Y-59204095D01*
X135097238Y-59454095D01*
X135299619Y-59358857D02*
X135490095Y-59358857D01*
X135585333Y-59204095D02*
X135740095Y-59204095D01*
X135656761Y-59299333D01*
X135692476Y-59299333D01*
X135716285Y-59311238D01*
X135728190Y-59323142D01*
X135740095Y-59346952D01*
X135740095Y-59406476D01*
X135728190Y-59430285D01*
X135716285Y-59442190D01*
X135692476Y-59454095D01*
X135621047Y-59454095D01*
X135597238Y-59442190D01*
X135585333Y-59430285D01*
X135894857Y-59204095D02*
X135918666Y-59204095D01*
X135942476Y-59216000D01*
X135954380Y-59227904D01*
X135966285Y-59251714D01*
X135978190Y-59299333D01*
X135978190Y-59358857D01*
X135966285Y-59406476D01*
X135954380Y-59430285D01*
X135942476Y-59442190D01*
X135918666Y-59454095D01*
X135894857Y-59454095D01*
X135871047Y-59442190D01*
X135859142Y-59430285D01*
X135847238Y-59406476D01*
X135835333Y-59358857D01*
X135835333Y-59299333D01*
X135847238Y-59251714D01*
X135859142Y-59227904D01*
X135871047Y-59216000D01*
X135894857Y-59204095D01*
X136168666Y-59323142D02*
X136204380Y-59335047D01*
X136216285Y-59346952D01*
X136228190Y-59370761D01*
X136228190Y-59406476D01*
X136216285Y-59430285D01*
X136204380Y-59442190D01*
X136180571Y-59454095D01*
X136085333Y-59454095D01*
X136085333Y-59204095D01*
X136168666Y-59204095D01*
X136192476Y-59216000D01*
X136204380Y-59227904D01*
X136216285Y-59251714D01*
X136216285Y-59275523D01*
X136204380Y-59299333D01*
X136192476Y-59311238D01*
X136168666Y-59323142D01*
X136085333Y-59323142D01*
X136323428Y-59382666D02*
X136442476Y-59382666D01*
X136299619Y-59454095D02*
X136382952Y-59204095D01*
X136466285Y-59454095D01*
D11*
X137895047Y-48872380D02*
X137895047Y-49681904D01*
X137942666Y-49777142D01*
X137990285Y-49824761D01*
X138085523Y-49872380D01*
X138276000Y-49872380D01*
X138371238Y-49824761D01*
X138418857Y-49777142D01*
X138466476Y-49681904D01*
X138466476Y-48872380D01*
X138847428Y-48872380D02*
X139466476Y-48872380D01*
X139133142Y-49253333D01*
X139276000Y-49253333D01*
X139371238Y-49300952D01*
X139418857Y-49348571D01*
X139466476Y-49443809D01*
X139466476Y-49681904D01*
X139418857Y-49777142D01*
X139371238Y-49824761D01*
X139276000Y-49872380D01*
X138990285Y-49872380D01*
X138895047Y-49824761D01*
X138847428Y-49777142D01*
X139895047Y-49491428D02*
X140656952Y-49491428D01*
X141704571Y-49777142D02*
X141656952Y-49824761D01*
X141514095Y-49872380D01*
X141418857Y-49872380D01*
X141276000Y-49824761D01*
X141180761Y-49729523D01*
X141133142Y-49634285D01*
X141085523Y-49443809D01*
X141085523Y-49300952D01*
X141133142Y-49110476D01*
X141180761Y-49015238D01*
X141276000Y-48920000D01*
X141418857Y-48872380D01*
X141514095Y-48872380D01*
X141656952Y-48920000D01*
X141704571Y-48967619D01*
X142133142Y-49872380D02*
X142133142Y-48872380D01*
X142133142Y-49348571D02*
X142704571Y-49348571D01*
X142704571Y-49872380D02*
X142704571Y-48872380D01*
X143704571Y-49872380D02*
X143133142Y-49872380D01*
X143418857Y-49872380D02*
X143418857Y-48872380D01*
X143323619Y-49015238D01*
X143228380Y-49110476D01*
X143133142Y-49158095D01*
D16*
X133823428Y-49554095D02*
X133823428Y-49304095D01*
X133906761Y-49482666D01*
X133990095Y-49304095D01*
X133990095Y-49554095D01*
X134097238Y-49542190D02*
X134132952Y-49554095D01*
X134192476Y-49554095D01*
X134216285Y-49542190D01*
X134228190Y-49530285D01*
X134240095Y-49506476D01*
X134240095Y-49482666D01*
X134228190Y-49458857D01*
X134216285Y-49446952D01*
X134192476Y-49435047D01*
X134144857Y-49423142D01*
X134121047Y-49411238D01*
X134109142Y-49399333D01*
X134097238Y-49375523D01*
X134097238Y-49351714D01*
X134109142Y-49327904D01*
X134121047Y-49316000D01*
X134144857Y-49304095D01*
X134204380Y-49304095D01*
X134240095Y-49316000D01*
X134466285Y-49304095D02*
X134347238Y-49304095D01*
X134335333Y-49423142D01*
X134347238Y-49411238D01*
X134371047Y-49399333D01*
X134430571Y-49399333D01*
X134454380Y-49411238D01*
X134466285Y-49423142D01*
X134478190Y-49446952D01*
X134478190Y-49506476D01*
X134466285Y-49530285D01*
X134454380Y-49542190D01*
X134430571Y-49554095D01*
X134371047Y-49554095D01*
X134347238Y-49542190D01*
X134335333Y-49530285D01*
X134621047Y-49411238D02*
X134597238Y-49399333D01*
X134585333Y-49387428D01*
X134573428Y-49363619D01*
X134573428Y-49351714D01*
X134585333Y-49327904D01*
X134597238Y-49316000D01*
X134621047Y-49304095D01*
X134668666Y-49304095D01*
X134692476Y-49316000D01*
X134704380Y-49327904D01*
X134716285Y-49351714D01*
X134716285Y-49363619D01*
X134704380Y-49387428D01*
X134692476Y-49399333D01*
X134668666Y-49411238D01*
X134621047Y-49411238D01*
X134597238Y-49423142D01*
X134585333Y-49435047D01*
X134573428Y-49458857D01*
X134573428Y-49506476D01*
X134585333Y-49530285D01*
X134597238Y-49542190D01*
X134621047Y-49554095D01*
X134668666Y-49554095D01*
X134692476Y-49542190D01*
X134704380Y-49530285D01*
X134716285Y-49506476D01*
X134716285Y-49458857D01*
X134704380Y-49435047D01*
X134692476Y-49423142D01*
X134668666Y-49411238D01*
X134799619Y-49304095D02*
X134954380Y-49304095D01*
X134871047Y-49399333D01*
X134906761Y-49399333D01*
X134930571Y-49411238D01*
X134942476Y-49423142D01*
X134954380Y-49446952D01*
X134954380Y-49506476D01*
X134942476Y-49530285D01*
X134930571Y-49542190D01*
X134906761Y-49554095D01*
X134835333Y-49554095D01*
X134811523Y-49542190D01*
X134799619Y-49530285D01*
X135037714Y-49304095D02*
X135204380Y-49304095D01*
X135097238Y-49554095D01*
X135299619Y-49458857D02*
X135490095Y-49458857D01*
X135585333Y-49304095D02*
X135740095Y-49304095D01*
X135656761Y-49399333D01*
X135692476Y-49399333D01*
X135716285Y-49411238D01*
X135728190Y-49423142D01*
X135740095Y-49446952D01*
X135740095Y-49506476D01*
X135728190Y-49530285D01*
X135716285Y-49542190D01*
X135692476Y-49554095D01*
X135621047Y-49554095D01*
X135597238Y-49542190D01*
X135585333Y-49530285D01*
X135894857Y-49304095D02*
X135918666Y-49304095D01*
X135942476Y-49316000D01*
X135954380Y-49327904D01*
X135966285Y-49351714D01*
X135978190Y-49399333D01*
X135978190Y-49458857D01*
X135966285Y-49506476D01*
X135954380Y-49530285D01*
X135942476Y-49542190D01*
X135918666Y-49554095D01*
X135894857Y-49554095D01*
X135871047Y-49542190D01*
X135859142Y-49530285D01*
X135847238Y-49506476D01*
X135835333Y-49458857D01*
X135835333Y-49399333D01*
X135847238Y-49351714D01*
X135859142Y-49327904D01*
X135871047Y-49316000D01*
X135894857Y-49304095D01*
X136168666Y-49423142D02*
X136204380Y-49435047D01*
X136216285Y-49446952D01*
X136228190Y-49470761D01*
X136228190Y-49506476D01*
X136216285Y-49530285D01*
X136204380Y-49542190D01*
X136180571Y-49554095D01*
X136085333Y-49554095D01*
X136085333Y-49304095D01*
X136168666Y-49304095D01*
X136192476Y-49316000D01*
X136204380Y-49327904D01*
X136216285Y-49351714D01*
X136216285Y-49375523D01*
X136204380Y-49399333D01*
X136192476Y-49411238D01*
X136168666Y-49423142D01*
X136085333Y-49423142D01*
X136323428Y-49482666D02*
X136442476Y-49482666D01*
X136299619Y-49554095D02*
X136382952Y-49304095D01*
X136466285Y-49554095D01*
D11*
X137319047Y-40052380D02*
X137319047Y-40861904D01*
X137366666Y-40957142D01*
X137414285Y-41004761D01*
X137509523Y-41052380D01*
X137700000Y-41052380D01*
X137795238Y-41004761D01*
X137842857Y-40957142D01*
X137890476Y-40861904D01*
X137890476Y-40052380D01*
X138795238Y-40385714D02*
X138795238Y-41052380D01*
X138557142Y-40004761D02*
X138319047Y-40719047D01*
X138938095Y-40719047D01*
X139319047Y-40671428D02*
X140080952Y-40671428D01*
X141128571Y-40957142D02*
X141080952Y-41004761D01*
X140938095Y-41052380D01*
X140842857Y-41052380D01*
X140700000Y-41004761D01*
X140604761Y-40909523D01*
X140557142Y-40814285D01*
X140509523Y-40623809D01*
X140509523Y-40480952D01*
X140557142Y-40290476D01*
X140604761Y-40195238D01*
X140700000Y-40100000D01*
X140842857Y-40052380D01*
X140938095Y-40052380D01*
X141080952Y-40100000D01*
X141128571Y-40147619D01*
X141557142Y-41052380D02*
X141557142Y-40052380D01*
X141557142Y-40528571D02*
X142128571Y-40528571D01*
X142128571Y-41052380D02*
X142128571Y-40052380D01*
X142795238Y-40052380D02*
X142890476Y-40052380D01*
X142985714Y-40100000D01*
X143033333Y-40147619D01*
X143080952Y-40242857D01*
X143128571Y-40433333D01*
X143128571Y-40671428D01*
X143080952Y-40861904D01*
X143033333Y-40957142D01*
X142985714Y-41004761D01*
X142890476Y-41052380D01*
X142795238Y-41052380D01*
X142700000Y-41004761D01*
X142652380Y-40957142D01*
X142604761Y-40861904D01*
X142557142Y-40671428D01*
X142557142Y-40433333D01*
X142604761Y-40242857D01*
X142652380Y-40147619D01*
X142700000Y-40100000D01*
X142795238Y-40052380D01*
D16*
X133823428Y-39654095D02*
X133823428Y-39404095D01*
X133906761Y-39582666D01*
X133990095Y-39404095D01*
X133990095Y-39654095D01*
X134097238Y-39642190D02*
X134132952Y-39654095D01*
X134192476Y-39654095D01*
X134216285Y-39642190D01*
X134228190Y-39630285D01*
X134240095Y-39606476D01*
X134240095Y-39582666D01*
X134228190Y-39558857D01*
X134216285Y-39546952D01*
X134192476Y-39535047D01*
X134144857Y-39523142D01*
X134121047Y-39511238D01*
X134109142Y-39499333D01*
X134097238Y-39475523D01*
X134097238Y-39451714D01*
X134109142Y-39427904D01*
X134121047Y-39416000D01*
X134144857Y-39404095D01*
X134204380Y-39404095D01*
X134240095Y-39416000D01*
X134466285Y-39404095D02*
X134347238Y-39404095D01*
X134335333Y-39523142D01*
X134347238Y-39511238D01*
X134371047Y-39499333D01*
X134430571Y-39499333D01*
X134454380Y-39511238D01*
X134466285Y-39523142D01*
X134478190Y-39546952D01*
X134478190Y-39606476D01*
X134466285Y-39630285D01*
X134454380Y-39642190D01*
X134430571Y-39654095D01*
X134371047Y-39654095D01*
X134347238Y-39642190D01*
X134335333Y-39630285D01*
X134621047Y-39511238D02*
X134597238Y-39499333D01*
X134585333Y-39487428D01*
X134573428Y-39463619D01*
X134573428Y-39451714D01*
X134585333Y-39427904D01*
X134597238Y-39416000D01*
X134621047Y-39404095D01*
X134668666Y-39404095D01*
X134692476Y-39416000D01*
X134704380Y-39427904D01*
X134716285Y-39451714D01*
X134716285Y-39463619D01*
X134704380Y-39487428D01*
X134692476Y-39499333D01*
X134668666Y-39511238D01*
X134621047Y-39511238D01*
X134597238Y-39523142D01*
X134585333Y-39535047D01*
X134573428Y-39558857D01*
X134573428Y-39606476D01*
X134585333Y-39630285D01*
X134597238Y-39642190D01*
X134621047Y-39654095D01*
X134668666Y-39654095D01*
X134692476Y-39642190D01*
X134704380Y-39630285D01*
X134716285Y-39606476D01*
X134716285Y-39558857D01*
X134704380Y-39535047D01*
X134692476Y-39523142D01*
X134668666Y-39511238D01*
X134799619Y-39404095D02*
X134954380Y-39404095D01*
X134871047Y-39499333D01*
X134906761Y-39499333D01*
X134930571Y-39511238D01*
X134942476Y-39523142D01*
X134954380Y-39546952D01*
X134954380Y-39606476D01*
X134942476Y-39630285D01*
X134930571Y-39642190D01*
X134906761Y-39654095D01*
X134835333Y-39654095D01*
X134811523Y-39642190D01*
X134799619Y-39630285D01*
X135037714Y-39404095D02*
X135204380Y-39404095D01*
X135097238Y-39654095D01*
X135299619Y-39558857D02*
X135490095Y-39558857D01*
X135585333Y-39404095D02*
X135740095Y-39404095D01*
X135656761Y-39499333D01*
X135692476Y-39499333D01*
X135716285Y-39511238D01*
X135728190Y-39523142D01*
X135740095Y-39546952D01*
X135740095Y-39606476D01*
X135728190Y-39630285D01*
X135716285Y-39642190D01*
X135692476Y-39654095D01*
X135621047Y-39654095D01*
X135597238Y-39642190D01*
X135585333Y-39630285D01*
X135894857Y-39404095D02*
X135918666Y-39404095D01*
X135942476Y-39416000D01*
X135954380Y-39427904D01*
X135966285Y-39451714D01*
X135978190Y-39499333D01*
X135978190Y-39558857D01*
X135966285Y-39606476D01*
X135954380Y-39630285D01*
X135942476Y-39642190D01*
X135918666Y-39654095D01*
X135894857Y-39654095D01*
X135871047Y-39642190D01*
X135859142Y-39630285D01*
X135847238Y-39606476D01*
X135835333Y-39558857D01*
X135835333Y-39499333D01*
X135847238Y-39451714D01*
X135859142Y-39427904D01*
X135871047Y-39416000D01*
X135894857Y-39404095D01*
X136168666Y-39523142D02*
X136204380Y-39535047D01*
X136216285Y-39546952D01*
X136228190Y-39570761D01*
X136228190Y-39606476D01*
X136216285Y-39630285D01*
X136204380Y-39642190D01*
X136180571Y-39654095D01*
X136085333Y-39654095D01*
X136085333Y-39404095D01*
X136168666Y-39404095D01*
X136192476Y-39416000D01*
X136204380Y-39427904D01*
X136216285Y-39451714D01*
X136216285Y-39475523D01*
X136204380Y-39499333D01*
X136192476Y-39511238D01*
X136168666Y-39523142D01*
X136085333Y-39523142D01*
X136323428Y-39582666D02*
X136442476Y-39582666D01*
X136299619Y-39654095D02*
X136382952Y-39404095D01*
X136466285Y-39654095D01*
D11*
X122119047Y-36352380D02*
X122119047Y-37161904D01*
X122166666Y-37257142D01*
X122214285Y-37304761D01*
X122309523Y-37352380D01*
X122500000Y-37352380D01*
X122595238Y-37304761D01*
X122642857Y-37257142D01*
X122690476Y-37161904D01*
X122690476Y-36352380D01*
X123642857Y-36352380D02*
X123166666Y-36352380D01*
X123119047Y-36828571D01*
X123166666Y-36780952D01*
X123261904Y-36733333D01*
X123500000Y-36733333D01*
X123595238Y-36780952D01*
X123642857Y-36828571D01*
X123690476Y-36923809D01*
X123690476Y-37161904D01*
X123642857Y-37257142D01*
X123595238Y-37304761D01*
X123500000Y-37352380D01*
X123261904Y-37352380D01*
X123166666Y-37304761D01*
X123119047Y-37257142D01*
X124119047Y-36971428D02*
X124880952Y-36971428D01*
X125928571Y-37257142D02*
X125880952Y-37304761D01*
X125738095Y-37352380D01*
X125642857Y-37352380D01*
X125500000Y-37304761D01*
X125404761Y-37209523D01*
X125357142Y-37114285D01*
X125309523Y-36923809D01*
X125309523Y-36780952D01*
X125357142Y-36590476D01*
X125404761Y-36495238D01*
X125500000Y-36400000D01*
X125642857Y-36352380D01*
X125738095Y-36352380D01*
X125880952Y-36400000D01*
X125928571Y-36447619D01*
X126357142Y-37352380D02*
X126357142Y-36352380D01*
X126357142Y-36828571D02*
X126928571Y-36828571D01*
X126928571Y-37352380D02*
X126928571Y-36352380D01*
X127309523Y-36352380D02*
X127976190Y-36352380D01*
X127547619Y-37352380D01*
D16*
X123923428Y-39654095D02*
X123923428Y-39404095D01*
X124006761Y-39582666D01*
X124090095Y-39404095D01*
X124090095Y-39654095D01*
X124197238Y-39642190D02*
X124232952Y-39654095D01*
X124292476Y-39654095D01*
X124316285Y-39642190D01*
X124328190Y-39630285D01*
X124340095Y-39606476D01*
X124340095Y-39582666D01*
X124328190Y-39558857D01*
X124316285Y-39546952D01*
X124292476Y-39535047D01*
X124244857Y-39523142D01*
X124221047Y-39511238D01*
X124209142Y-39499333D01*
X124197238Y-39475523D01*
X124197238Y-39451714D01*
X124209142Y-39427904D01*
X124221047Y-39416000D01*
X124244857Y-39404095D01*
X124304380Y-39404095D01*
X124340095Y-39416000D01*
X124566285Y-39404095D02*
X124447238Y-39404095D01*
X124435333Y-39523142D01*
X124447238Y-39511238D01*
X124471047Y-39499333D01*
X124530571Y-39499333D01*
X124554380Y-39511238D01*
X124566285Y-39523142D01*
X124578190Y-39546952D01*
X124578190Y-39606476D01*
X124566285Y-39630285D01*
X124554380Y-39642190D01*
X124530571Y-39654095D01*
X124471047Y-39654095D01*
X124447238Y-39642190D01*
X124435333Y-39630285D01*
X124721047Y-39511238D02*
X124697238Y-39499333D01*
X124685333Y-39487428D01*
X124673428Y-39463619D01*
X124673428Y-39451714D01*
X124685333Y-39427904D01*
X124697238Y-39416000D01*
X124721047Y-39404095D01*
X124768666Y-39404095D01*
X124792476Y-39416000D01*
X124804380Y-39427904D01*
X124816285Y-39451714D01*
X124816285Y-39463619D01*
X124804380Y-39487428D01*
X124792476Y-39499333D01*
X124768666Y-39511238D01*
X124721047Y-39511238D01*
X124697238Y-39523142D01*
X124685333Y-39535047D01*
X124673428Y-39558857D01*
X124673428Y-39606476D01*
X124685333Y-39630285D01*
X124697238Y-39642190D01*
X124721047Y-39654095D01*
X124768666Y-39654095D01*
X124792476Y-39642190D01*
X124804380Y-39630285D01*
X124816285Y-39606476D01*
X124816285Y-39558857D01*
X124804380Y-39535047D01*
X124792476Y-39523142D01*
X124768666Y-39511238D01*
X124899619Y-39404095D02*
X125054380Y-39404095D01*
X124971047Y-39499333D01*
X125006761Y-39499333D01*
X125030571Y-39511238D01*
X125042476Y-39523142D01*
X125054380Y-39546952D01*
X125054380Y-39606476D01*
X125042476Y-39630285D01*
X125030571Y-39642190D01*
X125006761Y-39654095D01*
X124935333Y-39654095D01*
X124911523Y-39642190D01*
X124899619Y-39630285D01*
X125137714Y-39404095D02*
X125304380Y-39404095D01*
X125197238Y-39654095D01*
X125399619Y-39558857D02*
X125590095Y-39558857D01*
X125685333Y-39404095D02*
X125840095Y-39404095D01*
X125756761Y-39499333D01*
X125792476Y-39499333D01*
X125816285Y-39511238D01*
X125828190Y-39523142D01*
X125840095Y-39546952D01*
X125840095Y-39606476D01*
X125828190Y-39630285D01*
X125816285Y-39642190D01*
X125792476Y-39654095D01*
X125721047Y-39654095D01*
X125697238Y-39642190D01*
X125685333Y-39630285D01*
X125994857Y-39404095D02*
X126018666Y-39404095D01*
X126042476Y-39416000D01*
X126054380Y-39427904D01*
X126066285Y-39451714D01*
X126078190Y-39499333D01*
X126078190Y-39558857D01*
X126066285Y-39606476D01*
X126054380Y-39630285D01*
X126042476Y-39642190D01*
X126018666Y-39654095D01*
X125994857Y-39654095D01*
X125971047Y-39642190D01*
X125959142Y-39630285D01*
X125947238Y-39606476D01*
X125935333Y-39558857D01*
X125935333Y-39499333D01*
X125947238Y-39451714D01*
X125959142Y-39427904D01*
X125971047Y-39416000D01*
X125994857Y-39404095D01*
X126268666Y-39523142D02*
X126304380Y-39535047D01*
X126316285Y-39546952D01*
X126328190Y-39570761D01*
X126328190Y-39606476D01*
X126316285Y-39630285D01*
X126304380Y-39642190D01*
X126280571Y-39654095D01*
X126185333Y-39654095D01*
X126185333Y-39404095D01*
X126268666Y-39404095D01*
X126292476Y-39416000D01*
X126304380Y-39427904D01*
X126316285Y-39451714D01*
X126316285Y-39475523D01*
X126304380Y-39499333D01*
X126292476Y-39511238D01*
X126268666Y-39523142D01*
X126185333Y-39523142D01*
X126423428Y-39582666D02*
X126542476Y-39582666D01*
X126399619Y-39654095D02*
X126482952Y-39404095D01*
X126566285Y-39654095D01*
D11*
X122119047Y-46352380D02*
X122119047Y-47161904D01*
X122166666Y-47257142D01*
X122214285Y-47304761D01*
X122309523Y-47352380D01*
X122500000Y-47352380D01*
X122595238Y-47304761D01*
X122642857Y-47257142D01*
X122690476Y-47161904D01*
X122690476Y-46352380D01*
X123595238Y-46352380D02*
X123404761Y-46352380D01*
X123309523Y-46400000D01*
X123261904Y-46447619D01*
X123166666Y-46590476D01*
X123119047Y-46780952D01*
X123119047Y-47161904D01*
X123166666Y-47257142D01*
X123214285Y-47304761D01*
X123309523Y-47352380D01*
X123500000Y-47352380D01*
X123595238Y-47304761D01*
X123642857Y-47257142D01*
X123690476Y-47161904D01*
X123690476Y-46923809D01*
X123642857Y-46828571D01*
X123595238Y-46780952D01*
X123500000Y-46733333D01*
X123309523Y-46733333D01*
X123214285Y-46780952D01*
X123166666Y-46828571D01*
X123119047Y-46923809D01*
X124119047Y-46971428D02*
X124880952Y-46971428D01*
X125928571Y-47257142D02*
X125880952Y-47304761D01*
X125738095Y-47352380D01*
X125642857Y-47352380D01*
X125500000Y-47304761D01*
X125404761Y-47209523D01*
X125357142Y-47114285D01*
X125309523Y-46923809D01*
X125309523Y-46780952D01*
X125357142Y-46590476D01*
X125404761Y-46495238D01*
X125500000Y-46400000D01*
X125642857Y-46352380D01*
X125738095Y-46352380D01*
X125880952Y-46400000D01*
X125928571Y-46447619D01*
X126357142Y-47352380D02*
X126357142Y-46352380D01*
X126357142Y-46828571D02*
X126928571Y-46828571D01*
X126928571Y-47352380D02*
X126928571Y-46352380D01*
X127833333Y-46352380D02*
X127642857Y-46352380D01*
X127547619Y-46400000D01*
X127500000Y-46447619D01*
X127404761Y-46590476D01*
X127357142Y-46780952D01*
X127357142Y-47161904D01*
X127404761Y-47257142D01*
X127452380Y-47304761D01*
X127547619Y-47352380D01*
X127738095Y-47352380D01*
X127833333Y-47304761D01*
X127880952Y-47257142D01*
X127928571Y-47161904D01*
X127928571Y-46923809D01*
X127880952Y-46828571D01*
X127833333Y-46780952D01*
X127738095Y-46733333D01*
X127547619Y-46733333D01*
X127452380Y-46780952D01*
X127404761Y-46828571D01*
X127357142Y-46923809D01*
D16*
X123923428Y-49554095D02*
X123923428Y-49304095D01*
X124006761Y-49482666D01*
X124090095Y-49304095D01*
X124090095Y-49554095D01*
X124197238Y-49542190D02*
X124232952Y-49554095D01*
X124292476Y-49554095D01*
X124316285Y-49542190D01*
X124328190Y-49530285D01*
X124340095Y-49506476D01*
X124340095Y-49482666D01*
X124328190Y-49458857D01*
X124316285Y-49446952D01*
X124292476Y-49435047D01*
X124244857Y-49423142D01*
X124221047Y-49411238D01*
X124209142Y-49399333D01*
X124197238Y-49375523D01*
X124197238Y-49351714D01*
X124209142Y-49327904D01*
X124221047Y-49316000D01*
X124244857Y-49304095D01*
X124304380Y-49304095D01*
X124340095Y-49316000D01*
X124566285Y-49304095D02*
X124447238Y-49304095D01*
X124435333Y-49423142D01*
X124447238Y-49411238D01*
X124471047Y-49399333D01*
X124530571Y-49399333D01*
X124554380Y-49411238D01*
X124566285Y-49423142D01*
X124578190Y-49446952D01*
X124578190Y-49506476D01*
X124566285Y-49530285D01*
X124554380Y-49542190D01*
X124530571Y-49554095D01*
X124471047Y-49554095D01*
X124447238Y-49542190D01*
X124435333Y-49530285D01*
X124721047Y-49411238D02*
X124697238Y-49399333D01*
X124685333Y-49387428D01*
X124673428Y-49363619D01*
X124673428Y-49351714D01*
X124685333Y-49327904D01*
X124697238Y-49316000D01*
X124721047Y-49304095D01*
X124768666Y-49304095D01*
X124792476Y-49316000D01*
X124804380Y-49327904D01*
X124816285Y-49351714D01*
X124816285Y-49363619D01*
X124804380Y-49387428D01*
X124792476Y-49399333D01*
X124768666Y-49411238D01*
X124721047Y-49411238D01*
X124697238Y-49423142D01*
X124685333Y-49435047D01*
X124673428Y-49458857D01*
X124673428Y-49506476D01*
X124685333Y-49530285D01*
X124697238Y-49542190D01*
X124721047Y-49554095D01*
X124768666Y-49554095D01*
X124792476Y-49542190D01*
X124804380Y-49530285D01*
X124816285Y-49506476D01*
X124816285Y-49458857D01*
X124804380Y-49435047D01*
X124792476Y-49423142D01*
X124768666Y-49411238D01*
X124899619Y-49304095D02*
X125054380Y-49304095D01*
X124971047Y-49399333D01*
X125006761Y-49399333D01*
X125030571Y-49411238D01*
X125042476Y-49423142D01*
X125054380Y-49446952D01*
X125054380Y-49506476D01*
X125042476Y-49530285D01*
X125030571Y-49542190D01*
X125006761Y-49554095D01*
X124935333Y-49554095D01*
X124911523Y-49542190D01*
X124899619Y-49530285D01*
X125137714Y-49304095D02*
X125304380Y-49304095D01*
X125197238Y-49554095D01*
X125399619Y-49458857D02*
X125590095Y-49458857D01*
X125685333Y-49304095D02*
X125840095Y-49304095D01*
X125756761Y-49399333D01*
X125792476Y-49399333D01*
X125816285Y-49411238D01*
X125828190Y-49423142D01*
X125840095Y-49446952D01*
X125840095Y-49506476D01*
X125828190Y-49530285D01*
X125816285Y-49542190D01*
X125792476Y-49554095D01*
X125721047Y-49554095D01*
X125697238Y-49542190D01*
X125685333Y-49530285D01*
X125994857Y-49304095D02*
X126018666Y-49304095D01*
X126042476Y-49316000D01*
X126054380Y-49327904D01*
X126066285Y-49351714D01*
X126078190Y-49399333D01*
X126078190Y-49458857D01*
X126066285Y-49506476D01*
X126054380Y-49530285D01*
X126042476Y-49542190D01*
X126018666Y-49554095D01*
X125994857Y-49554095D01*
X125971047Y-49542190D01*
X125959142Y-49530285D01*
X125947238Y-49506476D01*
X125935333Y-49458857D01*
X125935333Y-49399333D01*
X125947238Y-49351714D01*
X125959142Y-49327904D01*
X125971047Y-49316000D01*
X125994857Y-49304095D01*
X126268666Y-49423142D02*
X126304380Y-49435047D01*
X126316285Y-49446952D01*
X126328190Y-49470761D01*
X126328190Y-49506476D01*
X126316285Y-49530285D01*
X126304380Y-49542190D01*
X126280571Y-49554095D01*
X126185333Y-49554095D01*
X126185333Y-49304095D01*
X126268666Y-49304095D01*
X126292476Y-49316000D01*
X126304380Y-49327904D01*
X126316285Y-49351714D01*
X126316285Y-49375523D01*
X126304380Y-49399333D01*
X126292476Y-49411238D01*
X126268666Y-49423142D01*
X126185333Y-49423142D01*
X126423428Y-49482666D02*
X126542476Y-49482666D01*
X126399619Y-49554095D02*
X126482952Y-49304095D01*
X126566285Y-49554095D01*
D11*
X122319047Y-56252380D02*
X122319047Y-57061904D01*
X122366666Y-57157142D01*
X122414285Y-57204761D01*
X122509523Y-57252380D01*
X122700000Y-57252380D01*
X122795238Y-57204761D01*
X122842857Y-57157142D01*
X122890476Y-57061904D01*
X122890476Y-56252380D01*
X123271428Y-56252380D02*
X123938095Y-56252380D01*
X123509523Y-57252380D01*
X124319047Y-56871428D02*
X125080952Y-56871428D01*
X126128571Y-57157142D02*
X126080952Y-57204761D01*
X125938095Y-57252380D01*
X125842857Y-57252380D01*
X125700000Y-57204761D01*
X125604761Y-57109523D01*
X125557142Y-57014285D01*
X125509523Y-56823809D01*
X125509523Y-56680952D01*
X125557142Y-56490476D01*
X125604761Y-56395238D01*
X125700000Y-56300000D01*
X125842857Y-56252380D01*
X125938095Y-56252380D01*
X126080952Y-56300000D01*
X126128571Y-56347619D01*
X126557142Y-57252380D02*
X126557142Y-56252380D01*
X126557142Y-56728571D02*
X127128571Y-56728571D01*
X127128571Y-57252380D02*
X127128571Y-56252380D01*
X128080952Y-56252380D02*
X127604761Y-56252380D01*
X127557142Y-56728571D01*
X127604761Y-56680952D01*
X127700000Y-56633333D01*
X127938095Y-56633333D01*
X128033333Y-56680952D01*
X128080952Y-56728571D01*
X128128571Y-56823809D01*
X128128571Y-57061904D01*
X128080952Y-57157142D01*
X128033333Y-57204761D01*
X127938095Y-57252380D01*
X127700000Y-57252380D01*
X127604761Y-57204761D01*
X127557142Y-57157142D01*
D16*
X123923428Y-59454095D02*
X123923428Y-59204095D01*
X124006761Y-59382666D01*
X124090095Y-59204095D01*
X124090095Y-59454095D01*
X124197238Y-59442190D02*
X124232952Y-59454095D01*
X124292476Y-59454095D01*
X124316285Y-59442190D01*
X124328190Y-59430285D01*
X124340095Y-59406476D01*
X124340095Y-59382666D01*
X124328190Y-59358857D01*
X124316285Y-59346952D01*
X124292476Y-59335047D01*
X124244857Y-59323142D01*
X124221047Y-59311238D01*
X124209142Y-59299333D01*
X124197238Y-59275523D01*
X124197238Y-59251714D01*
X124209142Y-59227904D01*
X124221047Y-59216000D01*
X124244857Y-59204095D01*
X124304380Y-59204095D01*
X124340095Y-59216000D01*
X124566285Y-59204095D02*
X124447238Y-59204095D01*
X124435333Y-59323142D01*
X124447238Y-59311238D01*
X124471047Y-59299333D01*
X124530571Y-59299333D01*
X124554380Y-59311238D01*
X124566285Y-59323142D01*
X124578190Y-59346952D01*
X124578190Y-59406476D01*
X124566285Y-59430285D01*
X124554380Y-59442190D01*
X124530571Y-59454095D01*
X124471047Y-59454095D01*
X124447238Y-59442190D01*
X124435333Y-59430285D01*
X124721047Y-59311238D02*
X124697238Y-59299333D01*
X124685333Y-59287428D01*
X124673428Y-59263619D01*
X124673428Y-59251714D01*
X124685333Y-59227904D01*
X124697238Y-59216000D01*
X124721047Y-59204095D01*
X124768666Y-59204095D01*
X124792476Y-59216000D01*
X124804380Y-59227904D01*
X124816285Y-59251714D01*
X124816285Y-59263619D01*
X124804380Y-59287428D01*
X124792476Y-59299333D01*
X124768666Y-59311238D01*
X124721047Y-59311238D01*
X124697238Y-59323142D01*
X124685333Y-59335047D01*
X124673428Y-59358857D01*
X124673428Y-59406476D01*
X124685333Y-59430285D01*
X124697238Y-59442190D01*
X124721047Y-59454095D01*
X124768666Y-59454095D01*
X124792476Y-59442190D01*
X124804380Y-59430285D01*
X124816285Y-59406476D01*
X124816285Y-59358857D01*
X124804380Y-59335047D01*
X124792476Y-59323142D01*
X124768666Y-59311238D01*
X124899619Y-59204095D02*
X125054380Y-59204095D01*
X124971047Y-59299333D01*
X125006761Y-59299333D01*
X125030571Y-59311238D01*
X125042476Y-59323142D01*
X125054380Y-59346952D01*
X125054380Y-59406476D01*
X125042476Y-59430285D01*
X125030571Y-59442190D01*
X125006761Y-59454095D01*
X124935333Y-59454095D01*
X124911523Y-59442190D01*
X124899619Y-59430285D01*
X125137714Y-59204095D02*
X125304380Y-59204095D01*
X125197238Y-59454095D01*
X125399619Y-59358857D02*
X125590095Y-59358857D01*
X125685333Y-59204095D02*
X125840095Y-59204095D01*
X125756761Y-59299333D01*
X125792476Y-59299333D01*
X125816285Y-59311238D01*
X125828190Y-59323142D01*
X125840095Y-59346952D01*
X125840095Y-59406476D01*
X125828190Y-59430285D01*
X125816285Y-59442190D01*
X125792476Y-59454095D01*
X125721047Y-59454095D01*
X125697238Y-59442190D01*
X125685333Y-59430285D01*
X125994857Y-59204095D02*
X126018666Y-59204095D01*
X126042476Y-59216000D01*
X126054380Y-59227904D01*
X126066285Y-59251714D01*
X126078190Y-59299333D01*
X126078190Y-59358857D01*
X126066285Y-59406476D01*
X126054380Y-59430285D01*
X126042476Y-59442190D01*
X126018666Y-59454095D01*
X125994857Y-59454095D01*
X125971047Y-59442190D01*
X125959142Y-59430285D01*
X125947238Y-59406476D01*
X125935333Y-59358857D01*
X125935333Y-59299333D01*
X125947238Y-59251714D01*
X125959142Y-59227904D01*
X125971047Y-59216000D01*
X125994857Y-59204095D01*
X126268666Y-59323142D02*
X126304380Y-59335047D01*
X126316285Y-59346952D01*
X126328190Y-59370761D01*
X126328190Y-59406476D01*
X126316285Y-59430285D01*
X126304380Y-59442190D01*
X126280571Y-59454095D01*
X126185333Y-59454095D01*
X126185333Y-59204095D01*
X126268666Y-59204095D01*
X126292476Y-59216000D01*
X126304380Y-59227904D01*
X126316285Y-59251714D01*
X126316285Y-59275523D01*
X126304380Y-59299333D01*
X126292476Y-59311238D01*
X126268666Y-59323142D01*
X126185333Y-59323142D01*
X126423428Y-59382666D02*
X126542476Y-59382666D01*
X126399619Y-59454095D02*
X126482952Y-59204095D01*
X126566285Y-59454095D01*
D11*
X122219047Y-66152380D02*
X122219047Y-66961904D01*
X122266666Y-67057142D01*
X122314285Y-67104761D01*
X122409523Y-67152380D01*
X122600000Y-67152380D01*
X122695238Y-67104761D01*
X122742857Y-67057142D01*
X122790476Y-66961904D01*
X122790476Y-66152380D01*
X123409523Y-66580952D02*
X123314285Y-66533333D01*
X123266666Y-66485714D01*
X123219047Y-66390476D01*
X123219047Y-66342857D01*
X123266666Y-66247619D01*
X123314285Y-66200000D01*
X123409523Y-66152380D01*
X123600000Y-66152380D01*
X123695238Y-66200000D01*
X123742857Y-66247619D01*
X123790476Y-66342857D01*
X123790476Y-66390476D01*
X123742857Y-66485714D01*
X123695238Y-66533333D01*
X123600000Y-66580952D01*
X123409523Y-66580952D01*
X123314285Y-66628571D01*
X123266666Y-66676190D01*
X123219047Y-66771428D01*
X123219047Y-66961904D01*
X123266666Y-67057142D01*
X123314285Y-67104761D01*
X123409523Y-67152380D01*
X123600000Y-67152380D01*
X123695238Y-67104761D01*
X123742857Y-67057142D01*
X123790476Y-66961904D01*
X123790476Y-66771428D01*
X123742857Y-66676190D01*
X123695238Y-66628571D01*
X123600000Y-66580952D01*
X124219047Y-66771428D02*
X124980952Y-66771428D01*
X126028571Y-67057142D02*
X125980952Y-67104761D01*
X125838095Y-67152380D01*
X125742857Y-67152380D01*
X125600000Y-67104761D01*
X125504761Y-67009523D01*
X125457142Y-66914285D01*
X125409523Y-66723809D01*
X125409523Y-66580952D01*
X125457142Y-66390476D01*
X125504761Y-66295238D01*
X125600000Y-66200000D01*
X125742857Y-66152380D01*
X125838095Y-66152380D01*
X125980952Y-66200000D01*
X126028571Y-66247619D01*
X126457142Y-67152380D02*
X126457142Y-66152380D01*
X126457142Y-66628571D02*
X127028571Y-66628571D01*
X127028571Y-67152380D02*
X127028571Y-66152380D01*
X127933333Y-66485714D02*
X127933333Y-67152380D01*
X127695238Y-66104761D02*
X127457142Y-66819047D01*
X128076190Y-66819047D01*
D16*
X123923428Y-69354095D02*
X123923428Y-69104095D01*
X124006761Y-69282666D01*
X124090095Y-69104095D01*
X124090095Y-69354095D01*
X124197238Y-69342190D02*
X124232952Y-69354095D01*
X124292476Y-69354095D01*
X124316285Y-69342190D01*
X124328190Y-69330285D01*
X124340095Y-69306476D01*
X124340095Y-69282666D01*
X124328190Y-69258857D01*
X124316285Y-69246952D01*
X124292476Y-69235047D01*
X124244857Y-69223142D01*
X124221047Y-69211238D01*
X124209142Y-69199333D01*
X124197238Y-69175523D01*
X124197238Y-69151714D01*
X124209142Y-69127904D01*
X124221047Y-69116000D01*
X124244857Y-69104095D01*
X124304380Y-69104095D01*
X124340095Y-69116000D01*
X124566285Y-69104095D02*
X124447238Y-69104095D01*
X124435333Y-69223142D01*
X124447238Y-69211238D01*
X124471047Y-69199333D01*
X124530571Y-69199333D01*
X124554380Y-69211238D01*
X124566285Y-69223142D01*
X124578190Y-69246952D01*
X124578190Y-69306476D01*
X124566285Y-69330285D01*
X124554380Y-69342190D01*
X124530571Y-69354095D01*
X124471047Y-69354095D01*
X124447238Y-69342190D01*
X124435333Y-69330285D01*
X124721047Y-69211238D02*
X124697238Y-69199333D01*
X124685333Y-69187428D01*
X124673428Y-69163619D01*
X124673428Y-69151714D01*
X124685333Y-69127904D01*
X124697238Y-69116000D01*
X124721047Y-69104095D01*
X124768666Y-69104095D01*
X124792476Y-69116000D01*
X124804380Y-69127904D01*
X124816285Y-69151714D01*
X124816285Y-69163619D01*
X124804380Y-69187428D01*
X124792476Y-69199333D01*
X124768666Y-69211238D01*
X124721047Y-69211238D01*
X124697238Y-69223142D01*
X124685333Y-69235047D01*
X124673428Y-69258857D01*
X124673428Y-69306476D01*
X124685333Y-69330285D01*
X124697238Y-69342190D01*
X124721047Y-69354095D01*
X124768666Y-69354095D01*
X124792476Y-69342190D01*
X124804380Y-69330285D01*
X124816285Y-69306476D01*
X124816285Y-69258857D01*
X124804380Y-69235047D01*
X124792476Y-69223142D01*
X124768666Y-69211238D01*
X124899619Y-69104095D02*
X125054380Y-69104095D01*
X124971047Y-69199333D01*
X125006761Y-69199333D01*
X125030571Y-69211238D01*
X125042476Y-69223142D01*
X125054380Y-69246952D01*
X125054380Y-69306476D01*
X125042476Y-69330285D01*
X125030571Y-69342190D01*
X125006761Y-69354095D01*
X124935333Y-69354095D01*
X124911523Y-69342190D01*
X124899619Y-69330285D01*
X125137714Y-69104095D02*
X125304380Y-69104095D01*
X125197238Y-69354095D01*
X125399619Y-69258857D02*
X125590095Y-69258857D01*
X125685333Y-69104095D02*
X125840095Y-69104095D01*
X125756761Y-69199333D01*
X125792476Y-69199333D01*
X125816285Y-69211238D01*
X125828190Y-69223142D01*
X125840095Y-69246952D01*
X125840095Y-69306476D01*
X125828190Y-69330285D01*
X125816285Y-69342190D01*
X125792476Y-69354095D01*
X125721047Y-69354095D01*
X125697238Y-69342190D01*
X125685333Y-69330285D01*
X125994857Y-69104095D02*
X126018666Y-69104095D01*
X126042476Y-69116000D01*
X126054380Y-69127904D01*
X126066285Y-69151714D01*
X126078190Y-69199333D01*
X126078190Y-69258857D01*
X126066285Y-69306476D01*
X126054380Y-69330285D01*
X126042476Y-69342190D01*
X126018666Y-69354095D01*
X125994857Y-69354095D01*
X125971047Y-69342190D01*
X125959142Y-69330285D01*
X125947238Y-69306476D01*
X125935333Y-69258857D01*
X125935333Y-69199333D01*
X125947238Y-69151714D01*
X125959142Y-69127904D01*
X125971047Y-69116000D01*
X125994857Y-69104095D01*
X126268666Y-69223142D02*
X126304380Y-69235047D01*
X126316285Y-69246952D01*
X126328190Y-69270761D01*
X126328190Y-69306476D01*
X126316285Y-69330285D01*
X126304380Y-69342190D01*
X126280571Y-69354095D01*
X126185333Y-69354095D01*
X126185333Y-69104095D01*
X126268666Y-69104095D01*
X126292476Y-69116000D01*
X126304380Y-69127904D01*
X126316285Y-69151714D01*
X126316285Y-69175523D01*
X126304380Y-69199333D01*
X126292476Y-69211238D01*
X126268666Y-69223142D01*
X126185333Y-69223142D01*
X126423428Y-69282666D02*
X126542476Y-69282666D01*
X126399619Y-69354095D02*
X126482952Y-69104095D01*
X126566285Y-69354095D01*
D11*
X139666666Y-90202380D02*
X139666666Y-90916666D01*
X139619047Y-91059523D01*
X139523809Y-91154761D01*
X139380952Y-91202380D01*
X139285714Y-91202380D01*
X140666666Y-91202380D02*
X140095238Y-91202380D01*
X140380952Y-91202380D02*
X140380952Y-90202380D01*
X140285714Y-90345238D01*
X140190476Y-90440476D01*
X140095238Y-90488095D01*
%LPC*%
D17*
X120750000Y-90700000D03*
X120750000Y-93300000D03*
X120750000Y-92000000D03*
G36*
G01*
X125725000Y-43550000D02*
X125725000Y-43050000D01*
G75*
G02*
X125950000Y-42825000I225000J0D01*
G01*
X126400000Y-42825000D01*
G75*
G02*
X126625000Y-43050000I0J-225000D01*
G01*
X126625000Y-43550000D01*
G75*
G02*
X126400000Y-43775000I-225000J0D01*
G01*
X125950000Y-43775000D01*
G75*
G02*
X125725000Y-43550000I0J225000D01*
G01*
G37*
G36*
G01*
X124175000Y-43550000D02*
X124175000Y-43050000D01*
G75*
G02*
X124400000Y-42825000I225000J0D01*
G01*
X124850000Y-42825000D01*
G75*
G02*
X125075000Y-43050000I0J-225000D01*
G01*
X125075000Y-43550000D01*
G75*
G02*
X124850000Y-43775000I-225000J0D01*
G01*
X124400000Y-43775000D01*
G75*
G02*
X124175000Y-43550000I0J225000D01*
G01*
G37*
G36*
G01*
X124175000Y-53450000D02*
X124175000Y-52950000D01*
G75*
G02*
X124400000Y-52725000I225000J0D01*
G01*
X124850000Y-52725000D01*
G75*
G02*
X125075000Y-52950000I0J-225000D01*
G01*
X125075000Y-53450000D01*
G75*
G02*
X124850000Y-53675000I-225000J0D01*
G01*
X124400000Y-53675000D01*
G75*
G02*
X124175000Y-53450000I0J225000D01*
G01*
G37*
G36*
G01*
X125725000Y-53450000D02*
X125725000Y-52950000D01*
G75*
G02*
X125950000Y-52725000I225000J0D01*
G01*
X126400000Y-52725000D01*
G75*
G02*
X126625000Y-52950000I0J-225000D01*
G01*
X126625000Y-53450000D01*
G75*
G02*
X126400000Y-53675000I-225000J0D01*
G01*
X125950000Y-53675000D01*
G75*
G02*
X125725000Y-53450000I0J225000D01*
G01*
G37*
G36*
G01*
X125725000Y-63450000D02*
X125725000Y-62950000D01*
G75*
G02*
X125950000Y-62725000I225000J0D01*
G01*
X126400000Y-62725000D01*
G75*
G02*
X126625000Y-62950000I0J-225000D01*
G01*
X126625000Y-63450000D01*
G75*
G02*
X126400000Y-63675000I-225000J0D01*
G01*
X125950000Y-63675000D01*
G75*
G02*
X125725000Y-63450000I0J225000D01*
G01*
G37*
G36*
G01*
X124175000Y-63450000D02*
X124175000Y-62950000D01*
G75*
G02*
X124400000Y-62725000I225000J0D01*
G01*
X124850000Y-62725000D01*
G75*
G02*
X125075000Y-62950000I0J-225000D01*
G01*
X125075000Y-63450000D01*
G75*
G02*
X124850000Y-63675000I-225000J0D01*
G01*
X124400000Y-63675000D01*
G75*
G02*
X124175000Y-63450000I0J225000D01*
G01*
G37*
G36*
G01*
X124075000Y-72950000D02*
X124075000Y-72450000D01*
G75*
G02*
X124300000Y-72225000I225000J0D01*
G01*
X124750000Y-72225000D01*
G75*
G02*
X124975000Y-72450000I0J-225000D01*
G01*
X124975000Y-72950000D01*
G75*
G02*
X124750000Y-73175000I-225000J0D01*
G01*
X124300000Y-73175000D01*
G75*
G02*
X124075000Y-72950000I0J225000D01*
G01*
G37*
G36*
G01*
X125625000Y-72950000D02*
X125625000Y-72450000D01*
G75*
G02*
X125850000Y-72225000I225000J0D01*
G01*
X126300000Y-72225000D01*
G75*
G02*
X126525000Y-72450000I0J-225000D01*
G01*
X126525000Y-72950000D01*
G75*
G02*
X126300000Y-73175000I-225000J0D01*
G01*
X125850000Y-73175000D01*
G75*
G02*
X125625000Y-72950000I0J225000D01*
G01*
G37*
G36*
G01*
X134875000Y-36550000D02*
X134875000Y-37050000D01*
G75*
G02*
X134650000Y-37275000I-225000J0D01*
G01*
X134200000Y-37275000D01*
G75*
G02*
X133975000Y-37050000I0J225000D01*
G01*
X133975000Y-36550000D01*
G75*
G02*
X134200000Y-36325000I225000J0D01*
G01*
X134650000Y-36325000D01*
G75*
G02*
X134875000Y-36550000I0J-225000D01*
G01*
G37*
G36*
G01*
X136425000Y-36550000D02*
X136425000Y-37050000D01*
G75*
G02*
X136200000Y-37275000I-225000J0D01*
G01*
X135750000Y-37275000D01*
G75*
G02*
X135525000Y-37050000I0J225000D01*
G01*
X135525000Y-36550000D01*
G75*
G02*
X135750000Y-36325000I225000J0D01*
G01*
X136200000Y-36325000D01*
G75*
G02*
X136425000Y-36550000I0J-225000D01*
G01*
G37*
G36*
G01*
X136525000Y-45450000D02*
X136525000Y-45950000D01*
G75*
G02*
X136300000Y-46175000I-225000J0D01*
G01*
X135850000Y-46175000D01*
G75*
G02*
X135625000Y-45950000I0J225000D01*
G01*
X135625000Y-45450000D01*
G75*
G02*
X135850000Y-45225000I225000J0D01*
G01*
X136300000Y-45225000D01*
G75*
G02*
X136525000Y-45450000I0J-225000D01*
G01*
G37*
G36*
G01*
X134975000Y-45450000D02*
X134975000Y-45950000D01*
G75*
G02*
X134750000Y-46175000I-225000J0D01*
G01*
X134300000Y-46175000D01*
G75*
G02*
X134075000Y-45950000I0J225000D01*
G01*
X134075000Y-45450000D01*
G75*
G02*
X134300000Y-45225000I225000J0D01*
G01*
X134750000Y-45225000D01*
G75*
G02*
X134975000Y-45450000I0J-225000D01*
G01*
G37*
G36*
G01*
X136525000Y-55350000D02*
X136525000Y-55850000D01*
G75*
G02*
X136300000Y-56075000I-225000J0D01*
G01*
X135850000Y-56075000D01*
G75*
G02*
X135625000Y-55850000I0J225000D01*
G01*
X135625000Y-55350000D01*
G75*
G02*
X135850000Y-55125000I225000J0D01*
G01*
X136300000Y-55125000D01*
G75*
G02*
X136525000Y-55350000I0J-225000D01*
G01*
G37*
G36*
G01*
X134975000Y-55350000D02*
X134975000Y-55850000D01*
G75*
G02*
X134750000Y-56075000I-225000J0D01*
G01*
X134300000Y-56075000D01*
G75*
G02*
X134075000Y-55850000I0J225000D01*
G01*
X134075000Y-55350000D01*
G75*
G02*
X134300000Y-55125000I225000J0D01*
G01*
X134750000Y-55125000D01*
G75*
G02*
X134975000Y-55350000I0J-225000D01*
G01*
G37*
G36*
G01*
X134975000Y-65650000D02*
X134975000Y-66150000D01*
G75*
G02*
X134750000Y-66375000I-225000J0D01*
G01*
X134300000Y-66375000D01*
G75*
G02*
X134075000Y-66150000I0J225000D01*
G01*
X134075000Y-65650000D01*
G75*
G02*
X134300000Y-65425000I225000J0D01*
G01*
X134750000Y-65425000D01*
G75*
G02*
X134975000Y-65650000I0J-225000D01*
G01*
G37*
G36*
G01*
X136525000Y-65650000D02*
X136525000Y-66150000D01*
G75*
G02*
X136300000Y-66375000I-225000J0D01*
G01*
X135850000Y-66375000D01*
G75*
G02*
X135625000Y-66150000I0J225000D01*
G01*
X135625000Y-65650000D01*
G75*
G02*
X135850000Y-65425000I225000J0D01*
G01*
X136300000Y-65425000D01*
G75*
G02*
X136525000Y-65650000I0J-225000D01*
G01*
G37*
G36*
G01*
X132075000Y-85950000D02*
X132075000Y-85450000D01*
G75*
G02*
X132300000Y-85225000I225000J0D01*
G01*
X132750000Y-85225000D01*
G75*
G02*
X132975000Y-85450000I0J-225000D01*
G01*
X132975000Y-85950000D01*
G75*
G02*
X132750000Y-86175000I-225000J0D01*
G01*
X132300000Y-86175000D01*
G75*
G02*
X132075000Y-85950000I0J225000D01*
G01*
G37*
G36*
G01*
X133625000Y-85950000D02*
X133625000Y-85450000D01*
G75*
G02*
X133850000Y-85225000I225000J0D01*
G01*
X134300000Y-85225000D01*
G75*
G02*
X134525000Y-85450000I0J-225000D01*
G01*
X134525000Y-85950000D01*
G75*
G02*
X134300000Y-86175000I-225000J0D01*
G01*
X133850000Y-86175000D01*
G75*
G02*
X133625000Y-85950000I0J225000D01*
G01*
G37*
G36*
G01*
X133625000Y-87750000D02*
X133625000Y-87250000D01*
G75*
G02*
X133850000Y-87025000I225000J0D01*
G01*
X134300000Y-87025000D01*
G75*
G02*
X134525000Y-87250000I0J-225000D01*
G01*
X134525000Y-87750000D01*
G75*
G02*
X134300000Y-87975000I-225000J0D01*
G01*
X133850000Y-87975000D01*
G75*
G02*
X133625000Y-87750000I0J225000D01*
G01*
G37*
G36*
G01*
X132075000Y-87750000D02*
X132075000Y-87250000D01*
G75*
G02*
X132300000Y-87025000I225000J0D01*
G01*
X132750000Y-87025000D01*
G75*
G02*
X132975000Y-87250000I0J-225000D01*
G01*
X132975000Y-87750000D01*
G75*
G02*
X132750000Y-87975000I-225000J0D01*
G01*
X132300000Y-87975000D01*
G75*
G02*
X132075000Y-87750000I0J225000D01*
G01*
G37*
G36*
G01*
X138775000Y-73325000D02*
X138775000Y-73875000D01*
G75*
G02*
X138575000Y-74075000I-200000J0D01*
G01*
X138175000Y-74075000D01*
G75*
G02*
X137975000Y-73875000I0J200000D01*
G01*
X137975000Y-73325000D01*
G75*
G02*
X138175000Y-73125000I200000J0D01*
G01*
X138575000Y-73125000D01*
G75*
G02*
X138775000Y-73325000I0J-200000D01*
G01*
G37*
G36*
G01*
X140425000Y-73325000D02*
X140425000Y-73875000D01*
G75*
G02*
X140225000Y-74075000I-200000J0D01*
G01*
X139825000Y-74075000D01*
G75*
G02*
X139625000Y-73875000I0J200000D01*
G01*
X139625000Y-73325000D01*
G75*
G02*
X139825000Y-73125000I200000J0D01*
G01*
X140225000Y-73125000D01*
G75*
G02*
X140425000Y-73325000I0J-200000D01*
G01*
G37*
G36*
G01*
X140425000Y-71725000D02*
X140425000Y-72275000D01*
G75*
G02*
X140225000Y-72475000I-200000J0D01*
G01*
X139825000Y-72475000D01*
G75*
G02*
X139625000Y-72275000I0J200000D01*
G01*
X139625000Y-71725000D01*
G75*
G02*
X139825000Y-71525000I200000J0D01*
G01*
X140225000Y-71525000D01*
G75*
G02*
X140425000Y-71725000I0J-200000D01*
G01*
G37*
G36*
G01*
X138775000Y-71725000D02*
X138775000Y-72275000D01*
G75*
G02*
X138575000Y-72475000I-200000J0D01*
G01*
X138175000Y-72475000D01*
G75*
G02*
X137975000Y-72275000I0J200000D01*
G01*
X137975000Y-71725000D01*
G75*
G02*
X138175000Y-71525000I200000J0D01*
G01*
X138575000Y-71525000D01*
G75*
G02*
X138775000Y-71725000I0J-200000D01*
G01*
G37*
G36*
G01*
X140425000Y-78604590D02*
X140425000Y-79154590D01*
G75*
G02*
X140225000Y-79354590I-200000J0D01*
G01*
X139825000Y-79354590D01*
G75*
G02*
X139625000Y-79154590I0J200000D01*
G01*
X139625000Y-78604590D01*
G75*
G02*
X139825000Y-78404590I200000J0D01*
G01*
X140225000Y-78404590D01*
G75*
G02*
X140425000Y-78604590I0J-200000D01*
G01*
G37*
G36*
G01*
X138775000Y-78604590D02*
X138775000Y-79154590D01*
G75*
G02*
X138575000Y-79354590I-200000J0D01*
G01*
X138175000Y-79354590D01*
G75*
G02*
X137975000Y-79154590I0J200000D01*
G01*
X137975000Y-78604590D01*
G75*
G02*
X138175000Y-78404590I200000J0D01*
G01*
X138575000Y-78404590D01*
G75*
G02*
X138775000Y-78604590I0J-200000D01*
G01*
G37*
G36*
G01*
X138775000Y-76563774D02*
X138775000Y-77113774D01*
G75*
G02*
X138575000Y-77313774I-200000J0D01*
G01*
X138175000Y-77313774D01*
G75*
G02*
X137975000Y-77113774I0J200000D01*
G01*
X137975000Y-76563774D01*
G75*
G02*
X138175000Y-76363774I200000J0D01*
G01*
X138575000Y-76363774D01*
G75*
G02*
X138775000Y-76563774I0J-200000D01*
G01*
G37*
G36*
G01*
X140425000Y-76563774D02*
X140425000Y-77113774D01*
G75*
G02*
X140225000Y-77313774I-200000J0D01*
G01*
X139825000Y-77313774D01*
G75*
G02*
X139625000Y-77113774I0J200000D01*
G01*
X139625000Y-76563774D01*
G75*
G02*
X139825000Y-76363774I200000J0D01*
G01*
X140225000Y-76363774D01*
G75*
G02*
X140425000Y-76563774I0J-200000D01*
G01*
G37*
G36*
G01*
X138775000Y-82686222D02*
X138775000Y-83236222D01*
G75*
G02*
X138575000Y-83436222I-200000J0D01*
G01*
X138175000Y-83436222D01*
G75*
G02*
X137975000Y-83236222I0J200000D01*
G01*
X137975000Y-82686222D01*
G75*
G02*
X138175000Y-82486222I200000J0D01*
G01*
X138575000Y-82486222D01*
G75*
G02*
X138775000Y-82686222I0J-200000D01*
G01*
G37*
G36*
G01*
X140425000Y-82686222D02*
X140425000Y-83236222D01*
G75*
G02*
X140225000Y-83436222I-200000J0D01*
G01*
X139825000Y-83436222D01*
G75*
G02*
X139625000Y-83236222I0J200000D01*
G01*
X139625000Y-82686222D01*
G75*
G02*
X139825000Y-82486222I200000J0D01*
G01*
X140225000Y-82486222D01*
G75*
G02*
X140425000Y-82686222I0J-200000D01*
G01*
G37*
G36*
G01*
X140425000Y-80645406D02*
X140425000Y-81195406D01*
G75*
G02*
X140225000Y-81395406I-200000J0D01*
G01*
X139825000Y-81395406D01*
G75*
G02*
X139625000Y-81195406I0J200000D01*
G01*
X139625000Y-80645406D01*
G75*
G02*
X139825000Y-80445406I200000J0D01*
G01*
X140225000Y-80445406D01*
G75*
G02*
X140425000Y-80645406I0J-200000D01*
G01*
G37*
G36*
G01*
X138775000Y-80645406D02*
X138775000Y-81195406D01*
G75*
G02*
X138575000Y-81395406I-200000J0D01*
G01*
X138175000Y-81395406D01*
G75*
G02*
X137975000Y-81195406I0J200000D01*
G01*
X137975000Y-80645406D01*
G75*
G02*
X138175000Y-80445406I200000J0D01*
G01*
X138575000Y-80445406D01*
G75*
G02*
X138775000Y-80645406I0J-200000D01*
G01*
G37*
G36*
G01*
X140425000Y-86767857D02*
X140425000Y-87317857D01*
G75*
G02*
X140225000Y-87517857I-200000J0D01*
G01*
X139825000Y-87517857D01*
G75*
G02*
X139625000Y-87317857I0J200000D01*
G01*
X139625000Y-86767857D01*
G75*
G02*
X139825000Y-86567857I200000J0D01*
G01*
X140225000Y-86567857D01*
G75*
G02*
X140425000Y-86767857I0J-200000D01*
G01*
G37*
G36*
G01*
X138775000Y-86767857D02*
X138775000Y-87317857D01*
G75*
G02*
X138575000Y-87517857I-200000J0D01*
G01*
X138175000Y-87517857D01*
G75*
G02*
X137975000Y-87317857I0J200000D01*
G01*
X137975000Y-86767857D01*
G75*
G02*
X138175000Y-86567857I200000J0D01*
G01*
X138575000Y-86567857D01*
G75*
G02*
X138775000Y-86767857I0J-200000D01*
G01*
G37*
G36*
G01*
X138775000Y-84727038D02*
X138775000Y-85277038D01*
G75*
G02*
X138575000Y-85477038I-200000J0D01*
G01*
X138175000Y-85477038D01*
G75*
G02*
X137975000Y-85277038I0J200000D01*
G01*
X137975000Y-84727038D01*
G75*
G02*
X138175000Y-84527038I200000J0D01*
G01*
X138575000Y-84527038D01*
G75*
G02*
X138775000Y-84727038I0J-200000D01*
G01*
G37*
G36*
G01*
X140425000Y-84727038D02*
X140425000Y-85277038D01*
G75*
G02*
X140225000Y-85477038I-200000J0D01*
G01*
X139825000Y-85477038D01*
G75*
G02*
X139625000Y-85277038I0J200000D01*
G01*
X139625000Y-84727038D01*
G75*
G02*
X139825000Y-84527038I200000J0D01*
G01*
X140225000Y-84527038D01*
G75*
G02*
X140425000Y-84727038I0J-200000D01*
G01*
G37*
G36*
G01*
X119675000Y-85276016D02*
X119675000Y-84726016D01*
G75*
G02*
X119875000Y-84526016I200000J0D01*
G01*
X120275000Y-84526016D01*
G75*
G02*
X120475000Y-84726016I0J-200000D01*
G01*
X120475000Y-85276016D01*
G75*
G02*
X120275000Y-85476016I-200000J0D01*
G01*
X119875000Y-85476016D01*
G75*
G02*
X119675000Y-85276016I0J200000D01*
G01*
G37*
G36*
G01*
X121325000Y-85276016D02*
X121325000Y-84726016D01*
G75*
G02*
X121525000Y-84526016I200000J0D01*
G01*
X121925000Y-84526016D01*
G75*
G02*
X122125000Y-84726016I0J-200000D01*
G01*
X122125000Y-85276016D01*
G75*
G02*
X121925000Y-85476016I-200000J0D01*
G01*
X121525000Y-85476016D01*
G75*
G02*
X121325000Y-85276016I0J200000D01*
G01*
G37*
G36*
G01*
X119675000Y-87317857D02*
X119675000Y-86767857D01*
G75*
G02*
X119875000Y-86567857I200000J0D01*
G01*
X120275000Y-86567857D01*
G75*
G02*
X120475000Y-86767857I0J-200000D01*
G01*
X120475000Y-87317857D01*
G75*
G02*
X120275000Y-87517857I-200000J0D01*
G01*
X119875000Y-87517857D01*
G75*
G02*
X119675000Y-87317857I0J200000D01*
G01*
G37*
G36*
G01*
X121325000Y-87317857D02*
X121325000Y-86767857D01*
G75*
G02*
X121525000Y-86567857I200000J0D01*
G01*
X121925000Y-86567857D01*
G75*
G02*
X122125000Y-86767857I0J-200000D01*
G01*
X122125000Y-87317857D01*
G75*
G02*
X121925000Y-87517857I-200000J0D01*
G01*
X121525000Y-87517857D01*
G75*
G02*
X121325000Y-87317857I0J200000D01*
G01*
G37*
G36*
G01*
X119675000Y-81192344D02*
X119675000Y-80642344D01*
G75*
G02*
X119875000Y-80442344I200000J0D01*
G01*
X120275000Y-80442344D01*
G75*
G02*
X120475000Y-80642344I0J-200000D01*
G01*
X120475000Y-81192344D01*
G75*
G02*
X120275000Y-81392344I-200000J0D01*
G01*
X119875000Y-81392344D01*
G75*
G02*
X119675000Y-81192344I0J200000D01*
G01*
G37*
G36*
G01*
X121325000Y-81192344D02*
X121325000Y-80642344D01*
G75*
G02*
X121525000Y-80442344I200000J0D01*
G01*
X121925000Y-80442344D01*
G75*
G02*
X122125000Y-80642344I0J-200000D01*
G01*
X122125000Y-81192344D01*
G75*
G02*
X121925000Y-81392344I-200000J0D01*
G01*
X121525000Y-81392344D01*
G75*
G02*
X121325000Y-81192344I0J200000D01*
G01*
G37*
G36*
G01*
X121325000Y-83234180D02*
X121325000Y-82684180D01*
G75*
G02*
X121525000Y-82484180I200000J0D01*
G01*
X121925000Y-82484180D01*
G75*
G02*
X122125000Y-82684180I0J-200000D01*
G01*
X122125000Y-83234180D01*
G75*
G02*
X121925000Y-83434180I-200000J0D01*
G01*
X121525000Y-83434180D01*
G75*
G02*
X121325000Y-83234180I0J200000D01*
G01*
G37*
G36*
G01*
X119675000Y-83234180D02*
X119675000Y-82684180D01*
G75*
G02*
X119875000Y-82484180I200000J0D01*
G01*
X120275000Y-82484180D01*
G75*
G02*
X120475000Y-82684180I0J-200000D01*
G01*
X120475000Y-83234180D01*
G75*
G02*
X120275000Y-83434180I-200000J0D01*
G01*
X119875000Y-83434180D01*
G75*
G02*
X119675000Y-83234180I0J200000D01*
G01*
G37*
G36*
G01*
X119675000Y-77108672D02*
X119675000Y-76558672D01*
G75*
G02*
X119875000Y-76358672I200000J0D01*
G01*
X120275000Y-76358672D01*
G75*
G02*
X120475000Y-76558672I0J-200000D01*
G01*
X120475000Y-77108672D01*
G75*
G02*
X120275000Y-77308672I-200000J0D01*
G01*
X119875000Y-77308672D01*
G75*
G02*
X119675000Y-77108672I0J200000D01*
G01*
G37*
G36*
G01*
X121325000Y-77108672D02*
X121325000Y-76558672D01*
G75*
G02*
X121525000Y-76358672I200000J0D01*
G01*
X121925000Y-76358672D01*
G75*
G02*
X122125000Y-76558672I0J-200000D01*
G01*
X122125000Y-77108672D01*
G75*
G02*
X121925000Y-77308672I-200000J0D01*
G01*
X121525000Y-77308672D01*
G75*
G02*
X121325000Y-77108672I0J200000D01*
G01*
G37*
G36*
G01*
X121325000Y-79150508D02*
X121325000Y-78600508D01*
G75*
G02*
X121525000Y-78400508I200000J0D01*
G01*
X121925000Y-78400508D01*
G75*
G02*
X122125000Y-78600508I0J-200000D01*
G01*
X122125000Y-79150508D01*
G75*
G02*
X121925000Y-79350508I-200000J0D01*
G01*
X121525000Y-79350508D01*
G75*
G02*
X121325000Y-79150508I0J200000D01*
G01*
G37*
G36*
G01*
X119675000Y-79150508D02*
X119675000Y-78600508D01*
G75*
G02*
X119875000Y-78400508I200000J0D01*
G01*
X120275000Y-78400508D01*
G75*
G02*
X120475000Y-78600508I0J-200000D01*
G01*
X120475000Y-79150508D01*
G75*
G02*
X120275000Y-79350508I-200000J0D01*
G01*
X119875000Y-79350508D01*
G75*
G02*
X119675000Y-79150508I0J200000D01*
G01*
G37*
G36*
G01*
X119675000Y-72175000D02*
X119675000Y-71625000D01*
G75*
G02*
X119875000Y-71425000I200000J0D01*
G01*
X120275000Y-71425000D01*
G75*
G02*
X120475000Y-71625000I0J-200000D01*
G01*
X120475000Y-72175000D01*
G75*
G02*
X120275000Y-72375000I-200000J0D01*
G01*
X119875000Y-72375000D01*
G75*
G02*
X119675000Y-72175000I0J200000D01*
G01*
G37*
G36*
G01*
X121325000Y-72175000D02*
X121325000Y-71625000D01*
G75*
G02*
X121525000Y-71425000I200000J0D01*
G01*
X121925000Y-71425000D01*
G75*
G02*
X122125000Y-71625000I0J-200000D01*
G01*
X122125000Y-72175000D01*
G75*
G02*
X121925000Y-72375000I-200000J0D01*
G01*
X121525000Y-72375000D01*
G75*
G02*
X121325000Y-72175000I0J200000D01*
G01*
G37*
G36*
G01*
X121325000Y-73775000D02*
X121325000Y-73225000D01*
G75*
G02*
X121525000Y-73025000I200000J0D01*
G01*
X121925000Y-73025000D01*
G75*
G02*
X122125000Y-73225000I0J-200000D01*
G01*
X122125000Y-73775000D01*
G75*
G02*
X121925000Y-73975000I-200000J0D01*
G01*
X121525000Y-73975000D01*
G75*
G02*
X121325000Y-73775000I0J200000D01*
G01*
G37*
G36*
G01*
X119675000Y-73775000D02*
X119675000Y-73225000D01*
G75*
G02*
X119875000Y-73025000I200000J0D01*
G01*
X120275000Y-73025000D01*
G75*
G02*
X120475000Y-73225000I0J-200000D01*
G01*
X120475000Y-73775000D01*
G75*
G02*
X120275000Y-73975000I-200000J0D01*
G01*
X119875000Y-73975000D01*
G75*
G02*
X119675000Y-73775000I0J200000D01*
G01*
G37*
G36*
G01*
X126725000Y-88225000D02*
X126725000Y-88775000D01*
G75*
G02*
X126525000Y-88975000I-200000J0D01*
G01*
X126125000Y-88975000D01*
G75*
G02*
X125925000Y-88775000I0J200000D01*
G01*
X125925000Y-88225000D01*
G75*
G02*
X126125000Y-88025000I200000J0D01*
G01*
X126525000Y-88025000D01*
G75*
G02*
X126725000Y-88225000I0J-200000D01*
G01*
G37*
G36*
G01*
X125075000Y-88225000D02*
X125075000Y-88775000D01*
G75*
G02*
X124875000Y-88975000I-200000J0D01*
G01*
X124475000Y-88975000D01*
G75*
G02*
X124275000Y-88775000I0J200000D01*
G01*
X124275000Y-88225000D01*
G75*
G02*
X124475000Y-88025000I200000J0D01*
G01*
X124875000Y-88025000D01*
G75*
G02*
X125075000Y-88225000I0J-200000D01*
G01*
G37*
G36*
G01*
X125075000Y-86225000D02*
X125075000Y-86775000D01*
G75*
G02*
X124875000Y-86975000I-200000J0D01*
G01*
X124475000Y-86975000D01*
G75*
G02*
X124275000Y-86775000I0J200000D01*
G01*
X124275000Y-86225000D01*
G75*
G02*
X124475000Y-86025000I200000J0D01*
G01*
X124875000Y-86025000D01*
G75*
G02*
X125075000Y-86225000I0J-200000D01*
G01*
G37*
G36*
G01*
X126725000Y-86225000D02*
X126725000Y-86775000D01*
G75*
G02*
X126525000Y-86975000I-200000J0D01*
G01*
X126125000Y-86975000D01*
G75*
G02*
X125925000Y-86775000I0J200000D01*
G01*
X125925000Y-86225000D01*
G75*
G02*
X126125000Y-86025000I200000J0D01*
G01*
X126525000Y-86025000D01*
G75*
G02*
X126725000Y-86225000I0J-200000D01*
G01*
G37*
G36*
G01*
X129075000Y-87725000D02*
X129075000Y-88275000D01*
G75*
G02*
X128875000Y-88475000I-200000J0D01*
G01*
X128475000Y-88475000D01*
G75*
G02*
X128275000Y-88275000I0J200000D01*
G01*
X128275000Y-87725000D01*
G75*
G02*
X128475000Y-87525000I200000J0D01*
G01*
X128875000Y-87525000D01*
G75*
G02*
X129075000Y-87725000I0J-200000D01*
G01*
G37*
G36*
G01*
X130725000Y-87725000D02*
X130725000Y-88275000D01*
G75*
G02*
X130525000Y-88475000I-200000J0D01*
G01*
X130125000Y-88475000D01*
G75*
G02*
X129925000Y-88275000I0J200000D01*
G01*
X129925000Y-87725000D01*
G75*
G02*
X130125000Y-87525000I200000J0D01*
G01*
X130525000Y-87525000D01*
G75*
G02*
X130725000Y-87725000I0J-200000D01*
G01*
G37*
D18*
X133600000Y-83475000D03*
X133600000Y-82825000D03*
X133600000Y-82175000D03*
X133600000Y-81525000D03*
X133600000Y-80875000D03*
X133600000Y-80225000D03*
X133600000Y-79575000D03*
X133600000Y-78925000D03*
X133600000Y-78275000D03*
X133600000Y-77625000D03*
X133600000Y-76975000D03*
X133600000Y-76325000D03*
X126400000Y-76325000D03*
X126400000Y-76975000D03*
X126400000Y-77625000D03*
X126400000Y-78275000D03*
X126400000Y-78925000D03*
X126400000Y-79575000D03*
X126400000Y-80225000D03*
X126400000Y-80875000D03*
X126400000Y-81525000D03*
X126400000Y-82175000D03*
X126400000Y-82825000D03*
X126400000Y-83475000D03*
D19*
X136212600Y-68250400D03*
X136212600Y-70250400D03*
X134212600Y-68250400D03*
X134212600Y-70250400D03*
X136212600Y-58350400D03*
X136212600Y-60350400D03*
X134212600Y-58350400D03*
X134212600Y-60350400D03*
X136212600Y-48450400D03*
X136212600Y-50450400D03*
X134212600Y-48450400D03*
X134212600Y-50450400D03*
X134212600Y-40550400D03*
X134212600Y-38550400D03*
X136212600Y-40550400D03*
X136212600Y-38550400D03*
X124312600Y-40550400D03*
X124312600Y-38550400D03*
X126312600Y-40550400D03*
X126312600Y-38550400D03*
X126312600Y-48450400D03*
X126312600Y-50450400D03*
X124312600Y-48450400D03*
X124312600Y-50450400D03*
X124312600Y-60350400D03*
X124312600Y-58350400D03*
X126312600Y-60350400D03*
X126312600Y-58350400D03*
X124312600Y-70250400D03*
X124312600Y-68250400D03*
X126312600Y-70250400D03*
X126312600Y-68250400D03*
D20*
X117000000Y-34000000D03*
X142100000Y-34000000D03*
X142000000Y-95000000D03*
X117000000Y-95000000D03*
D21*
X137000000Y-93750000D03*
D22*
X134460000Y-93750000D03*
X131920000Y-93750000D03*
X129380000Y-93750000D03*
X126840000Y-93750000D03*
X124300000Y-93750000D03*
M02*
