%FSLAX45Y45*%
G04 Gerber Fmt 4.5, Leading zero omitted, Abs format (unit mm)*
G04 Created by KiCad (PCBNEW (5.1.12)-1) date 2022-08-18 11:36:25*
%MOMM*%
%LPD*%
G01*
G04 APERTURE LIST*
%TA.AperFunction,Profile*%
%ADD10C,0.050000*%
%TD*%
%ADD11C,0.200000*%
%ADD12C,0.300000*%
G04 APERTURE END LIST*
D10*
X14440000Y-3400000D02*
X11450000Y-3400000D01*
X11450000Y-9790000D02*
X11450000Y-3400000D01*
X14450000Y-9790000D02*
X14440000Y-3400000D01*
X11450000Y-9790000D02*
X14450000Y-9790000D01*
D11*
X11585000Y-3535000D02*
X11795000Y-3745000D01*
X11795000Y-3535000D02*
X11585000Y-3745000D01*
X11585000Y-9435000D02*
X11795000Y-9645000D01*
X11795000Y-9435000D02*
X11585000Y-9645000D01*
X14095000Y-3535000D02*
X14305000Y-3745000D01*
X14305000Y-3535000D02*
X14095000Y-3745000D01*
X14095000Y-9435000D02*
X14305000Y-9645000D01*
X14305000Y-9435000D02*
X14095000Y-9645000D01*
D12*
X11733928Y-10258214D02*
X11733928Y-9958214D01*
X11805357Y-9958214D01*
X11848214Y-9972500D01*
X11876786Y-10001072D01*
X11891071Y-10029643D01*
X11905357Y-10086786D01*
X11905357Y-10129643D01*
X11891071Y-10186786D01*
X11876786Y-10215357D01*
X11848214Y-10243929D01*
X11805357Y-10258214D01*
X11733928Y-10258214D01*
X12033928Y-10258214D02*
X12033928Y-10058214D01*
X12033928Y-10115357D02*
X12048214Y-10086786D01*
X12062500Y-10072500D01*
X12091071Y-10058214D01*
X12119643Y-10058214D01*
X12219643Y-10258214D02*
X12219643Y-10058214D01*
X12219643Y-9958214D02*
X12205357Y-9972500D01*
X12219643Y-9986786D01*
X12233928Y-9972500D01*
X12219643Y-9958214D01*
X12219643Y-9986786D01*
X12405357Y-10258214D02*
X12376786Y-10243929D01*
X12362500Y-10215357D01*
X12362500Y-9958214D01*
X12562500Y-10258214D02*
X12533928Y-10243929D01*
X12519643Y-10215357D01*
X12519643Y-9958214D01*
X12905357Y-10258214D02*
X12905357Y-9958214D01*
X13005357Y-10172500D01*
X13105357Y-9958214D01*
X13105357Y-10258214D01*
X13376786Y-10258214D02*
X13376786Y-10101072D01*
X13362500Y-10072500D01*
X13333928Y-10058214D01*
X13276786Y-10058214D01*
X13248214Y-10072500D01*
X13376786Y-10243929D02*
X13348214Y-10258214D01*
X13276786Y-10258214D01*
X13248214Y-10243929D01*
X13233928Y-10215357D01*
X13233928Y-10186786D01*
X13248214Y-10158214D01*
X13276786Y-10143929D01*
X13348214Y-10143929D01*
X13376786Y-10129643D01*
X13519643Y-10058214D02*
X13519643Y-10358214D01*
X13519643Y-10072500D02*
X13548214Y-10058214D01*
X13605357Y-10058214D01*
X13633928Y-10072500D01*
X13648214Y-10086786D01*
X13662500Y-10115357D01*
X13662500Y-10201072D01*
X13648214Y-10229643D01*
X13633928Y-10243929D01*
X13605357Y-10258214D01*
X13548214Y-10258214D01*
X13519643Y-10243929D01*
X13791071Y-10229643D02*
X13805357Y-10243929D01*
X13791071Y-10258214D01*
X13776786Y-10243929D01*
X13791071Y-10229643D01*
X13791071Y-10258214D01*
X13791071Y-10072500D02*
X13805357Y-10086786D01*
X13791071Y-10101072D01*
X13776786Y-10086786D01*
X13791071Y-10072500D01*
X13791071Y-10101072D01*
X11237500Y-10647500D02*
X11447500Y-10857500D01*
X11447500Y-10647500D02*
X11237500Y-10857500D01*
X11719643Y-10616786D02*
X11733928Y-10602500D01*
X11762500Y-10588214D01*
X11833928Y-10588214D01*
X11862500Y-10602500D01*
X11876786Y-10616786D01*
X11891071Y-10645357D01*
X11891071Y-10673929D01*
X11876786Y-10716786D01*
X11705357Y-10888214D01*
X11891071Y-10888214D01*
X12019643Y-10859643D02*
X12033928Y-10873929D01*
X12019643Y-10888214D01*
X12005357Y-10873929D01*
X12019643Y-10859643D01*
X12019643Y-10888214D01*
X12319643Y-10888214D02*
X12148214Y-10888214D01*
X12233928Y-10888214D02*
X12233928Y-10588214D01*
X12205357Y-10631072D01*
X12176786Y-10659643D01*
X12148214Y-10673929D01*
X12505357Y-10588214D02*
X12533928Y-10588214D01*
X12562500Y-10602500D01*
X12576786Y-10616786D01*
X12591071Y-10645357D01*
X12605357Y-10702500D01*
X12605357Y-10773929D01*
X12591071Y-10831072D01*
X12576786Y-10859643D01*
X12562500Y-10873929D01*
X12533928Y-10888214D01*
X12505357Y-10888214D01*
X12476786Y-10873929D01*
X12462500Y-10859643D01*
X12448214Y-10831072D01*
X12433928Y-10773929D01*
X12433928Y-10702500D01*
X12448214Y-10645357D01*
X12462500Y-10616786D01*
X12476786Y-10602500D01*
X12505357Y-10588214D01*
X12791071Y-10588214D02*
X12819643Y-10588214D01*
X12848214Y-10602500D01*
X12862500Y-10616786D01*
X12876786Y-10645357D01*
X12891071Y-10702500D01*
X12891071Y-10773929D01*
X12876786Y-10831072D01*
X12862500Y-10859643D01*
X12848214Y-10873929D01*
X12819643Y-10888214D01*
X12791071Y-10888214D01*
X12762500Y-10873929D01*
X12748214Y-10859643D01*
X12733928Y-10831072D01*
X12719643Y-10773929D01*
X12719643Y-10702500D01*
X12733928Y-10645357D01*
X12748214Y-10616786D01*
X12762500Y-10602500D01*
X12791071Y-10588214D01*
X13019643Y-10888214D02*
X13019643Y-10688214D01*
X13019643Y-10716786D02*
X13033928Y-10702500D01*
X13062500Y-10688214D01*
X13105357Y-10688214D01*
X13133928Y-10702500D01*
X13148214Y-10731072D01*
X13148214Y-10888214D01*
X13148214Y-10731072D02*
X13162500Y-10702500D01*
X13191071Y-10688214D01*
X13233928Y-10688214D01*
X13262500Y-10702500D01*
X13276786Y-10731072D01*
X13276786Y-10888214D01*
X13419643Y-10888214D02*
X13419643Y-10688214D01*
X13419643Y-10716786D02*
X13433928Y-10702500D01*
X13462500Y-10688214D01*
X13505357Y-10688214D01*
X13533928Y-10702500D01*
X13548214Y-10731072D01*
X13548214Y-10888214D01*
X13548214Y-10731072D02*
X13562500Y-10702500D01*
X13591071Y-10688214D01*
X13633928Y-10688214D01*
X13662500Y-10702500D01*
X13676786Y-10731072D01*
X13676786Y-10888214D01*
X14262500Y-10573929D02*
X14005357Y-10959643D01*
X14648214Y-10588214D02*
X14676786Y-10588214D01*
X14705357Y-10602500D01*
X14719643Y-10616786D01*
X14733928Y-10645357D01*
X14748214Y-10702500D01*
X14748214Y-10773929D01*
X14733928Y-10831072D01*
X14719643Y-10859643D01*
X14705357Y-10873929D01*
X14676786Y-10888214D01*
X14648214Y-10888214D01*
X14619643Y-10873929D01*
X14605357Y-10859643D01*
X14591071Y-10831072D01*
X14576786Y-10773929D01*
X14576786Y-10702500D01*
X14591071Y-10645357D01*
X14605357Y-10616786D01*
X14619643Y-10602500D01*
X14648214Y-10588214D01*
X14876786Y-10859643D02*
X14891071Y-10873929D01*
X14876786Y-10888214D01*
X14862500Y-10873929D01*
X14876786Y-10859643D01*
X14876786Y-10888214D01*
X15076786Y-10588214D02*
X15105357Y-10588214D01*
X15133928Y-10602500D01*
X15148214Y-10616786D01*
X15162500Y-10645357D01*
X15176786Y-10702500D01*
X15176786Y-10773929D01*
X15162500Y-10831072D01*
X15148214Y-10859643D01*
X15133928Y-10873929D01*
X15105357Y-10888214D01*
X15076786Y-10888214D01*
X15048214Y-10873929D01*
X15033928Y-10859643D01*
X15019643Y-10831072D01*
X15005357Y-10773929D01*
X15005357Y-10702500D01*
X15019643Y-10645357D01*
X15033928Y-10616786D01*
X15048214Y-10602500D01*
X15076786Y-10588214D01*
X15348214Y-10716786D02*
X15319643Y-10702500D01*
X15305357Y-10688214D01*
X15291071Y-10659643D01*
X15291071Y-10645357D01*
X15305357Y-10616786D01*
X15319643Y-10602500D01*
X15348214Y-10588214D01*
X15405357Y-10588214D01*
X15433928Y-10602500D01*
X15448214Y-10616786D01*
X15462500Y-10645357D01*
X15462500Y-10659643D01*
X15448214Y-10688214D01*
X15433928Y-10702500D01*
X15405357Y-10716786D01*
X15348214Y-10716786D01*
X15319643Y-10731072D01*
X15305357Y-10745357D01*
X15291071Y-10773929D01*
X15291071Y-10831072D01*
X15305357Y-10859643D01*
X15319643Y-10873929D01*
X15348214Y-10888214D01*
X15405357Y-10888214D01*
X15433928Y-10873929D01*
X15448214Y-10859643D01*
X15462500Y-10831072D01*
X15462500Y-10773929D01*
X15448214Y-10745357D01*
X15433928Y-10731072D01*
X15405357Y-10716786D01*
X15576786Y-10616786D02*
X15591071Y-10602500D01*
X15619643Y-10588214D01*
X15691071Y-10588214D01*
X15719643Y-10602500D01*
X15733928Y-10616786D01*
X15748214Y-10645357D01*
X15748214Y-10673929D01*
X15733928Y-10716786D01*
X15562500Y-10888214D01*
X15748214Y-10888214D01*
X15848214Y-10588214D02*
X16048214Y-10588214D01*
X15919643Y-10888214D01*
X16148214Y-10588214D02*
X16148214Y-10645357D01*
X16262500Y-10588214D02*
X16262500Y-10645357D01*
X16705357Y-11002500D02*
X16691071Y-10988214D01*
X16662500Y-10945357D01*
X16648214Y-10916786D01*
X16633928Y-10873929D01*
X16619643Y-10802500D01*
X16619643Y-10745357D01*
X16633928Y-10673929D01*
X16648214Y-10631072D01*
X16662500Y-10602500D01*
X16691071Y-10559643D01*
X16705357Y-10545357D01*
X16948214Y-10688214D02*
X16948214Y-10888214D01*
X16876786Y-10573929D02*
X16805357Y-10788214D01*
X16991071Y-10788214D01*
X17333928Y-10888214D02*
X17333928Y-10588214D01*
X17462500Y-10888214D02*
X17462500Y-10731072D01*
X17448214Y-10702500D01*
X17419643Y-10688214D01*
X17376786Y-10688214D01*
X17348214Y-10702500D01*
X17333928Y-10716786D01*
X17648214Y-10888214D02*
X17619643Y-10873929D01*
X17605357Y-10859643D01*
X17591071Y-10831072D01*
X17591071Y-10745357D01*
X17605357Y-10716786D01*
X17619643Y-10702500D01*
X17648214Y-10688214D01*
X17691071Y-10688214D01*
X17719643Y-10702500D01*
X17733928Y-10716786D01*
X17748214Y-10745357D01*
X17748214Y-10831072D01*
X17733928Y-10859643D01*
X17719643Y-10873929D01*
X17691071Y-10888214D01*
X17648214Y-10888214D01*
X17919643Y-10888214D02*
X17891071Y-10873929D01*
X17876786Y-10845357D01*
X17876786Y-10588214D01*
X18148214Y-10873929D02*
X18119643Y-10888214D01*
X18062500Y-10888214D01*
X18033928Y-10873929D01*
X18019643Y-10845357D01*
X18019643Y-10731072D01*
X18033928Y-10702500D01*
X18062500Y-10688214D01*
X18119643Y-10688214D01*
X18148214Y-10702500D01*
X18162500Y-10731072D01*
X18162500Y-10759643D01*
X18019643Y-10788214D01*
X18276786Y-10873929D02*
X18305357Y-10888214D01*
X18362500Y-10888214D01*
X18391071Y-10873929D01*
X18405357Y-10845357D01*
X18405357Y-10831072D01*
X18391071Y-10802500D01*
X18362500Y-10788214D01*
X18319643Y-10788214D01*
X18291071Y-10773929D01*
X18276786Y-10745357D01*
X18276786Y-10731072D01*
X18291071Y-10702500D01*
X18319643Y-10688214D01*
X18362500Y-10688214D01*
X18391071Y-10702500D01*
X18505357Y-11002500D02*
X18519643Y-10988214D01*
X18548214Y-10945357D01*
X18562500Y-10916786D01*
X18576786Y-10873929D01*
X18591071Y-10802500D01*
X18591071Y-10745357D01*
X18576786Y-10673929D01*
X18562500Y-10631072D01*
X18548214Y-10602500D01*
X18519643Y-10559643D01*
X18505357Y-10545357D01*
X19048214Y-11002500D02*
X19033928Y-10988214D01*
X19005357Y-10945357D01*
X18991071Y-10916786D01*
X18976786Y-10873929D01*
X18962500Y-10802500D01*
X18962500Y-10745357D01*
X18976786Y-10673929D01*
X18991071Y-10631072D01*
X19005357Y-10602500D01*
X19033928Y-10559643D01*
X19048214Y-10545357D01*
X19162500Y-10688214D02*
X19162500Y-10888214D01*
X19162500Y-10716786D02*
X19176786Y-10702500D01*
X19205357Y-10688214D01*
X19248214Y-10688214D01*
X19276786Y-10702500D01*
X19291071Y-10731072D01*
X19291071Y-10888214D01*
X19476786Y-10888214D02*
X19448214Y-10873929D01*
X19433928Y-10859643D01*
X19419643Y-10831072D01*
X19419643Y-10745357D01*
X19433928Y-10716786D01*
X19448214Y-10702500D01*
X19476786Y-10688214D01*
X19519643Y-10688214D01*
X19548214Y-10702500D01*
X19562500Y-10716786D01*
X19576786Y-10745357D01*
X19576786Y-10831072D01*
X19562500Y-10859643D01*
X19548214Y-10873929D01*
X19519643Y-10888214D01*
X19476786Y-10888214D01*
X19662500Y-10688214D02*
X19776786Y-10688214D01*
X19705357Y-10588214D02*
X19705357Y-10845357D01*
X19719643Y-10873929D01*
X19748214Y-10888214D01*
X19776786Y-10888214D01*
X20105357Y-10688214D02*
X20105357Y-10988214D01*
X20105357Y-10702500D02*
X20133928Y-10688214D01*
X20191071Y-10688214D01*
X20219643Y-10702500D01*
X20233928Y-10716786D01*
X20248214Y-10745357D01*
X20248214Y-10831072D01*
X20233928Y-10859643D01*
X20219643Y-10873929D01*
X20191071Y-10888214D01*
X20133928Y-10888214D01*
X20105357Y-10873929D01*
X20419643Y-10888214D02*
X20391071Y-10873929D01*
X20376786Y-10845357D01*
X20376786Y-10588214D01*
X20662500Y-10888214D02*
X20662500Y-10731072D01*
X20648214Y-10702500D01*
X20619643Y-10688214D01*
X20562500Y-10688214D01*
X20533928Y-10702500D01*
X20662500Y-10873929D02*
X20633928Y-10888214D01*
X20562500Y-10888214D01*
X20533928Y-10873929D01*
X20519643Y-10845357D01*
X20519643Y-10816786D01*
X20533928Y-10788214D01*
X20562500Y-10773929D01*
X20633928Y-10773929D01*
X20662500Y-10759643D01*
X20762500Y-10688214D02*
X20876786Y-10688214D01*
X20805357Y-10588214D02*
X20805357Y-10845357D01*
X20819643Y-10873929D01*
X20848214Y-10888214D01*
X20876786Y-10888214D01*
X21091071Y-10873929D02*
X21062500Y-10888214D01*
X21005357Y-10888214D01*
X20976786Y-10873929D01*
X20962500Y-10845357D01*
X20962500Y-10731072D01*
X20976786Y-10702500D01*
X21005357Y-10688214D01*
X21062500Y-10688214D01*
X21091071Y-10702500D01*
X21105357Y-10731072D01*
X21105357Y-10759643D01*
X20962500Y-10788214D01*
X21362500Y-10888214D02*
X21362500Y-10588214D01*
X21362500Y-10873929D02*
X21333928Y-10888214D01*
X21276786Y-10888214D01*
X21248214Y-10873929D01*
X21233928Y-10859643D01*
X21219643Y-10831072D01*
X21219643Y-10745357D01*
X21233928Y-10716786D01*
X21248214Y-10702500D01*
X21276786Y-10688214D01*
X21333928Y-10688214D01*
X21362500Y-10702500D01*
X21476786Y-11002500D02*
X21491071Y-10988214D01*
X21519643Y-10945357D01*
X21533928Y-10916786D01*
X21548214Y-10873929D01*
X21562500Y-10802500D01*
X21562500Y-10745357D01*
X21548214Y-10673929D01*
X21533928Y-10631072D01*
X21519643Y-10602500D01*
X21491071Y-10559643D01*
X21476786Y-10545357D01*
M02*
