%FSLAX45Y45*%
G04 Gerber Fmt 4.5, Leading zero omitted, Abs format (unit mm)*
G04 Created by KiCad (PCBNEW (5.1.12)-1) date 2022-08-18 11:36:25*
%MOMM*%
%LPD*%
G01*
G04 APERTURE LIST*
%TA.AperFunction,Profile*%
%ADD10C,0.050000*%
%TD*%
%ADD11C,0.200000*%
%ADD12C,0.300000*%
G04 APERTURE END LIST*
D10*
X14440000Y-3400000D02*
X11450000Y-3400000D01*
X11450000Y-9790000D02*
X11450000Y-3400000D01*
X14450000Y-9790000D02*
X14440000Y-3400000D01*
X11450000Y-9790000D02*
X14450000Y-9790000D01*
D11*
X11987500Y-8812500D02*
X12027500Y-8852500D01*
X12027500Y-8812500D02*
X11987500Y-8852500D01*
X12250000Y-5710000D02*
X12290000Y-5750000D01*
X12290000Y-5710000D02*
X12250000Y-5750000D01*
X12260000Y-5910000D02*
X12300000Y-5950000D01*
X12300000Y-5910000D02*
X12260000Y-5950000D01*
X12270000Y-4160000D02*
X12310000Y-4200000D01*
X12310000Y-4160000D02*
X12270000Y-4200000D01*
X12270000Y-4820000D02*
X12310000Y-4860000D01*
X12310000Y-4820000D02*
X12270000Y-4860000D01*
X12270000Y-5030000D02*
X12310000Y-5070000D01*
X12310000Y-5030000D02*
X12270000Y-5070000D01*
X12270000Y-6580000D02*
X12310000Y-6620000D01*
X12310000Y-6580000D02*
X12270000Y-6620000D01*
X12280000Y-3960000D02*
X12320000Y-4000000D01*
X12320000Y-3960000D02*
X12280000Y-4000000D01*
X12280000Y-6770000D02*
X12320000Y-6810000D01*
X12320000Y-6770000D02*
X12280000Y-6810000D01*
X12397193Y-8174135D02*
X12437193Y-8214135D01*
X12437193Y-8174135D02*
X12397193Y-8214135D01*
X12399230Y-8069565D02*
X12439230Y-8109565D01*
X12439230Y-8069565D02*
X12399230Y-8109565D01*
X12401705Y-7964559D02*
X12441705Y-8004559D01*
X12441705Y-7964559D02*
X12401705Y-8004559D01*
X12403477Y-7766271D02*
X12443477Y-7806271D01*
X12443477Y-7766271D02*
X12403477Y-7806271D01*
X12413486Y-7666772D02*
X12453486Y-7706772D01*
X12453486Y-7666772D02*
X12413486Y-7706772D01*
X12415625Y-7865531D02*
X12455625Y-7905531D01*
X12455625Y-7865531D02*
X12415625Y-7905531D01*
X12436036Y-7569346D02*
X12476036Y-7609346D01*
X12476036Y-7569346D02*
X12436036Y-7609346D01*
X12492261Y-7486648D02*
X12532261Y-7526648D01*
X12532261Y-7486648D02*
X12492261Y-7526648D01*
X12630000Y-8479999D02*
X12670000Y-8519999D01*
X12670000Y-8479999D02*
X12630000Y-8519999D01*
X12640000Y-7310000D02*
X12680000Y-7350000D01*
X12680000Y-7310000D02*
X12640000Y-7350000D01*
X12830000Y-8630000D02*
X12870000Y-8670000D01*
X12870000Y-8630000D02*
X12830000Y-8670000D01*
X13130000Y-3950000D02*
X13170000Y-3990000D01*
X13170000Y-3950000D02*
X13130000Y-3990000D01*
X13130000Y-4830000D02*
X13170000Y-4870000D01*
X13170000Y-4830000D02*
X13130000Y-4870000D01*
X13140000Y-5900000D02*
X13180000Y-5940000D01*
X13180000Y-5900000D02*
X13140000Y-5940000D01*
X13140000Y-5020000D02*
X13180000Y-5060000D01*
X13180000Y-5020000D02*
X13140000Y-5060000D01*
X13140000Y-5700000D02*
X13180000Y-5740000D01*
X13180000Y-5700000D02*
X13140000Y-5740000D01*
X13140000Y-6570000D02*
X13180000Y-6610000D01*
X13180000Y-6570000D02*
X13140000Y-6610000D01*
X13140000Y-4150000D02*
X13180000Y-4190000D01*
X13180000Y-4150000D02*
X13140000Y-4190000D01*
X13140711Y-6770711D02*
X13180711Y-6810711D01*
X13180711Y-6770711D02*
X13140711Y-6810711D01*
X13487501Y-8349082D02*
X13527501Y-8389082D01*
X13527501Y-8349082D02*
X13487501Y-8389082D01*
X13520496Y-7549780D02*
X13560496Y-7589780D01*
X13560496Y-7549780D02*
X13520496Y-7589780D01*
X13575701Y-8264755D02*
X13615701Y-8304755D01*
X13615701Y-8264755D02*
X13575701Y-8304755D01*
X13575746Y-7633133D02*
X13615746Y-7673133D01*
X13615746Y-7633133D02*
X13575746Y-7673133D01*
X13594361Y-7731386D02*
X13634361Y-7771386D01*
X13634361Y-7731386D02*
X13594361Y-7771386D01*
X13604999Y-8155000D02*
X13644999Y-8195000D01*
X13644999Y-8155000D02*
X13604999Y-8195000D01*
X13613535Y-8053636D02*
X13653535Y-8093636D01*
X13653535Y-8053636D02*
X13613535Y-8093636D01*
X13613619Y-7938619D02*
X13653619Y-7978619D01*
X13653619Y-7938619D02*
X13613619Y-7978619D01*
X13616698Y-7828860D02*
X13656698Y-7868860D01*
X13656698Y-7828860D02*
X13616698Y-7868860D01*
X13982500Y-8827500D02*
X14022500Y-8867500D01*
X14022500Y-8827500D02*
X13982500Y-8867500D01*
X12515000Y-9420000D02*
G75*
G03*
X12515000Y-9420000I-55000J0D01*
G01*
X12769000Y-9420000D02*
G75*
G03*
X12769000Y-9420000I-55000J0D01*
G01*
X13023000Y-9420000D02*
G75*
G03*
X13023000Y-9420000I-55000J0D01*
G01*
X13277000Y-9420000D02*
G75*
G03*
X13277000Y-9420000I-55000J0D01*
G01*
X13531000Y-9420000D02*
G75*
G03*
X13531000Y-9420000I-55000J0D01*
G01*
X13785000Y-9420000D02*
G75*
G03*
X13785000Y-9420000I-55000J0D01*
G01*
D12*
X11733928Y-10258214D02*
X11733928Y-9958214D01*
X11805357Y-9958214D01*
X11848214Y-9972500D01*
X11876786Y-10001072D01*
X11891071Y-10029643D01*
X11905357Y-10086786D01*
X11905357Y-10129643D01*
X11891071Y-10186786D01*
X11876786Y-10215357D01*
X11848214Y-10243929D01*
X11805357Y-10258214D01*
X11733928Y-10258214D01*
X12033928Y-10258214D02*
X12033928Y-10058214D01*
X12033928Y-10115357D02*
X12048214Y-10086786D01*
X12062500Y-10072500D01*
X12091071Y-10058214D01*
X12119643Y-10058214D01*
X12219643Y-10258214D02*
X12219643Y-10058214D01*
X12219643Y-9958214D02*
X12205357Y-9972500D01*
X12219643Y-9986786D01*
X12233928Y-9972500D01*
X12219643Y-9958214D01*
X12219643Y-9986786D01*
X12405357Y-10258214D02*
X12376786Y-10243929D01*
X12362500Y-10215357D01*
X12362500Y-9958214D01*
X12562500Y-10258214D02*
X12533928Y-10243929D01*
X12519643Y-10215357D01*
X12519643Y-9958214D01*
X12905357Y-10258214D02*
X12905357Y-9958214D01*
X13005357Y-10172500D01*
X13105357Y-9958214D01*
X13105357Y-10258214D01*
X13376786Y-10258214D02*
X13376786Y-10101072D01*
X13362500Y-10072500D01*
X13333928Y-10058214D01*
X13276786Y-10058214D01*
X13248214Y-10072500D01*
X13376786Y-10243929D02*
X13348214Y-10258214D01*
X13276786Y-10258214D01*
X13248214Y-10243929D01*
X13233928Y-10215357D01*
X13233928Y-10186786D01*
X13248214Y-10158214D01*
X13276786Y-10143929D01*
X13348214Y-10143929D01*
X13376786Y-10129643D01*
X13519643Y-10058214D02*
X13519643Y-10358214D01*
X13519643Y-10072500D02*
X13548214Y-10058214D01*
X13605357Y-10058214D01*
X13633928Y-10072500D01*
X13648214Y-10086786D01*
X13662500Y-10115357D01*
X13662500Y-10201072D01*
X13648214Y-10229643D01*
X13633928Y-10243929D01*
X13605357Y-10258214D01*
X13548214Y-10258214D01*
X13519643Y-10243929D01*
X13791071Y-10229643D02*
X13805357Y-10243929D01*
X13791071Y-10258214D01*
X13776786Y-10243929D01*
X13791071Y-10229643D01*
X13791071Y-10258214D01*
X13791071Y-10072500D02*
X13805357Y-10086786D01*
X13791071Y-10101072D01*
X13776786Y-10086786D01*
X13791071Y-10072500D01*
X13791071Y-10101072D01*
X11407500Y-10732500D02*
X11447500Y-10772500D01*
X11447500Y-10732500D02*
X11407500Y-10772500D01*
X11791071Y-10588214D02*
X11819643Y-10588214D01*
X11848214Y-10602500D01*
X11862500Y-10616786D01*
X11876786Y-10645357D01*
X11891071Y-10702500D01*
X11891071Y-10773929D01*
X11876786Y-10831072D01*
X11862500Y-10859643D01*
X11848214Y-10873929D01*
X11819643Y-10888214D01*
X11791071Y-10888214D01*
X11762500Y-10873929D01*
X11748214Y-10859643D01*
X11733928Y-10831072D01*
X11719643Y-10773929D01*
X11719643Y-10702500D01*
X11733928Y-10645357D01*
X11748214Y-10616786D01*
X11762500Y-10602500D01*
X11791071Y-10588214D01*
X12019643Y-10859643D02*
X12033928Y-10873929D01*
X12019643Y-10888214D01*
X12005357Y-10873929D01*
X12019643Y-10859643D01*
X12019643Y-10888214D01*
X12291071Y-10688214D02*
X12291071Y-10888214D01*
X12219643Y-10573929D02*
X12148214Y-10788214D01*
X12333928Y-10788214D01*
X12505357Y-10588214D02*
X12533928Y-10588214D01*
X12562500Y-10602500D01*
X12576786Y-10616786D01*
X12591071Y-10645357D01*
X12605357Y-10702500D01*
X12605357Y-10773929D01*
X12591071Y-10831072D01*
X12576786Y-10859643D01*
X12562500Y-10873929D01*
X12533928Y-10888214D01*
X12505357Y-10888214D01*
X12476786Y-10873929D01*
X12462500Y-10859643D01*
X12448214Y-10831072D01*
X12433928Y-10773929D01*
X12433928Y-10702500D01*
X12448214Y-10645357D01*
X12462500Y-10616786D01*
X12476786Y-10602500D01*
X12505357Y-10588214D01*
X12791071Y-10588214D02*
X12819643Y-10588214D01*
X12848214Y-10602500D01*
X12862500Y-10616786D01*
X12876786Y-10645357D01*
X12891071Y-10702500D01*
X12891071Y-10773929D01*
X12876786Y-10831072D01*
X12862500Y-10859643D01*
X12848214Y-10873929D01*
X12819643Y-10888214D01*
X12791071Y-10888214D01*
X12762500Y-10873929D01*
X12748214Y-10859643D01*
X12733928Y-10831072D01*
X12719643Y-10773929D01*
X12719643Y-10702500D01*
X12733928Y-10645357D01*
X12748214Y-10616786D01*
X12762500Y-10602500D01*
X12791071Y-10588214D01*
X13019643Y-10888214D02*
X13019643Y-10688214D01*
X13019643Y-10716786D02*
X13033928Y-10702500D01*
X13062500Y-10688214D01*
X13105357Y-10688214D01*
X13133928Y-10702500D01*
X13148214Y-10731072D01*
X13148214Y-10888214D01*
X13148214Y-10731072D02*
X13162500Y-10702500D01*
X13191071Y-10688214D01*
X13233928Y-10688214D01*
X13262500Y-10702500D01*
X13276786Y-10731072D01*
X13276786Y-10888214D01*
X13419643Y-10888214D02*
X13419643Y-10688214D01*
X13419643Y-10716786D02*
X13433928Y-10702500D01*
X13462500Y-10688214D01*
X13505357Y-10688214D01*
X13533928Y-10702500D01*
X13548214Y-10731072D01*
X13548214Y-10888214D01*
X13548214Y-10731072D02*
X13562500Y-10702500D01*
X13591071Y-10688214D01*
X13633928Y-10688214D01*
X13662500Y-10702500D01*
X13676786Y-10731072D01*
X13676786Y-10888214D01*
X14262500Y-10573929D02*
X14005357Y-10959643D01*
X14648214Y-10588214D02*
X14676786Y-10588214D01*
X14705357Y-10602500D01*
X14719643Y-10616786D01*
X14733928Y-10645357D01*
X14748214Y-10702500D01*
X14748214Y-10773929D01*
X14733928Y-10831072D01*
X14719643Y-10859643D01*
X14705357Y-10873929D01*
X14676786Y-10888214D01*
X14648214Y-10888214D01*
X14619643Y-10873929D01*
X14605357Y-10859643D01*
X14591071Y-10831072D01*
X14576786Y-10773929D01*
X14576786Y-10702500D01*
X14591071Y-10645357D01*
X14605357Y-10616786D01*
X14619643Y-10602500D01*
X14648214Y-10588214D01*
X14876786Y-10859643D02*
X14891071Y-10873929D01*
X14876786Y-10888214D01*
X14862500Y-10873929D01*
X14876786Y-10859643D01*
X14876786Y-10888214D01*
X15076786Y-10588214D02*
X15105357Y-10588214D01*
X15133928Y-10602500D01*
X15148214Y-10616786D01*
X15162500Y-10645357D01*
X15176786Y-10702500D01*
X15176786Y-10773929D01*
X15162500Y-10831072D01*
X15148214Y-10859643D01*
X15133928Y-10873929D01*
X15105357Y-10888214D01*
X15076786Y-10888214D01*
X15048214Y-10873929D01*
X15033928Y-10859643D01*
X15019643Y-10831072D01*
X15005357Y-10773929D01*
X15005357Y-10702500D01*
X15019643Y-10645357D01*
X15033928Y-10616786D01*
X15048214Y-10602500D01*
X15076786Y-10588214D01*
X15462500Y-10888214D02*
X15291071Y-10888214D01*
X15376786Y-10888214D02*
X15376786Y-10588214D01*
X15348214Y-10631072D01*
X15319643Y-10659643D01*
X15291071Y-10673929D01*
X15733928Y-10588214D02*
X15591071Y-10588214D01*
X15576786Y-10731072D01*
X15591071Y-10716786D01*
X15619643Y-10702500D01*
X15691071Y-10702500D01*
X15719643Y-10716786D01*
X15733928Y-10731072D01*
X15748214Y-10759643D01*
X15748214Y-10831072D01*
X15733928Y-10859643D01*
X15719643Y-10873929D01*
X15691071Y-10888214D01*
X15619643Y-10888214D01*
X15591071Y-10873929D01*
X15576786Y-10859643D01*
X15848214Y-10588214D02*
X16048214Y-10588214D01*
X15919643Y-10888214D01*
X16148214Y-10588214D02*
X16148214Y-10645357D01*
X16262500Y-10588214D02*
X16262500Y-10645357D01*
X16705357Y-11002500D02*
X16691071Y-10988214D01*
X16662500Y-10945357D01*
X16648214Y-10916786D01*
X16633928Y-10873929D01*
X16619643Y-10802500D01*
X16619643Y-10745357D01*
X16633928Y-10673929D01*
X16648214Y-10631072D01*
X16662500Y-10602500D01*
X16691071Y-10559643D01*
X16705357Y-10545357D01*
X16791071Y-10588214D02*
X16976786Y-10588214D01*
X16876786Y-10702500D01*
X16919643Y-10702500D01*
X16948214Y-10716786D01*
X16962500Y-10731072D01*
X16976786Y-10759643D01*
X16976786Y-10831072D01*
X16962500Y-10859643D01*
X16948214Y-10873929D01*
X16919643Y-10888214D01*
X16833928Y-10888214D01*
X16805357Y-10873929D01*
X16791071Y-10859643D01*
X17148214Y-10716786D02*
X17119643Y-10702500D01*
X17105357Y-10688214D01*
X17091071Y-10659643D01*
X17091071Y-10645357D01*
X17105357Y-10616786D01*
X17119643Y-10602500D01*
X17148214Y-10588214D01*
X17205357Y-10588214D01*
X17233928Y-10602500D01*
X17248214Y-10616786D01*
X17262500Y-10645357D01*
X17262500Y-10659643D01*
X17248214Y-10688214D01*
X17233928Y-10702500D01*
X17205357Y-10716786D01*
X17148214Y-10716786D01*
X17119643Y-10731072D01*
X17105357Y-10745357D01*
X17091071Y-10773929D01*
X17091071Y-10831072D01*
X17105357Y-10859643D01*
X17119643Y-10873929D01*
X17148214Y-10888214D01*
X17205357Y-10888214D01*
X17233928Y-10873929D01*
X17248214Y-10859643D01*
X17262500Y-10831072D01*
X17262500Y-10773929D01*
X17248214Y-10745357D01*
X17233928Y-10731072D01*
X17205357Y-10716786D01*
X17619643Y-10888214D02*
X17619643Y-10588214D01*
X17748214Y-10888214D02*
X17748214Y-10731072D01*
X17733928Y-10702500D01*
X17705357Y-10688214D01*
X17662500Y-10688214D01*
X17633928Y-10702500D01*
X17619643Y-10716786D01*
X17933928Y-10888214D02*
X17905357Y-10873929D01*
X17891071Y-10859643D01*
X17876786Y-10831072D01*
X17876786Y-10745357D01*
X17891071Y-10716786D01*
X17905357Y-10702500D01*
X17933928Y-10688214D01*
X17976786Y-10688214D01*
X18005357Y-10702500D01*
X18019643Y-10716786D01*
X18033928Y-10745357D01*
X18033928Y-10831072D01*
X18019643Y-10859643D01*
X18005357Y-10873929D01*
X17976786Y-10888214D01*
X17933928Y-10888214D01*
X18205357Y-10888214D02*
X18176786Y-10873929D01*
X18162500Y-10845357D01*
X18162500Y-10588214D01*
X18433928Y-10873929D02*
X18405357Y-10888214D01*
X18348214Y-10888214D01*
X18319643Y-10873929D01*
X18305357Y-10845357D01*
X18305357Y-10731072D01*
X18319643Y-10702500D01*
X18348214Y-10688214D01*
X18405357Y-10688214D01*
X18433928Y-10702500D01*
X18448214Y-10731072D01*
X18448214Y-10759643D01*
X18305357Y-10788214D01*
X18562500Y-10873929D02*
X18591071Y-10888214D01*
X18648214Y-10888214D01*
X18676786Y-10873929D01*
X18691071Y-10845357D01*
X18691071Y-10831072D01*
X18676786Y-10802500D01*
X18648214Y-10788214D01*
X18605357Y-10788214D01*
X18576786Y-10773929D01*
X18562500Y-10745357D01*
X18562500Y-10731072D01*
X18576786Y-10702500D01*
X18605357Y-10688214D01*
X18648214Y-10688214D01*
X18676786Y-10702500D01*
X18791071Y-11002500D02*
X18805357Y-10988214D01*
X18833928Y-10945357D01*
X18848214Y-10916786D01*
X18862500Y-10873929D01*
X18876786Y-10802500D01*
X18876786Y-10745357D01*
X18862500Y-10673929D01*
X18848214Y-10631072D01*
X18833928Y-10602500D01*
X18805357Y-10559643D01*
X18791071Y-10545357D01*
X11447500Y-11148500D02*
G75*
G03*
X11447500Y-11148500I-55000J0D01*
G01*
X11891071Y-11284214D02*
X11719643Y-11284214D01*
X11805357Y-11284214D02*
X11805357Y-10984214D01*
X11776786Y-11027072D01*
X11748214Y-11055643D01*
X11719643Y-11069929D01*
X12019643Y-11255643D02*
X12033928Y-11269929D01*
X12019643Y-11284214D01*
X12005357Y-11269929D01*
X12019643Y-11255643D01*
X12019643Y-11284214D01*
X12319643Y-11284214D02*
X12148214Y-11284214D01*
X12233928Y-11284214D02*
X12233928Y-10984214D01*
X12205357Y-11027072D01*
X12176786Y-11055643D01*
X12148214Y-11069929D01*
X12505357Y-10984214D02*
X12533928Y-10984214D01*
X12562500Y-10998500D01*
X12576786Y-11012786D01*
X12591071Y-11041357D01*
X12605357Y-11098500D01*
X12605357Y-11169929D01*
X12591071Y-11227071D01*
X12576786Y-11255643D01*
X12562500Y-11269929D01*
X12533928Y-11284214D01*
X12505357Y-11284214D01*
X12476786Y-11269929D01*
X12462500Y-11255643D01*
X12448214Y-11227071D01*
X12433928Y-11169929D01*
X12433928Y-11098500D01*
X12448214Y-11041357D01*
X12462500Y-11012786D01*
X12476786Y-10998500D01*
X12505357Y-10984214D01*
X12791071Y-10984214D02*
X12819643Y-10984214D01*
X12848214Y-10998500D01*
X12862500Y-11012786D01*
X12876786Y-11041357D01*
X12891071Y-11098500D01*
X12891071Y-11169929D01*
X12876786Y-11227071D01*
X12862500Y-11255643D01*
X12848214Y-11269929D01*
X12819643Y-11284214D01*
X12791071Y-11284214D01*
X12762500Y-11269929D01*
X12748214Y-11255643D01*
X12733928Y-11227071D01*
X12719643Y-11169929D01*
X12719643Y-11098500D01*
X12733928Y-11041357D01*
X12748214Y-11012786D01*
X12762500Y-10998500D01*
X12791071Y-10984214D01*
X13019643Y-11284214D02*
X13019643Y-11084214D01*
X13019643Y-11112786D02*
X13033928Y-11098500D01*
X13062500Y-11084214D01*
X13105357Y-11084214D01*
X13133928Y-11098500D01*
X13148214Y-11127072D01*
X13148214Y-11284214D01*
X13148214Y-11127072D02*
X13162500Y-11098500D01*
X13191071Y-11084214D01*
X13233928Y-11084214D01*
X13262500Y-11098500D01*
X13276786Y-11127072D01*
X13276786Y-11284214D01*
X13419643Y-11284214D02*
X13419643Y-11084214D01*
X13419643Y-11112786D02*
X13433928Y-11098500D01*
X13462500Y-11084214D01*
X13505357Y-11084214D01*
X13533928Y-11098500D01*
X13548214Y-11127072D01*
X13548214Y-11284214D01*
X13548214Y-11127072D02*
X13562500Y-11098500D01*
X13591071Y-11084214D01*
X13633928Y-11084214D01*
X13662500Y-11098500D01*
X13676786Y-11127072D01*
X13676786Y-11284214D01*
X14262500Y-10969929D02*
X14005357Y-11355643D01*
X14648214Y-10984214D02*
X14676786Y-10984214D01*
X14705357Y-10998500D01*
X14719643Y-11012786D01*
X14733928Y-11041357D01*
X14748214Y-11098500D01*
X14748214Y-11169929D01*
X14733928Y-11227071D01*
X14719643Y-11255643D01*
X14705357Y-11269929D01*
X14676786Y-11284214D01*
X14648214Y-11284214D01*
X14619643Y-11269929D01*
X14605357Y-11255643D01*
X14591071Y-11227071D01*
X14576786Y-11169929D01*
X14576786Y-11098500D01*
X14591071Y-11041357D01*
X14605357Y-11012786D01*
X14619643Y-10998500D01*
X14648214Y-10984214D01*
X14876786Y-11255643D02*
X14891071Y-11269929D01*
X14876786Y-11284214D01*
X14862500Y-11269929D01*
X14876786Y-11255643D01*
X14876786Y-11284214D01*
X15076786Y-10984214D02*
X15105357Y-10984214D01*
X15133928Y-10998500D01*
X15148214Y-11012786D01*
X15162500Y-11041357D01*
X15176786Y-11098500D01*
X15176786Y-11169929D01*
X15162500Y-11227071D01*
X15148214Y-11255643D01*
X15133928Y-11269929D01*
X15105357Y-11284214D01*
X15076786Y-11284214D01*
X15048214Y-11269929D01*
X15033928Y-11255643D01*
X15019643Y-11227071D01*
X15005357Y-11169929D01*
X15005357Y-11098500D01*
X15019643Y-11041357D01*
X15033928Y-11012786D01*
X15048214Y-10998500D01*
X15076786Y-10984214D01*
X15433928Y-11084214D02*
X15433928Y-11284214D01*
X15362500Y-10969929D02*
X15291071Y-11184214D01*
X15476786Y-11184214D01*
X15562500Y-10984214D02*
X15748214Y-10984214D01*
X15648214Y-11098500D01*
X15691071Y-11098500D01*
X15719643Y-11112786D01*
X15733928Y-11127072D01*
X15748214Y-11155643D01*
X15748214Y-11227071D01*
X15733928Y-11255643D01*
X15719643Y-11269929D01*
X15691071Y-11284214D01*
X15605357Y-11284214D01*
X15576786Y-11269929D01*
X15562500Y-11255643D01*
X15848214Y-10984214D02*
X16033928Y-10984214D01*
X15933928Y-11098500D01*
X15976786Y-11098500D01*
X16005357Y-11112786D01*
X16019643Y-11127072D01*
X16033928Y-11155643D01*
X16033928Y-11227071D01*
X16019643Y-11255643D01*
X16005357Y-11269929D01*
X15976786Y-11284214D01*
X15891071Y-11284214D01*
X15862500Y-11269929D01*
X15848214Y-11255643D01*
X16148214Y-10984214D02*
X16148214Y-11041357D01*
X16262500Y-10984214D02*
X16262500Y-11041357D01*
X16705357Y-11398500D02*
X16691071Y-11384214D01*
X16662500Y-11341357D01*
X16648214Y-11312786D01*
X16633928Y-11269929D01*
X16619643Y-11198500D01*
X16619643Y-11141357D01*
X16633928Y-11069929D01*
X16648214Y-11027072D01*
X16662500Y-10998500D01*
X16691071Y-10955643D01*
X16705357Y-10941357D01*
X16948214Y-10984214D02*
X16891071Y-10984214D01*
X16862500Y-10998500D01*
X16848214Y-11012786D01*
X16819643Y-11055643D01*
X16805357Y-11112786D01*
X16805357Y-11227071D01*
X16819643Y-11255643D01*
X16833928Y-11269929D01*
X16862500Y-11284214D01*
X16919643Y-11284214D01*
X16948214Y-11269929D01*
X16962500Y-11255643D01*
X16976786Y-11227071D01*
X16976786Y-11155643D01*
X16962500Y-11127072D01*
X16948214Y-11112786D01*
X16919643Y-11098500D01*
X16862500Y-11098500D01*
X16833928Y-11112786D01*
X16819643Y-11127072D01*
X16805357Y-11155643D01*
X17333928Y-11284214D02*
X17333928Y-10984214D01*
X17462500Y-11284214D02*
X17462500Y-11127072D01*
X17448214Y-11098500D01*
X17419643Y-11084214D01*
X17376786Y-11084214D01*
X17348214Y-11098500D01*
X17333928Y-11112786D01*
X17648214Y-11284214D02*
X17619643Y-11269929D01*
X17605357Y-11255643D01*
X17591071Y-11227071D01*
X17591071Y-11141357D01*
X17605357Y-11112786D01*
X17619643Y-11098500D01*
X17648214Y-11084214D01*
X17691071Y-11084214D01*
X17719643Y-11098500D01*
X17733928Y-11112786D01*
X17748214Y-11141357D01*
X17748214Y-11227071D01*
X17733928Y-11255643D01*
X17719643Y-11269929D01*
X17691071Y-11284214D01*
X17648214Y-11284214D01*
X17919643Y-11284214D02*
X17891071Y-11269929D01*
X17876786Y-11241357D01*
X17876786Y-10984214D01*
X18148214Y-11269929D02*
X18119643Y-11284214D01*
X18062500Y-11284214D01*
X18033928Y-11269929D01*
X18019643Y-11241357D01*
X18019643Y-11127072D01*
X18033928Y-11098500D01*
X18062500Y-11084214D01*
X18119643Y-11084214D01*
X18148214Y-11098500D01*
X18162500Y-11127072D01*
X18162500Y-11155643D01*
X18019643Y-11184214D01*
X18276786Y-11269929D02*
X18305357Y-11284214D01*
X18362500Y-11284214D01*
X18391071Y-11269929D01*
X18405357Y-11241357D01*
X18405357Y-11227071D01*
X18391071Y-11198500D01*
X18362500Y-11184214D01*
X18319643Y-11184214D01*
X18291071Y-11169929D01*
X18276786Y-11141357D01*
X18276786Y-11127072D01*
X18291071Y-11098500D01*
X18319643Y-11084214D01*
X18362500Y-11084214D01*
X18391071Y-11098500D01*
X18505357Y-11398500D02*
X18519643Y-11384214D01*
X18548214Y-11341357D01*
X18562500Y-11312786D01*
X18576786Y-11269929D01*
X18591071Y-11198500D01*
X18591071Y-11141357D01*
X18576786Y-11069929D01*
X18562500Y-11027072D01*
X18548214Y-10998500D01*
X18519643Y-10955643D01*
X18505357Y-10941357D01*
M02*
