%TF.GenerationSoftware,KiCad,Pcbnew,(5.1.12)-1*%
%TF.CreationDate,2022-08-18T11:36:15-07:00*%
%TF.ProjectId,HighPressureSensorArray,48696768-5072-4657-9373-75726553656e,rev?*%
%TF.SameCoordinates,Original*%
%TF.FileFunction,Legend,Top*%
%TF.FilePolarity,Positive*%
%FSLAX46Y46*%
G04 Gerber Fmt 4.6, Leading zero omitted, Abs format (unit mm)*
G04 Created by KiCad (PCBNEW (5.1.12)-1) date 2022-08-18 11:36:15*
%MOMM*%
%LPD*%
G01*
G04 APERTURE LIST*
%ADD10C,0.150000*%
%ADD11C,0.125000*%
%ADD12C,0.120000*%
%ADD13C,0.400000*%
%ADD14C,0.050000*%
%ADD15C,0.062500*%
%ADD16R,1.750000X0.450000*%
%ADD17R,1.300000X1.300000*%
%ADD18C,2.100000*%
%ADD19R,1.500000X1.000000*%
%ADD20R,2.200000X2.200000*%
%ADD21C,2.200000*%
G04 APERTURE END LIST*
D10*
X124357142Y-89339285D02*
X124000000Y-89339285D01*
X123964285Y-89696428D01*
X124000000Y-89660714D01*
X124071428Y-89625000D01*
X124250000Y-89625000D01*
X124321428Y-89660714D01*
X124357142Y-89696428D01*
X124392857Y-89767857D01*
X124392857Y-89946428D01*
X124357142Y-90017857D01*
X124321428Y-90053571D01*
X124250000Y-90089285D01*
X124071428Y-90089285D01*
X124000000Y-90053571D01*
X123964285Y-90017857D01*
X124607142Y-89339285D02*
X124857142Y-90089285D01*
X125107142Y-89339285D01*
X126107142Y-90053571D02*
X126214285Y-90089285D01*
X126392857Y-90089285D01*
X126464285Y-90053571D01*
X126500000Y-90017857D01*
X126535714Y-89946428D01*
X126535714Y-89875000D01*
X126500000Y-89803571D01*
X126464285Y-89767857D01*
X126392857Y-89732142D01*
X126250000Y-89696428D01*
X126178571Y-89660714D01*
X126142857Y-89625000D01*
X126107142Y-89553571D01*
X126107142Y-89482142D01*
X126142857Y-89410714D01*
X126178571Y-89375000D01*
X126250000Y-89339285D01*
X126428571Y-89339285D01*
X126535714Y-89375000D01*
X127285714Y-90017857D02*
X127250000Y-90053571D01*
X127142857Y-90089285D01*
X127071428Y-90089285D01*
X126964285Y-90053571D01*
X126892857Y-89982142D01*
X126857142Y-89910714D01*
X126821428Y-89767857D01*
X126821428Y-89660714D01*
X126857142Y-89517857D01*
X126892857Y-89446428D01*
X126964285Y-89375000D01*
X127071428Y-89339285D01*
X127142857Y-89339285D01*
X127250000Y-89375000D01*
X127285714Y-89410714D01*
X127964285Y-90089285D02*
X127607142Y-90089285D01*
X127607142Y-89339285D01*
X128589285Y-90053571D02*
X128696428Y-90089285D01*
X128875000Y-90089285D01*
X128946428Y-90053571D01*
X128982142Y-90017857D01*
X129017857Y-89946428D01*
X129017857Y-89875000D01*
X128982142Y-89803571D01*
X128946428Y-89767857D01*
X128875000Y-89732142D01*
X128732142Y-89696428D01*
X128660714Y-89660714D01*
X128625000Y-89625000D01*
X128589285Y-89553571D01*
X128589285Y-89482142D01*
X128625000Y-89410714D01*
X128660714Y-89375000D01*
X128732142Y-89339285D01*
X128910714Y-89339285D01*
X129017857Y-89375000D01*
X129339285Y-90089285D02*
X129339285Y-89339285D01*
X129517857Y-89339285D01*
X129625000Y-89375000D01*
X129696428Y-89446428D01*
X129732142Y-89517857D01*
X129767857Y-89660714D01*
X129767857Y-89767857D01*
X129732142Y-89910714D01*
X129696428Y-89982142D01*
X129625000Y-90053571D01*
X129517857Y-90089285D01*
X129339285Y-90089285D01*
X130053571Y-89875000D02*
X130410714Y-89875000D01*
X129982142Y-90089285D02*
X130232142Y-89339285D01*
X130482142Y-90089285D01*
D11*
X131523809Y-90089285D02*
X131357142Y-89732142D01*
X131238095Y-90089285D02*
X131238095Y-89339285D01*
X131428571Y-89339285D01*
X131476190Y-89375000D01*
X131500000Y-89410714D01*
X131523809Y-89482142D01*
X131523809Y-89589285D01*
X131500000Y-89660714D01*
X131476190Y-89696428D01*
X131428571Y-89732142D01*
X131238095Y-89732142D01*
X131738095Y-89696428D02*
X131904761Y-89696428D01*
X131976190Y-90089285D02*
X131738095Y-90089285D01*
X131738095Y-89339285D01*
X131976190Y-89339285D01*
X132166666Y-90053571D02*
X132238095Y-90089285D01*
X132357142Y-90089285D01*
X132404761Y-90053571D01*
X132428571Y-90017857D01*
X132452380Y-89946428D01*
X132452380Y-89875000D01*
X132428571Y-89803571D01*
X132404761Y-89767857D01*
X132357142Y-89732142D01*
X132261904Y-89696428D01*
X132214285Y-89660714D01*
X132190476Y-89625000D01*
X132166666Y-89553571D01*
X132166666Y-89482142D01*
X132190476Y-89410714D01*
X132214285Y-89375000D01*
X132261904Y-89339285D01*
X132380952Y-89339285D01*
X132452380Y-89375000D01*
X132666666Y-89696428D02*
X132833333Y-89696428D01*
X132904761Y-90089285D02*
X132666666Y-90089285D01*
X132666666Y-89339285D01*
X132904761Y-89339285D01*
X133047619Y-89339285D02*
X133333333Y-89339285D01*
X133190476Y-90089285D02*
X133190476Y-89339285D01*
D10*
X133821428Y-89339285D02*
X134285714Y-89339285D01*
X134035714Y-89625000D01*
X134142857Y-89625000D01*
X134214285Y-89660714D01*
X134250000Y-89696428D01*
X134285714Y-89767857D01*
X134285714Y-89946428D01*
X134250000Y-90017857D01*
X134214285Y-90053571D01*
X134142857Y-90089285D01*
X133928571Y-90089285D01*
X133857142Y-90053571D01*
X133821428Y-90017857D01*
X134500000Y-89339285D02*
X134750000Y-90089285D01*
X135000000Y-89339285D01*
X135178571Y-89339285D02*
X135642857Y-89339285D01*
X135392857Y-89625000D01*
X135500000Y-89625000D01*
X135571428Y-89660714D01*
X135607142Y-89696428D01*
X135642857Y-89767857D01*
X135642857Y-89946428D01*
X135607142Y-90017857D01*
X135571428Y-90053571D01*
X135500000Y-90089285D01*
X135285714Y-90089285D01*
X135214285Y-90053571D01*
X135178571Y-90017857D01*
X136678571Y-89375000D02*
X136607142Y-89339285D01*
X136500000Y-89339285D01*
X136392857Y-89375000D01*
X136321428Y-89446428D01*
X136285714Y-89517857D01*
X136250000Y-89660714D01*
X136250000Y-89767857D01*
X136285714Y-89910714D01*
X136321428Y-89982142D01*
X136392857Y-90053571D01*
X136500000Y-90089285D01*
X136571428Y-90089285D01*
X136678571Y-90053571D01*
X136714285Y-90017857D01*
X136714285Y-89767857D01*
X136571428Y-89767857D01*
X137035714Y-90089285D02*
X137035714Y-89339285D01*
X137464285Y-90089285D01*
X137464285Y-89339285D01*
X137821428Y-90089285D02*
X137821428Y-89339285D01*
X138000000Y-89339285D01*
X138107142Y-89375000D01*
X138178571Y-89446428D01*
X138214285Y-89517857D01*
X138250000Y-89660714D01*
X138250000Y-89767857D01*
X138214285Y-89910714D01*
X138178571Y-89982142D01*
X138107142Y-90053571D01*
X138000000Y-90089285D01*
X137821428Y-90089285D01*
X116427380Y-69847619D02*
X115427380Y-69847619D01*
X115903571Y-69847619D02*
X115903571Y-69276190D01*
X116427380Y-69276190D02*
X115427380Y-69276190D01*
X116427380Y-68800000D02*
X115427380Y-68800000D01*
X115475000Y-67800000D02*
X115427380Y-67895238D01*
X115427380Y-68038095D01*
X115475000Y-68180952D01*
X115570238Y-68276190D01*
X115665476Y-68323809D01*
X115855952Y-68371428D01*
X115998809Y-68371428D01*
X116189285Y-68323809D01*
X116284523Y-68276190D01*
X116379761Y-68180952D01*
X116427380Y-68038095D01*
X116427380Y-67942857D01*
X116379761Y-67800000D01*
X116332142Y-67752380D01*
X115998809Y-67752380D01*
X115998809Y-67942857D01*
X116427380Y-67323809D02*
X115427380Y-67323809D01*
X115903571Y-67323809D02*
X115903571Y-66752380D01*
X116427380Y-66752380D02*
X115427380Y-66752380D01*
X116427380Y-65514285D02*
X115427380Y-65514285D01*
X115427380Y-65133333D01*
X115475000Y-65038095D01*
X115522619Y-64990476D01*
X115617857Y-64942857D01*
X115760714Y-64942857D01*
X115855952Y-64990476D01*
X115903571Y-65038095D01*
X115951190Y-65133333D01*
X115951190Y-65514285D01*
X116427380Y-63942857D02*
X115951190Y-64276190D01*
X116427380Y-64514285D02*
X115427380Y-64514285D01*
X115427380Y-64133333D01*
X115475000Y-64038095D01*
X115522619Y-63990476D01*
X115617857Y-63942857D01*
X115760714Y-63942857D01*
X115855952Y-63990476D01*
X115903571Y-64038095D01*
X115951190Y-64133333D01*
X115951190Y-64514285D01*
X115903571Y-63514285D02*
X115903571Y-63180952D01*
X116427380Y-63038095D02*
X116427380Y-63514285D01*
X115427380Y-63514285D01*
X115427380Y-63038095D01*
X116379761Y-62657142D02*
X116427380Y-62514285D01*
X116427380Y-62276190D01*
X116379761Y-62180952D01*
X116332142Y-62133333D01*
X116236904Y-62085714D01*
X116141666Y-62085714D01*
X116046428Y-62133333D01*
X115998809Y-62180952D01*
X115951190Y-62276190D01*
X115903571Y-62466666D01*
X115855952Y-62561904D01*
X115808333Y-62609523D01*
X115713095Y-62657142D01*
X115617857Y-62657142D01*
X115522619Y-62609523D01*
X115475000Y-62561904D01*
X115427380Y-62466666D01*
X115427380Y-62228571D01*
X115475000Y-62085714D01*
X116379761Y-61704761D02*
X116427380Y-61561904D01*
X116427380Y-61323809D01*
X116379761Y-61228571D01*
X116332142Y-61180952D01*
X116236904Y-61133333D01*
X116141666Y-61133333D01*
X116046428Y-61180952D01*
X115998809Y-61228571D01*
X115951190Y-61323809D01*
X115903571Y-61514285D01*
X115855952Y-61609523D01*
X115808333Y-61657142D01*
X115713095Y-61704761D01*
X115617857Y-61704761D01*
X115522619Y-61657142D01*
X115475000Y-61609523D01*
X115427380Y-61514285D01*
X115427380Y-61276190D01*
X115475000Y-61133333D01*
X115427380Y-60704761D02*
X116236904Y-60704761D01*
X116332142Y-60657142D01*
X116379761Y-60609523D01*
X116427380Y-60514285D01*
X116427380Y-60323809D01*
X116379761Y-60228571D01*
X116332142Y-60180952D01*
X116236904Y-60133333D01*
X115427380Y-60133333D01*
X116427380Y-59085714D02*
X115951190Y-59419047D01*
X116427380Y-59657142D02*
X115427380Y-59657142D01*
X115427380Y-59276190D01*
X115475000Y-59180952D01*
X115522619Y-59133333D01*
X115617857Y-59085714D01*
X115760714Y-59085714D01*
X115855952Y-59133333D01*
X115903571Y-59180952D01*
X115951190Y-59276190D01*
X115951190Y-59657142D01*
X115903571Y-58657142D02*
X115903571Y-58323809D01*
X116427380Y-58180952D02*
X116427380Y-58657142D01*
X115427380Y-58657142D01*
X115427380Y-58180952D01*
X116427380Y-56419047D02*
X115951190Y-56752380D01*
X116427380Y-56990476D02*
X115427380Y-56990476D01*
X115427380Y-56609523D01*
X115475000Y-56514285D01*
X115522619Y-56466666D01*
X115617857Y-56419047D01*
X115760714Y-56419047D01*
X115855952Y-56466666D01*
X115903571Y-56514285D01*
X115951190Y-56609523D01*
X115951190Y-56990476D01*
X115903571Y-55990476D02*
X115903571Y-55657142D01*
X116427380Y-55514285D02*
X116427380Y-55990476D01*
X115427380Y-55990476D01*
X115427380Y-55514285D01*
X115427380Y-55228571D02*
X116427380Y-54895238D01*
X115427380Y-54561904D01*
X116427380Y-53704761D02*
X116427380Y-54276190D01*
X116427380Y-53990476D02*
X115427380Y-53990476D01*
X115570238Y-54085714D01*
X115665476Y-54180952D01*
X115713095Y-54276190D01*
X117505952Y-64419047D02*
X117458333Y-64514285D01*
X117410714Y-64561904D01*
X117315476Y-64609523D01*
X117267857Y-64609523D01*
X117172619Y-64561904D01*
X117125000Y-64514285D01*
X117077380Y-64419047D01*
X117077380Y-64228571D01*
X117125000Y-64133333D01*
X117172619Y-64085714D01*
X117267857Y-64038095D01*
X117315476Y-64038095D01*
X117410714Y-64085714D01*
X117458333Y-64133333D01*
X117505952Y-64228571D01*
X117505952Y-64419047D01*
X117553571Y-64514285D01*
X117601190Y-64561904D01*
X117696428Y-64609523D01*
X117886904Y-64609523D01*
X117982142Y-64561904D01*
X118029761Y-64514285D01*
X118077380Y-64419047D01*
X118077380Y-64228571D01*
X118029761Y-64133333D01*
X117982142Y-64085714D01*
X117886904Y-64038095D01*
X117696428Y-64038095D01*
X117601190Y-64085714D01*
X117553571Y-64133333D01*
X117505952Y-64228571D01*
X117982142Y-63609523D02*
X118029761Y-63561904D01*
X118077380Y-63609523D01*
X118029761Y-63657142D01*
X117982142Y-63609523D01*
X118077380Y-63609523D01*
X117077380Y-63228571D02*
X117077380Y-62561904D01*
X118077380Y-62990476D01*
X117077380Y-61704761D02*
X117077380Y-62180952D01*
X117553571Y-62228571D01*
X117505952Y-62180952D01*
X117458333Y-62085714D01*
X117458333Y-61847619D01*
X117505952Y-61752380D01*
X117553571Y-61704761D01*
X117648809Y-61657142D01*
X117886904Y-61657142D01*
X117982142Y-61704761D01*
X118029761Y-61752380D01*
X118077380Y-61847619D01*
X118077380Y-62085714D01*
X118029761Y-62180952D01*
X117982142Y-62228571D01*
X118077380Y-61228571D02*
X117410714Y-61228571D01*
X117505952Y-61228571D02*
X117458333Y-61180952D01*
X117410714Y-61085714D01*
X117410714Y-60942857D01*
X117458333Y-60847619D01*
X117553571Y-60800000D01*
X118077380Y-60800000D01*
X117553571Y-60800000D02*
X117458333Y-60752380D01*
X117410714Y-60657142D01*
X117410714Y-60514285D01*
X117458333Y-60419047D01*
X117553571Y-60371428D01*
X118077380Y-60371428D01*
X118077380Y-59895238D02*
X117410714Y-59895238D01*
X117505952Y-59895238D02*
X117458333Y-59847619D01*
X117410714Y-59752380D01*
X117410714Y-59609523D01*
X117458333Y-59514285D01*
X117553571Y-59466666D01*
X118077380Y-59466666D01*
X117553571Y-59466666D02*
X117458333Y-59419047D01*
X117410714Y-59323809D01*
X117410714Y-59180952D01*
X117458333Y-59085714D01*
X117553571Y-59038095D01*
X118077380Y-59038095D01*
D12*
X125159420Y-43390000D02*
X125440580Y-43390000D01*
X125159420Y-44410000D02*
X125440580Y-44410000D01*
X125159420Y-53110000D02*
X125440580Y-53110000D01*
X125159420Y-52090000D02*
X125440580Y-52090000D01*
X125359420Y-60790000D02*
X125640580Y-60790000D01*
X125359420Y-61810000D02*
X125640580Y-61810000D01*
X125259420Y-70510000D02*
X125540580Y-70510000D01*
X125259420Y-69490000D02*
X125540580Y-69490000D01*
X134240580Y-38310000D02*
X133959420Y-38310000D01*
X134240580Y-37290000D02*
X133959420Y-37290000D01*
X134240580Y-46090000D02*
X133959420Y-46090000D01*
X134240580Y-47110000D02*
X133959420Y-47110000D01*
X134140580Y-54790000D02*
X133859420Y-54790000D01*
X134140580Y-55810000D02*
X133859420Y-55810000D01*
X134240580Y-64410000D02*
X133959420Y-64410000D01*
X134240580Y-63390000D02*
X133959420Y-63390000D01*
X133159420Y-86210000D02*
X133440580Y-86210000D01*
X133159420Y-85190000D02*
X133440580Y-85190000D01*
X133159420Y-86990000D02*
X133440580Y-86990000D01*
X133159420Y-88010000D02*
X133440580Y-88010000D01*
X139437258Y-75320458D02*
X138962742Y-75320458D01*
X139437258Y-74275458D02*
X138962742Y-74275458D01*
X139437258Y-72234642D02*
X138962742Y-72234642D01*
X139437258Y-73279642D02*
X138962742Y-73279642D01*
X139437258Y-78357090D02*
X138962742Y-78357090D01*
X139437258Y-79402090D02*
X138962742Y-79402090D01*
X139437258Y-77361274D02*
X138962742Y-77361274D01*
X139437258Y-76316274D02*
X138962742Y-76316274D01*
X139437258Y-83483722D02*
X138962742Y-83483722D01*
X139437258Y-82438722D02*
X138962742Y-82438722D01*
X139437258Y-80397906D02*
X138962742Y-80397906D01*
X139437258Y-81442906D02*
X138962742Y-81442906D01*
X139437258Y-86520357D02*
X138962742Y-86520357D01*
X139437258Y-87565357D02*
X138962742Y-87565357D01*
X139437258Y-85524538D02*
X138962742Y-85524538D01*
X139437258Y-84479538D02*
X138962742Y-84479538D01*
X120662742Y-85523516D02*
X121137258Y-85523516D01*
X120662742Y-84478516D02*
X121137258Y-84478516D01*
X120662742Y-87565357D02*
X121137258Y-87565357D01*
X120662742Y-86520357D02*
X121137258Y-86520357D01*
X120662742Y-81439844D02*
X121137258Y-81439844D01*
X120662742Y-80394844D02*
X121137258Y-80394844D01*
X120662742Y-82436680D02*
X121137258Y-82436680D01*
X120662742Y-83481680D02*
X121137258Y-83481680D01*
X120662742Y-77356172D02*
X121137258Y-77356172D01*
X120662742Y-76311172D02*
X121137258Y-76311172D01*
X120662742Y-78353008D02*
X121137258Y-78353008D01*
X120662742Y-79398008D02*
X121137258Y-79398008D01*
X120662742Y-73272500D02*
X121137258Y-73272500D01*
X120662742Y-72227500D02*
X121137258Y-72227500D01*
X120662742Y-74269336D02*
X121137258Y-74269336D01*
X120662742Y-75314336D02*
X121137258Y-75314336D01*
X125737258Y-87977500D02*
X125262742Y-87977500D01*
X125737258Y-89022500D02*
X125262742Y-89022500D01*
X125737258Y-87022500D02*
X125262742Y-87022500D01*
X125737258Y-85977500D02*
X125262742Y-85977500D01*
X129737258Y-88522500D02*
X129262742Y-88522500D01*
X129737258Y-87477500D02*
X129262742Y-87477500D01*
D10*
X132875000Y-84000000D02*
X134475000Y-84000000D01*
X132875000Y-75575000D02*
X127125000Y-75575000D01*
X132875000Y-84225000D02*
X127125000Y-84225000D01*
X132875000Y-75575000D02*
X132875000Y-75875000D01*
X127125000Y-75575000D02*
X127125000Y-75875000D01*
X127125000Y-84225000D02*
X127125000Y-83925000D01*
X132875000Y-84225000D02*
X132875000Y-84000000D01*
D13*
X136463000Y-69100000D02*
G75*
G03*
X136463000Y-69100000I-200000J0D01*
G01*
D14*
X132412600Y-65300400D02*
X132412600Y-68600400D01*
X132412600Y-65300400D02*
X135712600Y-65300400D01*
X132412600Y-68600400D02*
X135712600Y-68600400D01*
X135712600Y-65300400D02*
X135712600Y-68600400D01*
D13*
X136463000Y-60350000D02*
G75*
G03*
X136463000Y-60350000I-200000J0D01*
G01*
D14*
X132412600Y-56550400D02*
X132412600Y-59850400D01*
X132412600Y-56550400D02*
X135712600Y-56550400D01*
X132412600Y-59850400D02*
X135712600Y-59850400D01*
X135712600Y-56550400D02*
X135712600Y-59850400D01*
D13*
X136463000Y-51600000D02*
G75*
G03*
X136463000Y-51600000I-200000J0D01*
G01*
D14*
X132412600Y-47800400D02*
X132412600Y-51100400D01*
X132412600Y-47800400D02*
X135712600Y-47800400D01*
X132412600Y-51100400D02*
X135712600Y-51100400D01*
X135712600Y-47800400D02*
X135712600Y-51100400D01*
X135712600Y-39050400D02*
X135712600Y-42350400D01*
X132412600Y-42350400D02*
X135712600Y-42350400D01*
X132412600Y-39050400D02*
X135712600Y-39050400D01*
X132412600Y-39050400D02*
X132412600Y-42350400D01*
D13*
X136463000Y-42850000D02*
G75*
G03*
X136463000Y-42850000I-200000J0D01*
G01*
D14*
X126962600Y-39050400D02*
X126962600Y-42350400D01*
X123662600Y-42350400D02*
X126962600Y-42350400D01*
X123662600Y-39050400D02*
X126962600Y-39050400D01*
X123662600Y-39050400D02*
X123662600Y-42350400D01*
D13*
X127713000Y-42850000D02*
G75*
G03*
X127713000Y-42850000I-200000J0D01*
G01*
X127713000Y-51600000D02*
G75*
G03*
X127713000Y-51600000I-200000J0D01*
G01*
D14*
X123662600Y-47800400D02*
X123662600Y-51100400D01*
X123662600Y-47800400D02*
X126962600Y-47800400D01*
X123662600Y-51100400D02*
X126962600Y-51100400D01*
X126962600Y-47800400D02*
X126962600Y-51100400D01*
X126962600Y-56550400D02*
X126962600Y-59850400D01*
X123662600Y-59850400D02*
X126962600Y-59850400D01*
X123662600Y-56550400D02*
X126962600Y-56550400D01*
X123662600Y-56550400D02*
X123662600Y-59850400D01*
D13*
X127713000Y-60350000D02*
G75*
G03*
X127713000Y-60350000I-200000J0D01*
G01*
D14*
X126962600Y-65300400D02*
X126962600Y-68600400D01*
X123662600Y-68600400D02*
X126962600Y-68600400D01*
X123662600Y-65300400D02*
X126962600Y-65300400D01*
X123662600Y-65300400D02*
X123662600Y-68600400D01*
D13*
X127713000Y-69100000D02*
G75*
G03*
X127713000Y-69100000I-200000J0D01*
G01*
D12*
X120250000Y-94750000D02*
X120250000Y-90650000D01*
X120250000Y-90650000D02*
X122250000Y-90650000D01*
X122250000Y-90650000D02*
X122250000Y-94750000D01*
X122250000Y-94750000D02*
X120250000Y-94750000D01*
X139100000Y-90800000D02*
X138600000Y-90800000D01*
X139100000Y-91540000D02*
X139100000Y-90800000D01*
X123040000Y-97360000D02*
X123040000Y-91040000D01*
X138860000Y-97360000D02*
X138860000Y-91040000D01*
X138860000Y-91040000D02*
X123040000Y-91040000D01*
X138860000Y-97360000D02*
X123040000Y-97360000D01*
X138860000Y-96900000D02*
X123040000Y-96900000D01*
X138860000Y-91600000D02*
X123040000Y-91600000D01*
D10*
X122133333Y-44177142D02*
X122085714Y-44224761D01*
X121942857Y-44272380D01*
X121847619Y-44272380D01*
X121704761Y-44224761D01*
X121609523Y-44129523D01*
X121561904Y-44034285D01*
X121514285Y-43843809D01*
X121514285Y-43700952D01*
X121561904Y-43510476D01*
X121609523Y-43415238D01*
X121704761Y-43320000D01*
X121847619Y-43272380D01*
X121942857Y-43272380D01*
X122085714Y-43320000D01*
X122133333Y-43367619D01*
X123085714Y-44272380D02*
X122514285Y-44272380D01*
X122800000Y-44272380D02*
X122800000Y-43272380D01*
X122704761Y-43415238D01*
X122609523Y-43510476D01*
X122514285Y-43558095D01*
X122063333Y-53017142D02*
X122015714Y-53064761D01*
X121872857Y-53112380D01*
X121777619Y-53112380D01*
X121634761Y-53064761D01*
X121539523Y-52969523D01*
X121491904Y-52874285D01*
X121444285Y-52683809D01*
X121444285Y-52540952D01*
X121491904Y-52350476D01*
X121539523Y-52255238D01*
X121634761Y-52160000D01*
X121777619Y-52112380D01*
X121872857Y-52112380D01*
X122015714Y-52160000D01*
X122063333Y-52207619D01*
X122444285Y-52207619D02*
X122491904Y-52160000D01*
X122587142Y-52112380D01*
X122825238Y-52112380D01*
X122920476Y-52160000D01*
X122968095Y-52207619D01*
X123015714Y-52302857D01*
X123015714Y-52398095D01*
X122968095Y-52540952D01*
X122396666Y-53112380D01*
X123015714Y-53112380D01*
X122463333Y-61677142D02*
X122415714Y-61724761D01*
X122272857Y-61772380D01*
X122177619Y-61772380D01*
X122034761Y-61724761D01*
X121939523Y-61629523D01*
X121891904Y-61534285D01*
X121844285Y-61343809D01*
X121844285Y-61200952D01*
X121891904Y-61010476D01*
X121939523Y-60915238D01*
X122034761Y-60820000D01*
X122177619Y-60772380D01*
X122272857Y-60772380D01*
X122415714Y-60820000D01*
X122463333Y-60867619D01*
X122796666Y-60772380D02*
X123415714Y-60772380D01*
X123082380Y-61153333D01*
X123225238Y-61153333D01*
X123320476Y-61200952D01*
X123368095Y-61248571D01*
X123415714Y-61343809D01*
X123415714Y-61581904D01*
X123368095Y-61677142D01*
X123320476Y-61724761D01*
X123225238Y-61772380D01*
X122939523Y-61772380D01*
X122844285Y-61724761D01*
X122796666Y-61677142D01*
X122323333Y-70447142D02*
X122275714Y-70494761D01*
X122132857Y-70542380D01*
X122037619Y-70542380D01*
X121894761Y-70494761D01*
X121799523Y-70399523D01*
X121751904Y-70304285D01*
X121704285Y-70113809D01*
X121704285Y-69970952D01*
X121751904Y-69780476D01*
X121799523Y-69685238D01*
X121894761Y-69590000D01*
X122037619Y-69542380D01*
X122132857Y-69542380D01*
X122275714Y-69590000D01*
X122323333Y-69637619D01*
X123180476Y-69875714D02*
X123180476Y-70542380D01*
X122942380Y-69494761D02*
X122704285Y-70209047D01*
X123323333Y-70209047D01*
X136843333Y-38127142D02*
X136795714Y-38174761D01*
X136652857Y-38222380D01*
X136557619Y-38222380D01*
X136414761Y-38174761D01*
X136319523Y-38079523D01*
X136271904Y-37984285D01*
X136224285Y-37793809D01*
X136224285Y-37650952D01*
X136271904Y-37460476D01*
X136319523Y-37365238D01*
X136414761Y-37270000D01*
X136557619Y-37222380D01*
X136652857Y-37222380D01*
X136795714Y-37270000D01*
X136843333Y-37317619D01*
X137748095Y-37222380D02*
X137271904Y-37222380D01*
X137224285Y-37698571D01*
X137271904Y-37650952D01*
X137367142Y-37603333D01*
X137605238Y-37603333D01*
X137700476Y-37650952D01*
X137748095Y-37698571D01*
X137795714Y-37793809D01*
X137795714Y-38031904D01*
X137748095Y-38127142D01*
X137700476Y-38174761D01*
X137605238Y-38222380D01*
X137367142Y-38222380D01*
X137271904Y-38174761D01*
X137224285Y-38127142D01*
X137253333Y-47017142D02*
X137205714Y-47064761D01*
X137062857Y-47112380D01*
X136967619Y-47112380D01*
X136824761Y-47064761D01*
X136729523Y-46969523D01*
X136681904Y-46874285D01*
X136634285Y-46683809D01*
X136634285Y-46540952D01*
X136681904Y-46350476D01*
X136729523Y-46255238D01*
X136824761Y-46160000D01*
X136967619Y-46112380D01*
X137062857Y-46112380D01*
X137205714Y-46160000D01*
X137253333Y-46207619D01*
X138110476Y-46112380D02*
X137920000Y-46112380D01*
X137824761Y-46160000D01*
X137777142Y-46207619D01*
X137681904Y-46350476D01*
X137634285Y-46540952D01*
X137634285Y-46921904D01*
X137681904Y-47017142D01*
X137729523Y-47064761D01*
X137824761Y-47112380D01*
X138015238Y-47112380D01*
X138110476Y-47064761D01*
X138158095Y-47017142D01*
X138205714Y-46921904D01*
X138205714Y-46683809D01*
X138158095Y-46588571D01*
X138110476Y-46540952D01*
X138015238Y-46493333D01*
X137824761Y-46493333D01*
X137729523Y-46540952D01*
X137681904Y-46588571D01*
X137634285Y-46683809D01*
X137243333Y-55527142D02*
X137195714Y-55574761D01*
X137052857Y-55622380D01*
X136957619Y-55622380D01*
X136814761Y-55574761D01*
X136719523Y-55479523D01*
X136671904Y-55384285D01*
X136624285Y-55193809D01*
X136624285Y-55050952D01*
X136671904Y-54860476D01*
X136719523Y-54765238D01*
X136814761Y-54670000D01*
X136957619Y-54622380D01*
X137052857Y-54622380D01*
X137195714Y-54670000D01*
X137243333Y-54717619D01*
X137576666Y-54622380D02*
X138243333Y-54622380D01*
X137814761Y-55622380D01*
X137253333Y-64297142D02*
X137205714Y-64344761D01*
X137062857Y-64392380D01*
X136967619Y-64392380D01*
X136824761Y-64344761D01*
X136729523Y-64249523D01*
X136681904Y-64154285D01*
X136634285Y-63963809D01*
X136634285Y-63820952D01*
X136681904Y-63630476D01*
X136729523Y-63535238D01*
X136824761Y-63440000D01*
X136967619Y-63392380D01*
X137062857Y-63392380D01*
X137205714Y-63440000D01*
X137253333Y-63487619D01*
X137824761Y-63820952D02*
X137729523Y-63773333D01*
X137681904Y-63725714D01*
X137634285Y-63630476D01*
X137634285Y-63582857D01*
X137681904Y-63487619D01*
X137729523Y-63440000D01*
X137824761Y-63392380D01*
X138015238Y-63392380D01*
X138110476Y-63440000D01*
X138158095Y-63487619D01*
X138205714Y-63582857D01*
X138205714Y-63630476D01*
X138158095Y-63725714D01*
X138110476Y-63773333D01*
X138015238Y-63820952D01*
X137824761Y-63820952D01*
X137729523Y-63868571D01*
X137681904Y-63916190D01*
X137634285Y-64011428D01*
X137634285Y-64201904D01*
X137681904Y-64297142D01*
X137729523Y-64344761D01*
X137824761Y-64392380D01*
X138015238Y-64392380D01*
X138110476Y-64344761D01*
X138158095Y-64297142D01*
X138205714Y-64201904D01*
X138205714Y-64011428D01*
X138158095Y-63916190D01*
X138110476Y-63868571D01*
X138015238Y-63820952D01*
D11*
X135416666Y-85978571D02*
X135392857Y-86002380D01*
X135321428Y-86026190D01*
X135273809Y-86026190D01*
X135202380Y-86002380D01*
X135154761Y-85954761D01*
X135130952Y-85907142D01*
X135107142Y-85811904D01*
X135107142Y-85740476D01*
X135130952Y-85645238D01*
X135154761Y-85597619D01*
X135202380Y-85550000D01*
X135273809Y-85526190D01*
X135321428Y-85526190D01*
X135392857Y-85550000D01*
X135416666Y-85573809D01*
X135654761Y-86026190D02*
X135750000Y-86026190D01*
X135797619Y-86002380D01*
X135821428Y-85978571D01*
X135869047Y-85907142D01*
X135892857Y-85811904D01*
X135892857Y-85621428D01*
X135869047Y-85573809D01*
X135845238Y-85550000D01*
X135797619Y-85526190D01*
X135702380Y-85526190D01*
X135654761Y-85550000D01*
X135630952Y-85573809D01*
X135607142Y-85621428D01*
X135607142Y-85740476D01*
X135630952Y-85788095D01*
X135654761Y-85811904D01*
X135702380Y-85835714D01*
X135797619Y-85835714D01*
X135845238Y-85811904D01*
X135869047Y-85788095D01*
X135892857Y-85740476D01*
X135428571Y-87578571D02*
X135404761Y-87602380D01*
X135333333Y-87626190D01*
X135285714Y-87626190D01*
X135214285Y-87602380D01*
X135166666Y-87554761D01*
X135142857Y-87507142D01*
X135119047Y-87411904D01*
X135119047Y-87340476D01*
X135142857Y-87245238D01*
X135166666Y-87197619D01*
X135214285Y-87150000D01*
X135285714Y-87126190D01*
X135333333Y-87126190D01*
X135404761Y-87150000D01*
X135428571Y-87173809D01*
X135904761Y-87626190D02*
X135619047Y-87626190D01*
X135761904Y-87626190D02*
X135761904Y-87126190D01*
X135714285Y-87197619D01*
X135666666Y-87245238D01*
X135619047Y-87269047D01*
X136214285Y-87126190D02*
X136261904Y-87126190D01*
X136309523Y-87150000D01*
X136333333Y-87173809D01*
X136357142Y-87221428D01*
X136380952Y-87316666D01*
X136380952Y-87435714D01*
X136357142Y-87530952D01*
X136333333Y-87578571D01*
X136309523Y-87602380D01*
X136261904Y-87626190D01*
X136214285Y-87626190D01*
X136166666Y-87602380D01*
X136142857Y-87578571D01*
X136119047Y-87530952D01*
X136095238Y-87435714D01*
X136095238Y-87316666D01*
X136119047Y-87221428D01*
X136142857Y-87173809D01*
X136166666Y-87150000D01*
X136214285Y-87126190D01*
D10*
X141333333Y-75352380D02*
X141000000Y-74876190D01*
X140761904Y-75352380D02*
X140761904Y-74352380D01*
X141142857Y-74352380D01*
X141238095Y-74400000D01*
X141285714Y-74447619D01*
X141333333Y-74542857D01*
X141333333Y-74685714D01*
X141285714Y-74780952D01*
X141238095Y-74828571D01*
X141142857Y-74876190D01*
X140761904Y-74876190D01*
X142285714Y-75352380D02*
X141714285Y-75352380D01*
X142000000Y-75352380D02*
X142000000Y-74352380D01*
X141904761Y-74495238D01*
X141809523Y-74590476D01*
X141714285Y-74638095D01*
X141333333Y-73252380D02*
X141000000Y-72776190D01*
X140761904Y-73252380D02*
X140761904Y-72252380D01*
X141142857Y-72252380D01*
X141238095Y-72300000D01*
X141285714Y-72347619D01*
X141333333Y-72442857D01*
X141333333Y-72585714D01*
X141285714Y-72680952D01*
X141238095Y-72728571D01*
X141142857Y-72776190D01*
X140761904Y-72776190D01*
X141714285Y-72347619D02*
X141761904Y-72300000D01*
X141857142Y-72252380D01*
X142095238Y-72252380D01*
X142190476Y-72300000D01*
X142238095Y-72347619D01*
X142285714Y-72442857D01*
X142285714Y-72538095D01*
X142238095Y-72680952D01*
X141666666Y-73252380D01*
X142285714Y-73252380D01*
X141333333Y-79352380D02*
X141000000Y-78876190D01*
X140761904Y-79352380D02*
X140761904Y-78352380D01*
X141142857Y-78352380D01*
X141238095Y-78400000D01*
X141285714Y-78447619D01*
X141333333Y-78542857D01*
X141333333Y-78685714D01*
X141285714Y-78780952D01*
X141238095Y-78828571D01*
X141142857Y-78876190D01*
X140761904Y-78876190D01*
X141666666Y-78352380D02*
X142285714Y-78352380D01*
X141952380Y-78733333D01*
X142095238Y-78733333D01*
X142190476Y-78780952D01*
X142238095Y-78828571D01*
X142285714Y-78923809D01*
X142285714Y-79161904D01*
X142238095Y-79257142D01*
X142190476Y-79304761D01*
X142095238Y-79352380D01*
X141809523Y-79352380D01*
X141714285Y-79304761D01*
X141666666Y-79257142D01*
X141333333Y-77352380D02*
X141000000Y-76876190D01*
X140761904Y-77352380D02*
X140761904Y-76352380D01*
X141142857Y-76352380D01*
X141238095Y-76400000D01*
X141285714Y-76447619D01*
X141333333Y-76542857D01*
X141333333Y-76685714D01*
X141285714Y-76780952D01*
X141238095Y-76828571D01*
X141142857Y-76876190D01*
X140761904Y-76876190D01*
X142190476Y-76685714D02*
X142190476Y-77352380D01*
X141952380Y-76304761D02*
X141714285Y-77019047D01*
X142333333Y-77019047D01*
X141333333Y-83452380D02*
X141000000Y-82976190D01*
X140761904Y-83452380D02*
X140761904Y-82452380D01*
X141142857Y-82452380D01*
X141238095Y-82500000D01*
X141285714Y-82547619D01*
X141333333Y-82642857D01*
X141333333Y-82785714D01*
X141285714Y-82880952D01*
X141238095Y-82928571D01*
X141142857Y-82976190D01*
X140761904Y-82976190D01*
X142238095Y-82452380D02*
X141761904Y-82452380D01*
X141714285Y-82928571D01*
X141761904Y-82880952D01*
X141857142Y-82833333D01*
X142095238Y-82833333D01*
X142190476Y-82880952D01*
X142238095Y-82928571D01*
X142285714Y-83023809D01*
X142285714Y-83261904D01*
X142238095Y-83357142D01*
X142190476Y-83404761D01*
X142095238Y-83452380D01*
X141857142Y-83452380D01*
X141761904Y-83404761D01*
X141714285Y-83357142D01*
X141333333Y-81352380D02*
X141000000Y-80876190D01*
X140761904Y-81352380D02*
X140761904Y-80352380D01*
X141142857Y-80352380D01*
X141238095Y-80400000D01*
X141285714Y-80447619D01*
X141333333Y-80542857D01*
X141333333Y-80685714D01*
X141285714Y-80780952D01*
X141238095Y-80828571D01*
X141142857Y-80876190D01*
X140761904Y-80876190D01*
X142190476Y-80352380D02*
X142000000Y-80352380D01*
X141904761Y-80400000D01*
X141857142Y-80447619D01*
X141761904Y-80590476D01*
X141714285Y-80780952D01*
X141714285Y-81161904D01*
X141761904Y-81257142D01*
X141809523Y-81304761D01*
X141904761Y-81352380D01*
X142095238Y-81352380D01*
X142190476Y-81304761D01*
X142238095Y-81257142D01*
X142285714Y-81161904D01*
X142285714Y-80923809D01*
X142238095Y-80828571D01*
X142190476Y-80780952D01*
X142095238Y-80733333D01*
X141904761Y-80733333D01*
X141809523Y-80780952D01*
X141761904Y-80828571D01*
X141714285Y-80923809D01*
X141333333Y-87552380D02*
X141000000Y-87076190D01*
X140761904Y-87552380D02*
X140761904Y-86552380D01*
X141142857Y-86552380D01*
X141238095Y-86600000D01*
X141285714Y-86647619D01*
X141333333Y-86742857D01*
X141333333Y-86885714D01*
X141285714Y-86980952D01*
X141238095Y-87028571D01*
X141142857Y-87076190D01*
X140761904Y-87076190D01*
X141666666Y-86552380D02*
X142333333Y-86552380D01*
X141904761Y-87552380D01*
X141333333Y-85552380D02*
X141000000Y-85076190D01*
X140761904Y-85552380D02*
X140761904Y-84552380D01*
X141142857Y-84552380D01*
X141238095Y-84600000D01*
X141285714Y-84647619D01*
X141333333Y-84742857D01*
X141333333Y-84885714D01*
X141285714Y-84980952D01*
X141238095Y-85028571D01*
X141142857Y-85076190D01*
X140761904Y-85076190D01*
X141904761Y-84980952D02*
X141809523Y-84933333D01*
X141761904Y-84885714D01*
X141714285Y-84790476D01*
X141714285Y-84742857D01*
X141761904Y-84647619D01*
X141809523Y-84600000D01*
X141904761Y-84552380D01*
X142095238Y-84552380D01*
X142190476Y-84600000D01*
X142238095Y-84647619D01*
X142285714Y-84742857D01*
X142285714Y-84790476D01*
X142238095Y-84885714D01*
X142190476Y-84933333D01*
X142095238Y-84980952D01*
X141904761Y-84980952D01*
X141809523Y-85028571D01*
X141761904Y-85076190D01*
X141714285Y-85171428D01*
X141714285Y-85361904D01*
X141761904Y-85457142D01*
X141809523Y-85504761D01*
X141904761Y-85552380D01*
X142095238Y-85552380D01*
X142190476Y-85504761D01*
X142238095Y-85457142D01*
X142285714Y-85361904D01*
X142285714Y-85171428D01*
X142238095Y-85076190D01*
X142190476Y-85028571D01*
X142095238Y-84980952D01*
X117333333Y-85452380D02*
X117000000Y-84976190D01*
X116761904Y-85452380D02*
X116761904Y-84452380D01*
X117142857Y-84452380D01*
X117238095Y-84500000D01*
X117285714Y-84547619D01*
X117333333Y-84642857D01*
X117333333Y-84785714D01*
X117285714Y-84880952D01*
X117238095Y-84928571D01*
X117142857Y-84976190D01*
X116761904Y-84976190D01*
X117809523Y-85452380D02*
X118000000Y-85452380D01*
X118095238Y-85404761D01*
X118142857Y-85357142D01*
X118238095Y-85214285D01*
X118285714Y-85023809D01*
X118285714Y-84642857D01*
X118238095Y-84547619D01*
X118190476Y-84500000D01*
X118095238Y-84452380D01*
X117904761Y-84452380D01*
X117809523Y-84500000D01*
X117761904Y-84547619D01*
X117714285Y-84642857D01*
X117714285Y-84880952D01*
X117761904Y-84976190D01*
X117809523Y-85023809D01*
X117904761Y-85071428D01*
X118095238Y-85071428D01*
X118190476Y-85023809D01*
X118238095Y-84976190D01*
X118285714Y-84880952D01*
X117357142Y-87452380D02*
X117023809Y-86976190D01*
X116785714Y-87452380D02*
X116785714Y-86452380D01*
X117166666Y-86452380D01*
X117261904Y-86500000D01*
X117309523Y-86547619D01*
X117357142Y-86642857D01*
X117357142Y-86785714D01*
X117309523Y-86880952D01*
X117261904Y-86928571D01*
X117166666Y-86976190D01*
X116785714Y-86976190D01*
X118309523Y-87452380D02*
X117738095Y-87452380D01*
X118023809Y-87452380D02*
X118023809Y-86452380D01*
X117928571Y-86595238D01*
X117833333Y-86690476D01*
X117738095Y-86738095D01*
X118928571Y-86452380D02*
X119023809Y-86452380D01*
X119119047Y-86500000D01*
X119166666Y-86547619D01*
X119214285Y-86642857D01*
X119261904Y-86833333D01*
X119261904Y-87071428D01*
X119214285Y-87261904D01*
X119166666Y-87357142D01*
X119119047Y-87404761D01*
X119023809Y-87452380D01*
X118928571Y-87452380D01*
X118833333Y-87404761D01*
X118785714Y-87357142D01*
X118738095Y-87261904D01*
X118690476Y-87071428D01*
X118690476Y-86833333D01*
X118738095Y-86642857D01*
X118785714Y-86547619D01*
X118833333Y-86500000D01*
X118928571Y-86452380D01*
X117357142Y-81452380D02*
X117023809Y-80976190D01*
X116785714Y-81452380D02*
X116785714Y-80452380D01*
X117166666Y-80452380D01*
X117261904Y-80500000D01*
X117309523Y-80547619D01*
X117357142Y-80642857D01*
X117357142Y-80785714D01*
X117309523Y-80880952D01*
X117261904Y-80928571D01*
X117166666Y-80976190D01*
X116785714Y-80976190D01*
X118309523Y-81452380D02*
X117738095Y-81452380D01*
X118023809Y-81452380D02*
X118023809Y-80452380D01*
X117928571Y-80595238D01*
X117833333Y-80690476D01*
X117738095Y-80738095D01*
X119261904Y-81452380D02*
X118690476Y-81452380D01*
X118976190Y-81452380D02*
X118976190Y-80452380D01*
X118880952Y-80595238D01*
X118785714Y-80690476D01*
X118690476Y-80738095D01*
X117357142Y-83452380D02*
X117023809Y-82976190D01*
X116785714Y-83452380D02*
X116785714Y-82452380D01*
X117166666Y-82452380D01*
X117261904Y-82500000D01*
X117309523Y-82547619D01*
X117357142Y-82642857D01*
X117357142Y-82785714D01*
X117309523Y-82880952D01*
X117261904Y-82928571D01*
X117166666Y-82976190D01*
X116785714Y-82976190D01*
X118309523Y-83452380D02*
X117738095Y-83452380D01*
X118023809Y-83452380D02*
X118023809Y-82452380D01*
X117928571Y-82595238D01*
X117833333Y-82690476D01*
X117738095Y-82738095D01*
X118690476Y-82547619D02*
X118738095Y-82500000D01*
X118833333Y-82452380D01*
X119071428Y-82452380D01*
X119166666Y-82500000D01*
X119214285Y-82547619D01*
X119261904Y-82642857D01*
X119261904Y-82738095D01*
X119214285Y-82880952D01*
X118642857Y-83452380D01*
X119261904Y-83452380D01*
X117357142Y-77452380D02*
X117023809Y-76976190D01*
X116785714Y-77452380D02*
X116785714Y-76452380D01*
X117166666Y-76452380D01*
X117261904Y-76500000D01*
X117309523Y-76547619D01*
X117357142Y-76642857D01*
X117357142Y-76785714D01*
X117309523Y-76880952D01*
X117261904Y-76928571D01*
X117166666Y-76976190D01*
X116785714Y-76976190D01*
X118309523Y-77452380D02*
X117738095Y-77452380D01*
X118023809Y-77452380D02*
X118023809Y-76452380D01*
X117928571Y-76595238D01*
X117833333Y-76690476D01*
X117738095Y-76738095D01*
X118642857Y-76452380D02*
X119261904Y-76452380D01*
X118928571Y-76833333D01*
X119071428Y-76833333D01*
X119166666Y-76880952D01*
X119214285Y-76928571D01*
X119261904Y-77023809D01*
X119261904Y-77261904D01*
X119214285Y-77357142D01*
X119166666Y-77404761D01*
X119071428Y-77452380D01*
X118785714Y-77452380D01*
X118690476Y-77404761D01*
X118642857Y-77357142D01*
X117357142Y-79452380D02*
X117023809Y-78976190D01*
X116785714Y-79452380D02*
X116785714Y-78452380D01*
X117166666Y-78452380D01*
X117261904Y-78500000D01*
X117309523Y-78547619D01*
X117357142Y-78642857D01*
X117357142Y-78785714D01*
X117309523Y-78880952D01*
X117261904Y-78928571D01*
X117166666Y-78976190D01*
X116785714Y-78976190D01*
X118309523Y-79452380D02*
X117738095Y-79452380D01*
X118023809Y-79452380D02*
X118023809Y-78452380D01*
X117928571Y-78595238D01*
X117833333Y-78690476D01*
X117738095Y-78738095D01*
X119166666Y-78785714D02*
X119166666Y-79452380D01*
X118928571Y-78404761D02*
X118690476Y-79119047D01*
X119309523Y-79119047D01*
X117357142Y-73152380D02*
X117023809Y-72676190D01*
X116785714Y-73152380D02*
X116785714Y-72152380D01*
X117166666Y-72152380D01*
X117261904Y-72200000D01*
X117309523Y-72247619D01*
X117357142Y-72342857D01*
X117357142Y-72485714D01*
X117309523Y-72580952D01*
X117261904Y-72628571D01*
X117166666Y-72676190D01*
X116785714Y-72676190D01*
X118309523Y-73152380D02*
X117738095Y-73152380D01*
X118023809Y-73152380D02*
X118023809Y-72152380D01*
X117928571Y-72295238D01*
X117833333Y-72390476D01*
X117738095Y-72438095D01*
X119214285Y-72152380D02*
X118738095Y-72152380D01*
X118690476Y-72628571D01*
X118738095Y-72580952D01*
X118833333Y-72533333D01*
X119071428Y-72533333D01*
X119166666Y-72580952D01*
X119214285Y-72628571D01*
X119261904Y-72723809D01*
X119261904Y-72961904D01*
X119214285Y-73057142D01*
X119166666Y-73104761D01*
X119071428Y-73152380D01*
X118833333Y-73152380D01*
X118738095Y-73104761D01*
X118690476Y-73057142D01*
X117357142Y-75452380D02*
X117023809Y-74976190D01*
X116785714Y-75452380D02*
X116785714Y-74452380D01*
X117166666Y-74452380D01*
X117261904Y-74500000D01*
X117309523Y-74547619D01*
X117357142Y-74642857D01*
X117357142Y-74785714D01*
X117309523Y-74880952D01*
X117261904Y-74928571D01*
X117166666Y-74976190D01*
X116785714Y-74976190D01*
X118309523Y-75452380D02*
X117738095Y-75452380D01*
X118023809Y-75452380D02*
X118023809Y-74452380D01*
X117928571Y-74595238D01*
X117833333Y-74690476D01*
X117738095Y-74738095D01*
X119166666Y-74452380D02*
X118976190Y-74452380D01*
X118880952Y-74500000D01*
X118833333Y-74547619D01*
X118738095Y-74690476D01*
X118690476Y-74880952D01*
X118690476Y-75261904D01*
X118738095Y-75357142D01*
X118785714Y-75404761D01*
X118880952Y-75452380D01*
X119071428Y-75452380D01*
X119166666Y-75404761D01*
X119214285Y-75357142D01*
X119261904Y-75261904D01*
X119261904Y-75023809D01*
X119214285Y-74928571D01*
X119166666Y-74880952D01*
X119071428Y-74833333D01*
X118880952Y-74833333D01*
X118785714Y-74880952D01*
X118738095Y-74928571D01*
X118690476Y-75023809D01*
D11*
X125178571Y-87726190D02*
X125011904Y-87488095D01*
X124892857Y-87726190D02*
X124892857Y-87226190D01*
X125083333Y-87226190D01*
X125130952Y-87250000D01*
X125154761Y-87273809D01*
X125178571Y-87321428D01*
X125178571Y-87392857D01*
X125154761Y-87440476D01*
X125130952Y-87464285D01*
X125083333Y-87488095D01*
X124892857Y-87488095D01*
X125654761Y-87726190D02*
X125369047Y-87726190D01*
X125511904Y-87726190D02*
X125511904Y-87226190D01*
X125464285Y-87297619D01*
X125416666Y-87345238D01*
X125369047Y-87369047D01*
X125821428Y-87226190D02*
X126154761Y-87226190D01*
X125940476Y-87726190D01*
X125178571Y-85726190D02*
X125011904Y-85488095D01*
X124892857Y-85726190D02*
X124892857Y-85226190D01*
X125083333Y-85226190D01*
X125130952Y-85250000D01*
X125154761Y-85273809D01*
X125178571Y-85321428D01*
X125178571Y-85392857D01*
X125154761Y-85440476D01*
X125130952Y-85464285D01*
X125083333Y-85488095D01*
X124892857Y-85488095D01*
X125654761Y-85726190D02*
X125369047Y-85726190D01*
X125511904Y-85726190D02*
X125511904Y-85226190D01*
X125464285Y-85297619D01*
X125416666Y-85345238D01*
X125369047Y-85369047D01*
X125940476Y-85440476D02*
X125892857Y-85416666D01*
X125869047Y-85392857D01*
X125845238Y-85345238D01*
X125845238Y-85321428D01*
X125869047Y-85273809D01*
X125892857Y-85250000D01*
X125940476Y-85226190D01*
X126035714Y-85226190D01*
X126083333Y-85250000D01*
X126107142Y-85273809D01*
X126130952Y-85321428D01*
X126130952Y-85345238D01*
X126107142Y-85392857D01*
X126083333Y-85416666D01*
X126035714Y-85440476D01*
X125940476Y-85440476D01*
X125892857Y-85464285D01*
X125869047Y-85488095D01*
X125845238Y-85535714D01*
X125845238Y-85630952D01*
X125869047Y-85678571D01*
X125892857Y-85702380D01*
X125940476Y-85726190D01*
X126035714Y-85726190D01*
X126083333Y-85702380D01*
X126107142Y-85678571D01*
X126130952Y-85630952D01*
X126130952Y-85535714D01*
X126107142Y-85488095D01*
X126083333Y-85464285D01*
X126035714Y-85440476D01*
X129428571Y-86976190D02*
X129261904Y-86738095D01*
X129142857Y-86976190D02*
X129142857Y-86476190D01*
X129333333Y-86476190D01*
X129380952Y-86500000D01*
X129404761Y-86523809D01*
X129428571Y-86571428D01*
X129428571Y-86642857D01*
X129404761Y-86690476D01*
X129380952Y-86714285D01*
X129333333Y-86738095D01*
X129142857Y-86738095D01*
X129904761Y-86976190D02*
X129619047Y-86976190D01*
X129761904Y-86976190D02*
X129761904Y-86476190D01*
X129714285Y-86547619D01*
X129666666Y-86595238D01*
X129619047Y-86619047D01*
X130142857Y-86976190D02*
X130238095Y-86976190D01*
X130285714Y-86952380D01*
X130309523Y-86928571D01*
X130357142Y-86857142D01*
X130380952Y-86761904D01*
X130380952Y-86571428D01*
X130357142Y-86523809D01*
X130333333Y-86500000D01*
X130285714Y-86476190D01*
X130190476Y-86476190D01*
X130142857Y-86500000D01*
X130119047Y-86523809D01*
X130095238Y-86571428D01*
X130095238Y-86690476D01*
X130119047Y-86738095D01*
X130142857Y-86761904D01*
X130190476Y-86785714D01*
X130285714Y-86785714D01*
X130333333Y-86761904D01*
X130357142Y-86738095D01*
X130380952Y-86690476D01*
D10*
X129038095Y-84752380D02*
X129038095Y-85561904D01*
X129085714Y-85657142D01*
X129133333Y-85704761D01*
X129228571Y-85752380D01*
X129419047Y-85752380D01*
X129514285Y-85704761D01*
X129561904Y-85657142D01*
X129609523Y-85561904D01*
X129609523Y-84752380D01*
X130276190Y-84752380D02*
X130371428Y-84752380D01*
X130466666Y-84800000D01*
X130514285Y-84847619D01*
X130561904Y-84942857D01*
X130609523Y-85133333D01*
X130609523Y-85371428D01*
X130561904Y-85561904D01*
X130514285Y-85657142D01*
X130466666Y-85704761D01*
X130371428Y-85752380D01*
X130276190Y-85752380D01*
X130180952Y-85704761D01*
X130133333Y-85657142D01*
X130085714Y-85561904D01*
X130038095Y-85371428D01*
X130038095Y-85133333D01*
X130085714Y-84942857D01*
X130133333Y-84847619D01*
X130180952Y-84800000D01*
X130276190Y-84752380D01*
X136745047Y-66372380D02*
X136745047Y-67181904D01*
X136792666Y-67277142D01*
X136840285Y-67324761D01*
X136935523Y-67372380D01*
X137126000Y-67372380D01*
X137221238Y-67324761D01*
X137268857Y-67277142D01*
X137316476Y-67181904D01*
X137316476Y-66372380D01*
X138316476Y-67372380D02*
X137745047Y-67372380D01*
X138030761Y-67372380D02*
X138030761Y-66372380D01*
X137935523Y-66515238D01*
X137840285Y-66610476D01*
X137745047Y-66658095D01*
X138745047Y-66991428D02*
X139506952Y-66991428D01*
X140554571Y-67277142D02*
X140506952Y-67324761D01*
X140364095Y-67372380D01*
X140268857Y-67372380D01*
X140126000Y-67324761D01*
X140030761Y-67229523D01*
X139983142Y-67134285D01*
X139935523Y-66943809D01*
X139935523Y-66800952D01*
X139983142Y-66610476D01*
X140030761Y-66515238D01*
X140126000Y-66420000D01*
X140268857Y-66372380D01*
X140364095Y-66372380D01*
X140506952Y-66420000D01*
X140554571Y-66467619D01*
X140983142Y-67372380D02*
X140983142Y-66372380D01*
X140983142Y-66848571D02*
X141554571Y-66848571D01*
X141554571Y-67372380D02*
X141554571Y-66372380D01*
X141935523Y-66372380D02*
X142554571Y-66372380D01*
X142221238Y-66753333D01*
X142364095Y-66753333D01*
X142459333Y-66800952D01*
X142506952Y-66848571D01*
X142554571Y-66943809D01*
X142554571Y-67181904D01*
X142506952Y-67277142D01*
X142459333Y-67324761D01*
X142364095Y-67372380D01*
X142078380Y-67372380D01*
X141983142Y-67324761D01*
X141935523Y-67277142D01*
D15*
X132673428Y-67054095D02*
X132673428Y-66804095D01*
X132756761Y-66982666D01*
X132840095Y-66804095D01*
X132840095Y-67054095D01*
X132947238Y-67042190D02*
X132982952Y-67054095D01*
X133042476Y-67054095D01*
X133066285Y-67042190D01*
X133078190Y-67030285D01*
X133090095Y-67006476D01*
X133090095Y-66982666D01*
X133078190Y-66958857D01*
X133066285Y-66946952D01*
X133042476Y-66935047D01*
X132994857Y-66923142D01*
X132971047Y-66911238D01*
X132959142Y-66899333D01*
X132947238Y-66875523D01*
X132947238Y-66851714D01*
X132959142Y-66827904D01*
X132971047Y-66816000D01*
X132994857Y-66804095D01*
X133054380Y-66804095D01*
X133090095Y-66816000D01*
X133316285Y-66804095D02*
X133197238Y-66804095D01*
X133185333Y-66923142D01*
X133197238Y-66911238D01*
X133221047Y-66899333D01*
X133280571Y-66899333D01*
X133304380Y-66911238D01*
X133316285Y-66923142D01*
X133328190Y-66946952D01*
X133328190Y-67006476D01*
X133316285Y-67030285D01*
X133304380Y-67042190D01*
X133280571Y-67054095D01*
X133221047Y-67054095D01*
X133197238Y-67042190D01*
X133185333Y-67030285D01*
X133471047Y-66911238D02*
X133447238Y-66899333D01*
X133435333Y-66887428D01*
X133423428Y-66863619D01*
X133423428Y-66851714D01*
X133435333Y-66827904D01*
X133447238Y-66816000D01*
X133471047Y-66804095D01*
X133518666Y-66804095D01*
X133542476Y-66816000D01*
X133554380Y-66827904D01*
X133566285Y-66851714D01*
X133566285Y-66863619D01*
X133554380Y-66887428D01*
X133542476Y-66899333D01*
X133518666Y-66911238D01*
X133471047Y-66911238D01*
X133447238Y-66923142D01*
X133435333Y-66935047D01*
X133423428Y-66958857D01*
X133423428Y-67006476D01*
X133435333Y-67030285D01*
X133447238Y-67042190D01*
X133471047Y-67054095D01*
X133518666Y-67054095D01*
X133542476Y-67042190D01*
X133554380Y-67030285D01*
X133566285Y-67006476D01*
X133566285Y-66958857D01*
X133554380Y-66935047D01*
X133542476Y-66923142D01*
X133518666Y-66911238D01*
X133649619Y-66804095D02*
X133804380Y-66804095D01*
X133721047Y-66899333D01*
X133756761Y-66899333D01*
X133780571Y-66911238D01*
X133792476Y-66923142D01*
X133804380Y-66946952D01*
X133804380Y-67006476D01*
X133792476Y-67030285D01*
X133780571Y-67042190D01*
X133756761Y-67054095D01*
X133685333Y-67054095D01*
X133661523Y-67042190D01*
X133649619Y-67030285D01*
X133887714Y-66804095D02*
X134054380Y-66804095D01*
X133947238Y-67054095D01*
X134149619Y-66958857D02*
X134340095Y-66958857D01*
X134435333Y-66804095D02*
X134590095Y-66804095D01*
X134506761Y-66899333D01*
X134542476Y-66899333D01*
X134566285Y-66911238D01*
X134578190Y-66923142D01*
X134590095Y-66946952D01*
X134590095Y-67006476D01*
X134578190Y-67030285D01*
X134566285Y-67042190D01*
X134542476Y-67054095D01*
X134471047Y-67054095D01*
X134447238Y-67042190D01*
X134435333Y-67030285D01*
X134744857Y-66804095D02*
X134768666Y-66804095D01*
X134792476Y-66816000D01*
X134804380Y-66827904D01*
X134816285Y-66851714D01*
X134828190Y-66899333D01*
X134828190Y-66958857D01*
X134816285Y-67006476D01*
X134804380Y-67030285D01*
X134792476Y-67042190D01*
X134768666Y-67054095D01*
X134744857Y-67054095D01*
X134721047Y-67042190D01*
X134709142Y-67030285D01*
X134697238Y-67006476D01*
X134685333Y-66958857D01*
X134685333Y-66899333D01*
X134697238Y-66851714D01*
X134709142Y-66827904D01*
X134721047Y-66816000D01*
X134744857Y-66804095D01*
X135018666Y-66923142D02*
X135054380Y-66935047D01*
X135066285Y-66946952D01*
X135078190Y-66970761D01*
X135078190Y-67006476D01*
X135066285Y-67030285D01*
X135054380Y-67042190D01*
X135030571Y-67054095D01*
X134935333Y-67054095D01*
X134935333Y-66804095D01*
X135018666Y-66804095D01*
X135042476Y-66816000D01*
X135054380Y-66827904D01*
X135066285Y-66851714D01*
X135066285Y-66875523D01*
X135054380Y-66899333D01*
X135042476Y-66911238D01*
X135018666Y-66923142D01*
X134935333Y-66923142D01*
X135173428Y-66982666D02*
X135292476Y-66982666D01*
X135149619Y-67054095D02*
X135232952Y-66804095D01*
X135316285Y-67054095D01*
D10*
X136745047Y-57622380D02*
X136745047Y-58431904D01*
X136792666Y-58527142D01*
X136840285Y-58574761D01*
X136935523Y-58622380D01*
X137126000Y-58622380D01*
X137221238Y-58574761D01*
X137268857Y-58527142D01*
X137316476Y-58431904D01*
X137316476Y-57622380D01*
X137745047Y-57717619D02*
X137792666Y-57670000D01*
X137887904Y-57622380D01*
X138126000Y-57622380D01*
X138221238Y-57670000D01*
X138268857Y-57717619D01*
X138316476Y-57812857D01*
X138316476Y-57908095D01*
X138268857Y-58050952D01*
X137697428Y-58622380D01*
X138316476Y-58622380D01*
X138745047Y-58241428D02*
X139506952Y-58241428D01*
X140554571Y-58527142D02*
X140506952Y-58574761D01*
X140364095Y-58622380D01*
X140268857Y-58622380D01*
X140126000Y-58574761D01*
X140030761Y-58479523D01*
X139983142Y-58384285D01*
X139935523Y-58193809D01*
X139935523Y-58050952D01*
X139983142Y-57860476D01*
X140030761Y-57765238D01*
X140126000Y-57670000D01*
X140268857Y-57622380D01*
X140364095Y-57622380D01*
X140506952Y-57670000D01*
X140554571Y-57717619D01*
X140983142Y-58622380D02*
X140983142Y-57622380D01*
X140983142Y-58098571D02*
X141554571Y-58098571D01*
X141554571Y-58622380D02*
X141554571Y-57622380D01*
X141983142Y-57717619D02*
X142030761Y-57670000D01*
X142126000Y-57622380D01*
X142364095Y-57622380D01*
X142459333Y-57670000D01*
X142506952Y-57717619D01*
X142554571Y-57812857D01*
X142554571Y-57908095D01*
X142506952Y-58050952D01*
X141935523Y-58622380D01*
X142554571Y-58622380D01*
D15*
X132673428Y-58304095D02*
X132673428Y-58054095D01*
X132756761Y-58232666D01*
X132840095Y-58054095D01*
X132840095Y-58304095D01*
X132947238Y-58292190D02*
X132982952Y-58304095D01*
X133042476Y-58304095D01*
X133066285Y-58292190D01*
X133078190Y-58280285D01*
X133090095Y-58256476D01*
X133090095Y-58232666D01*
X133078190Y-58208857D01*
X133066285Y-58196952D01*
X133042476Y-58185047D01*
X132994857Y-58173142D01*
X132971047Y-58161238D01*
X132959142Y-58149333D01*
X132947238Y-58125523D01*
X132947238Y-58101714D01*
X132959142Y-58077904D01*
X132971047Y-58066000D01*
X132994857Y-58054095D01*
X133054380Y-58054095D01*
X133090095Y-58066000D01*
X133316285Y-58054095D02*
X133197238Y-58054095D01*
X133185333Y-58173142D01*
X133197238Y-58161238D01*
X133221047Y-58149333D01*
X133280571Y-58149333D01*
X133304380Y-58161238D01*
X133316285Y-58173142D01*
X133328190Y-58196952D01*
X133328190Y-58256476D01*
X133316285Y-58280285D01*
X133304380Y-58292190D01*
X133280571Y-58304095D01*
X133221047Y-58304095D01*
X133197238Y-58292190D01*
X133185333Y-58280285D01*
X133471047Y-58161238D02*
X133447238Y-58149333D01*
X133435333Y-58137428D01*
X133423428Y-58113619D01*
X133423428Y-58101714D01*
X133435333Y-58077904D01*
X133447238Y-58066000D01*
X133471047Y-58054095D01*
X133518666Y-58054095D01*
X133542476Y-58066000D01*
X133554380Y-58077904D01*
X133566285Y-58101714D01*
X133566285Y-58113619D01*
X133554380Y-58137428D01*
X133542476Y-58149333D01*
X133518666Y-58161238D01*
X133471047Y-58161238D01*
X133447238Y-58173142D01*
X133435333Y-58185047D01*
X133423428Y-58208857D01*
X133423428Y-58256476D01*
X133435333Y-58280285D01*
X133447238Y-58292190D01*
X133471047Y-58304095D01*
X133518666Y-58304095D01*
X133542476Y-58292190D01*
X133554380Y-58280285D01*
X133566285Y-58256476D01*
X133566285Y-58208857D01*
X133554380Y-58185047D01*
X133542476Y-58173142D01*
X133518666Y-58161238D01*
X133649619Y-58054095D02*
X133804380Y-58054095D01*
X133721047Y-58149333D01*
X133756761Y-58149333D01*
X133780571Y-58161238D01*
X133792476Y-58173142D01*
X133804380Y-58196952D01*
X133804380Y-58256476D01*
X133792476Y-58280285D01*
X133780571Y-58292190D01*
X133756761Y-58304095D01*
X133685333Y-58304095D01*
X133661523Y-58292190D01*
X133649619Y-58280285D01*
X133887714Y-58054095D02*
X134054380Y-58054095D01*
X133947238Y-58304095D01*
X134149619Y-58208857D02*
X134340095Y-58208857D01*
X134435333Y-58054095D02*
X134590095Y-58054095D01*
X134506761Y-58149333D01*
X134542476Y-58149333D01*
X134566285Y-58161238D01*
X134578190Y-58173142D01*
X134590095Y-58196952D01*
X134590095Y-58256476D01*
X134578190Y-58280285D01*
X134566285Y-58292190D01*
X134542476Y-58304095D01*
X134471047Y-58304095D01*
X134447238Y-58292190D01*
X134435333Y-58280285D01*
X134744857Y-58054095D02*
X134768666Y-58054095D01*
X134792476Y-58066000D01*
X134804380Y-58077904D01*
X134816285Y-58101714D01*
X134828190Y-58149333D01*
X134828190Y-58208857D01*
X134816285Y-58256476D01*
X134804380Y-58280285D01*
X134792476Y-58292190D01*
X134768666Y-58304095D01*
X134744857Y-58304095D01*
X134721047Y-58292190D01*
X134709142Y-58280285D01*
X134697238Y-58256476D01*
X134685333Y-58208857D01*
X134685333Y-58149333D01*
X134697238Y-58101714D01*
X134709142Y-58077904D01*
X134721047Y-58066000D01*
X134744857Y-58054095D01*
X135018666Y-58173142D02*
X135054380Y-58185047D01*
X135066285Y-58196952D01*
X135078190Y-58220761D01*
X135078190Y-58256476D01*
X135066285Y-58280285D01*
X135054380Y-58292190D01*
X135030571Y-58304095D01*
X134935333Y-58304095D01*
X134935333Y-58054095D01*
X135018666Y-58054095D01*
X135042476Y-58066000D01*
X135054380Y-58077904D01*
X135066285Y-58101714D01*
X135066285Y-58125523D01*
X135054380Y-58149333D01*
X135042476Y-58161238D01*
X135018666Y-58173142D01*
X134935333Y-58173142D01*
X135173428Y-58232666D02*
X135292476Y-58232666D01*
X135149619Y-58304095D02*
X135232952Y-58054095D01*
X135316285Y-58304095D01*
D10*
X136745047Y-48872380D02*
X136745047Y-49681904D01*
X136792666Y-49777142D01*
X136840285Y-49824761D01*
X136935523Y-49872380D01*
X137126000Y-49872380D01*
X137221238Y-49824761D01*
X137268857Y-49777142D01*
X137316476Y-49681904D01*
X137316476Y-48872380D01*
X137697428Y-48872380D02*
X138316476Y-48872380D01*
X137983142Y-49253333D01*
X138126000Y-49253333D01*
X138221238Y-49300952D01*
X138268857Y-49348571D01*
X138316476Y-49443809D01*
X138316476Y-49681904D01*
X138268857Y-49777142D01*
X138221238Y-49824761D01*
X138126000Y-49872380D01*
X137840285Y-49872380D01*
X137745047Y-49824761D01*
X137697428Y-49777142D01*
X138745047Y-49491428D02*
X139506952Y-49491428D01*
X140554571Y-49777142D02*
X140506952Y-49824761D01*
X140364095Y-49872380D01*
X140268857Y-49872380D01*
X140126000Y-49824761D01*
X140030761Y-49729523D01*
X139983142Y-49634285D01*
X139935523Y-49443809D01*
X139935523Y-49300952D01*
X139983142Y-49110476D01*
X140030761Y-49015238D01*
X140126000Y-48920000D01*
X140268857Y-48872380D01*
X140364095Y-48872380D01*
X140506952Y-48920000D01*
X140554571Y-48967619D01*
X140983142Y-49872380D02*
X140983142Y-48872380D01*
X140983142Y-49348571D02*
X141554571Y-49348571D01*
X141554571Y-49872380D02*
X141554571Y-48872380D01*
X142554571Y-49872380D02*
X141983142Y-49872380D01*
X142268857Y-49872380D02*
X142268857Y-48872380D01*
X142173619Y-49015238D01*
X142078380Y-49110476D01*
X141983142Y-49158095D01*
D15*
X132673428Y-49554095D02*
X132673428Y-49304095D01*
X132756761Y-49482666D01*
X132840095Y-49304095D01*
X132840095Y-49554095D01*
X132947238Y-49542190D02*
X132982952Y-49554095D01*
X133042476Y-49554095D01*
X133066285Y-49542190D01*
X133078190Y-49530285D01*
X133090095Y-49506476D01*
X133090095Y-49482666D01*
X133078190Y-49458857D01*
X133066285Y-49446952D01*
X133042476Y-49435047D01*
X132994857Y-49423142D01*
X132971047Y-49411238D01*
X132959142Y-49399333D01*
X132947238Y-49375523D01*
X132947238Y-49351714D01*
X132959142Y-49327904D01*
X132971047Y-49316000D01*
X132994857Y-49304095D01*
X133054380Y-49304095D01*
X133090095Y-49316000D01*
X133316285Y-49304095D02*
X133197238Y-49304095D01*
X133185333Y-49423142D01*
X133197238Y-49411238D01*
X133221047Y-49399333D01*
X133280571Y-49399333D01*
X133304380Y-49411238D01*
X133316285Y-49423142D01*
X133328190Y-49446952D01*
X133328190Y-49506476D01*
X133316285Y-49530285D01*
X133304380Y-49542190D01*
X133280571Y-49554095D01*
X133221047Y-49554095D01*
X133197238Y-49542190D01*
X133185333Y-49530285D01*
X133471047Y-49411238D02*
X133447238Y-49399333D01*
X133435333Y-49387428D01*
X133423428Y-49363619D01*
X133423428Y-49351714D01*
X133435333Y-49327904D01*
X133447238Y-49316000D01*
X133471047Y-49304095D01*
X133518666Y-49304095D01*
X133542476Y-49316000D01*
X133554380Y-49327904D01*
X133566285Y-49351714D01*
X133566285Y-49363619D01*
X133554380Y-49387428D01*
X133542476Y-49399333D01*
X133518666Y-49411238D01*
X133471047Y-49411238D01*
X133447238Y-49423142D01*
X133435333Y-49435047D01*
X133423428Y-49458857D01*
X133423428Y-49506476D01*
X133435333Y-49530285D01*
X133447238Y-49542190D01*
X133471047Y-49554095D01*
X133518666Y-49554095D01*
X133542476Y-49542190D01*
X133554380Y-49530285D01*
X133566285Y-49506476D01*
X133566285Y-49458857D01*
X133554380Y-49435047D01*
X133542476Y-49423142D01*
X133518666Y-49411238D01*
X133649619Y-49304095D02*
X133804380Y-49304095D01*
X133721047Y-49399333D01*
X133756761Y-49399333D01*
X133780571Y-49411238D01*
X133792476Y-49423142D01*
X133804380Y-49446952D01*
X133804380Y-49506476D01*
X133792476Y-49530285D01*
X133780571Y-49542190D01*
X133756761Y-49554095D01*
X133685333Y-49554095D01*
X133661523Y-49542190D01*
X133649619Y-49530285D01*
X133887714Y-49304095D02*
X134054380Y-49304095D01*
X133947238Y-49554095D01*
X134149619Y-49458857D02*
X134340095Y-49458857D01*
X134435333Y-49304095D02*
X134590095Y-49304095D01*
X134506761Y-49399333D01*
X134542476Y-49399333D01*
X134566285Y-49411238D01*
X134578190Y-49423142D01*
X134590095Y-49446952D01*
X134590095Y-49506476D01*
X134578190Y-49530285D01*
X134566285Y-49542190D01*
X134542476Y-49554095D01*
X134471047Y-49554095D01*
X134447238Y-49542190D01*
X134435333Y-49530285D01*
X134744857Y-49304095D02*
X134768666Y-49304095D01*
X134792476Y-49316000D01*
X134804380Y-49327904D01*
X134816285Y-49351714D01*
X134828190Y-49399333D01*
X134828190Y-49458857D01*
X134816285Y-49506476D01*
X134804380Y-49530285D01*
X134792476Y-49542190D01*
X134768666Y-49554095D01*
X134744857Y-49554095D01*
X134721047Y-49542190D01*
X134709142Y-49530285D01*
X134697238Y-49506476D01*
X134685333Y-49458857D01*
X134685333Y-49399333D01*
X134697238Y-49351714D01*
X134709142Y-49327904D01*
X134721047Y-49316000D01*
X134744857Y-49304095D01*
X135018666Y-49423142D02*
X135054380Y-49435047D01*
X135066285Y-49446952D01*
X135078190Y-49470761D01*
X135078190Y-49506476D01*
X135066285Y-49530285D01*
X135054380Y-49542190D01*
X135030571Y-49554095D01*
X134935333Y-49554095D01*
X134935333Y-49304095D01*
X135018666Y-49304095D01*
X135042476Y-49316000D01*
X135054380Y-49327904D01*
X135066285Y-49351714D01*
X135066285Y-49375523D01*
X135054380Y-49399333D01*
X135042476Y-49411238D01*
X135018666Y-49423142D01*
X134935333Y-49423142D01*
X135173428Y-49482666D02*
X135292476Y-49482666D01*
X135149619Y-49554095D02*
X135232952Y-49304095D01*
X135316285Y-49554095D01*
D10*
X136819047Y-41652380D02*
X136819047Y-42461904D01*
X136866666Y-42557142D01*
X136914285Y-42604761D01*
X137009523Y-42652380D01*
X137200000Y-42652380D01*
X137295238Y-42604761D01*
X137342857Y-42557142D01*
X137390476Y-42461904D01*
X137390476Y-41652380D01*
X138295238Y-41985714D02*
X138295238Y-42652380D01*
X138057142Y-41604761D02*
X137819047Y-42319047D01*
X138438095Y-42319047D01*
X138819047Y-42271428D02*
X139580952Y-42271428D01*
X140628571Y-42557142D02*
X140580952Y-42604761D01*
X140438095Y-42652380D01*
X140342857Y-42652380D01*
X140200000Y-42604761D01*
X140104761Y-42509523D01*
X140057142Y-42414285D01*
X140009523Y-42223809D01*
X140009523Y-42080952D01*
X140057142Y-41890476D01*
X140104761Y-41795238D01*
X140200000Y-41700000D01*
X140342857Y-41652380D01*
X140438095Y-41652380D01*
X140580952Y-41700000D01*
X140628571Y-41747619D01*
X141057142Y-42652380D02*
X141057142Y-41652380D01*
X141057142Y-42128571D02*
X141628571Y-42128571D01*
X141628571Y-42652380D02*
X141628571Y-41652380D01*
X142295238Y-41652380D02*
X142390476Y-41652380D01*
X142485714Y-41700000D01*
X142533333Y-41747619D01*
X142580952Y-41842857D01*
X142628571Y-42033333D01*
X142628571Y-42271428D01*
X142580952Y-42461904D01*
X142533333Y-42557142D01*
X142485714Y-42604761D01*
X142390476Y-42652380D01*
X142295238Y-42652380D01*
X142200000Y-42604761D01*
X142152380Y-42557142D01*
X142104761Y-42461904D01*
X142057142Y-42271428D01*
X142057142Y-42033333D01*
X142104761Y-41842857D01*
X142152380Y-41747619D01*
X142200000Y-41700000D01*
X142295238Y-41652380D01*
D15*
X132673428Y-40804095D02*
X132673428Y-40554095D01*
X132756761Y-40732666D01*
X132840095Y-40554095D01*
X132840095Y-40804095D01*
X132947238Y-40792190D02*
X132982952Y-40804095D01*
X133042476Y-40804095D01*
X133066285Y-40792190D01*
X133078190Y-40780285D01*
X133090095Y-40756476D01*
X133090095Y-40732666D01*
X133078190Y-40708857D01*
X133066285Y-40696952D01*
X133042476Y-40685047D01*
X132994857Y-40673142D01*
X132971047Y-40661238D01*
X132959142Y-40649333D01*
X132947238Y-40625523D01*
X132947238Y-40601714D01*
X132959142Y-40577904D01*
X132971047Y-40566000D01*
X132994857Y-40554095D01*
X133054380Y-40554095D01*
X133090095Y-40566000D01*
X133316285Y-40554095D02*
X133197238Y-40554095D01*
X133185333Y-40673142D01*
X133197238Y-40661238D01*
X133221047Y-40649333D01*
X133280571Y-40649333D01*
X133304380Y-40661238D01*
X133316285Y-40673142D01*
X133328190Y-40696952D01*
X133328190Y-40756476D01*
X133316285Y-40780285D01*
X133304380Y-40792190D01*
X133280571Y-40804095D01*
X133221047Y-40804095D01*
X133197238Y-40792190D01*
X133185333Y-40780285D01*
X133471047Y-40661238D02*
X133447238Y-40649333D01*
X133435333Y-40637428D01*
X133423428Y-40613619D01*
X133423428Y-40601714D01*
X133435333Y-40577904D01*
X133447238Y-40566000D01*
X133471047Y-40554095D01*
X133518666Y-40554095D01*
X133542476Y-40566000D01*
X133554380Y-40577904D01*
X133566285Y-40601714D01*
X133566285Y-40613619D01*
X133554380Y-40637428D01*
X133542476Y-40649333D01*
X133518666Y-40661238D01*
X133471047Y-40661238D01*
X133447238Y-40673142D01*
X133435333Y-40685047D01*
X133423428Y-40708857D01*
X133423428Y-40756476D01*
X133435333Y-40780285D01*
X133447238Y-40792190D01*
X133471047Y-40804095D01*
X133518666Y-40804095D01*
X133542476Y-40792190D01*
X133554380Y-40780285D01*
X133566285Y-40756476D01*
X133566285Y-40708857D01*
X133554380Y-40685047D01*
X133542476Y-40673142D01*
X133518666Y-40661238D01*
X133649619Y-40554095D02*
X133804380Y-40554095D01*
X133721047Y-40649333D01*
X133756761Y-40649333D01*
X133780571Y-40661238D01*
X133792476Y-40673142D01*
X133804380Y-40696952D01*
X133804380Y-40756476D01*
X133792476Y-40780285D01*
X133780571Y-40792190D01*
X133756761Y-40804095D01*
X133685333Y-40804095D01*
X133661523Y-40792190D01*
X133649619Y-40780285D01*
X133887714Y-40554095D02*
X134054380Y-40554095D01*
X133947238Y-40804095D01*
X134149619Y-40708857D02*
X134340095Y-40708857D01*
X134435333Y-40554095D02*
X134590095Y-40554095D01*
X134506761Y-40649333D01*
X134542476Y-40649333D01*
X134566285Y-40661238D01*
X134578190Y-40673142D01*
X134590095Y-40696952D01*
X134590095Y-40756476D01*
X134578190Y-40780285D01*
X134566285Y-40792190D01*
X134542476Y-40804095D01*
X134471047Y-40804095D01*
X134447238Y-40792190D01*
X134435333Y-40780285D01*
X134744857Y-40554095D02*
X134768666Y-40554095D01*
X134792476Y-40566000D01*
X134804380Y-40577904D01*
X134816285Y-40601714D01*
X134828190Y-40649333D01*
X134828190Y-40708857D01*
X134816285Y-40756476D01*
X134804380Y-40780285D01*
X134792476Y-40792190D01*
X134768666Y-40804095D01*
X134744857Y-40804095D01*
X134721047Y-40792190D01*
X134709142Y-40780285D01*
X134697238Y-40756476D01*
X134685333Y-40708857D01*
X134685333Y-40649333D01*
X134697238Y-40601714D01*
X134709142Y-40577904D01*
X134721047Y-40566000D01*
X134744857Y-40554095D01*
X135018666Y-40673142D02*
X135054380Y-40685047D01*
X135066285Y-40696952D01*
X135078190Y-40720761D01*
X135078190Y-40756476D01*
X135066285Y-40780285D01*
X135054380Y-40792190D01*
X135030571Y-40804095D01*
X134935333Y-40804095D01*
X134935333Y-40554095D01*
X135018666Y-40554095D01*
X135042476Y-40566000D01*
X135054380Y-40577904D01*
X135066285Y-40601714D01*
X135066285Y-40625523D01*
X135054380Y-40649333D01*
X135042476Y-40661238D01*
X135018666Y-40673142D01*
X134935333Y-40673142D01*
X135173428Y-40732666D02*
X135292476Y-40732666D01*
X135149619Y-40804095D02*
X135232952Y-40554095D01*
X135316285Y-40804095D01*
D10*
X122219047Y-37452380D02*
X122219047Y-38261904D01*
X122266666Y-38357142D01*
X122314285Y-38404761D01*
X122409523Y-38452380D01*
X122600000Y-38452380D01*
X122695238Y-38404761D01*
X122742857Y-38357142D01*
X122790476Y-38261904D01*
X122790476Y-37452380D01*
X123742857Y-37452380D02*
X123266666Y-37452380D01*
X123219047Y-37928571D01*
X123266666Y-37880952D01*
X123361904Y-37833333D01*
X123600000Y-37833333D01*
X123695238Y-37880952D01*
X123742857Y-37928571D01*
X123790476Y-38023809D01*
X123790476Y-38261904D01*
X123742857Y-38357142D01*
X123695238Y-38404761D01*
X123600000Y-38452380D01*
X123361904Y-38452380D01*
X123266666Y-38404761D01*
X123219047Y-38357142D01*
X124219047Y-38071428D02*
X124980952Y-38071428D01*
X126028571Y-38357142D02*
X125980952Y-38404761D01*
X125838095Y-38452380D01*
X125742857Y-38452380D01*
X125600000Y-38404761D01*
X125504761Y-38309523D01*
X125457142Y-38214285D01*
X125409523Y-38023809D01*
X125409523Y-37880952D01*
X125457142Y-37690476D01*
X125504761Y-37595238D01*
X125600000Y-37500000D01*
X125742857Y-37452380D01*
X125838095Y-37452380D01*
X125980952Y-37500000D01*
X126028571Y-37547619D01*
X126457142Y-38452380D02*
X126457142Y-37452380D01*
X126457142Y-37928571D02*
X127028571Y-37928571D01*
X127028571Y-38452380D02*
X127028571Y-37452380D01*
X127409523Y-37452380D02*
X128076190Y-37452380D01*
X127647619Y-38452380D01*
D15*
X123923428Y-40804095D02*
X123923428Y-40554095D01*
X124006761Y-40732666D01*
X124090095Y-40554095D01*
X124090095Y-40804095D01*
X124197238Y-40792190D02*
X124232952Y-40804095D01*
X124292476Y-40804095D01*
X124316285Y-40792190D01*
X124328190Y-40780285D01*
X124340095Y-40756476D01*
X124340095Y-40732666D01*
X124328190Y-40708857D01*
X124316285Y-40696952D01*
X124292476Y-40685047D01*
X124244857Y-40673142D01*
X124221047Y-40661238D01*
X124209142Y-40649333D01*
X124197238Y-40625523D01*
X124197238Y-40601714D01*
X124209142Y-40577904D01*
X124221047Y-40566000D01*
X124244857Y-40554095D01*
X124304380Y-40554095D01*
X124340095Y-40566000D01*
X124566285Y-40554095D02*
X124447238Y-40554095D01*
X124435333Y-40673142D01*
X124447238Y-40661238D01*
X124471047Y-40649333D01*
X124530571Y-40649333D01*
X124554380Y-40661238D01*
X124566285Y-40673142D01*
X124578190Y-40696952D01*
X124578190Y-40756476D01*
X124566285Y-40780285D01*
X124554380Y-40792190D01*
X124530571Y-40804095D01*
X124471047Y-40804095D01*
X124447238Y-40792190D01*
X124435333Y-40780285D01*
X124721047Y-40661238D02*
X124697238Y-40649333D01*
X124685333Y-40637428D01*
X124673428Y-40613619D01*
X124673428Y-40601714D01*
X124685333Y-40577904D01*
X124697238Y-40566000D01*
X124721047Y-40554095D01*
X124768666Y-40554095D01*
X124792476Y-40566000D01*
X124804380Y-40577904D01*
X124816285Y-40601714D01*
X124816285Y-40613619D01*
X124804380Y-40637428D01*
X124792476Y-40649333D01*
X124768666Y-40661238D01*
X124721047Y-40661238D01*
X124697238Y-40673142D01*
X124685333Y-40685047D01*
X124673428Y-40708857D01*
X124673428Y-40756476D01*
X124685333Y-40780285D01*
X124697238Y-40792190D01*
X124721047Y-40804095D01*
X124768666Y-40804095D01*
X124792476Y-40792190D01*
X124804380Y-40780285D01*
X124816285Y-40756476D01*
X124816285Y-40708857D01*
X124804380Y-40685047D01*
X124792476Y-40673142D01*
X124768666Y-40661238D01*
X124899619Y-40554095D02*
X125054380Y-40554095D01*
X124971047Y-40649333D01*
X125006761Y-40649333D01*
X125030571Y-40661238D01*
X125042476Y-40673142D01*
X125054380Y-40696952D01*
X125054380Y-40756476D01*
X125042476Y-40780285D01*
X125030571Y-40792190D01*
X125006761Y-40804095D01*
X124935333Y-40804095D01*
X124911523Y-40792190D01*
X124899619Y-40780285D01*
X125137714Y-40554095D02*
X125304380Y-40554095D01*
X125197238Y-40804095D01*
X125399619Y-40708857D02*
X125590095Y-40708857D01*
X125685333Y-40554095D02*
X125840095Y-40554095D01*
X125756761Y-40649333D01*
X125792476Y-40649333D01*
X125816285Y-40661238D01*
X125828190Y-40673142D01*
X125840095Y-40696952D01*
X125840095Y-40756476D01*
X125828190Y-40780285D01*
X125816285Y-40792190D01*
X125792476Y-40804095D01*
X125721047Y-40804095D01*
X125697238Y-40792190D01*
X125685333Y-40780285D01*
X125994857Y-40554095D02*
X126018666Y-40554095D01*
X126042476Y-40566000D01*
X126054380Y-40577904D01*
X126066285Y-40601714D01*
X126078190Y-40649333D01*
X126078190Y-40708857D01*
X126066285Y-40756476D01*
X126054380Y-40780285D01*
X126042476Y-40792190D01*
X126018666Y-40804095D01*
X125994857Y-40804095D01*
X125971047Y-40792190D01*
X125959142Y-40780285D01*
X125947238Y-40756476D01*
X125935333Y-40708857D01*
X125935333Y-40649333D01*
X125947238Y-40601714D01*
X125959142Y-40577904D01*
X125971047Y-40566000D01*
X125994857Y-40554095D01*
X126268666Y-40673142D02*
X126304380Y-40685047D01*
X126316285Y-40696952D01*
X126328190Y-40720761D01*
X126328190Y-40756476D01*
X126316285Y-40780285D01*
X126304380Y-40792190D01*
X126280571Y-40804095D01*
X126185333Y-40804095D01*
X126185333Y-40554095D01*
X126268666Y-40554095D01*
X126292476Y-40566000D01*
X126304380Y-40577904D01*
X126316285Y-40601714D01*
X126316285Y-40625523D01*
X126304380Y-40649333D01*
X126292476Y-40661238D01*
X126268666Y-40673142D01*
X126185333Y-40673142D01*
X126423428Y-40732666D02*
X126542476Y-40732666D01*
X126399619Y-40804095D02*
X126482952Y-40554095D01*
X126566285Y-40804095D01*
D10*
X122219047Y-46452380D02*
X122219047Y-47261904D01*
X122266666Y-47357142D01*
X122314285Y-47404761D01*
X122409523Y-47452380D01*
X122600000Y-47452380D01*
X122695238Y-47404761D01*
X122742857Y-47357142D01*
X122790476Y-47261904D01*
X122790476Y-46452380D01*
X123695238Y-46452380D02*
X123504761Y-46452380D01*
X123409523Y-46500000D01*
X123361904Y-46547619D01*
X123266666Y-46690476D01*
X123219047Y-46880952D01*
X123219047Y-47261904D01*
X123266666Y-47357142D01*
X123314285Y-47404761D01*
X123409523Y-47452380D01*
X123600000Y-47452380D01*
X123695238Y-47404761D01*
X123742857Y-47357142D01*
X123790476Y-47261904D01*
X123790476Y-47023809D01*
X123742857Y-46928571D01*
X123695238Y-46880952D01*
X123600000Y-46833333D01*
X123409523Y-46833333D01*
X123314285Y-46880952D01*
X123266666Y-46928571D01*
X123219047Y-47023809D01*
X124219047Y-47071428D02*
X124980952Y-47071428D01*
X126028571Y-47357142D02*
X125980952Y-47404761D01*
X125838095Y-47452380D01*
X125742857Y-47452380D01*
X125600000Y-47404761D01*
X125504761Y-47309523D01*
X125457142Y-47214285D01*
X125409523Y-47023809D01*
X125409523Y-46880952D01*
X125457142Y-46690476D01*
X125504761Y-46595238D01*
X125600000Y-46500000D01*
X125742857Y-46452380D01*
X125838095Y-46452380D01*
X125980952Y-46500000D01*
X126028571Y-46547619D01*
X126457142Y-47452380D02*
X126457142Y-46452380D01*
X126457142Y-46928571D02*
X127028571Y-46928571D01*
X127028571Y-47452380D02*
X127028571Y-46452380D01*
X127933333Y-46452380D02*
X127742857Y-46452380D01*
X127647619Y-46500000D01*
X127600000Y-46547619D01*
X127504761Y-46690476D01*
X127457142Y-46880952D01*
X127457142Y-47261904D01*
X127504761Y-47357142D01*
X127552380Y-47404761D01*
X127647619Y-47452380D01*
X127838095Y-47452380D01*
X127933333Y-47404761D01*
X127980952Y-47357142D01*
X128028571Y-47261904D01*
X128028571Y-47023809D01*
X127980952Y-46928571D01*
X127933333Y-46880952D01*
X127838095Y-46833333D01*
X127647619Y-46833333D01*
X127552380Y-46880952D01*
X127504761Y-46928571D01*
X127457142Y-47023809D01*
D15*
X123923428Y-49554095D02*
X123923428Y-49304095D01*
X124006761Y-49482666D01*
X124090095Y-49304095D01*
X124090095Y-49554095D01*
X124197238Y-49542190D02*
X124232952Y-49554095D01*
X124292476Y-49554095D01*
X124316285Y-49542190D01*
X124328190Y-49530285D01*
X124340095Y-49506476D01*
X124340095Y-49482666D01*
X124328190Y-49458857D01*
X124316285Y-49446952D01*
X124292476Y-49435047D01*
X124244857Y-49423142D01*
X124221047Y-49411238D01*
X124209142Y-49399333D01*
X124197238Y-49375523D01*
X124197238Y-49351714D01*
X124209142Y-49327904D01*
X124221047Y-49316000D01*
X124244857Y-49304095D01*
X124304380Y-49304095D01*
X124340095Y-49316000D01*
X124566285Y-49304095D02*
X124447238Y-49304095D01*
X124435333Y-49423142D01*
X124447238Y-49411238D01*
X124471047Y-49399333D01*
X124530571Y-49399333D01*
X124554380Y-49411238D01*
X124566285Y-49423142D01*
X124578190Y-49446952D01*
X124578190Y-49506476D01*
X124566285Y-49530285D01*
X124554380Y-49542190D01*
X124530571Y-49554095D01*
X124471047Y-49554095D01*
X124447238Y-49542190D01*
X124435333Y-49530285D01*
X124721047Y-49411238D02*
X124697238Y-49399333D01*
X124685333Y-49387428D01*
X124673428Y-49363619D01*
X124673428Y-49351714D01*
X124685333Y-49327904D01*
X124697238Y-49316000D01*
X124721047Y-49304095D01*
X124768666Y-49304095D01*
X124792476Y-49316000D01*
X124804380Y-49327904D01*
X124816285Y-49351714D01*
X124816285Y-49363619D01*
X124804380Y-49387428D01*
X124792476Y-49399333D01*
X124768666Y-49411238D01*
X124721047Y-49411238D01*
X124697238Y-49423142D01*
X124685333Y-49435047D01*
X124673428Y-49458857D01*
X124673428Y-49506476D01*
X124685333Y-49530285D01*
X124697238Y-49542190D01*
X124721047Y-49554095D01*
X124768666Y-49554095D01*
X124792476Y-49542190D01*
X124804380Y-49530285D01*
X124816285Y-49506476D01*
X124816285Y-49458857D01*
X124804380Y-49435047D01*
X124792476Y-49423142D01*
X124768666Y-49411238D01*
X124899619Y-49304095D02*
X125054380Y-49304095D01*
X124971047Y-49399333D01*
X125006761Y-49399333D01*
X125030571Y-49411238D01*
X125042476Y-49423142D01*
X125054380Y-49446952D01*
X125054380Y-49506476D01*
X125042476Y-49530285D01*
X125030571Y-49542190D01*
X125006761Y-49554095D01*
X124935333Y-49554095D01*
X124911523Y-49542190D01*
X124899619Y-49530285D01*
X125137714Y-49304095D02*
X125304380Y-49304095D01*
X125197238Y-49554095D01*
X125399619Y-49458857D02*
X125590095Y-49458857D01*
X125685333Y-49304095D02*
X125840095Y-49304095D01*
X125756761Y-49399333D01*
X125792476Y-49399333D01*
X125816285Y-49411238D01*
X125828190Y-49423142D01*
X125840095Y-49446952D01*
X125840095Y-49506476D01*
X125828190Y-49530285D01*
X125816285Y-49542190D01*
X125792476Y-49554095D01*
X125721047Y-49554095D01*
X125697238Y-49542190D01*
X125685333Y-49530285D01*
X125994857Y-49304095D02*
X126018666Y-49304095D01*
X126042476Y-49316000D01*
X126054380Y-49327904D01*
X126066285Y-49351714D01*
X126078190Y-49399333D01*
X126078190Y-49458857D01*
X126066285Y-49506476D01*
X126054380Y-49530285D01*
X126042476Y-49542190D01*
X126018666Y-49554095D01*
X125994857Y-49554095D01*
X125971047Y-49542190D01*
X125959142Y-49530285D01*
X125947238Y-49506476D01*
X125935333Y-49458857D01*
X125935333Y-49399333D01*
X125947238Y-49351714D01*
X125959142Y-49327904D01*
X125971047Y-49316000D01*
X125994857Y-49304095D01*
X126268666Y-49423142D02*
X126304380Y-49435047D01*
X126316285Y-49446952D01*
X126328190Y-49470761D01*
X126328190Y-49506476D01*
X126316285Y-49530285D01*
X126304380Y-49542190D01*
X126280571Y-49554095D01*
X126185333Y-49554095D01*
X126185333Y-49304095D01*
X126268666Y-49304095D01*
X126292476Y-49316000D01*
X126304380Y-49327904D01*
X126316285Y-49351714D01*
X126316285Y-49375523D01*
X126304380Y-49399333D01*
X126292476Y-49411238D01*
X126268666Y-49423142D01*
X126185333Y-49423142D01*
X126423428Y-49482666D02*
X126542476Y-49482666D01*
X126399619Y-49554095D02*
X126482952Y-49304095D01*
X126566285Y-49554095D01*
D10*
X122019047Y-55052380D02*
X122019047Y-55861904D01*
X122066666Y-55957142D01*
X122114285Y-56004761D01*
X122209523Y-56052380D01*
X122400000Y-56052380D01*
X122495238Y-56004761D01*
X122542857Y-55957142D01*
X122590476Y-55861904D01*
X122590476Y-55052380D01*
X122971428Y-55052380D02*
X123638095Y-55052380D01*
X123209523Y-56052380D01*
X124019047Y-55671428D02*
X124780952Y-55671428D01*
X125828571Y-55957142D02*
X125780952Y-56004761D01*
X125638095Y-56052380D01*
X125542857Y-56052380D01*
X125400000Y-56004761D01*
X125304761Y-55909523D01*
X125257142Y-55814285D01*
X125209523Y-55623809D01*
X125209523Y-55480952D01*
X125257142Y-55290476D01*
X125304761Y-55195238D01*
X125400000Y-55100000D01*
X125542857Y-55052380D01*
X125638095Y-55052380D01*
X125780952Y-55100000D01*
X125828571Y-55147619D01*
X126257142Y-56052380D02*
X126257142Y-55052380D01*
X126257142Y-55528571D02*
X126828571Y-55528571D01*
X126828571Y-56052380D02*
X126828571Y-55052380D01*
X127780952Y-55052380D02*
X127304761Y-55052380D01*
X127257142Y-55528571D01*
X127304761Y-55480952D01*
X127400000Y-55433333D01*
X127638095Y-55433333D01*
X127733333Y-55480952D01*
X127780952Y-55528571D01*
X127828571Y-55623809D01*
X127828571Y-55861904D01*
X127780952Y-55957142D01*
X127733333Y-56004761D01*
X127638095Y-56052380D01*
X127400000Y-56052380D01*
X127304761Y-56004761D01*
X127257142Y-55957142D01*
D15*
X123923428Y-58304095D02*
X123923428Y-58054095D01*
X124006761Y-58232666D01*
X124090095Y-58054095D01*
X124090095Y-58304095D01*
X124197238Y-58292190D02*
X124232952Y-58304095D01*
X124292476Y-58304095D01*
X124316285Y-58292190D01*
X124328190Y-58280285D01*
X124340095Y-58256476D01*
X124340095Y-58232666D01*
X124328190Y-58208857D01*
X124316285Y-58196952D01*
X124292476Y-58185047D01*
X124244857Y-58173142D01*
X124221047Y-58161238D01*
X124209142Y-58149333D01*
X124197238Y-58125523D01*
X124197238Y-58101714D01*
X124209142Y-58077904D01*
X124221047Y-58066000D01*
X124244857Y-58054095D01*
X124304380Y-58054095D01*
X124340095Y-58066000D01*
X124566285Y-58054095D02*
X124447238Y-58054095D01*
X124435333Y-58173142D01*
X124447238Y-58161238D01*
X124471047Y-58149333D01*
X124530571Y-58149333D01*
X124554380Y-58161238D01*
X124566285Y-58173142D01*
X124578190Y-58196952D01*
X124578190Y-58256476D01*
X124566285Y-58280285D01*
X124554380Y-58292190D01*
X124530571Y-58304095D01*
X124471047Y-58304095D01*
X124447238Y-58292190D01*
X124435333Y-58280285D01*
X124721047Y-58161238D02*
X124697238Y-58149333D01*
X124685333Y-58137428D01*
X124673428Y-58113619D01*
X124673428Y-58101714D01*
X124685333Y-58077904D01*
X124697238Y-58066000D01*
X124721047Y-58054095D01*
X124768666Y-58054095D01*
X124792476Y-58066000D01*
X124804380Y-58077904D01*
X124816285Y-58101714D01*
X124816285Y-58113619D01*
X124804380Y-58137428D01*
X124792476Y-58149333D01*
X124768666Y-58161238D01*
X124721047Y-58161238D01*
X124697238Y-58173142D01*
X124685333Y-58185047D01*
X124673428Y-58208857D01*
X124673428Y-58256476D01*
X124685333Y-58280285D01*
X124697238Y-58292190D01*
X124721047Y-58304095D01*
X124768666Y-58304095D01*
X124792476Y-58292190D01*
X124804380Y-58280285D01*
X124816285Y-58256476D01*
X124816285Y-58208857D01*
X124804380Y-58185047D01*
X124792476Y-58173142D01*
X124768666Y-58161238D01*
X124899619Y-58054095D02*
X125054380Y-58054095D01*
X124971047Y-58149333D01*
X125006761Y-58149333D01*
X125030571Y-58161238D01*
X125042476Y-58173142D01*
X125054380Y-58196952D01*
X125054380Y-58256476D01*
X125042476Y-58280285D01*
X125030571Y-58292190D01*
X125006761Y-58304095D01*
X124935333Y-58304095D01*
X124911523Y-58292190D01*
X124899619Y-58280285D01*
X125137714Y-58054095D02*
X125304380Y-58054095D01*
X125197238Y-58304095D01*
X125399619Y-58208857D02*
X125590095Y-58208857D01*
X125685333Y-58054095D02*
X125840095Y-58054095D01*
X125756761Y-58149333D01*
X125792476Y-58149333D01*
X125816285Y-58161238D01*
X125828190Y-58173142D01*
X125840095Y-58196952D01*
X125840095Y-58256476D01*
X125828190Y-58280285D01*
X125816285Y-58292190D01*
X125792476Y-58304095D01*
X125721047Y-58304095D01*
X125697238Y-58292190D01*
X125685333Y-58280285D01*
X125994857Y-58054095D02*
X126018666Y-58054095D01*
X126042476Y-58066000D01*
X126054380Y-58077904D01*
X126066285Y-58101714D01*
X126078190Y-58149333D01*
X126078190Y-58208857D01*
X126066285Y-58256476D01*
X126054380Y-58280285D01*
X126042476Y-58292190D01*
X126018666Y-58304095D01*
X125994857Y-58304095D01*
X125971047Y-58292190D01*
X125959142Y-58280285D01*
X125947238Y-58256476D01*
X125935333Y-58208857D01*
X125935333Y-58149333D01*
X125947238Y-58101714D01*
X125959142Y-58077904D01*
X125971047Y-58066000D01*
X125994857Y-58054095D01*
X126268666Y-58173142D02*
X126304380Y-58185047D01*
X126316285Y-58196952D01*
X126328190Y-58220761D01*
X126328190Y-58256476D01*
X126316285Y-58280285D01*
X126304380Y-58292190D01*
X126280571Y-58304095D01*
X126185333Y-58304095D01*
X126185333Y-58054095D01*
X126268666Y-58054095D01*
X126292476Y-58066000D01*
X126304380Y-58077904D01*
X126316285Y-58101714D01*
X126316285Y-58125523D01*
X126304380Y-58149333D01*
X126292476Y-58161238D01*
X126268666Y-58173142D01*
X126185333Y-58173142D01*
X126423428Y-58232666D02*
X126542476Y-58232666D01*
X126399619Y-58304095D02*
X126482952Y-58054095D01*
X126566285Y-58304095D01*
D10*
X122219047Y-63652380D02*
X122219047Y-64461904D01*
X122266666Y-64557142D01*
X122314285Y-64604761D01*
X122409523Y-64652380D01*
X122600000Y-64652380D01*
X122695238Y-64604761D01*
X122742857Y-64557142D01*
X122790476Y-64461904D01*
X122790476Y-63652380D01*
X123409523Y-64080952D02*
X123314285Y-64033333D01*
X123266666Y-63985714D01*
X123219047Y-63890476D01*
X123219047Y-63842857D01*
X123266666Y-63747619D01*
X123314285Y-63700000D01*
X123409523Y-63652380D01*
X123600000Y-63652380D01*
X123695238Y-63700000D01*
X123742857Y-63747619D01*
X123790476Y-63842857D01*
X123790476Y-63890476D01*
X123742857Y-63985714D01*
X123695238Y-64033333D01*
X123600000Y-64080952D01*
X123409523Y-64080952D01*
X123314285Y-64128571D01*
X123266666Y-64176190D01*
X123219047Y-64271428D01*
X123219047Y-64461904D01*
X123266666Y-64557142D01*
X123314285Y-64604761D01*
X123409523Y-64652380D01*
X123600000Y-64652380D01*
X123695238Y-64604761D01*
X123742857Y-64557142D01*
X123790476Y-64461904D01*
X123790476Y-64271428D01*
X123742857Y-64176190D01*
X123695238Y-64128571D01*
X123600000Y-64080952D01*
X124219047Y-64271428D02*
X124980952Y-64271428D01*
X126028571Y-64557142D02*
X125980952Y-64604761D01*
X125838095Y-64652380D01*
X125742857Y-64652380D01*
X125600000Y-64604761D01*
X125504761Y-64509523D01*
X125457142Y-64414285D01*
X125409523Y-64223809D01*
X125409523Y-64080952D01*
X125457142Y-63890476D01*
X125504761Y-63795238D01*
X125600000Y-63700000D01*
X125742857Y-63652380D01*
X125838095Y-63652380D01*
X125980952Y-63700000D01*
X126028571Y-63747619D01*
X126457142Y-64652380D02*
X126457142Y-63652380D01*
X126457142Y-64128571D02*
X127028571Y-64128571D01*
X127028571Y-64652380D02*
X127028571Y-63652380D01*
X127933333Y-63985714D02*
X127933333Y-64652380D01*
X127695238Y-63604761D02*
X127457142Y-64319047D01*
X128076190Y-64319047D01*
D15*
X123923428Y-67054095D02*
X123923428Y-66804095D01*
X124006761Y-66982666D01*
X124090095Y-66804095D01*
X124090095Y-67054095D01*
X124197238Y-67042190D02*
X124232952Y-67054095D01*
X124292476Y-67054095D01*
X124316285Y-67042190D01*
X124328190Y-67030285D01*
X124340095Y-67006476D01*
X124340095Y-66982666D01*
X124328190Y-66958857D01*
X124316285Y-66946952D01*
X124292476Y-66935047D01*
X124244857Y-66923142D01*
X124221047Y-66911238D01*
X124209142Y-66899333D01*
X124197238Y-66875523D01*
X124197238Y-66851714D01*
X124209142Y-66827904D01*
X124221047Y-66816000D01*
X124244857Y-66804095D01*
X124304380Y-66804095D01*
X124340095Y-66816000D01*
X124566285Y-66804095D02*
X124447238Y-66804095D01*
X124435333Y-66923142D01*
X124447238Y-66911238D01*
X124471047Y-66899333D01*
X124530571Y-66899333D01*
X124554380Y-66911238D01*
X124566285Y-66923142D01*
X124578190Y-66946952D01*
X124578190Y-67006476D01*
X124566285Y-67030285D01*
X124554380Y-67042190D01*
X124530571Y-67054095D01*
X124471047Y-67054095D01*
X124447238Y-67042190D01*
X124435333Y-67030285D01*
X124721047Y-66911238D02*
X124697238Y-66899333D01*
X124685333Y-66887428D01*
X124673428Y-66863619D01*
X124673428Y-66851714D01*
X124685333Y-66827904D01*
X124697238Y-66816000D01*
X124721047Y-66804095D01*
X124768666Y-66804095D01*
X124792476Y-66816000D01*
X124804380Y-66827904D01*
X124816285Y-66851714D01*
X124816285Y-66863619D01*
X124804380Y-66887428D01*
X124792476Y-66899333D01*
X124768666Y-66911238D01*
X124721047Y-66911238D01*
X124697238Y-66923142D01*
X124685333Y-66935047D01*
X124673428Y-66958857D01*
X124673428Y-67006476D01*
X124685333Y-67030285D01*
X124697238Y-67042190D01*
X124721047Y-67054095D01*
X124768666Y-67054095D01*
X124792476Y-67042190D01*
X124804380Y-67030285D01*
X124816285Y-67006476D01*
X124816285Y-66958857D01*
X124804380Y-66935047D01*
X124792476Y-66923142D01*
X124768666Y-66911238D01*
X124899619Y-66804095D02*
X125054380Y-66804095D01*
X124971047Y-66899333D01*
X125006761Y-66899333D01*
X125030571Y-66911238D01*
X125042476Y-66923142D01*
X125054380Y-66946952D01*
X125054380Y-67006476D01*
X125042476Y-67030285D01*
X125030571Y-67042190D01*
X125006761Y-67054095D01*
X124935333Y-67054095D01*
X124911523Y-67042190D01*
X124899619Y-67030285D01*
X125137714Y-66804095D02*
X125304380Y-66804095D01*
X125197238Y-67054095D01*
X125399619Y-66958857D02*
X125590095Y-66958857D01*
X125685333Y-66804095D02*
X125840095Y-66804095D01*
X125756761Y-66899333D01*
X125792476Y-66899333D01*
X125816285Y-66911238D01*
X125828190Y-66923142D01*
X125840095Y-66946952D01*
X125840095Y-67006476D01*
X125828190Y-67030285D01*
X125816285Y-67042190D01*
X125792476Y-67054095D01*
X125721047Y-67054095D01*
X125697238Y-67042190D01*
X125685333Y-67030285D01*
X125994857Y-66804095D02*
X126018666Y-66804095D01*
X126042476Y-66816000D01*
X126054380Y-66827904D01*
X126066285Y-66851714D01*
X126078190Y-66899333D01*
X126078190Y-66958857D01*
X126066285Y-67006476D01*
X126054380Y-67030285D01*
X126042476Y-67042190D01*
X126018666Y-67054095D01*
X125994857Y-67054095D01*
X125971047Y-67042190D01*
X125959142Y-67030285D01*
X125947238Y-67006476D01*
X125935333Y-66958857D01*
X125935333Y-66899333D01*
X125947238Y-66851714D01*
X125959142Y-66827904D01*
X125971047Y-66816000D01*
X125994857Y-66804095D01*
X126268666Y-66923142D02*
X126304380Y-66935047D01*
X126316285Y-66946952D01*
X126328190Y-66970761D01*
X126328190Y-67006476D01*
X126316285Y-67030285D01*
X126304380Y-67042190D01*
X126280571Y-67054095D01*
X126185333Y-67054095D01*
X126185333Y-66804095D01*
X126268666Y-66804095D01*
X126292476Y-66816000D01*
X126304380Y-66827904D01*
X126316285Y-66851714D01*
X126316285Y-66875523D01*
X126304380Y-66899333D01*
X126292476Y-66911238D01*
X126268666Y-66923142D01*
X126185333Y-66923142D01*
X126423428Y-66982666D02*
X126542476Y-66982666D01*
X126399619Y-67054095D02*
X126482952Y-66804095D01*
X126566285Y-67054095D01*
D10*
X120625000Y-89339285D02*
X120625000Y-89875000D01*
X120589285Y-89982142D01*
X120517857Y-90053571D01*
X120410714Y-90089285D01*
X120339285Y-90089285D01*
X120982142Y-90089285D02*
X120982142Y-89339285D01*
X121267857Y-89339285D01*
X121339285Y-89375000D01*
X121375000Y-89410714D01*
X121410714Y-89482142D01*
X121410714Y-89589285D01*
X121375000Y-89660714D01*
X121339285Y-89696428D01*
X121267857Y-89732142D01*
X120982142Y-89732142D01*
X122125000Y-90089285D02*
X121696428Y-90089285D01*
X121910714Y-90089285D02*
X121910714Y-89339285D01*
X121839285Y-89446428D01*
X121767857Y-89517857D01*
X121696428Y-89553571D01*
X119166666Y-90702380D02*
X119785714Y-90702380D01*
X119452380Y-91083333D01*
X119595238Y-91083333D01*
X119690476Y-91130952D01*
X119738095Y-91178571D01*
X119785714Y-91273809D01*
X119785714Y-91511904D01*
X119738095Y-91607142D01*
X119690476Y-91654761D01*
X119595238Y-91702380D01*
X119309523Y-91702380D01*
X119214285Y-91654761D01*
X119166666Y-91607142D01*
X119785714Y-94702380D02*
X119214285Y-94702380D01*
X119500000Y-94702380D02*
X119500000Y-93702380D01*
X119404761Y-93845238D01*
X119309523Y-93940476D01*
X119214285Y-93988095D01*
X130616666Y-97812380D02*
X130616666Y-98526666D01*
X130569047Y-98669523D01*
X130473809Y-98764761D01*
X130330952Y-98812380D01*
X130235714Y-98812380D01*
X131616666Y-98812380D02*
X131045238Y-98812380D01*
X131330952Y-98812380D02*
X131330952Y-97812380D01*
X131235714Y-97955238D01*
X131140476Y-98050476D01*
X131045238Y-98098095D01*
%LPC*%
G36*
G01*
X125625000Y-44150000D02*
X125625000Y-43650000D01*
G75*
G02*
X125850000Y-43425000I225000J0D01*
G01*
X126300000Y-43425000D01*
G75*
G02*
X126525000Y-43650000I0J-225000D01*
G01*
X126525000Y-44150000D01*
G75*
G02*
X126300000Y-44375000I-225000J0D01*
G01*
X125850000Y-44375000D01*
G75*
G02*
X125625000Y-44150000I0J225000D01*
G01*
G37*
G36*
G01*
X124075000Y-44150000D02*
X124075000Y-43650000D01*
G75*
G02*
X124300000Y-43425000I225000J0D01*
G01*
X124750000Y-43425000D01*
G75*
G02*
X124975000Y-43650000I0J-225000D01*
G01*
X124975000Y-44150000D01*
G75*
G02*
X124750000Y-44375000I-225000J0D01*
G01*
X124300000Y-44375000D01*
G75*
G02*
X124075000Y-44150000I0J225000D01*
G01*
G37*
G36*
G01*
X124075000Y-52850000D02*
X124075000Y-52350000D01*
G75*
G02*
X124300000Y-52125000I225000J0D01*
G01*
X124750000Y-52125000D01*
G75*
G02*
X124975000Y-52350000I0J-225000D01*
G01*
X124975000Y-52850000D01*
G75*
G02*
X124750000Y-53075000I-225000J0D01*
G01*
X124300000Y-53075000D01*
G75*
G02*
X124075000Y-52850000I0J225000D01*
G01*
G37*
G36*
G01*
X125625000Y-52850000D02*
X125625000Y-52350000D01*
G75*
G02*
X125850000Y-52125000I225000J0D01*
G01*
X126300000Y-52125000D01*
G75*
G02*
X126525000Y-52350000I0J-225000D01*
G01*
X126525000Y-52850000D01*
G75*
G02*
X126300000Y-53075000I-225000J0D01*
G01*
X125850000Y-53075000D01*
G75*
G02*
X125625000Y-52850000I0J225000D01*
G01*
G37*
G36*
G01*
X125825000Y-61550000D02*
X125825000Y-61050000D01*
G75*
G02*
X126050000Y-60825000I225000J0D01*
G01*
X126500000Y-60825000D01*
G75*
G02*
X126725000Y-61050000I0J-225000D01*
G01*
X126725000Y-61550000D01*
G75*
G02*
X126500000Y-61775000I-225000J0D01*
G01*
X126050000Y-61775000D01*
G75*
G02*
X125825000Y-61550000I0J225000D01*
G01*
G37*
G36*
G01*
X124275000Y-61550000D02*
X124275000Y-61050000D01*
G75*
G02*
X124500000Y-60825000I225000J0D01*
G01*
X124950000Y-60825000D01*
G75*
G02*
X125175000Y-61050000I0J-225000D01*
G01*
X125175000Y-61550000D01*
G75*
G02*
X124950000Y-61775000I-225000J0D01*
G01*
X124500000Y-61775000D01*
G75*
G02*
X124275000Y-61550000I0J225000D01*
G01*
G37*
G36*
G01*
X124175000Y-70250000D02*
X124175000Y-69750000D01*
G75*
G02*
X124400000Y-69525000I225000J0D01*
G01*
X124850000Y-69525000D01*
G75*
G02*
X125075000Y-69750000I0J-225000D01*
G01*
X125075000Y-70250000D01*
G75*
G02*
X124850000Y-70475000I-225000J0D01*
G01*
X124400000Y-70475000D01*
G75*
G02*
X124175000Y-70250000I0J225000D01*
G01*
G37*
G36*
G01*
X125725000Y-70250000D02*
X125725000Y-69750000D01*
G75*
G02*
X125950000Y-69525000I225000J0D01*
G01*
X126400000Y-69525000D01*
G75*
G02*
X126625000Y-69750000I0J-225000D01*
G01*
X126625000Y-70250000D01*
G75*
G02*
X126400000Y-70475000I-225000J0D01*
G01*
X125950000Y-70475000D01*
G75*
G02*
X125725000Y-70250000I0J225000D01*
G01*
G37*
G36*
G01*
X133775000Y-37550000D02*
X133775000Y-38050000D01*
G75*
G02*
X133550000Y-38275000I-225000J0D01*
G01*
X133100000Y-38275000D01*
G75*
G02*
X132875000Y-38050000I0J225000D01*
G01*
X132875000Y-37550000D01*
G75*
G02*
X133100000Y-37325000I225000J0D01*
G01*
X133550000Y-37325000D01*
G75*
G02*
X133775000Y-37550000I0J-225000D01*
G01*
G37*
G36*
G01*
X135325000Y-37550000D02*
X135325000Y-38050000D01*
G75*
G02*
X135100000Y-38275000I-225000J0D01*
G01*
X134650000Y-38275000D01*
G75*
G02*
X134425000Y-38050000I0J225000D01*
G01*
X134425000Y-37550000D01*
G75*
G02*
X134650000Y-37325000I225000J0D01*
G01*
X135100000Y-37325000D01*
G75*
G02*
X135325000Y-37550000I0J-225000D01*
G01*
G37*
G36*
G01*
X135325000Y-46350000D02*
X135325000Y-46850000D01*
G75*
G02*
X135100000Y-47075000I-225000J0D01*
G01*
X134650000Y-47075000D01*
G75*
G02*
X134425000Y-46850000I0J225000D01*
G01*
X134425000Y-46350000D01*
G75*
G02*
X134650000Y-46125000I225000J0D01*
G01*
X135100000Y-46125000D01*
G75*
G02*
X135325000Y-46350000I0J-225000D01*
G01*
G37*
G36*
G01*
X133775000Y-46350000D02*
X133775000Y-46850000D01*
G75*
G02*
X133550000Y-47075000I-225000J0D01*
G01*
X133100000Y-47075000D01*
G75*
G02*
X132875000Y-46850000I0J225000D01*
G01*
X132875000Y-46350000D01*
G75*
G02*
X133100000Y-46125000I225000J0D01*
G01*
X133550000Y-46125000D01*
G75*
G02*
X133775000Y-46350000I0J-225000D01*
G01*
G37*
G36*
G01*
X135225000Y-55050000D02*
X135225000Y-55550000D01*
G75*
G02*
X135000000Y-55775000I-225000J0D01*
G01*
X134550000Y-55775000D01*
G75*
G02*
X134325000Y-55550000I0J225000D01*
G01*
X134325000Y-55050000D01*
G75*
G02*
X134550000Y-54825000I225000J0D01*
G01*
X135000000Y-54825000D01*
G75*
G02*
X135225000Y-55050000I0J-225000D01*
G01*
G37*
G36*
G01*
X133675000Y-55050000D02*
X133675000Y-55550000D01*
G75*
G02*
X133450000Y-55775000I-225000J0D01*
G01*
X133000000Y-55775000D01*
G75*
G02*
X132775000Y-55550000I0J225000D01*
G01*
X132775000Y-55050000D01*
G75*
G02*
X133000000Y-54825000I225000J0D01*
G01*
X133450000Y-54825000D01*
G75*
G02*
X133675000Y-55050000I0J-225000D01*
G01*
G37*
G36*
G01*
X133775000Y-63650000D02*
X133775000Y-64150000D01*
G75*
G02*
X133550000Y-64375000I-225000J0D01*
G01*
X133100000Y-64375000D01*
G75*
G02*
X132875000Y-64150000I0J225000D01*
G01*
X132875000Y-63650000D01*
G75*
G02*
X133100000Y-63425000I225000J0D01*
G01*
X133550000Y-63425000D01*
G75*
G02*
X133775000Y-63650000I0J-225000D01*
G01*
G37*
G36*
G01*
X135325000Y-63650000D02*
X135325000Y-64150000D01*
G75*
G02*
X135100000Y-64375000I-225000J0D01*
G01*
X134650000Y-64375000D01*
G75*
G02*
X134425000Y-64150000I0J225000D01*
G01*
X134425000Y-63650000D01*
G75*
G02*
X134650000Y-63425000I225000J0D01*
G01*
X135100000Y-63425000D01*
G75*
G02*
X135325000Y-63650000I0J-225000D01*
G01*
G37*
G36*
G01*
X132075000Y-85950000D02*
X132075000Y-85450000D01*
G75*
G02*
X132300000Y-85225000I225000J0D01*
G01*
X132750000Y-85225000D01*
G75*
G02*
X132975000Y-85450000I0J-225000D01*
G01*
X132975000Y-85950000D01*
G75*
G02*
X132750000Y-86175000I-225000J0D01*
G01*
X132300000Y-86175000D01*
G75*
G02*
X132075000Y-85950000I0J225000D01*
G01*
G37*
G36*
G01*
X133625000Y-85950000D02*
X133625000Y-85450000D01*
G75*
G02*
X133850000Y-85225000I225000J0D01*
G01*
X134300000Y-85225000D01*
G75*
G02*
X134525000Y-85450000I0J-225000D01*
G01*
X134525000Y-85950000D01*
G75*
G02*
X134300000Y-86175000I-225000J0D01*
G01*
X133850000Y-86175000D01*
G75*
G02*
X133625000Y-85950000I0J225000D01*
G01*
G37*
G36*
G01*
X133625000Y-87750000D02*
X133625000Y-87250000D01*
G75*
G02*
X133850000Y-87025000I225000J0D01*
G01*
X134300000Y-87025000D01*
G75*
G02*
X134525000Y-87250000I0J-225000D01*
G01*
X134525000Y-87750000D01*
G75*
G02*
X134300000Y-87975000I-225000J0D01*
G01*
X133850000Y-87975000D01*
G75*
G02*
X133625000Y-87750000I0J225000D01*
G01*
G37*
G36*
G01*
X132075000Y-87750000D02*
X132075000Y-87250000D01*
G75*
G02*
X132300000Y-87025000I225000J0D01*
G01*
X132750000Y-87025000D01*
G75*
G02*
X132975000Y-87250000I0J-225000D01*
G01*
X132975000Y-87750000D01*
G75*
G02*
X132750000Y-87975000I-225000J0D01*
G01*
X132300000Y-87975000D01*
G75*
G02*
X132075000Y-87750000I0J225000D01*
G01*
G37*
G36*
G01*
X138775000Y-74522958D02*
X138775000Y-75072958D01*
G75*
G02*
X138575000Y-75272958I-200000J0D01*
G01*
X138175000Y-75272958D01*
G75*
G02*
X137975000Y-75072958I0J200000D01*
G01*
X137975000Y-74522958D01*
G75*
G02*
X138175000Y-74322958I200000J0D01*
G01*
X138575000Y-74322958D01*
G75*
G02*
X138775000Y-74522958I0J-200000D01*
G01*
G37*
G36*
G01*
X140425000Y-74522958D02*
X140425000Y-75072958D01*
G75*
G02*
X140225000Y-75272958I-200000J0D01*
G01*
X139825000Y-75272958D01*
G75*
G02*
X139625000Y-75072958I0J200000D01*
G01*
X139625000Y-74522958D01*
G75*
G02*
X139825000Y-74322958I200000J0D01*
G01*
X140225000Y-74322958D01*
G75*
G02*
X140425000Y-74522958I0J-200000D01*
G01*
G37*
G36*
G01*
X140425000Y-72482142D02*
X140425000Y-73032142D01*
G75*
G02*
X140225000Y-73232142I-200000J0D01*
G01*
X139825000Y-73232142D01*
G75*
G02*
X139625000Y-73032142I0J200000D01*
G01*
X139625000Y-72482142D01*
G75*
G02*
X139825000Y-72282142I200000J0D01*
G01*
X140225000Y-72282142D01*
G75*
G02*
X140425000Y-72482142I0J-200000D01*
G01*
G37*
G36*
G01*
X138775000Y-72482142D02*
X138775000Y-73032142D01*
G75*
G02*
X138575000Y-73232142I-200000J0D01*
G01*
X138175000Y-73232142D01*
G75*
G02*
X137975000Y-73032142I0J200000D01*
G01*
X137975000Y-72482142D01*
G75*
G02*
X138175000Y-72282142I200000J0D01*
G01*
X138575000Y-72282142D01*
G75*
G02*
X138775000Y-72482142I0J-200000D01*
G01*
G37*
G36*
G01*
X140425000Y-78604590D02*
X140425000Y-79154590D01*
G75*
G02*
X140225000Y-79354590I-200000J0D01*
G01*
X139825000Y-79354590D01*
G75*
G02*
X139625000Y-79154590I0J200000D01*
G01*
X139625000Y-78604590D01*
G75*
G02*
X139825000Y-78404590I200000J0D01*
G01*
X140225000Y-78404590D01*
G75*
G02*
X140425000Y-78604590I0J-200000D01*
G01*
G37*
G36*
G01*
X138775000Y-78604590D02*
X138775000Y-79154590D01*
G75*
G02*
X138575000Y-79354590I-200000J0D01*
G01*
X138175000Y-79354590D01*
G75*
G02*
X137975000Y-79154590I0J200000D01*
G01*
X137975000Y-78604590D01*
G75*
G02*
X138175000Y-78404590I200000J0D01*
G01*
X138575000Y-78404590D01*
G75*
G02*
X138775000Y-78604590I0J-200000D01*
G01*
G37*
G36*
G01*
X138775000Y-76563774D02*
X138775000Y-77113774D01*
G75*
G02*
X138575000Y-77313774I-200000J0D01*
G01*
X138175000Y-77313774D01*
G75*
G02*
X137975000Y-77113774I0J200000D01*
G01*
X137975000Y-76563774D01*
G75*
G02*
X138175000Y-76363774I200000J0D01*
G01*
X138575000Y-76363774D01*
G75*
G02*
X138775000Y-76563774I0J-200000D01*
G01*
G37*
G36*
G01*
X140425000Y-76563774D02*
X140425000Y-77113774D01*
G75*
G02*
X140225000Y-77313774I-200000J0D01*
G01*
X139825000Y-77313774D01*
G75*
G02*
X139625000Y-77113774I0J200000D01*
G01*
X139625000Y-76563774D01*
G75*
G02*
X139825000Y-76363774I200000J0D01*
G01*
X140225000Y-76363774D01*
G75*
G02*
X140425000Y-76563774I0J-200000D01*
G01*
G37*
G36*
G01*
X138775000Y-82686222D02*
X138775000Y-83236222D01*
G75*
G02*
X138575000Y-83436222I-200000J0D01*
G01*
X138175000Y-83436222D01*
G75*
G02*
X137975000Y-83236222I0J200000D01*
G01*
X137975000Y-82686222D01*
G75*
G02*
X138175000Y-82486222I200000J0D01*
G01*
X138575000Y-82486222D01*
G75*
G02*
X138775000Y-82686222I0J-200000D01*
G01*
G37*
G36*
G01*
X140425000Y-82686222D02*
X140425000Y-83236222D01*
G75*
G02*
X140225000Y-83436222I-200000J0D01*
G01*
X139825000Y-83436222D01*
G75*
G02*
X139625000Y-83236222I0J200000D01*
G01*
X139625000Y-82686222D01*
G75*
G02*
X139825000Y-82486222I200000J0D01*
G01*
X140225000Y-82486222D01*
G75*
G02*
X140425000Y-82686222I0J-200000D01*
G01*
G37*
G36*
G01*
X140425000Y-80645406D02*
X140425000Y-81195406D01*
G75*
G02*
X140225000Y-81395406I-200000J0D01*
G01*
X139825000Y-81395406D01*
G75*
G02*
X139625000Y-81195406I0J200000D01*
G01*
X139625000Y-80645406D01*
G75*
G02*
X139825000Y-80445406I200000J0D01*
G01*
X140225000Y-80445406D01*
G75*
G02*
X140425000Y-80645406I0J-200000D01*
G01*
G37*
G36*
G01*
X138775000Y-80645406D02*
X138775000Y-81195406D01*
G75*
G02*
X138575000Y-81395406I-200000J0D01*
G01*
X138175000Y-81395406D01*
G75*
G02*
X137975000Y-81195406I0J200000D01*
G01*
X137975000Y-80645406D01*
G75*
G02*
X138175000Y-80445406I200000J0D01*
G01*
X138575000Y-80445406D01*
G75*
G02*
X138775000Y-80645406I0J-200000D01*
G01*
G37*
G36*
G01*
X140425000Y-86767857D02*
X140425000Y-87317857D01*
G75*
G02*
X140225000Y-87517857I-200000J0D01*
G01*
X139825000Y-87517857D01*
G75*
G02*
X139625000Y-87317857I0J200000D01*
G01*
X139625000Y-86767857D01*
G75*
G02*
X139825000Y-86567857I200000J0D01*
G01*
X140225000Y-86567857D01*
G75*
G02*
X140425000Y-86767857I0J-200000D01*
G01*
G37*
G36*
G01*
X138775000Y-86767857D02*
X138775000Y-87317857D01*
G75*
G02*
X138575000Y-87517857I-200000J0D01*
G01*
X138175000Y-87517857D01*
G75*
G02*
X137975000Y-87317857I0J200000D01*
G01*
X137975000Y-86767857D01*
G75*
G02*
X138175000Y-86567857I200000J0D01*
G01*
X138575000Y-86567857D01*
G75*
G02*
X138775000Y-86767857I0J-200000D01*
G01*
G37*
G36*
G01*
X138775000Y-84727038D02*
X138775000Y-85277038D01*
G75*
G02*
X138575000Y-85477038I-200000J0D01*
G01*
X138175000Y-85477038D01*
G75*
G02*
X137975000Y-85277038I0J200000D01*
G01*
X137975000Y-84727038D01*
G75*
G02*
X138175000Y-84527038I200000J0D01*
G01*
X138575000Y-84527038D01*
G75*
G02*
X138775000Y-84727038I0J-200000D01*
G01*
G37*
G36*
G01*
X140425000Y-84727038D02*
X140425000Y-85277038D01*
G75*
G02*
X140225000Y-85477038I-200000J0D01*
G01*
X139825000Y-85477038D01*
G75*
G02*
X139625000Y-85277038I0J200000D01*
G01*
X139625000Y-84727038D01*
G75*
G02*
X139825000Y-84527038I200000J0D01*
G01*
X140225000Y-84527038D01*
G75*
G02*
X140425000Y-84727038I0J-200000D01*
G01*
G37*
G36*
G01*
X119675000Y-85276016D02*
X119675000Y-84726016D01*
G75*
G02*
X119875000Y-84526016I200000J0D01*
G01*
X120275000Y-84526016D01*
G75*
G02*
X120475000Y-84726016I0J-200000D01*
G01*
X120475000Y-85276016D01*
G75*
G02*
X120275000Y-85476016I-200000J0D01*
G01*
X119875000Y-85476016D01*
G75*
G02*
X119675000Y-85276016I0J200000D01*
G01*
G37*
G36*
G01*
X121325000Y-85276016D02*
X121325000Y-84726016D01*
G75*
G02*
X121525000Y-84526016I200000J0D01*
G01*
X121925000Y-84526016D01*
G75*
G02*
X122125000Y-84726016I0J-200000D01*
G01*
X122125000Y-85276016D01*
G75*
G02*
X121925000Y-85476016I-200000J0D01*
G01*
X121525000Y-85476016D01*
G75*
G02*
X121325000Y-85276016I0J200000D01*
G01*
G37*
G36*
G01*
X119675000Y-87317857D02*
X119675000Y-86767857D01*
G75*
G02*
X119875000Y-86567857I200000J0D01*
G01*
X120275000Y-86567857D01*
G75*
G02*
X120475000Y-86767857I0J-200000D01*
G01*
X120475000Y-87317857D01*
G75*
G02*
X120275000Y-87517857I-200000J0D01*
G01*
X119875000Y-87517857D01*
G75*
G02*
X119675000Y-87317857I0J200000D01*
G01*
G37*
G36*
G01*
X121325000Y-87317857D02*
X121325000Y-86767857D01*
G75*
G02*
X121525000Y-86567857I200000J0D01*
G01*
X121925000Y-86567857D01*
G75*
G02*
X122125000Y-86767857I0J-200000D01*
G01*
X122125000Y-87317857D01*
G75*
G02*
X121925000Y-87517857I-200000J0D01*
G01*
X121525000Y-87517857D01*
G75*
G02*
X121325000Y-87317857I0J200000D01*
G01*
G37*
G36*
G01*
X119675000Y-81192344D02*
X119675000Y-80642344D01*
G75*
G02*
X119875000Y-80442344I200000J0D01*
G01*
X120275000Y-80442344D01*
G75*
G02*
X120475000Y-80642344I0J-200000D01*
G01*
X120475000Y-81192344D01*
G75*
G02*
X120275000Y-81392344I-200000J0D01*
G01*
X119875000Y-81392344D01*
G75*
G02*
X119675000Y-81192344I0J200000D01*
G01*
G37*
G36*
G01*
X121325000Y-81192344D02*
X121325000Y-80642344D01*
G75*
G02*
X121525000Y-80442344I200000J0D01*
G01*
X121925000Y-80442344D01*
G75*
G02*
X122125000Y-80642344I0J-200000D01*
G01*
X122125000Y-81192344D01*
G75*
G02*
X121925000Y-81392344I-200000J0D01*
G01*
X121525000Y-81392344D01*
G75*
G02*
X121325000Y-81192344I0J200000D01*
G01*
G37*
G36*
G01*
X121325000Y-83234180D02*
X121325000Y-82684180D01*
G75*
G02*
X121525000Y-82484180I200000J0D01*
G01*
X121925000Y-82484180D01*
G75*
G02*
X122125000Y-82684180I0J-200000D01*
G01*
X122125000Y-83234180D01*
G75*
G02*
X121925000Y-83434180I-200000J0D01*
G01*
X121525000Y-83434180D01*
G75*
G02*
X121325000Y-83234180I0J200000D01*
G01*
G37*
G36*
G01*
X119675000Y-83234180D02*
X119675000Y-82684180D01*
G75*
G02*
X119875000Y-82484180I200000J0D01*
G01*
X120275000Y-82484180D01*
G75*
G02*
X120475000Y-82684180I0J-200000D01*
G01*
X120475000Y-83234180D01*
G75*
G02*
X120275000Y-83434180I-200000J0D01*
G01*
X119875000Y-83434180D01*
G75*
G02*
X119675000Y-83234180I0J200000D01*
G01*
G37*
G36*
G01*
X119675000Y-77108672D02*
X119675000Y-76558672D01*
G75*
G02*
X119875000Y-76358672I200000J0D01*
G01*
X120275000Y-76358672D01*
G75*
G02*
X120475000Y-76558672I0J-200000D01*
G01*
X120475000Y-77108672D01*
G75*
G02*
X120275000Y-77308672I-200000J0D01*
G01*
X119875000Y-77308672D01*
G75*
G02*
X119675000Y-77108672I0J200000D01*
G01*
G37*
G36*
G01*
X121325000Y-77108672D02*
X121325000Y-76558672D01*
G75*
G02*
X121525000Y-76358672I200000J0D01*
G01*
X121925000Y-76358672D01*
G75*
G02*
X122125000Y-76558672I0J-200000D01*
G01*
X122125000Y-77108672D01*
G75*
G02*
X121925000Y-77308672I-200000J0D01*
G01*
X121525000Y-77308672D01*
G75*
G02*
X121325000Y-77108672I0J200000D01*
G01*
G37*
G36*
G01*
X121325000Y-79150508D02*
X121325000Y-78600508D01*
G75*
G02*
X121525000Y-78400508I200000J0D01*
G01*
X121925000Y-78400508D01*
G75*
G02*
X122125000Y-78600508I0J-200000D01*
G01*
X122125000Y-79150508D01*
G75*
G02*
X121925000Y-79350508I-200000J0D01*
G01*
X121525000Y-79350508D01*
G75*
G02*
X121325000Y-79150508I0J200000D01*
G01*
G37*
G36*
G01*
X119675000Y-79150508D02*
X119675000Y-78600508D01*
G75*
G02*
X119875000Y-78400508I200000J0D01*
G01*
X120275000Y-78400508D01*
G75*
G02*
X120475000Y-78600508I0J-200000D01*
G01*
X120475000Y-79150508D01*
G75*
G02*
X120275000Y-79350508I-200000J0D01*
G01*
X119875000Y-79350508D01*
G75*
G02*
X119675000Y-79150508I0J200000D01*
G01*
G37*
G36*
G01*
X119675000Y-73025000D02*
X119675000Y-72475000D01*
G75*
G02*
X119875000Y-72275000I200000J0D01*
G01*
X120275000Y-72275000D01*
G75*
G02*
X120475000Y-72475000I0J-200000D01*
G01*
X120475000Y-73025000D01*
G75*
G02*
X120275000Y-73225000I-200000J0D01*
G01*
X119875000Y-73225000D01*
G75*
G02*
X119675000Y-73025000I0J200000D01*
G01*
G37*
G36*
G01*
X121325000Y-73025000D02*
X121325000Y-72475000D01*
G75*
G02*
X121525000Y-72275000I200000J0D01*
G01*
X121925000Y-72275000D01*
G75*
G02*
X122125000Y-72475000I0J-200000D01*
G01*
X122125000Y-73025000D01*
G75*
G02*
X121925000Y-73225000I-200000J0D01*
G01*
X121525000Y-73225000D01*
G75*
G02*
X121325000Y-73025000I0J200000D01*
G01*
G37*
G36*
G01*
X121325000Y-75066836D02*
X121325000Y-74516836D01*
G75*
G02*
X121525000Y-74316836I200000J0D01*
G01*
X121925000Y-74316836D01*
G75*
G02*
X122125000Y-74516836I0J-200000D01*
G01*
X122125000Y-75066836D01*
G75*
G02*
X121925000Y-75266836I-200000J0D01*
G01*
X121525000Y-75266836D01*
G75*
G02*
X121325000Y-75066836I0J200000D01*
G01*
G37*
G36*
G01*
X119675000Y-75066836D02*
X119675000Y-74516836D01*
G75*
G02*
X119875000Y-74316836I200000J0D01*
G01*
X120275000Y-74316836D01*
G75*
G02*
X120475000Y-74516836I0J-200000D01*
G01*
X120475000Y-75066836D01*
G75*
G02*
X120275000Y-75266836I-200000J0D01*
G01*
X119875000Y-75266836D01*
G75*
G02*
X119675000Y-75066836I0J200000D01*
G01*
G37*
G36*
G01*
X126725000Y-88225000D02*
X126725000Y-88775000D01*
G75*
G02*
X126525000Y-88975000I-200000J0D01*
G01*
X126125000Y-88975000D01*
G75*
G02*
X125925000Y-88775000I0J200000D01*
G01*
X125925000Y-88225000D01*
G75*
G02*
X126125000Y-88025000I200000J0D01*
G01*
X126525000Y-88025000D01*
G75*
G02*
X126725000Y-88225000I0J-200000D01*
G01*
G37*
G36*
G01*
X125075000Y-88225000D02*
X125075000Y-88775000D01*
G75*
G02*
X124875000Y-88975000I-200000J0D01*
G01*
X124475000Y-88975000D01*
G75*
G02*
X124275000Y-88775000I0J200000D01*
G01*
X124275000Y-88225000D01*
G75*
G02*
X124475000Y-88025000I200000J0D01*
G01*
X124875000Y-88025000D01*
G75*
G02*
X125075000Y-88225000I0J-200000D01*
G01*
G37*
G36*
G01*
X125075000Y-86225000D02*
X125075000Y-86775000D01*
G75*
G02*
X124875000Y-86975000I-200000J0D01*
G01*
X124475000Y-86975000D01*
G75*
G02*
X124275000Y-86775000I0J200000D01*
G01*
X124275000Y-86225000D01*
G75*
G02*
X124475000Y-86025000I200000J0D01*
G01*
X124875000Y-86025000D01*
G75*
G02*
X125075000Y-86225000I0J-200000D01*
G01*
G37*
G36*
G01*
X126725000Y-86225000D02*
X126725000Y-86775000D01*
G75*
G02*
X126525000Y-86975000I-200000J0D01*
G01*
X126125000Y-86975000D01*
G75*
G02*
X125925000Y-86775000I0J200000D01*
G01*
X125925000Y-86225000D01*
G75*
G02*
X126125000Y-86025000I200000J0D01*
G01*
X126525000Y-86025000D01*
G75*
G02*
X126725000Y-86225000I0J-200000D01*
G01*
G37*
G36*
G01*
X129075000Y-87725000D02*
X129075000Y-88275000D01*
G75*
G02*
X128875000Y-88475000I-200000J0D01*
G01*
X128475000Y-88475000D01*
G75*
G02*
X128275000Y-88275000I0J200000D01*
G01*
X128275000Y-87725000D01*
G75*
G02*
X128475000Y-87525000I200000J0D01*
G01*
X128875000Y-87525000D01*
G75*
G02*
X129075000Y-87725000I0J-200000D01*
G01*
G37*
G36*
G01*
X130725000Y-87725000D02*
X130725000Y-88275000D01*
G75*
G02*
X130525000Y-88475000I-200000J0D01*
G01*
X130125000Y-88475000D01*
G75*
G02*
X129925000Y-88275000I0J200000D01*
G01*
X129925000Y-87725000D01*
G75*
G02*
X130125000Y-87525000I200000J0D01*
G01*
X130525000Y-87525000D01*
G75*
G02*
X130725000Y-87725000I0J-200000D01*
G01*
G37*
D16*
X133600000Y-83475000D03*
X133600000Y-82825000D03*
X133600000Y-82175000D03*
X133600000Y-81525000D03*
X133600000Y-80875000D03*
X133600000Y-80225000D03*
X133600000Y-79575000D03*
X133600000Y-78925000D03*
X133600000Y-78275000D03*
X133600000Y-77625000D03*
X133600000Y-76975000D03*
X133600000Y-76325000D03*
X126400000Y-76325000D03*
X126400000Y-76975000D03*
X126400000Y-77625000D03*
X126400000Y-78275000D03*
X126400000Y-78925000D03*
X126400000Y-79575000D03*
X126400000Y-80225000D03*
X126400000Y-80875000D03*
X126400000Y-81525000D03*
X126400000Y-82175000D03*
X126400000Y-82825000D03*
X126400000Y-83475000D03*
D17*
X135062600Y-65950400D03*
X135062600Y-67950400D03*
X133062600Y-65950400D03*
X133062600Y-67950400D03*
X135062600Y-57200400D03*
X135062600Y-59200400D03*
X133062600Y-57200400D03*
X133062600Y-59200400D03*
X135062600Y-48450400D03*
X135062600Y-50450400D03*
X133062600Y-48450400D03*
X133062600Y-50450400D03*
X133062600Y-41700400D03*
X133062600Y-39700400D03*
X135062600Y-41700400D03*
X135062600Y-39700400D03*
X124312600Y-41700400D03*
X124312600Y-39700400D03*
X126312600Y-41700400D03*
X126312600Y-39700400D03*
X126312600Y-48450400D03*
X126312600Y-50450400D03*
X124312600Y-48450400D03*
X124312600Y-50450400D03*
X124312600Y-59200400D03*
X124312600Y-57200400D03*
X126312600Y-59200400D03*
X126312600Y-57200400D03*
X124312600Y-67950400D03*
X124312600Y-65950400D03*
X126312600Y-67950400D03*
X126312600Y-65950400D03*
D18*
X116900000Y-36400000D03*
X142000000Y-36400000D03*
X142000000Y-95400000D03*
X116900000Y-95400000D03*
D19*
X121250000Y-94000000D03*
X121250000Y-91400000D03*
X121250000Y-92700000D03*
D20*
X137300000Y-94200000D03*
D21*
X134760000Y-94200000D03*
X132220000Y-94200000D03*
X129680000Y-94200000D03*
X127140000Y-94200000D03*
X124600000Y-94200000D03*
M02*
