%TF.GenerationSoftware,KiCad,Pcbnew,(5.1.12)-1*%
%TF.CreationDate,2022-08-18T11:36:15-07:00*%
%TF.ProjectId,HighPressureSensorArray,48696768-5072-4657-9373-75726553656e,rev?*%
%TF.SameCoordinates,Original*%
%TF.FileFunction,Soldermask,Top*%
%TF.FilePolarity,Negative*%
%FSLAX46Y46*%
G04 Gerber Fmt 4.6, Leading zero omitted, Abs format (unit mm)*
G04 Created by KiCad (PCBNEW (5.1.12)-1) date 2022-08-18 11:36:15*
%MOMM*%
%LPD*%
G01*
G04 APERTURE LIST*
%ADD10R,1.750000X0.450000*%
%ADD11R,1.300000X1.300000*%
%ADD12C,2.100000*%
%ADD13R,1.500000X1.000000*%
%ADD14R,2.200000X2.200000*%
%ADD15C,2.200000*%
G04 APERTURE END LIST*
G36*
G01*
X125625000Y-44150000D02*
X125625000Y-43650000D01*
G75*
G02*
X125850000Y-43425000I225000J0D01*
G01*
X126300000Y-43425000D01*
G75*
G02*
X126525000Y-43650000I0J-225000D01*
G01*
X126525000Y-44150000D01*
G75*
G02*
X126300000Y-44375000I-225000J0D01*
G01*
X125850000Y-44375000D01*
G75*
G02*
X125625000Y-44150000I0J225000D01*
G01*
G37*
G36*
G01*
X124075000Y-44150000D02*
X124075000Y-43650000D01*
G75*
G02*
X124300000Y-43425000I225000J0D01*
G01*
X124750000Y-43425000D01*
G75*
G02*
X124975000Y-43650000I0J-225000D01*
G01*
X124975000Y-44150000D01*
G75*
G02*
X124750000Y-44375000I-225000J0D01*
G01*
X124300000Y-44375000D01*
G75*
G02*
X124075000Y-44150000I0J225000D01*
G01*
G37*
G36*
G01*
X124075000Y-52850000D02*
X124075000Y-52350000D01*
G75*
G02*
X124300000Y-52125000I225000J0D01*
G01*
X124750000Y-52125000D01*
G75*
G02*
X124975000Y-52350000I0J-225000D01*
G01*
X124975000Y-52850000D01*
G75*
G02*
X124750000Y-53075000I-225000J0D01*
G01*
X124300000Y-53075000D01*
G75*
G02*
X124075000Y-52850000I0J225000D01*
G01*
G37*
G36*
G01*
X125625000Y-52850000D02*
X125625000Y-52350000D01*
G75*
G02*
X125850000Y-52125000I225000J0D01*
G01*
X126300000Y-52125000D01*
G75*
G02*
X126525000Y-52350000I0J-225000D01*
G01*
X126525000Y-52850000D01*
G75*
G02*
X126300000Y-53075000I-225000J0D01*
G01*
X125850000Y-53075000D01*
G75*
G02*
X125625000Y-52850000I0J225000D01*
G01*
G37*
G36*
G01*
X125825000Y-61550000D02*
X125825000Y-61050000D01*
G75*
G02*
X126050000Y-60825000I225000J0D01*
G01*
X126500000Y-60825000D01*
G75*
G02*
X126725000Y-61050000I0J-225000D01*
G01*
X126725000Y-61550000D01*
G75*
G02*
X126500000Y-61775000I-225000J0D01*
G01*
X126050000Y-61775000D01*
G75*
G02*
X125825000Y-61550000I0J225000D01*
G01*
G37*
G36*
G01*
X124275000Y-61550000D02*
X124275000Y-61050000D01*
G75*
G02*
X124500000Y-60825000I225000J0D01*
G01*
X124950000Y-60825000D01*
G75*
G02*
X125175000Y-61050000I0J-225000D01*
G01*
X125175000Y-61550000D01*
G75*
G02*
X124950000Y-61775000I-225000J0D01*
G01*
X124500000Y-61775000D01*
G75*
G02*
X124275000Y-61550000I0J225000D01*
G01*
G37*
G36*
G01*
X124175000Y-70250000D02*
X124175000Y-69750000D01*
G75*
G02*
X124400000Y-69525000I225000J0D01*
G01*
X124850000Y-69525000D01*
G75*
G02*
X125075000Y-69750000I0J-225000D01*
G01*
X125075000Y-70250000D01*
G75*
G02*
X124850000Y-70475000I-225000J0D01*
G01*
X124400000Y-70475000D01*
G75*
G02*
X124175000Y-70250000I0J225000D01*
G01*
G37*
G36*
G01*
X125725000Y-70250000D02*
X125725000Y-69750000D01*
G75*
G02*
X125950000Y-69525000I225000J0D01*
G01*
X126400000Y-69525000D01*
G75*
G02*
X126625000Y-69750000I0J-225000D01*
G01*
X126625000Y-70250000D01*
G75*
G02*
X126400000Y-70475000I-225000J0D01*
G01*
X125950000Y-70475000D01*
G75*
G02*
X125725000Y-70250000I0J225000D01*
G01*
G37*
G36*
G01*
X133775000Y-37550000D02*
X133775000Y-38050000D01*
G75*
G02*
X133550000Y-38275000I-225000J0D01*
G01*
X133100000Y-38275000D01*
G75*
G02*
X132875000Y-38050000I0J225000D01*
G01*
X132875000Y-37550000D01*
G75*
G02*
X133100000Y-37325000I225000J0D01*
G01*
X133550000Y-37325000D01*
G75*
G02*
X133775000Y-37550000I0J-225000D01*
G01*
G37*
G36*
G01*
X135325000Y-37550000D02*
X135325000Y-38050000D01*
G75*
G02*
X135100000Y-38275000I-225000J0D01*
G01*
X134650000Y-38275000D01*
G75*
G02*
X134425000Y-38050000I0J225000D01*
G01*
X134425000Y-37550000D01*
G75*
G02*
X134650000Y-37325000I225000J0D01*
G01*
X135100000Y-37325000D01*
G75*
G02*
X135325000Y-37550000I0J-225000D01*
G01*
G37*
G36*
G01*
X135325000Y-46350000D02*
X135325000Y-46850000D01*
G75*
G02*
X135100000Y-47075000I-225000J0D01*
G01*
X134650000Y-47075000D01*
G75*
G02*
X134425000Y-46850000I0J225000D01*
G01*
X134425000Y-46350000D01*
G75*
G02*
X134650000Y-46125000I225000J0D01*
G01*
X135100000Y-46125000D01*
G75*
G02*
X135325000Y-46350000I0J-225000D01*
G01*
G37*
G36*
G01*
X133775000Y-46350000D02*
X133775000Y-46850000D01*
G75*
G02*
X133550000Y-47075000I-225000J0D01*
G01*
X133100000Y-47075000D01*
G75*
G02*
X132875000Y-46850000I0J225000D01*
G01*
X132875000Y-46350000D01*
G75*
G02*
X133100000Y-46125000I225000J0D01*
G01*
X133550000Y-46125000D01*
G75*
G02*
X133775000Y-46350000I0J-225000D01*
G01*
G37*
G36*
G01*
X135225000Y-55050000D02*
X135225000Y-55550000D01*
G75*
G02*
X135000000Y-55775000I-225000J0D01*
G01*
X134550000Y-55775000D01*
G75*
G02*
X134325000Y-55550000I0J225000D01*
G01*
X134325000Y-55050000D01*
G75*
G02*
X134550000Y-54825000I225000J0D01*
G01*
X135000000Y-54825000D01*
G75*
G02*
X135225000Y-55050000I0J-225000D01*
G01*
G37*
G36*
G01*
X133675000Y-55050000D02*
X133675000Y-55550000D01*
G75*
G02*
X133450000Y-55775000I-225000J0D01*
G01*
X133000000Y-55775000D01*
G75*
G02*
X132775000Y-55550000I0J225000D01*
G01*
X132775000Y-55050000D01*
G75*
G02*
X133000000Y-54825000I225000J0D01*
G01*
X133450000Y-54825000D01*
G75*
G02*
X133675000Y-55050000I0J-225000D01*
G01*
G37*
G36*
G01*
X133775000Y-63650000D02*
X133775000Y-64150000D01*
G75*
G02*
X133550000Y-64375000I-225000J0D01*
G01*
X133100000Y-64375000D01*
G75*
G02*
X132875000Y-64150000I0J225000D01*
G01*
X132875000Y-63650000D01*
G75*
G02*
X133100000Y-63425000I225000J0D01*
G01*
X133550000Y-63425000D01*
G75*
G02*
X133775000Y-63650000I0J-225000D01*
G01*
G37*
G36*
G01*
X135325000Y-63650000D02*
X135325000Y-64150000D01*
G75*
G02*
X135100000Y-64375000I-225000J0D01*
G01*
X134650000Y-64375000D01*
G75*
G02*
X134425000Y-64150000I0J225000D01*
G01*
X134425000Y-63650000D01*
G75*
G02*
X134650000Y-63425000I225000J0D01*
G01*
X135100000Y-63425000D01*
G75*
G02*
X135325000Y-63650000I0J-225000D01*
G01*
G37*
G36*
G01*
X132075000Y-85950000D02*
X132075000Y-85450000D01*
G75*
G02*
X132300000Y-85225000I225000J0D01*
G01*
X132750000Y-85225000D01*
G75*
G02*
X132975000Y-85450000I0J-225000D01*
G01*
X132975000Y-85950000D01*
G75*
G02*
X132750000Y-86175000I-225000J0D01*
G01*
X132300000Y-86175000D01*
G75*
G02*
X132075000Y-85950000I0J225000D01*
G01*
G37*
G36*
G01*
X133625000Y-85950000D02*
X133625000Y-85450000D01*
G75*
G02*
X133850000Y-85225000I225000J0D01*
G01*
X134300000Y-85225000D01*
G75*
G02*
X134525000Y-85450000I0J-225000D01*
G01*
X134525000Y-85950000D01*
G75*
G02*
X134300000Y-86175000I-225000J0D01*
G01*
X133850000Y-86175000D01*
G75*
G02*
X133625000Y-85950000I0J225000D01*
G01*
G37*
G36*
G01*
X133625000Y-87750000D02*
X133625000Y-87250000D01*
G75*
G02*
X133850000Y-87025000I225000J0D01*
G01*
X134300000Y-87025000D01*
G75*
G02*
X134525000Y-87250000I0J-225000D01*
G01*
X134525000Y-87750000D01*
G75*
G02*
X134300000Y-87975000I-225000J0D01*
G01*
X133850000Y-87975000D01*
G75*
G02*
X133625000Y-87750000I0J225000D01*
G01*
G37*
G36*
G01*
X132075000Y-87750000D02*
X132075000Y-87250000D01*
G75*
G02*
X132300000Y-87025000I225000J0D01*
G01*
X132750000Y-87025000D01*
G75*
G02*
X132975000Y-87250000I0J-225000D01*
G01*
X132975000Y-87750000D01*
G75*
G02*
X132750000Y-87975000I-225000J0D01*
G01*
X132300000Y-87975000D01*
G75*
G02*
X132075000Y-87750000I0J225000D01*
G01*
G37*
G36*
G01*
X138775000Y-74522958D02*
X138775000Y-75072958D01*
G75*
G02*
X138575000Y-75272958I-200000J0D01*
G01*
X138175000Y-75272958D01*
G75*
G02*
X137975000Y-75072958I0J200000D01*
G01*
X137975000Y-74522958D01*
G75*
G02*
X138175000Y-74322958I200000J0D01*
G01*
X138575000Y-74322958D01*
G75*
G02*
X138775000Y-74522958I0J-200000D01*
G01*
G37*
G36*
G01*
X140425000Y-74522958D02*
X140425000Y-75072958D01*
G75*
G02*
X140225000Y-75272958I-200000J0D01*
G01*
X139825000Y-75272958D01*
G75*
G02*
X139625000Y-75072958I0J200000D01*
G01*
X139625000Y-74522958D01*
G75*
G02*
X139825000Y-74322958I200000J0D01*
G01*
X140225000Y-74322958D01*
G75*
G02*
X140425000Y-74522958I0J-200000D01*
G01*
G37*
G36*
G01*
X140425000Y-72482142D02*
X140425000Y-73032142D01*
G75*
G02*
X140225000Y-73232142I-200000J0D01*
G01*
X139825000Y-73232142D01*
G75*
G02*
X139625000Y-73032142I0J200000D01*
G01*
X139625000Y-72482142D01*
G75*
G02*
X139825000Y-72282142I200000J0D01*
G01*
X140225000Y-72282142D01*
G75*
G02*
X140425000Y-72482142I0J-200000D01*
G01*
G37*
G36*
G01*
X138775000Y-72482142D02*
X138775000Y-73032142D01*
G75*
G02*
X138575000Y-73232142I-200000J0D01*
G01*
X138175000Y-73232142D01*
G75*
G02*
X137975000Y-73032142I0J200000D01*
G01*
X137975000Y-72482142D01*
G75*
G02*
X138175000Y-72282142I200000J0D01*
G01*
X138575000Y-72282142D01*
G75*
G02*
X138775000Y-72482142I0J-200000D01*
G01*
G37*
G36*
G01*
X140425000Y-78604590D02*
X140425000Y-79154590D01*
G75*
G02*
X140225000Y-79354590I-200000J0D01*
G01*
X139825000Y-79354590D01*
G75*
G02*
X139625000Y-79154590I0J200000D01*
G01*
X139625000Y-78604590D01*
G75*
G02*
X139825000Y-78404590I200000J0D01*
G01*
X140225000Y-78404590D01*
G75*
G02*
X140425000Y-78604590I0J-200000D01*
G01*
G37*
G36*
G01*
X138775000Y-78604590D02*
X138775000Y-79154590D01*
G75*
G02*
X138575000Y-79354590I-200000J0D01*
G01*
X138175000Y-79354590D01*
G75*
G02*
X137975000Y-79154590I0J200000D01*
G01*
X137975000Y-78604590D01*
G75*
G02*
X138175000Y-78404590I200000J0D01*
G01*
X138575000Y-78404590D01*
G75*
G02*
X138775000Y-78604590I0J-200000D01*
G01*
G37*
G36*
G01*
X138775000Y-76563774D02*
X138775000Y-77113774D01*
G75*
G02*
X138575000Y-77313774I-200000J0D01*
G01*
X138175000Y-77313774D01*
G75*
G02*
X137975000Y-77113774I0J200000D01*
G01*
X137975000Y-76563774D01*
G75*
G02*
X138175000Y-76363774I200000J0D01*
G01*
X138575000Y-76363774D01*
G75*
G02*
X138775000Y-76563774I0J-200000D01*
G01*
G37*
G36*
G01*
X140425000Y-76563774D02*
X140425000Y-77113774D01*
G75*
G02*
X140225000Y-77313774I-200000J0D01*
G01*
X139825000Y-77313774D01*
G75*
G02*
X139625000Y-77113774I0J200000D01*
G01*
X139625000Y-76563774D01*
G75*
G02*
X139825000Y-76363774I200000J0D01*
G01*
X140225000Y-76363774D01*
G75*
G02*
X140425000Y-76563774I0J-200000D01*
G01*
G37*
G36*
G01*
X138775000Y-82686222D02*
X138775000Y-83236222D01*
G75*
G02*
X138575000Y-83436222I-200000J0D01*
G01*
X138175000Y-83436222D01*
G75*
G02*
X137975000Y-83236222I0J200000D01*
G01*
X137975000Y-82686222D01*
G75*
G02*
X138175000Y-82486222I200000J0D01*
G01*
X138575000Y-82486222D01*
G75*
G02*
X138775000Y-82686222I0J-200000D01*
G01*
G37*
G36*
G01*
X140425000Y-82686222D02*
X140425000Y-83236222D01*
G75*
G02*
X140225000Y-83436222I-200000J0D01*
G01*
X139825000Y-83436222D01*
G75*
G02*
X139625000Y-83236222I0J200000D01*
G01*
X139625000Y-82686222D01*
G75*
G02*
X139825000Y-82486222I200000J0D01*
G01*
X140225000Y-82486222D01*
G75*
G02*
X140425000Y-82686222I0J-200000D01*
G01*
G37*
G36*
G01*
X140425000Y-80645406D02*
X140425000Y-81195406D01*
G75*
G02*
X140225000Y-81395406I-200000J0D01*
G01*
X139825000Y-81395406D01*
G75*
G02*
X139625000Y-81195406I0J200000D01*
G01*
X139625000Y-80645406D01*
G75*
G02*
X139825000Y-80445406I200000J0D01*
G01*
X140225000Y-80445406D01*
G75*
G02*
X140425000Y-80645406I0J-200000D01*
G01*
G37*
G36*
G01*
X138775000Y-80645406D02*
X138775000Y-81195406D01*
G75*
G02*
X138575000Y-81395406I-200000J0D01*
G01*
X138175000Y-81395406D01*
G75*
G02*
X137975000Y-81195406I0J200000D01*
G01*
X137975000Y-80645406D01*
G75*
G02*
X138175000Y-80445406I200000J0D01*
G01*
X138575000Y-80445406D01*
G75*
G02*
X138775000Y-80645406I0J-200000D01*
G01*
G37*
G36*
G01*
X140425000Y-86767857D02*
X140425000Y-87317857D01*
G75*
G02*
X140225000Y-87517857I-200000J0D01*
G01*
X139825000Y-87517857D01*
G75*
G02*
X139625000Y-87317857I0J200000D01*
G01*
X139625000Y-86767857D01*
G75*
G02*
X139825000Y-86567857I200000J0D01*
G01*
X140225000Y-86567857D01*
G75*
G02*
X140425000Y-86767857I0J-200000D01*
G01*
G37*
G36*
G01*
X138775000Y-86767857D02*
X138775000Y-87317857D01*
G75*
G02*
X138575000Y-87517857I-200000J0D01*
G01*
X138175000Y-87517857D01*
G75*
G02*
X137975000Y-87317857I0J200000D01*
G01*
X137975000Y-86767857D01*
G75*
G02*
X138175000Y-86567857I200000J0D01*
G01*
X138575000Y-86567857D01*
G75*
G02*
X138775000Y-86767857I0J-200000D01*
G01*
G37*
G36*
G01*
X138775000Y-84727038D02*
X138775000Y-85277038D01*
G75*
G02*
X138575000Y-85477038I-200000J0D01*
G01*
X138175000Y-85477038D01*
G75*
G02*
X137975000Y-85277038I0J200000D01*
G01*
X137975000Y-84727038D01*
G75*
G02*
X138175000Y-84527038I200000J0D01*
G01*
X138575000Y-84527038D01*
G75*
G02*
X138775000Y-84727038I0J-200000D01*
G01*
G37*
G36*
G01*
X140425000Y-84727038D02*
X140425000Y-85277038D01*
G75*
G02*
X140225000Y-85477038I-200000J0D01*
G01*
X139825000Y-85477038D01*
G75*
G02*
X139625000Y-85277038I0J200000D01*
G01*
X139625000Y-84727038D01*
G75*
G02*
X139825000Y-84527038I200000J0D01*
G01*
X140225000Y-84527038D01*
G75*
G02*
X140425000Y-84727038I0J-200000D01*
G01*
G37*
G36*
G01*
X119675000Y-85276016D02*
X119675000Y-84726016D01*
G75*
G02*
X119875000Y-84526016I200000J0D01*
G01*
X120275000Y-84526016D01*
G75*
G02*
X120475000Y-84726016I0J-200000D01*
G01*
X120475000Y-85276016D01*
G75*
G02*
X120275000Y-85476016I-200000J0D01*
G01*
X119875000Y-85476016D01*
G75*
G02*
X119675000Y-85276016I0J200000D01*
G01*
G37*
G36*
G01*
X121325000Y-85276016D02*
X121325000Y-84726016D01*
G75*
G02*
X121525000Y-84526016I200000J0D01*
G01*
X121925000Y-84526016D01*
G75*
G02*
X122125000Y-84726016I0J-200000D01*
G01*
X122125000Y-85276016D01*
G75*
G02*
X121925000Y-85476016I-200000J0D01*
G01*
X121525000Y-85476016D01*
G75*
G02*
X121325000Y-85276016I0J200000D01*
G01*
G37*
G36*
G01*
X119675000Y-87317857D02*
X119675000Y-86767857D01*
G75*
G02*
X119875000Y-86567857I200000J0D01*
G01*
X120275000Y-86567857D01*
G75*
G02*
X120475000Y-86767857I0J-200000D01*
G01*
X120475000Y-87317857D01*
G75*
G02*
X120275000Y-87517857I-200000J0D01*
G01*
X119875000Y-87517857D01*
G75*
G02*
X119675000Y-87317857I0J200000D01*
G01*
G37*
G36*
G01*
X121325000Y-87317857D02*
X121325000Y-86767857D01*
G75*
G02*
X121525000Y-86567857I200000J0D01*
G01*
X121925000Y-86567857D01*
G75*
G02*
X122125000Y-86767857I0J-200000D01*
G01*
X122125000Y-87317857D01*
G75*
G02*
X121925000Y-87517857I-200000J0D01*
G01*
X121525000Y-87517857D01*
G75*
G02*
X121325000Y-87317857I0J200000D01*
G01*
G37*
G36*
G01*
X119675000Y-81192344D02*
X119675000Y-80642344D01*
G75*
G02*
X119875000Y-80442344I200000J0D01*
G01*
X120275000Y-80442344D01*
G75*
G02*
X120475000Y-80642344I0J-200000D01*
G01*
X120475000Y-81192344D01*
G75*
G02*
X120275000Y-81392344I-200000J0D01*
G01*
X119875000Y-81392344D01*
G75*
G02*
X119675000Y-81192344I0J200000D01*
G01*
G37*
G36*
G01*
X121325000Y-81192344D02*
X121325000Y-80642344D01*
G75*
G02*
X121525000Y-80442344I200000J0D01*
G01*
X121925000Y-80442344D01*
G75*
G02*
X122125000Y-80642344I0J-200000D01*
G01*
X122125000Y-81192344D01*
G75*
G02*
X121925000Y-81392344I-200000J0D01*
G01*
X121525000Y-81392344D01*
G75*
G02*
X121325000Y-81192344I0J200000D01*
G01*
G37*
G36*
G01*
X121325000Y-83234180D02*
X121325000Y-82684180D01*
G75*
G02*
X121525000Y-82484180I200000J0D01*
G01*
X121925000Y-82484180D01*
G75*
G02*
X122125000Y-82684180I0J-200000D01*
G01*
X122125000Y-83234180D01*
G75*
G02*
X121925000Y-83434180I-200000J0D01*
G01*
X121525000Y-83434180D01*
G75*
G02*
X121325000Y-83234180I0J200000D01*
G01*
G37*
G36*
G01*
X119675000Y-83234180D02*
X119675000Y-82684180D01*
G75*
G02*
X119875000Y-82484180I200000J0D01*
G01*
X120275000Y-82484180D01*
G75*
G02*
X120475000Y-82684180I0J-200000D01*
G01*
X120475000Y-83234180D01*
G75*
G02*
X120275000Y-83434180I-200000J0D01*
G01*
X119875000Y-83434180D01*
G75*
G02*
X119675000Y-83234180I0J200000D01*
G01*
G37*
G36*
G01*
X119675000Y-77108672D02*
X119675000Y-76558672D01*
G75*
G02*
X119875000Y-76358672I200000J0D01*
G01*
X120275000Y-76358672D01*
G75*
G02*
X120475000Y-76558672I0J-200000D01*
G01*
X120475000Y-77108672D01*
G75*
G02*
X120275000Y-77308672I-200000J0D01*
G01*
X119875000Y-77308672D01*
G75*
G02*
X119675000Y-77108672I0J200000D01*
G01*
G37*
G36*
G01*
X121325000Y-77108672D02*
X121325000Y-76558672D01*
G75*
G02*
X121525000Y-76358672I200000J0D01*
G01*
X121925000Y-76358672D01*
G75*
G02*
X122125000Y-76558672I0J-200000D01*
G01*
X122125000Y-77108672D01*
G75*
G02*
X121925000Y-77308672I-200000J0D01*
G01*
X121525000Y-77308672D01*
G75*
G02*
X121325000Y-77108672I0J200000D01*
G01*
G37*
G36*
G01*
X121325000Y-79150508D02*
X121325000Y-78600508D01*
G75*
G02*
X121525000Y-78400508I200000J0D01*
G01*
X121925000Y-78400508D01*
G75*
G02*
X122125000Y-78600508I0J-200000D01*
G01*
X122125000Y-79150508D01*
G75*
G02*
X121925000Y-79350508I-200000J0D01*
G01*
X121525000Y-79350508D01*
G75*
G02*
X121325000Y-79150508I0J200000D01*
G01*
G37*
G36*
G01*
X119675000Y-79150508D02*
X119675000Y-78600508D01*
G75*
G02*
X119875000Y-78400508I200000J0D01*
G01*
X120275000Y-78400508D01*
G75*
G02*
X120475000Y-78600508I0J-200000D01*
G01*
X120475000Y-79150508D01*
G75*
G02*
X120275000Y-79350508I-200000J0D01*
G01*
X119875000Y-79350508D01*
G75*
G02*
X119675000Y-79150508I0J200000D01*
G01*
G37*
G36*
G01*
X119675000Y-73025000D02*
X119675000Y-72475000D01*
G75*
G02*
X119875000Y-72275000I200000J0D01*
G01*
X120275000Y-72275000D01*
G75*
G02*
X120475000Y-72475000I0J-200000D01*
G01*
X120475000Y-73025000D01*
G75*
G02*
X120275000Y-73225000I-200000J0D01*
G01*
X119875000Y-73225000D01*
G75*
G02*
X119675000Y-73025000I0J200000D01*
G01*
G37*
G36*
G01*
X121325000Y-73025000D02*
X121325000Y-72475000D01*
G75*
G02*
X121525000Y-72275000I200000J0D01*
G01*
X121925000Y-72275000D01*
G75*
G02*
X122125000Y-72475000I0J-200000D01*
G01*
X122125000Y-73025000D01*
G75*
G02*
X121925000Y-73225000I-200000J0D01*
G01*
X121525000Y-73225000D01*
G75*
G02*
X121325000Y-73025000I0J200000D01*
G01*
G37*
G36*
G01*
X121325000Y-75066836D02*
X121325000Y-74516836D01*
G75*
G02*
X121525000Y-74316836I200000J0D01*
G01*
X121925000Y-74316836D01*
G75*
G02*
X122125000Y-74516836I0J-200000D01*
G01*
X122125000Y-75066836D01*
G75*
G02*
X121925000Y-75266836I-200000J0D01*
G01*
X121525000Y-75266836D01*
G75*
G02*
X121325000Y-75066836I0J200000D01*
G01*
G37*
G36*
G01*
X119675000Y-75066836D02*
X119675000Y-74516836D01*
G75*
G02*
X119875000Y-74316836I200000J0D01*
G01*
X120275000Y-74316836D01*
G75*
G02*
X120475000Y-74516836I0J-200000D01*
G01*
X120475000Y-75066836D01*
G75*
G02*
X120275000Y-75266836I-200000J0D01*
G01*
X119875000Y-75266836D01*
G75*
G02*
X119675000Y-75066836I0J200000D01*
G01*
G37*
G36*
G01*
X126725000Y-88225000D02*
X126725000Y-88775000D01*
G75*
G02*
X126525000Y-88975000I-200000J0D01*
G01*
X126125000Y-88975000D01*
G75*
G02*
X125925000Y-88775000I0J200000D01*
G01*
X125925000Y-88225000D01*
G75*
G02*
X126125000Y-88025000I200000J0D01*
G01*
X126525000Y-88025000D01*
G75*
G02*
X126725000Y-88225000I0J-200000D01*
G01*
G37*
G36*
G01*
X125075000Y-88225000D02*
X125075000Y-88775000D01*
G75*
G02*
X124875000Y-88975000I-200000J0D01*
G01*
X124475000Y-88975000D01*
G75*
G02*
X124275000Y-88775000I0J200000D01*
G01*
X124275000Y-88225000D01*
G75*
G02*
X124475000Y-88025000I200000J0D01*
G01*
X124875000Y-88025000D01*
G75*
G02*
X125075000Y-88225000I0J-200000D01*
G01*
G37*
G36*
G01*
X125075000Y-86225000D02*
X125075000Y-86775000D01*
G75*
G02*
X124875000Y-86975000I-200000J0D01*
G01*
X124475000Y-86975000D01*
G75*
G02*
X124275000Y-86775000I0J200000D01*
G01*
X124275000Y-86225000D01*
G75*
G02*
X124475000Y-86025000I200000J0D01*
G01*
X124875000Y-86025000D01*
G75*
G02*
X125075000Y-86225000I0J-200000D01*
G01*
G37*
G36*
G01*
X126725000Y-86225000D02*
X126725000Y-86775000D01*
G75*
G02*
X126525000Y-86975000I-200000J0D01*
G01*
X126125000Y-86975000D01*
G75*
G02*
X125925000Y-86775000I0J200000D01*
G01*
X125925000Y-86225000D01*
G75*
G02*
X126125000Y-86025000I200000J0D01*
G01*
X126525000Y-86025000D01*
G75*
G02*
X126725000Y-86225000I0J-200000D01*
G01*
G37*
G36*
G01*
X129075000Y-87725000D02*
X129075000Y-88275000D01*
G75*
G02*
X128875000Y-88475000I-200000J0D01*
G01*
X128475000Y-88475000D01*
G75*
G02*
X128275000Y-88275000I0J200000D01*
G01*
X128275000Y-87725000D01*
G75*
G02*
X128475000Y-87525000I200000J0D01*
G01*
X128875000Y-87525000D01*
G75*
G02*
X129075000Y-87725000I0J-200000D01*
G01*
G37*
G36*
G01*
X130725000Y-87725000D02*
X130725000Y-88275000D01*
G75*
G02*
X130525000Y-88475000I-200000J0D01*
G01*
X130125000Y-88475000D01*
G75*
G02*
X129925000Y-88275000I0J200000D01*
G01*
X129925000Y-87725000D01*
G75*
G02*
X130125000Y-87525000I200000J0D01*
G01*
X130525000Y-87525000D01*
G75*
G02*
X130725000Y-87725000I0J-200000D01*
G01*
G37*
D10*
X133600000Y-83475000D03*
X133600000Y-82825000D03*
X133600000Y-82175000D03*
X133600000Y-81525000D03*
X133600000Y-80875000D03*
X133600000Y-80225000D03*
X133600000Y-79575000D03*
X133600000Y-78925000D03*
X133600000Y-78275000D03*
X133600000Y-77625000D03*
X133600000Y-76975000D03*
X133600000Y-76325000D03*
X126400000Y-76325000D03*
X126400000Y-76975000D03*
X126400000Y-77625000D03*
X126400000Y-78275000D03*
X126400000Y-78925000D03*
X126400000Y-79575000D03*
X126400000Y-80225000D03*
X126400000Y-80875000D03*
X126400000Y-81525000D03*
X126400000Y-82175000D03*
X126400000Y-82825000D03*
X126400000Y-83475000D03*
D11*
X135062600Y-65950400D03*
X135062600Y-67950400D03*
X133062600Y-65950400D03*
X133062600Y-67950400D03*
X135062600Y-57200400D03*
X135062600Y-59200400D03*
X133062600Y-57200400D03*
X133062600Y-59200400D03*
X135062600Y-48450400D03*
X135062600Y-50450400D03*
X133062600Y-48450400D03*
X133062600Y-50450400D03*
X133062600Y-41700400D03*
X133062600Y-39700400D03*
X135062600Y-41700400D03*
X135062600Y-39700400D03*
X124312600Y-41700400D03*
X124312600Y-39700400D03*
X126312600Y-41700400D03*
X126312600Y-39700400D03*
X126312600Y-48450400D03*
X126312600Y-50450400D03*
X124312600Y-48450400D03*
X124312600Y-50450400D03*
X124312600Y-59200400D03*
X124312600Y-57200400D03*
X126312600Y-59200400D03*
X126312600Y-57200400D03*
X124312600Y-67950400D03*
X124312600Y-65950400D03*
X126312600Y-67950400D03*
X126312600Y-65950400D03*
D12*
X116900000Y-36400000D03*
X142000000Y-36400000D03*
X142000000Y-95400000D03*
X116900000Y-95400000D03*
D13*
X121250000Y-94000000D03*
X121250000Y-91400000D03*
X121250000Y-92700000D03*
D14*
X137300000Y-94200000D03*
D15*
X134760000Y-94200000D03*
X132220000Y-94200000D03*
X129680000Y-94200000D03*
X127140000Y-94200000D03*
X124600000Y-94200000D03*
M02*
