M48
; DRILL file {KiCad (5.1.12)-1} date 08/18/22 11:36:23
; FORMAT={-:-/ absolute / metric / decimal}
; #@! TF.CreationDate,2022-08-18T11:36:23-07:00
; #@! TF.GenerationSoftware,Kicad,Pcbnew,(5.1.12)-1
; #@! TF.FileFunction,Plated,1,2,PTH
FMAT,2
METRIC
T1C0.400
T2C1.100
%
G90
G05
T1
X120.075Y-88.325
X122.7Y-57.3
X122.8Y-59.3
X122.9Y-41.8
X122.9Y-48.4
X122.9Y-50.5
X122.9Y-66.0
X123.0Y-39.8
X123.0Y-67.9
X124.172Y-81.941
X124.192Y-80.896
X124.217Y-79.846
X124.235Y-77.863
X124.335Y-76.868
X124.356Y-78.855
X124.56Y-75.893
X125.123Y-75.066
X126.5Y-85.0
X126.6Y-73.3
X128.5Y-86.5
X131.5Y-39.7
X131.5Y-48.5
X131.6Y-59.2
X131.6Y-50.4
X131.6Y-57.2
X131.6Y-65.9
X131.6Y-41.7
X131.607Y-67.907
X135.075Y-83.691
X135.405Y-75.698
X135.957Y-82.848
X135.957Y-76.531
X136.144Y-77.514
X136.25Y-81.75
X136.335Y-80.736
X136.336Y-79.586
X136.367Y-78.489
X140.025Y-88.475
T2
X124.6Y-94.2
X127.14Y-94.2
X129.68Y-94.2
X132.22Y-94.2
X134.76Y-94.2
X137.3Y-94.2
T0
M30
