M48
; DRILL file {KiCad (5.1.12)-1} date 08/18/22 11:30:35
; FORMAT={-:-/ absolute / metric / decimal}
; #@! TF.CreationDate,2022-08-18T11:30:35-07:00
; #@! TF.GenerationSoftware,Kicad,Pcbnew,(5.1.12)-1
; #@! TF.FileFunction,Plated,1,2,PTH
FMAT,2
METRIC
T1C0.400
T2C1.100
%
G90
G05
T1
X120.075Y-88.325
X120.9Y-55.0
X121.0Y-57.0
X121.0Y-67.0
X121.1Y-33.0
X121.1Y-31.0
X121.1Y-69.0
X121.2Y-43.0
X121.2Y-45.0
X124.172Y-81.941
X124.192Y-80.896
X124.231Y-77.834
X124.244Y-79.819
X124.36Y-78.825
X124.368Y-76.843
X124.567Y-75.863
X125.154Y-75.044
X126.5Y-85.0
X127.013Y-73.987
X128.5Y-86.5
X133.0Y-31.0
X133.0Y-33.5
X133.0Y-43.0
X133.0Y-45.0
X133.0Y-55.0
X133.0Y-67.0
X133.0Y-69.0
X133.4Y-57.0
X135.075Y-83.691
X135.347Y-75.676
X135.957Y-82.848
X136.072Y-76.417
X136.144Y-77.514
X136.25Y-81.75
X136.335Y-80.736
X136.336Y-79.586
X136.367Y-78.489
X140.025Y-88.475
T2
X124.3Y-93.75
X126.84Y-93.75
X129.38Y-93.75
X131.92Y-93.75
X134.46Y-93.75
X137.0Y-93.75
T0
M30
