%TF.GenerationSoftware,KiCad,Pcbnew,(5.1.12)-1*%
%TF.CreationDate,2022-08-18T11:29:56-07:00*%
%TF.ProjectId,HighPressureSensorArray,48696768-5072-4657-9373-75726553656e,rev?*%
%TF.SameCoordinates,Original*%
%TF.FileFunction,Copper,L2,Bot*%
%TF.FilePolarity,Positive*%
%FSLAX46Y46*%
G04 Gerber Fmt 4.6, Leading zero omitted, Abs format (unit mm)*
G04 Created by KiCad (PCBNEW (5.1.12)-1) date 2022-08-18 11:29:56*
%MOMM*%
%LPD*%
G01*
G04 APERTURE LIST*
%TA.AperFunction,ComponentPad*%
%ADD10R,2.200000X2.200000*%
%TD*%
%TA.AperFunction,ComponentPad*%
%ADD11C,2.200000*%
%TD*%
%TA.AperFunction,ViaPad*%
%ADD12C,0.800000*%
%TD*%
%TA.AperFunction,Conductor*%
%ADD13C,0.250000*%
%TD*%
G04 APERTURE END LIST*
D10*
X137000000Y-93750000D03*
D11*
X134460000Y-93750000D03*
X131920000Y-93750000D03*
X129380000Y-93750000D03*
X126840000Y-93750000D03*
X124300000Y-93750000D03*
D12*
X135075014Y-83690823D03*
X128500000Y-86500000D03*
X140025000Y-88475000D03*
X126500000Y-84999992D03*
X120075000Y-88325000D03*
X127012662Y-73987342D03*
X136071928Y-76416863D03*
X133000000Y-69000000D03*
X135346918Y-75675918D03*
X133000000Y-67000004D03*
X136366985Y-78488605D03*
X133400000Y-57000000D03*
X136143606Y-77513861D03*
X133000000Y-55000000D03*
X136335351Y-80736365D03*
X133000000Y-45000000D03*
X136336190Y-79586190D03*
X133000000Y-43000000D03*
X135957015Y-82847552D03*
X133000000Y-33500000D03*
X136249994Y-81750000D03*
X133000000Y-30999994D03*
X124192304Y-80895655D03*
X121099998Y-33000000D03*
X124171929Y-81941350D03*
X121100000Y-31000000D03*
X124359739Y-78825371D03*
X121200000Y-45000000D03*
X124243979Y-79818660D03*
X121200000Y-43000000D03*
X124367944Y-76842625D03*
X121000000Y-57000000D03*
X124231006Y-77833680D03*
X120900000Y-55000000D03*
X125154397Y-75044205D03*
X121100000Y-69000000D03*
X124566795Y-75862583D03*
X121000000Y-67000000D03*
D13*
X135075014Y-83690823D02*
X132265837Y-86500000D01*
X132265837Y-86500000D02*
X128500000Y-86500000D01*
X123174992Y-88325000D02*
X126500000Y-84999992D01*
X120075000Y-88325000D02*
X123174992Y-88325000D01*
X137025000Y-88475000D02*
X135250000Y-90250000D01*
X140025000Y-88475000D02*
X137025000Y-88475000D01*
X135250000Y-92960000D02*
X134460000Y-93750000D01*
X135250000Y-90250000D02*
X135250000Y-92960000D01*
X126500000Y-84999992D02*
X126500000Y-74500004D01*
X126500000Y-74500004D02*
X127012662Y-73987342D01*
X136225001Y-76263790D02*
X136071928Y-76416863D01*
X136071928Y-72071928D02*
X133000000Y-69000000D01*
X136071928Y-76416863D02*
X136071928Y-72071928D01*
X132274994Y-72603994D02*
X132274994Y-67725010D01*
X132274994Y-67725010D02*
X133000000Y-67000004D01*
X135346918Y-75675918D02*
X132274994Y-72603994D01*
X136366985Y-78488605D02*
X137250000Y-77605590D01*
X137250000Y-77605590D02*
X137250000Y-60850000D01*
X137250000Y-60850000D02*
X133400000Y-57000000D01*
X132500000Y-63826998D02*
X132500000Y-55500000D01*
X136796929Y-68123927D02*
X132500000Y-63826998D01*
X136796929Y-76860538D02*
X136796929Y-68123927D01*
X132500000Y-55500000D02*
X133000000Y-55000000D01*
X136143606Y-77513861D02*
X136796929Y-76860538D01*
X136335351Y-80736365D02*
X137749989Y-79321727D01*
X137749989Y-79321727D02*
X137749989Y-49749989D01*
X137749989Y-49749989D02*
X133000000Y-45000000D01*
X132600001Y-43399999D02*
X133000000Y-43000000D01*
X131774998Y-44225002D02*
X132600001Y-43399999D01*
X131774998Y-75024998D02*
X131774998Y-44225002D01*
X136336190Y-79586190D02*
X131774998Y-75024998D01*
X135957015Y-82847552D02*
X136522700Y-82847552D01*
X136522700Y-82847552D02*
X138200000Y-81170252D01*
X138200000Y-81170252D02*
X138200000Y-38700000D01*
X138200000Y-38700000D02*
X133000000Y-33500000D01*
X132600001Y-31399993D02*
X133000000Y-30999994D01*
X131324987Y-32675007D02*
X132600001Y-31399993D01*
X131324987Y-76824993D02*
X131324987Y-32675007D01*
X136249994Y-81750000D02*
X131324987Y-76824993D01*
X124192304Y-80895655D02*
X117900000Y-74603351D01*
X117900000Y-74603351D02*
X117900000Y-36199998D01*
X117900000Y-36199998D02*
X121099998Y-33000000D01*
X124171929Y-81941350D02*
X117400000Y-75169421D01*
X117400000Y-75169421D02*
X117400000Y-34700000D01*
X117400000Y-34700000D02*
X121100000Y-31000000D01*
X118900000Y-47300000D02*
X121200000Y-45000000D01*
X118900000Y-73600000D02*
X118900000Y-47300000D01*
X124125371Y-78825371D02*
X118900000Y-73600000D01*
X124359739Y-78825371D02*
X124125371Y-78825371D01*
X124243979Y-79818660D02*
X118400000Y-73974681D01*
X118400000Y-73974681D02*
X118400000Y-45800000D01*
X118400000Y-45800000D02*
X121200000Y-43000000D01*
X119874998Y-58125002D02*
X121000000Y-57000000D01*
X124367944Y-76842625D02*
X119874998Y-72349679D01*
X119874998Y-72349679D02*
X119874998Y-58125002D01*
X119400000Y-56500000D02*
X120900000Y-55000000D01*
X119400000Y-73002674D02*
X119400000Y-56500000D01*
X124231006Y-77833680D02*
X119400000Y-73002674D01*
X121100000Y-70989808D02*
X121100000Y-69000000D01*
X125154397Y-75044205D02*
X121100000Y-70989808D01*
X120325009Y-67674991D02*
X121000000Y-67000000D01*
X120325009Y-71620797D02*
X120325009Y-67674991D01*
X124566795Y-75862583D02*
X120325009Y-71620797D01*
M02*
