%TF.GenerationSoftware,KiCad,Pcbnew,(5.1.12)-1*%
%TF.CreationDate,2022-08-18T11:29:56-07:00*%
%TF.ProjectId,HighPressureSensorArray,48696768-5072-4657-9373-75726553656e,rev?*%
%TF.SameCoordinates,Original*%
%TF.FileFunction,Soldermask,Top*%
%TF.FilePolarity,Negative*%
%FSLAX46Y46*%
G04 Gerber Fmt 4.6, Leading zero omitted, Abs format (unit mm)*
G04 Created by KiCad (PCBNEW (5.1.12)-1) date 2022-08-18 11:29:56*
%MOMM*%
%LPD*%
G01*
G04 APERTURE LIST*
%ADD10R,1.300000X1.300000*%
%ADD11R,1.500000X1.000000*%
%ADD12R,1.750000X0.450000*%
%ADD13C,2.100000*%
%ADD14R,2.200000X2.200000*%
%ADD15C,2.200000*%
G04 APERTURE END LIST*
D10*
X122812600Y-68900400D03*
X122812600Y-66900400D03*
X124812600Y-68900400D03*
X124812600Y-66900400D03*
D11*
X120750000Y-90700000D03*
X120750000Y-93300000D03*
X120750000Y-92000000D03*
G36*
G01*
X124325000Y-36250000D02*
X124325000Y-35750000D01*
G75*
G02*
X124550000Y-35525000I225000J0D01*
G01*
X125000000Y-35525000D01*
G75*
G02*
X125225000Y-35750000I0J-225000D01*
G01*
X125225000Y-36250000D01*
G75*
G02*
X125000000Y-36475000I-225000J0D01*
G01*
X124550000Y-36475000D01*
G75*
G02*
X124325000Y-36250000I0J225000D01*
G01*
G37*
G36*
G01*
X122775000Y-36250000D02*
X122775000Y-35750000D01*
G75*
G02*
X123000000Y-35525000I225000J0D01*
G01*
X123450000Y-35525000D01*
G75*
G02*
X123675000Y-35750000I0J-225000D01*
G01*
X123675000Y-36250000D01*
G75*
G02*
X123450000Y-36475000I-225000J0D01*
G01*
X123000000Y-36475000D01*
G75*
G02*
X122775000Y-36250000I0J225000D01*
G01*
G37*
G36*
G01*
X122775000Y-47750000D02*
X122775000Y-47250000D01*
G75*
G02*
X123000000Y-47025000I225000J0D01*
G01*
X123450000Y-47025000D01*
G75*
G02*
X123675000Y-47250000I0J-225000D01*
G01*
X123675000Y-47750000D01*
G75*
G02*
X123450000Y-47975000I-225000J0D01*
G01*
X123000000Y-47975000D01*
G75*
G02*
X122775000Y-47750000I0J225000D01*
G01*
G37*
G36*
G01*
X124325000Y-47750000D02*
X124325000Y-47250000D01*
G75*
G02*
X124550000Y-47025000I225000J0D01*
G01*
X125000000Y-47025000D01*
G75*
G02*
X125225000Y-47250000I0J-225000D01*
G01*
X125225000Y-47750000D01*
G75*
G02*
X125000000Y-47975000I-225000J0D01*
G01*
X124550000Y-47975000D01*
G75*
G02*
X124325000Y-47750000I0J225000D01*
G01*
G37*
G36*
G01*
X124325000Y-59650000D02*
X124325000Y-59150000D01*
G75*
G02*
X124550000Y-58925000I225000J0D01*
G01*
X125000000Y-58925000D01*
G75*
G02*
X125225000Y-59150000I0J-225000D01*
G01*
X125225000Y-59650000D01*
G75*
G02*
X125000000Y-59875000I-225000J0D01*
G01*
X124550000Y-59875000D01*
G75*
G02*
X124325000Y-59650000I0J225000D01*
G01*
G37*
G36*
G01*
X122775000Y-59650000D02*
X122775000Y-59150000D01*
G75*
G02*
X123000000Y-58925000I225000J0D01*
G01*
X123450000Y-58925000D01*
G75*
G02*
X123675000Y-59150000I0J-225000D01*
G01*
X123675000Y-59650000D01*
G75*
G02*
X123450000Y-59875000I-225000J0D01*
G01*
X123000000Y-59875000D01*
G75*
G02*
X122775000Y-59650000I0J225000D01*
G01*
G37*
G36*
G01*
X123275000Y-71250000D02*
X123275000Y-70750000D01*
G75*
G02*
X123500000Y-70525000I225000J0D01*
G01*
X123950000Y-70525000D01*
G75*
G02*
X124175000Y-70750000I0J-225000D01*
G01*
X124175000Y-71250000D01*
G75*
G02*
X123950000Y-71475000I-225000J0D01*
G01*
X123500000Y-71475000D01*
G75*
G02*
X123275000Y-71250000I0J225000D01*
G01*
G37*
G36*
G01*
X124825000Y-71250000D02*
X124825000Y-70750000D01*
G75*
G02*
X125050000Y-70525000I225000J0D01*
G01*
X125500000Y-70525000D01*
G75*
G02*
X125725000Y-70750000I0J-225000D01*
G01*
X125725000Y-71250000D01*
G75*
G02*
X125500000Y-71475000I-225000J0D01*
G01*
X125050000Y-71475000D01*
G75*
G02*
X124825000Y-71250000I0J225000D01*
G01*
G37*
G36*
G01*
X135175000Y-28450000D02*
X135175000Y-28950000D01*
G75*
G02*
X134950000Y-29175000I-225000J0D01*
G01*
X134500000Y-29175000D01*
G75*
G02*
X134275000Y-28950000I0J225000D01*
G01*
X134275000Y-28450000D01*
G75*
G02*
X134500000Y-28225000I225000J0D01*
G01*
X134950000Y-28225000D01*
G75*
G02*
X135175000Y-28450000I0J-225000D01*
G01*
G37*
G36*
G01*
X136725000Y-28450000D02*
X136725000Y-28950000D01*
G75*
G02*
X136500000Y-29175000I-225000J0D01*
G01*
X136050000Y-29175000D01*
G75*
G02*
X135825000Y-28950000I0J225000D01*
G01*
X135825000Y-28450000D01*
G75*
G02*
X136050000Y-28225000I225000J0D01*
G01*
X136500000Y-28225000D01*
G75*
G02*
X136725000Y-28450000I0J-225000D01*
G01*
G37*
G36*
G01*
X136725000Y-40250000D02*
X136725000Y-40750000D01*
G75*
G02*
X136500000Y-40975000I-225000J0D01*
G01*
X136050000Y-40975000D01*
G75*
G02*
X135825000Y-40750000I0J225000D01*
G01*
X135825000Y-40250000D01*
G75*
G02*
X136050000Y-40025000I225000J0D01*
G01*
X136500000Y-40025000D01*
G75*
G02*
X136725000Y-40250000I0J-225000D01*
G01*
G37*
G36*
G01*
X135175000Y-40250000D02*
X135175000Y-40750000D01*
G75*
G02*
X134950000Y-40975000I-225000J0D01*
G01*
X134500000Y-40975000D01*
G75*
G02*
X134275000Y-40750000I0J225000D01*
G01*
X134275000Y-40250000D01*
G75*
G02*
X134500000Y-40025000I225000J0D01*
G01*
X134950000Y-40025000D01*
G75*
G02*
X135175000Y-40250000I0J-225000D01*
G01*
G37*
G36*
G01*
X136725000Y-52250000D02*
X136725000Y-52750000D01*
G75*
G02*
X136500000Y-52975000I-225000J0D01*
G01*
X136050000Y-52975000D01*
G75*
G02*
X135825000Y-52750000I0J225000D01*
G01*
X135825000Y-52250000D01*
G75*
G02*
X136050000Y-52025000I225000J0D01*
G01*
X136500000Y-52025000D01*
G75*
G02*
X136725000Y-52250000I0J-225000D01*
G01*
G37*
G36*
G01*
X135175000Y-52250000D02*
X135175000Y-52750000D01*
G75*
G02*
X134950000Y-52975000I-225000J0D01*
G01*
X134500000Y-52975000D01*
G75*
G02*
X134275000Y-52750000I0J225000D01*
G01*
X134275000Y-52250000D01*
G75*
G02*
X134500000Y-52025000I225000J0D01*
G01*
X134950000Y-52025000D01*
G75*
G02*
X135175000Y-52250000I0J-225000D01*
G01*
G37*
G36*
G01*
X135175000Y-64250000D02*
X135175000Y-64750000D01*
G75*
G02*
X134950000Y-64975000I-225000J0D01*
G01*
X134500000Y-64975000D01*
G75*
G02*
X134275000Y-64750000I0J225000D01*
G01*
X134275000Y-64250000D01*
G75*
G02*
X134500000Y-64025000I225000J0D01*
G01*
X134950000Y-64025000D01*
G75*
G02*
X135175000Y-64250000I0J-225000D01*
G01*
G37*
G36*
G01*
X136725000Y-64250000D02*
X136725000Y-64750000D01*
G75*
G02*
X136500000Y-64975000I-225000J0D01*
G01*
X136050000Y-64975000D01*
G75*
G02*
X135825000Y-64750000I0J225000D01*
G01*
X135825000Y-64250000D01*
G75*
G02*
X136050000Y-64025000I225000J0D01*
G01*
X136500000Y-64025000D01*
G75*
G02*
X136725000Y-64250000I0J-225000D01*
G01*
G37*
G36*
G01*
X132075000Y-85950000D02*
X132075000Y-85450000D01*
G75*
G02*
X132300000Y-85225000I225000J0D01*
G01*
X132750000Y-85225000D01*
G75*
G02*
X132975000Y-85450000I0J-225000D01*
G01*
X132975000Y-85950000D01*
G75*
G02*
X132750000Y-86175000I-225000J0D01*
G01*
X132300000Y-86175000D01*
G75*
G02*
X132075000Y-85950000I0J225000D01*
G01*
G37*
G36*
G01*
X133625000Y-85950000D02*
X133625000Y-85450000D01*
G75*
G02*
X133850000Y-85225000I225000J0D01*
G01*
X134300000Y-85225000D01*
G75*
G02*
X134525000Y-85450000I0J-225000D01*
G01*
X134525000Y-85950000D01*
G75*
G02*
X134300000Y-86175000I-225000J0D01*
G01*
X133850000Y-86175000D01*
G75*
G02*
X133625000Y-85950000I0J225000D01*
G01*
G37*
G36*
G01*
X133625000Y-87750000D02*
X133625000Y-87250000D01*
G75*
G02*
X133850000Y-87025000I225000J0D01*
G01*
X134300000Y-87025000D01*
G75*
G02*
X134525000Y-87250000I0J-225000D01*
G01*
X134525000Y-87750000D01*
G75*
G02*
X134300000Y-87975000I-225000J0D01*
G01*
X133850000Y-87975000D01*
G75*
G02*
X133625000Y-87750000I0J225000D01*
G01*
G37*
G36*
G01*
X132075000Y-87750000D02*
X132075000Y-87250000D01*
G75*
G02*
X132300000Y-87025000I225000J0D01*
G01*
X132750000Y-87025000D01*
G75*
G02*
X132975000Y-87250000I0J-225000D01*
G01*
X132975000Y-87750000D01*
G75*
G02*
X132750000Y-87975000I-225000J0D01*
G01*
X132300000Y-87975000D01*
G75*
G02*
X132075000Y-87750000I0J225000D01*
G01*
G37*
G36*
G01*
X138775000Y-73325000D02*
X138775000Y-73875000D01*
G75*
G02*
X138575000Y-74075000I-200000J0D01*
G01*
X138175000Y-74075000D01*
G75*
G02*
X137975000Y-73875000I0J200000D01*
G01*
X137975000Y-73325000D01*
G75*
G02*
X138175000Y-73125000I200000J0D01*
G01*
X138575000Y-73125000D01*
G75*
G02*
X138775000Y-73325000I0J-200000D01*
G01*
G37*
G36*
G01*
X140425000Y-73325000D02*
X140425000Y-73875000D01*
G75*
G02*
X140225000Y-74075000I-200000J0D01*
G01*
X139825000Y-74075000D01*
G75*
G02*
X139625000Y-73875000I0J200000D01*
G01*
X139625000Y-73325000D01*
G75*
G02*
X139825000Y-73125000I200000J0D01*
G01*
X140225000Y-73125000D01*
G75*
G02*
X140425000Y-73325000I0J-200000D01*
G01*
G37*
G36*
G01*
X140425000Y-71725000D02*
X140425000Y-72275000D01*
G75*
G02*
X140225000Y-72475000I-200000J0D01*
G01*
X139825000Y-72475000D01*
G75*
G02*
X139625000Y-72275000I0J200000D01*
G01*
X139625000Y-71725000D01*
G75*
G02*
X139825000Y-71525000I200000J0D01*
G01*
X140225000Y-71525000D01*
G75*
G02*
X140425000Y-71725000I0J-200000D01*
G01*
G37*
G36*
G01*
X138775000Y-71725000D02*
X138775000Y-72275000D01*
G75*
G02*
X138575000Y-72475000I-200000J0D01*
G01*
X138175000Y-72475000D01*
G75*
G02*
X137975000Y-72275000I0J200000D01*
G01*
X137975000Y-71725000D01*
G75*
G02*
X138175000Y-71525000I200000J0D01*
G01*
X138575000Y-71525000D01*
G75*
G02*
X138775000Y-71725000I0J-200000D01*
G01*
G37*
G36*
G01*
X140425000Y-78604590D02*
X140425000Y-79154590D01*
G75*
G02*
X140225000Y-79354590I-200000J0D01*
G01*
X139825000Y-79354590D01*
G75*
G02*
X139625000Y-79154590I0J200000D01*
G01*
X139625000Y-78604590D01*
G75*
G02*
X139825000Y-78404590I200000J0D01*
G01*
X140225000Y-78404590D01*
G75*
G02*
X140425000Y-78604590I0J-200000D01*
G01*
G37*
G36*
G01*
X138775000Y-78604590D02*
X138775000Y-79154590D01*
G75*
G02*
X138575000Y-79354590I-200000J0D01*
G01*
X138175000Y-79354590D01*
G75*
G02*
X137975000Y-79154590I0J200000D01*
G01*
X137975000Y-78604590D01*
G75*
G02*
X138175000Y-78404590I200000J0D01*
G01*
X138575000Y-78404590D01*
G75*
G02*
X138775000Y-78604590I0J-200000D01*
G01*
G37*
G36*
G01*
X138775000Y-76563774D02*
X138775000Y-77113774D01*
G75*
G02*
X138575000Y-77313774I-200000J0D01*
G01*
X138175000Y-77313774D01*
G75*
G02*
X137975000Y-77113774I0J200000D01*
G01*
X137975000Y-76563774D01*
G75*
G02*
X138175000Y-76363774I200000J0D01*
G01*
X138575000Y-76363774D01*
G75*
G02*
X138775000Y-76563774I0J-200000D01*
G01*
G37*
G36*
G01*
X140425000Y-76563774D02*
X140425000Y-77113774D01*
G75*
G02*
X140225000Y-77313774I-200000J0D01*
G01*
X139825000Y-77313774D01*
G75*
G02*
X139625000Y-77113774I0J200000D01*
G01*
X139625000Y-76563774D01*
G75*
G02*
X139825000Y-76363774I200000J0D01*
G01*
X140225000Y-76363774D01*
G75*
G02*
X140425000Y-76563774I0J-200000D01*
G01*
G37*
G36*
G01*
X138775000Y-82686222D02*
X138775000Y-83236222D01*
G75*
G02*
X138575000Y-83436222I-200000J0D01*
G01*
X138175000Y-83436222D01*
G75*
G02*
X137975000Y-83236222I0J200000D01*
G01*
X137975000Y-82686222D01*
G75*
G02*
X138175000Y-82486222I200000J0D01*
G01*
X138575000Y-82486222D01*
G75*
G02*
X138775000Y-82686222I0J-200000D01*
G01*
G37*
G36*
G01*
X140425000Y-82686222D02*
X140425000Y-83236222D01*
G75*
G02*
X140225000Y-83436222I-200000J0D01*
G01*
X139825000Y-83436222D01*
G75*
G02*
X139625000Y-83236222I0J200000D01*
G01*
X139625000Y-82686222D01*
G75*
G02*
X139825000Y-82486222I200000J0D01*
G01*
X140225000Y-82486222D01*
G75*
G02*
X140425000Y-82686222I0J-200000D01*
G01*
G37*
G36*
G01*
X140425000Y-80645406D02*
X140425000Y-81195406D01*
G75*
G02*
X140225000Y-81395406I-200000J0D01*
G01*
X139825000Y-81395406D01*
G75*
G02*
X139625000Y-81195406I0J200000D01*
G01*
X139625000Y-80645406D01*
G75*
G02*
X139825000Y-80445406I200000J0D01*
G01*
X140225000Y-80445406D01*
G75*
G02*
X140425000Y-80645406I0J-200000D01*
G01*
G37*
G36*
G01*
X138775000Y-80645406D02*
X138775000Y-81195406D01*
G75*
G02*
X138575000Y-81395406I-200000J0D01*
G01*
X138175000Y-81395406D01*
G75*
G02*
X137975000Y-81195406I0J200000D01*
G01*
X137975000Y-80645406D01*
G75*
G02*
X138175000Y-80445406I200000J0D01*
G01*
X138575000Y-80445406D01*
G75*
G02*
X138775000Y-80645406I0J-200000D01*
G01*
G37*
G36*
G01*
X140425000Y-86767857D02*
X140425000Y-87317857D01*
G75*
G02*
X140225000Y-87517857I-200000J0D01*
G01*
X139825000Y-87517857D01*
G75*
G02*
X139625000Y-87317857I0J200000D01*
G01*
X139625000Y-86767857D01*
G75*
G02*
X139825000Y-86567857I200000J0D01*
G01*
X140225000Y-86567857D01*
G75*
G02*
X140425000Y-86767857I0J-200000D01*
G01*
G37*
G36*
G01*
X138775000Y-86767857D02*
X138775000Y-87317857D01*
G75*
G02*
X138575000Y-87517857I-200000J0D01*
G01*
X138175000Y-87517857D01*
G75*
G02*
X137975000Y-87317857I0J200000D01*
G01*
X137975000Y-86767857D01*
G75*
G02*
X138175000Y-86567857I200000J0D01*
G01*
X138575000Y-86567857D01*
G75*
G02*
X138775000Y-86767857I0J-200000D01*
G01*
G37*
G36*
G01*
X138775000Y-84727038D02*
X138775000Y-85277038D01*
G75*
G02*
X138575000Y-85477038I-200000J0D01*
G01*
X138175000Y-85477038D01*
G75*
G02*
X137975000Y-85277038I0J200000D01*
G01*
X137975000Y-84727038D01*
G75*
G02*
X138175000Y-84527038I200000J0D01*
G01*
X138575000Y-84527038D01*
G75*
G02*
X138775000Y-84727038I0J-200000D01*
G01*
G37*
G36*
G01*
X140425000Y-84727038D02*
X140425000Y-85277038D01*
G75*
G02*
X140225000Y-85477038I-200000J0D01*
G01*
X139825000Y-85477038D01*
G75*
G02*
X139625000Y-85277038I0J200000D01*
G01*
X139625000Y-84727038D01*
G75*
G02*
X139825000Y-84527038I200000J0D01*
G01*
X140225000Y-84527038D01*
G75*
G02*
X140425000Y-84727038I0J-200000D01*
G01*
G37*
G36*
G01*
X119675000Y-85276016D02*
X119675000Y-84726016D01*
G75*
G02*
X119875000Y-84526016I200000J0D01*
G01*
X120275000Y-84526016D01*
G75*
G02*
X120475000Y-84726016I0J-200000D01*
G01*
X120475000Y-85276016D01*
G75*
G02*
X120275000Y-85476016I-200000J0D01*
G01*
X119875000Y-85476016D01*
G75*
G02*
X119675000Y-85276016I0J200000D01*
G01*
G37*
G36*
G01*
X121325000Y-85276016D02*
X121325000Y-84726016D01*
G75*
G02*
X121525000Y-84526016I200000J0D01*
G01*
X121925000Y-84526016D01*
G75*
G02*
X122125000Y-84726016I0J-200000D01*
G01*
X122125000Y-85276016D01*
G75*
G02*
X121925000Y-85476016I-200000J0D01*
G01*
X121525000Y-85476016D01*
G75*
G02*
X121325000Y-85276016I0J200000D01*
G01*
G37*
G36*
G01*
X119675000Y-87317857D02*
X119675000Y-86767857D01*
G75*
G02*
X119875000Y-86567857I200000J0D01*
G01*
X120275000Y-86567857D01*
G75*
G02*
X120475000Y-86767857I0J-200000D01*
G01*
X120475000Y-87317857D01*
G75*
G02*
X120275000Y-87517857I-200000J0D01*
G01*
X119875000Y-87517857D01*
G75*
G02*
X119675000Y-87317857I0J200000D01*
G01*
G37*
G36*
G01*
X121325000Y-87317857D02*
X121325000Y-86767857D01*
G75*
G02*
X121525000Y-86567857I200000J0D01*
G01*
X121925000Y-86567857D01*
G75*
G02*
X122125000Y-86767857I0J-200000D01*
G01*
X122125000Y-87317857D01*
G75*
G02*
X121925000Y-87517857I-200000J0D01*
G01*
X121525000Y-87517857D01*
G75*
G02*
X121325000Y-87317857I0J200000D01*
G01*
G37*
G36*
G01*
X119675000Y-81192344D02*
X119675000Y-80642344D01*
G75*
G02*
X119875000Y-80442344I200000J0D01*
G01*
X120275000Y-80442344D01*
G75*
G02*
X120475000Y-80642344I0J-200000D01*
G01*
X120475000Y-81192344D01*
G75*
G02*
X120275000Y-81392344I-200000J0D01*
G01*
X119875000Y-81392344D01*
G75*
G02*
X119675000Y-81192344I0J200000D01*
G01*
G37*
G36*
G01*
X121325000Y-81192344D02*
X121325000Y-80642344D01*
G75*
G02*
X121525000Y-80442344I200000J0D01*
G01*
X121925000Y-80442344D01*
G75*
G02*
X122125000Y-80642344I0J-200000D01*
G01*
X122125000Y-81192344D01*
G75*
G02*
X121925000Y-81392344I-200000J0D01*
G01*
X121525000Y-81392344D01*
G75*
G02*
X121325000Y-81192344I0J200000D01*
G01*
G37*
G36*
G01*
X121325000Y-83234180D02*
X121325000Y-82684180D01*
G75*
G02*
X121525000Y-82484180I200000J0D01*
G01*
X121925000Y-82484180D01*
G75*
G02*
X122125000Y-82684180I0J-200000D01*
G01*
X122125000Y-83234180D01*
G75*
G02*
X121925000Y-83434180I-200000J0D01*
G01*
X121525000Y-83434180D01*
G75*
G02*
X121325000Y-83234180I0J200000D01*
G01*
G37*
G36*
G01*
X119675000Y-83234180D02*
X119675000Y-82684180D01*
G75*
G02*
X119875000Y-82484180I200000J0D01*
G01*
X120275000Y-82484180D01*
G75*
G02*
X120475000Y-82684180I0J-200000D01*
G01*
X120475000Y-83234180D01*
G75*
G02*
X120275000Y-83434180I-200000J0D01*
G01*
X119875000Y-83434180D01*
G75*
G02*
X119675000Y-83234180I0J200000D01*
G01*
G37*
G36*
G01*
X119675000Y-77108672D02*
X119675000Y-76558672D01*
G75*
G02*
X119875000Y-76358672I200000J0D01*
G01*
X120275000Y-76358672D01*
G75*
G02*
X120475000Y-76558672I0J-200000D01*
G01*
X120475000Y-77108672D01*
G75*
G02*
X120275000Y-77308672I-200000J0D01*
G01*
X119875000Y-77308672D01*
G75*
G02*
X119675000Y-77108672I0J200000D01*
G01*
G37*
G36*
G01*
X121325000Y-77108672D02*
X121325000Y-76558672D01*
G75*
G02*
X121525000Y-76358672I200000J0D01*
G01*
X121925000Y-76358672D01*
G75*
G02*
X122125000Y-76558672I0J-200000D01*
G01*
X122125000Y-77108672D01*
G75*
G02*
X121925000Y-77308672I-200000J0D01*
G01*
X121525000Y-77308672D01*
G75*
G02*
X121325000Y-77108672I0J200000D01*
G01*
G37*
G36*
G01*
X121325000Y-79150508D02*
X121325000Y-78600508D01*
G75*
G02*
X121525000Y-78400508I200000J0D01*
G01*
X121925000Y-78400508D01*
G75*
G02*
X122125000Y-78600508I0J-200000D01*
G01*
X122125000Y-79150508D01*
G75*
G02*
X121925000Y-79350508I-200000J0D01*
G01*
X121525000Y-79350508D01*
G75*
G02*
X121325000Y-79150508I0J200000D01*
G01*
G37*
G36*
G01*
X119675000Y-79150508D02*
X119675000Y-78600508D01*
G75*
G02*
X119875000Y-78400508I200000J0D01*
G01*
X120275000Y-78400508D01*
G75*
G02*
X120475000Y-78600508I0J-200000D01*
G01*
X120475000Y-79150508D01*
G75*
G02*
X120275000Y-79350508I-200000J0D01*
G01*
X119875000Y-79350508D01*
G75*
G02*
X119675000Y-79150508I0J200000D01*
G01*
G37*
G36*
G01*
X119675000Y-72175000D02*
X119675000Y-71625000D01*
G75*
G02*
X119875000Y-71425000I200000J0D01*
G01*
X120275000Y-71425000D01*
G75*
G02*
X120475000Y-71625000I0J-200000D01*
G01*
X120475000Y-72175000D01*
G75*
G02*
X120275000Y-72375000I-200000J0D01*
G01*
X119875000Y-72375000D01*
G75*
G02*
X119675000Y-72175000I0J200000D01*
G01*
G37*
G36*
G01*
X121325000Y-72175000D02*
X121325000Y-71625000D01*
G75*
G02*
X121525000Y-71425000I200000J0D01*
G01*
X121925000Y-71425000D01*
G75*
G02*
X122125000Y-71625000I0J-200000D01*
G01*
X122125000Y-72175000D01*
G75*
G02*
X121925000Y-72375000I-200000J0D01*
G01*
X121525000Y-72375000D01*
G75*
G02*
X121325000Y-72175000I0J200000D01*
G01*
G37*
G36*
G01*
X121325000Y-73775000D02*
X121325000Y-73225000D01*
G75*
G02*
X121525000Y-73025000I200000J0D01*
G01*
X121925000Y-73025000D01*
G75*
G02*
X122125000Y-73225000I0J-200000D01*
G01*
X122125000Y-73775000D01*
G75*
G02*
X121925000Y-73975000I-200000J0D01*
G01*
X121525000Y-73975000D01*
G75*
G02*
X121325000Y-73775000I0J200000D01*
G01*
G37*
G36*
G01*
X119675000Y-73775000D02*
X119675000Y-73225000D01*
G75*
G02*
X119875000Y-73025000I200000J0D01*
G01*
X120275000Y-73025000D01*
G75*
G02*
X120475000Y-73225000I0J-200000D01*
G01*
X120475000Y-73775000D01*
G75*
G02*
X120275000Y-73975000I-200000J0D01*
G01*
X119875000Y-73975000D01*
G75*
G02*
X119675000Y-73775000I0J200000D01*
G01*
G37*
G36*
G01*
X126725000Y-88225000D02*
X126725000Y-88775000D01*
G75*
G02*
X126525000Y-88975000I-200000J0D01*
G01*
X126125000Y-88975000D01*
G75*
G02*
X125925000Y-88775000I0J200000D01*
G01*
X125925000Y-88225000D01*
G75*
G02*
X126125000Y-88025000I200000J0D01*
G01*
X126525000Y-88025000D01*
G75*
G02*
X126725000Y-88225000I0J-200000D01*
G01*
G37*
G36*
G01*
X125075000Y-88225000D02*
X125075000Y-88775000D01*
G75*
G02*
X124875000Y-88975000I-200000J0D01*
G01*
X124475000Y-88975000D01*
G75*
G02*
X124275000Y-88775000I0J200000D01*
G01*
X124275000Y-88225000D01*
G75*
G02*
X124475000Y-88025000I200000J0D01*
G01*
X124875000Y-88025000D01*
G75*
G02*
X125075000Y-88225000I0J-200000D01*
G01*
G37*
G36*
G01*
X125075000Y-86225000D02*
X125075000Y-86775000D01*
G75*
G02*
X124875000Y-86975000I-200000J0D01*
G01*
X124475000Y-86975000D01*
G75*
G02*
X124275000Y-86775000I0J200000D01*
G01*
X124275000Y-86225000D01*
G75*
G02*
X124475000Y-86025000I200000J0D01*
G01*
X124875000Y-86025000D01*
G75*
G02*
X125075000Y-86225000I0J-200000D01*
G01*
G37*
G36*
G01*
X126725000Y-86225000D02*
X126725000Y-86775000D01*
G75*
G02*
X126525000Y-86975000I-200000J0D01*
G01*
X126125000Y-86975000D01*
G75*
G02*
X125925000Y-86775000I0J200000D01*
G01*
X125925000Y-86225000D01*
G75*
G02*
X126125000Y-86025000I200000J0D01*
G01*
X126525000Y-86025000D01*
G75*
G02*
X126725000Y-86225000I0J-200000D01*
G01*
G37*
G36*
G01*
X129075000Y-87725000D02*
X129075000Y-88275000D01*
G75*
G02*
X128875000Y-88475000I-200000J0D01*
G01*
X128475000Y-88475000D01*
G75*
G02*
X128275000Y-88275000I0J200000D01*
G01*
X128275000Y-87725000D01*
G75*
G02*
X128475000Y-87525000I200000J0D01*
G01*
X128875000Y-87525000D01*
G75*
G02*
X129075000Y-87725000I0J-200000D01*
G01*
G37*
G36*
G01*
X130725000Y-87725000D02*
X130725000Y-88275000D01*
G75*
G02*
X130525000Y-88475000I-200000J0D01*
G01*
X130125000Y-88475000D01*
G75*
G02*
X129925000Y-88275000I0J200000D01*
G01*
X129925000Y-87725000D01*
G75*
G02*
X130125000Y-87525000I200000J0D01*
G01*
X130525000Y-87525000D01*
G75*
G02*
X130725000Y-87725000I0J-200000D01*
G01*
G37*
D12*
X133600000Y-83475000D03*
X133600000Y-82825000D03*
X133600000Y-82175000D03*
X133600000Y-81525000D03*
X133600000Y-80875000D03*
X133600000Y-80225000D03*
X133600000Y-79575000D03*
X133600000Y-78925000D03*
X133600000Y-78275000D03*
X133600000Y-77625000D03*
X133600000Y-76975000D03*
X133600000Y-76325000D03*
X126400000Y-76325000D03*
X126400000Y-76975000D03*
X126400000Y-77625000D03*
X126400000Y-78275000D03*
X126400000Y-78925000D03*
X126400000Y-79575000D03*
X126400000Y-80225000D03*
X126400000Y-80875000D03*
X126400000Y-81525000D03*
X126400000Y-82175000D03*
X126400000Y-82825000D03*
X126400000Y-83475000D03*
D10*
X136712600Y-66900400D03*
X136712600Y-68900400D03*
X134712600Y-66900400D03*
X134712600Y-68900400D03*
X136712600Y-55000400D03*
X136712600Y-57000400D03*
X134712600Y-55000400D03*
X134712600Y-57000400D03*
X136712600Y-43100400D03*
X136712600Y-45100400D03*
X134712600Y-43100400D03*
X134712600Y-45100400D03*
X134712600Y-33200400D03*
X134712600Y-31200400D03*
X136712600Y-33200400D03*
X136712600Y-31200400D03*
X122812600Y-33200400D03*
X122812600Y-31200400D03*
X124812600Y-33200400D03*
X124812600Y-31200400D03*
X124812600Y-43100400D03*
X124812600Y-45100400D03*
X122812600Y-43100400D03*
X122812600Y-45100400D03*
X122812600Y-57000400D03*
X122812600Y-55000400D03*
X124812600Y-57000400D03*
X124812600Y-55000400D03*
D13*
X116800000Y-27700000D03*
X142100000Y-27700000D03*
X142000000Y-95000000D03*
X117000000Y-95000000D03*
D14*
X137000000Y-93750000D03*
D15*
X134460000Y-93750000D03*
X131920000Y-93750000D03*
X129380000Y-93750000D03*
X126840000Y-93750000D03*
X124300000Y-93750000D03*
M02*
