%TF.GenerationSoftware,KiCad,Pcbnew,(5.1.12)-1*%
%TF.CreationDate,2022-08-18T11:29:56-07:00*%
%TF.ProjectId,HighPressureSensorArray,48696768-5072-4657-9373-75726553656e,rev?*%
%TF.SameCoordinates,Original*%
%TF.FileFunction,Copper,L1,Top*%
%TF.FilePolarity,Positive*%
%FSLAX46Y46*%
G04 Gerber Fmt 4.6, Leading zero omitted, Abs format (unit mm)*
G04 Created by KiCad (PCBNEW (5.1.12)-1) date 2022-08-18 11:29:56*
%MOMM*%
%LPD*%
G01*
G04 APERTURE LIST*
%TA.AperFunction,EtchedComponent*%
%ADD10C,0.100000*%
%TD*%
%TA.AperFunction,SMDPad,CuDef*%
%ADD11R,1.300000X1.300000*%
%TD*%
%TA.AperFunction,SMDPad,CuDef*%
%ADD12R,1.500000X1.000000*%
%TD*%
%TA.AperFunction,SMDPad,CuDef*%
%ADD13R,1.750000X0.450000*%
%TD*%
%TA.AperFunction,ComponentPad*%
%ADD14R,2.200000X2.200000*%
%TD*%
%TA.AperFunction,ComponentPad*%
%ADD15C,2.200000*%
%TD*%
%TA.AperFunction,ViaPad*%
%ADD16C,0.800000*%
%TD*%
%TA.AperFunction,Conductor*%
%ADD17C,0.250000*%
%TD*%
G04 APERTURE END LIST*
D10*
G36*
X121350000Y-91100000D02*
G01*
X121350000Y-91600000D01*
X120950000Y-91600000D01*
X120950000Y-91100000D01*
X121350000Y-91100000D01*
G37*
G36*
X120550000Y-91100000D02*
G01*
X120550000Y-91600000D01*
X120150000Y-91600000D01*
X120150000Y-91100000D01*
X120550000Y-91100000D01*
G37*
D11*
X122812600Y-68900400D03*
X122812600Y-66900400D03*
X124812600Y-68900400D03*
X124812600Y-66900400D03*
D12*
X120750000Y-90700000D03*
X120750000Y-93300000D03*
X120750000Y-92000000D03*
%TA.AperFunction,SMDPad,CuDef*%
G36*
G01*
X124325000Y-36250000D02*
X124325000Y-35750000D01*
G75*
G02*
X124550000Y-35525000I225000J0D01*
G01*
X125000000Y-35525000D01*
G75*
G02*
X125225000Y-35750000I0J-225000D01*
G01*
X125225000Y-36250000D01*
G75*
G02*
X125000000Y-36475000I-225000J0D01*
G01*
X124550000Y-36475000D01*
G75*
G02*
X124325000Y-36250000I0J225000D01*
G01*
G37*
%TD.AperFunction*%
%TA.AperFunction,SMDPad,CuDef*%
G36*
G01*
X122775000Y-36250000D02*
X122775000Y-35750000D01*
G75*
G02*
X123000000Y-35525000I225000J0D01*
G01*
X123450000Y-35525000D01*
G75*
G02*
X123675000Y-35750000I0J-225000D01*
G01*
X123675000Y-36250000D01*
G75*
G02*
X123450000Y-36475000I-225000J0D01*
G01*
X123000000Y-36475000D01*
G75*
G02*
X122775000Y-36250000I0J225000D01*
G01*
G37*
%TD.AperFunction*%
%TA.AperFunction,SMDPad,CuDef*%
G36*
G01*
X122775000Y-47750000D02*
X122775000Y-47250000D01*
G75*
G02*
X123000000Y-47025000I225000J0D01*
G01*
X123450000Y-47025000D01*
G75*
G02*
X123675000Y-47250000I0J-225000D01*
G01*
X123675000Y-47750000D01*
G75*
G02*
X123450000Y-47975000I-225000J0D01*
G01*
X123000000Y-47975000D01*
G75*
G02*
X122775000Y-47750000I0J225000D01*
G01*
G37*
%TD.AperFunction*%
%TA.AperFunction,SMDPad,CuDef*%
G36*
G01*
X124325000Y-47750000D02*
X124325000Y-47250000D01*
G75*
G02*
X124550000Y-47025000I225000J0D01*
G01*
X125000000Y-47025000D01*
G75*
G02*
X125225000Y-47250000I0J-225000D01*
G01*
X125225000Y-47750000D01*
G75*
G02*
X125000000Y-47975000I-225000J0D01*
G01*
X124550000Y-47975000D01*
G75*
G02*
X124325000Y-47750000I0J225000D01*
G01*
G37*
%TD.AperFunction*%
%TA.AperFunction,SMDPad,CuDef*%
G36*
G01*
X124325000Y-59650000D02*
X124325000Y-59150000D01*
G75*
G02*
X124550000Y-58925000I225000J0D01*
G01*
X125000000Y-58925000D01*
G75*
G02*
X125225000Y-59150000I0J-225000D01*
G01*
X125225000Y-59650000D01*
G75*
G02*
X125000000Y-59875000I-225000J0D01*
G01*
X124550000Y-59875000D01*
G75*
G02*
X124325000Y-59650000I0J225000D01*
G01*
G37*
%TD.AperFunction*%
%TA.AperFunction,SMDPad,CuDef*%
G36*
G01*
X122775000Y-59650000D02*
X122775000Y-59150000D01*
G75*
G02*
X123000000Y-58925000I225000J0D01*
G01*
X123450000Y-58925000D01*
G75*
G02*
X123675000Y-59150000I0J-225000D01*
G01*
X123675000Y-59650000D01*
G75*
G02*
X123450000Y-59875000I-225000J0D01*
G01*
X123000000Y-59875000D01*
G75*
G02*
X122775000Y-59650000I0J225000D01*
G01*
G37*
%TD.AperFunction*%
%TA.AperFunction,SMDPad,CuDef*%
G36*
G01*
X123275000Y-71250000D02*
X123275000Y-70750000D01*
G75*
G02*
X123500000Y-70525000I225000J0D01*
G01*
X123950000Y-70525000D01*
G75*
G02*
X124175000Y-70750000I0J-225000D01*
G01*
X124175000Y-71250000D01*
G75*
G02*
X123950000Y-71475000I-225000J0D01*
G01*
X123500000Y-71475000D01*
G75*
G02*
X123275000Y-71250000I0J225000D01*
G01*
G37*
%TD.AperFunction*%
%TA.AperFunction,SMDPad,CuDef*%
G36*
G01*
X124825000Y-71250000D02*
X124825000Y-70750000D01*
G75*
G02*
X125050000Y-70525000I225000J0D01*
G01*
X125500000Y-70525000D01*
G75*
G02*
X125725000Y-70750000I0J-225000D01*
G01*
X125725000Y-71250000D01*
G75*
G02*
X125500000Y-71475000I-225000J0D01*
G01*
X125050000Y-71475000D01*
G75*
G02*
X124825000Y-71250000I0J225000D01*
G01*
G37*
%TD.AperFunction*%
%TA.AperFunction,SMDPad,CuDef*%
G36*
G01*
X135175000Y-28450000D02*
X135175000Y-28950000D01*
G75*
G02*
X134950000Y-29175000I-225000J0D01*
G01*
X134500000Y-29175000D01*
G75*
G02*
X134275000Y-28950000I0J225000D01*
G01*
X134275000Y-28450000D01*
G75*
G02*
X134500000Y-28225000I225000J0D01*
G01*
X134950000Y-28225000D01*
G75*
G02*
X135175000Y-28450000I0J-225000D01*
G01*
G37*
%TD.AperFunction*%
%TA.AperFunction,SMDPad,CuDef*%
G36*
G01*
X136725000Y-28450000D02*
X136725000Y-28950000D01*
G75*
G02*
X136500000Y-29175000I-225000J0D01*
G01*
X136050000Y-29175000D01*
G75*
G02*
X135825000Y-28950000I0J225000D01*
G01*
X135825000Y-28450000D01*
G75*
G02*
X136050000Y-28225000I225000J0D01*
G01*
X136500000Y-28225000D01*
G75*
G02*
X136725000Y-28450000I0J-225000D01*
G01*
G37*
%TD.AperFunction*%
%TA.AperFunction,SMDPad,CuDef*%
G36*
G01*
X136725000Y-40250000D02*
X136725000Y-40750000D01*
G75*
G02*
X136500000Y-40975000I-225000J0D01*
G01*
X136050000Y-40975000D01*
G75*
G02*
X135825000Y-40750000I0J225000D01*
G01*
X135825000Y-40250000D01*
G75*
G02*
X136050000Y-40025000I225000J0D01*
G01*
X136500000Y-40025000D01*
G75*
G02*
X136725000Y-40250000I0J-225000D01*
G01*
G37*
%TD.AperFunction*%
%TA.AperFunction,SMDPad,CuDef*%
G36*
G01*
X135175000Y-40250000D02*
X135175000Y-40750000D01*
G75*
G02*
X134950000Y-40975000I-225000J0D01*
G01*
X134500000Y-40975000D01*
G75*
G02*
X134275000Y-40750000I0J225000D01*
G01*
X134275000Y-40250000D01*
G75*
G02*
X134500000Y-40025000I225000J0D01*
G01*
X134950000Y-40025000D01*
G75*
G02*
X135175000Y-40250000I0J-225000D01*
G01*
G37*
%TD.AperFunction*%
%TA.AperFunction,SMDPad,CuDef*%
G36*
G01*
X136725000Y-52250000D02*
X136725000Y-52750000D01*
G75*
G02*
X136500000Y-52975000I-225000J0D01*
G01*
X136050000Y-52975000D01*
G75*
G02*
X135825000Y-52750000I0J225000D01*
G01*
X135825000Y-52250000D01*
G75*
G02*
X136050000Y-52025000I225000J0D01*
G01*
X136500000Y-52025000D01*
G75*
G02*
X136725000Y-52250000I0J-225000D01*
G01*
G37*
%TD.AperFunction*%
%TA.AperFunction,SMDPad,CuDef*%
G36*
G01*
X135175000Y-52250000D02*
X135175000Y-52750000D01*
G75*
G02*
X134950000Y-52975000I-225000J0D01*
G01*
X134500000Y-52975000D01*
G75*
G02*
X134275000Y-52750000I0J225000D01*
G01*
X134275000Y-52250000D01*
G75*
G02*
X134500000Y-52025000I225000J0D01*
G01*
X134950000Y-52025000D01*
G75*
G02*
X135175000Y-52250000I0J-225000D01*
G01*
G37*
%TD.AperFunction*%
%TA.AperFunction,SMDPad,CuDef*%
G36*
G01*
X135175000Y-64250000D02*
X135175000Y-64750000D01*
G75*
G02*
X134950000Y-64975000I-225000J0D01*
G01*
X134500000Y-64975000D01*
G75*
G02*
X134275000Y-64750000I0J225000D01*
G01*
X134275000Y-64250000D01*
G75*
G02*
X134500000Y-64025000I225000J0D01*
G01*
X134950000Y-64025000D01*
G75*
G02*
X135175000Y-64250000I0J-225000D01*
G01*
G37*
%TD.AperFunction*%
%TA.AperFunction,SMDPad,CuDef*%
G36*
G01*
X136725000Y-64250000D02*
X136725000Y-64750000D01*
G75*
G02*
X136500000Y-64975000I-225000J0D01*
G01*
X136050000Y-64975000D01*
G75*
G02*
X135825000Y-64750000I0J225000D01*
G01*
X135825000Y-64250000D01*
G75*
G02*
X136050000Y-64025000I225000J0D01*
G01*
X136500000Y-64025000D01*
G75*
G02*
X136725000Y-64250000I0J-225000D01*
G01*
G37*
%TD.AperFunction*%
%TA.AperFunction,SMDPad,CuDef*%
G36*
G01*
X132075000Y-85950000D02*
X132075000Y-85450000D01*
G75*
G02*
X132300000Y-85225000I225000J0D01*
G01*
X132750000Y-85225000D01*
G75*
G02*
X132975000Y-85450000I0J-225000D01*
G01*
X132975000Y-85950000D01*
G75*
G02*
X132750000Y-86175000I-225000J0D01*
G01*
X132300000Y-86175000D01*
G75*
G02*
X132075000Y-85950000I0J225000D01*
G01*
G37*
%TD.AperFunction*%
%TA.AperFunction,SMDPad,CuDef*%
G36*
G01*
X133625000Y-85950000D02*
X133625000Y-85450000D01*
G75*
G02*
X133850000Y-85225000I225000J0D01*
G01*
X134300000Y-85225000D01*
G75*
G02*
X134525000Y-85450000I0J-225000D01*
G01*
X134525000Y-85950000D01*
G75*
G02*
X134300000Y-86175000I-225000J0D01*
G01*
X133850000Y-86175000D01*
G75*
G02*
X133625000Y-85950000I0J225000D01*
G01*
G37*
%TD.AperFunction*%
%TA.AperFunction,SMDPad,CuDef*%
G36*
G01*
X133625000Y-87750000D02*
X133625000Y-87250000D01*
G75*
G02*
X133850000Y-87025000I225000J0D01*
G01*
X134300000Y-87025000D01*
G75*
G02*
X134525000Y-87250000I0J-225000D01*
G01*
X134525000Y-87750000D01*
G75*
G02*
X134300000Y-87975000I-225000J0D01*
G01*
X133850000Y-87975000D01*
G75*
G02*
X133625000Y-87750000I0J225000D01*
G01*
G37*
%TD.AperFunction*%
%TA.AperFunction,SMDPad,CuDef*%
G36*
G01*
X132075000Y-87750000D02*
X132075000Y-87250000D01*
G75*
G02*
X132300000Y-87025000I225000J0D01*
G01*
X132750000Y-87025000D01*
G75*
G02*
X132975000Y-87250000I0J-225000D01*
G01*
X132975000Y-87750000D01*
G75*
G02*
X132750000Y-87975000I-225000J0D01*
G01*
X132300000Y-87975000D01*
G75*
G02*
X132075000Y-87750000I0J225000D01*
G01*
G37*
%TD.AperFunction*%
%TA.AperFunction,SMDPad,CuDef*%
G36*
G01*
X138775000Y-73325000D02*
X138775000Y-73875000D01*
G75*
G02*
X138575000Y-74075000I-200000J0D01*
G01*
X138175000Y-74075000D01*
G75*
G02*
X137975000Y-73875000I0J200000D01*
G01*
X137975000Y-73325000D01*
G75*
G02*
X138175000Y-73125000I200000J0D01*
G01*
X138575000Y-73125000D01*
G75*
G02*
X138775000Y-73325000I0J-200000D01*
G01*
G37*
%TD.AperFunction*%
%TA.AperFunction,SMDPad,CuDef*%
G36*
G01*
X140425000Y-73325000D02*
X140425000Y-73875000D01*
G75*
G02*
X140225000Y-74075000I-200000J0D01*
G01*
X139825000Y-74075000D01*
G75*
G02*
X139625000Y-73875000I0J200000D01*
G01*
X139625000Y-73325000D01*
G75*
G02*
X139825000Y-73125000I200000J0D01*
G01*
X140225000Y-73125000D01*
G75*
G02*
X140425000Y-73325000I0J-200000D01*
G01*
G37*
%TD.AperFunction*%
%TA.AperFunction,SMDPad,CuDef*%
G36*
G01*
X140425000Y-71725000D02*
X140425000Y-72275000D01*
G75*
G02*
X140225000Y-72475000I-200000J0D01*
G01*
X139825000Y-72475000D01*
G75*
G02*
X139625000Y-72275000I0J200000D01*
G01*
X139625000Y-71725000D01*
G75*
G02*
X139825000Y-71525000I200000J0D01*
G01*
X140225000Y-71525000D01*
G75*
G02*
X140425000Y-71725000I0J-200000D01*
G01*
G37*
%TD.AperFunction*%
%TA.AperFunction,SMDPad,CuDef*%
G36*
G01*
X138775000Y-71725000D02*
X138775000Y-72275000D01*
G75*
G02*
X138575000Y-72475000I-200000J0D01*
G01*
X138175000Y-72475000D01*
G75*
G02*
X137975000Y-72275000I0J200000D01*
G01*
X137975000Y-71725000D01*
G75*
G02*
X138175000Y-71525000I200000J0D01*
G01*
X138575000Y-71525000D01*
G75*
G02*
X138775000Y-71725000I0J-200000D01*
G01*
G37*
%TD.AperFunction*%
%TA.AperFunction,SMDPad,CuDef*%
G36*
G01*
X140425000Y-78604590D02*
X140425000Y-79154590D01*
G75*
G02*
X140225000Y-79354590I-200000J0D01*
G01*
X139825000Y-79354590D01*
G75*
G02*
X139625000Y-79154590I0J200000D01*
G01*
X139625000Y-78604590D01*
G75*
G02*
X139825000Y-78404590I200000J0D01*
G01*
X140225000Y-78404590D01*
G75*
G02*
X140425000Y-78604590I0J-200000D01*
G01*
G37*
%TD.AperFunction*%
%TA.AperFunction,SMDPad,CuDef*%
G36*
G01*
X138775000Y-78604590D02*
X138775000Y-79154590D01*
G75*
G02*
X138575000Y-79354590I-200000J0D01*
G01*
X138175000Y-79354590D01*
G75*
G02*
X137975000Y-79154590I0J200000D01*
G01*
X137975000Y-78604590D01*
G75*
G02*
X138175000Y-78404590I200000J0D01*
G01*
X138575000Y-78404590D01*
G75*
G02*
X138775000Y-78604590I0J-200000D01*
G01*
G37*
%TD.AperFunction*%
%TA.AperFunction,SMDPad,CuDef*%
G36*
G01*
X138775000Y-76563774D02*
X138775000Y-77113774D01*
G75*
G02*
X138575000Y-77313774I-200000J0D01*
G01*
X138175000Y-77313774D01*
G75*
G02*
X137975000Y-77113774I0J200000D01*
G01*
X137975000Y-76563774D01*
G75*
G02*
X138175000Y-76363774I200000J0D01*
G01*
X138575000Y-76363774D01*
G75*
G02*
X138775000Y-76563774I0J-200000D01*
G01*
G37*
%TD.AperFunction*%
%TA.AperFunction,SMDPad,CuDef*%
G36*
G01*
X140425000Y-76563774D02*
X140425000Y-77113774D01*
G75*
G02*
X140225000Y-77313774I-200000J0D01*
G01*
X139825000Y-77313774D01*
G75*
G02*
X139625000Y-77113774I0J200000D01*
G01*
X139625000Y-76563774D01*
G75*
G02*
X139825000Y-76363774I200000J0D01*
G01*
X140225000Y-76363774D01*
G75*
G02*
X140425000Y-76563774I0J-200000D01*
G01*
G37*
%TD.AperFunction*%
%TA.AperFunction,SMDPad,CuDef*%
G36*
G01*
X138775000Y-82686222D02*
X138775000Y-83236222D01*
G75*
G02*
X138575000Y-83436222I-200000J0D01*
G01*
X138175000Y-83436222D01*
G75*
G02*
X137975000Y-83236222I0J200000D01*
G01*
X137975000Y-82686222D01*
G75*
G02*
X138175000Y-82486222I200000J0D01*
G01*
X138575000Y-82486222D01*
G75*
G02*
X138775000Y-82686222I0J-200000D01*
G01*
G37*
%TD.AperFunction*%
%TA.AperFunction,SMDPad,CuDef*%
G36*
G01*
X140425000Y-82686222D02*
X140425000Y-83236222D01*
G75*
G02*
X140225000Y-83436222I-200000J0D01*
G01*
X139825000Y-83436222D01*
G75*
G02*
X139625000Y-83236222I0J200000D01*
G01*
X139625000Y-82686222D01*
G75*
G02*
X139825000Y-82486222I200000J0D01*
G01*
X140225000Y-82486222D01*
G75*
G02*
X140425000Y-82686222I0J-200000D01*
G01*
G37*
%TD.AperFunction*%
%TA.AperFunction,SMDPad,CuDef*%
G36*
G01*
X140425000Y-80645406D02*
X140425000Y-81195406D01*
G75*
G02*
X140225000Y-81395406I-200000J0D01*
G01*
X139825000Y-81395406D01*
G75*
G02*
X139625000Y-81195406I0J200000D01*
G01*
X139625000Y-80645406D01*
G75*
G02*
X139825000Y-80445406I200000J0D01*
G01*
X140225000Y-80445406D01*
G75*
G02*
X140425000Y-80645406I0J-200000D01*
G01*
G37*
%TD.AperFunction*%
%TA.AperFunction,SMDPad,CuDef*%
G36*
G01*
X138775000Y-80645406D02*
X138775000Y-81195406D01*
G75*
G02*
X138575000Y-81395406I-200000J0D01*
G01*
X138175000Y-81395406D01*
G75*
G02*
X137975000Y-81195406I0J200000D01*
G01*
X137975000Y-80645406D01*
G75*
G02*
X138175000Y-80445406I200000J0D01*
G01*
X138575000Y-80445406D01*
G75*
G02*
X138775000Y-80645406I0J-200000D01*
G01*
G37*
%TD.AperFunction*%
%TA.AperFunction,SMDPad,CuDef*%
G36*
G01*
X140425000Y-86767857D02*
X140425000Y-87317857D01*
G75*
G02*
X140225000Y-87517857I-200000J0D01*
G01*
X139825000Y-87517857D01*
G75*
G02*
X139625000Y-87317857I0J200000D01*
G01*
X139625000Y-86767857D01*
G75*
G02*
X139825000Y-86567857I200000J0D01*
G01*
X140225000Y-86567857D01*
G75*
G02*
X140425000Y-86767857I0J-200000D01*
G01*
G37*
%TD.AperFunction*%
%TA.AperFunction,SMDPad,CuDef*%
G36*
G01*
X138775000Y-86767857D02*
X138775000Y-87317857D01*
G75*
G02*
X138575000Y-87517857I-200000J0D01*
G01*
X138175000Y-87517857D01*
G75*
G02*
X137975000Y-87317857I0J200000D01*
G01*
X137975000Y-86767857D01*
G75*
G02*
X138175000Y-86567857I200000J0D01*
G01*
X138575000Y-86567857D01*
G75*
G02*
X138775000Y-86767857I0J-200000D01*
G01*
G37*
%TD.AperFunction*%
%TA.AperFunction,SMDPad,CuDef*%
G36*
G01*
X138775000Y-84727038D02*
X138775000Y-85277038D01*
G75*
G02*
X138575000Y-85477038I-200000J0D01*
G01*
X138175000Y-85477038D01*
G75*
G02*
X137975000Y-85277038I0J200000D01*
G01*
X137975000Y-84727038D01*
G75*
G02*
X138175000Y-84527038I200000J0D01*
G01*
X138575000Y-84527038D01*
G75*
G02*
X138775000Y-84727038I0J-200000D01*
G01*
G37*
%TD.AperFunction*%
%TA.AperFunction,SMDPad,CuDef*%
G36*
G01*
X140425000Y-84727038D02*
X140425000Y-85277038D01*
G75*
G02*
X140225000Y-85477038I-200000J0D01*
G01*
X139825000Y-85477038D01*
G75*
G02*
X139625000Y-85277038I0J200000D01*
G01*
X139625000Y-84727038D01*
G75*
G02*
X139825000Y-84527038I200000J0D01*
G01*
X140225000Y-84527038D01*
G75*
G02*
X140425000Y-84727038I0J-200000D01*
G01*
G37*
%TD.AperFunction*%
%TA.AperFunction,SMDPad,CuDef*%
G36*
G01*
X119675000Y-85276016D02*
X119675000Y-84726016D01*
G75*
G02*
X119875000Y-84526016I200000J0D01*
G01*
X120275000Y-84526016D01*
G75*
G02*
X120475000Y-84726016I0J-200000D01*
G01*
X120475000Y-85276016D01*
G75*
G02*
X120275000Y-85476016I-200000J0D01*
G01*
X119875000Y-85476016D01*
G75*
G02*
X119675000Y-85276016I0J200000D01*
G01*
G37*
%TD.AperFunction*%
%TA.AperFunction,SMDPad,CuDef*%
G36*
G01*
X121325000Y-85276016D02*
X121325000Y-84726016D01*
G75*
G02*
X121525000Y-84526016I200000J0D01*
G01*
X121925000Y-84526016D01*
G75*
G02*
X122125000Y-84726016I0J-200000D01*
G01*
X122125000Y-85276016D01*
G75*
G02*
X121925000Y-85476016I-200000J0D01*
G01*
X121525000Y-85476016D01*
G75*
G02*
X121325000Y-85276016I0J200000D01*
G01*
G37*
%TD.AperFunction*%
%TA.AperFunction,SMDPad,CuDef*%
G36*
G01*
X119675000Y-87317857D02*
X119675000Y-86767857D01*
G75*
G02*
X119875000Y-86567857I200000J0D01*
G01*
X120275000Y-86567857D01*
G75*
G02*
X120475000Y-86767857I0J-200000D01*
G01*
X120475000Y-87317857D01*
G75*
G02*
X120275000Y-87517857I-200000J0D01*
G01*
X119875000Y-87517857D01*
G75*
G02*
X119675000Y-87317857I0J200000D01*
G01*
G37*
%TD.AperFunction*%
%TA.AperFunction,SMDPad,CuDef*%
G36*
G01*
X121325000Y-87317857D02*
X121325000Y-86767857D01*
G75*
G02*
X121525000Y-86567857I200000J0D01*
G01*
X121925000Y-86567857D01*
G75*
G02*
X122125000Y-86767857I0J-200000D01*
G01*
X122125000Y-87317857D01*
G75*
G02*
X121925000Y-87517857I-200000J0D01*
G01*
X121525000Y-87517857D01*
G75*
G02*
X121325000Y-87317857I0J200000D01*
G01*
G37*
%TD.AperFunction*%
%TA.AperFunction,SMDPad,CuDef*%
G36*
G01*
X119675000Y-81192344D02*
X119675000Y-80642344D01*
G75*
G02*
X119875000Y-80442344I200000J0D01*
G01*
X120275000Y-80442344D01*
G75*
G02*
X120475000Y-80642344I0J-200000D01*
G01*
X120475000Y-81192344D01*
G75*
G02*
X120275000Y-81392344I-200000J0D01*
G01*
X119875000Y-81392344D01*
G75*
G02*
X119675000Y-81192344I0J200000D01*
G01*
G37*
%TD.AperFunction*%
%TA.AperFunction,SMDPad,CuDef*%
G36*
G01*
X121325000Y-81192344D02*
X121325000Y-80642344D01*
G75*
G02*
X121525000Y-80442344I200000J0D01*
G01*
X121925000Y-80442344D01*
G75*
G02*
X122125000Y-80642344I0J-200000D01*
G01*
X122125000Y-81192344D01*
G75*
G02*
X121925000Y-81392344I-200000J0D01*
G01*
X121525000Y-81392344D01*
G75*
G02*
X121325000Y-81192344I0J200000D01*
G01*
G37*
%TD.AperFunction*%
%TA.AperFunction,SMDPad,CuDef*%
G36*
G01*
X121325000Y-83234180D02*
X121325000Y-82684180D01*
G75*
G02*
X121525000Y-82484180I200000J0D01*
G01*
X121925000Y-82484180D01*
G75*
G02*
X122125000Y-82684180I0J-200000D01*
G01*
X122125000Y-83234180D01*
G75*
G02*
X121925000Y-83434180I-200000J0D01*
G01*
X121525000Y-83434180D01*
G75*
G02*
X121325000Y-83234180I0J200000D01*
G01*
G37*
%TD.AperFunction*%
%TA.AperFunction,SMDPad,CuDef*%
G36*
G01*
X119675000Y-83234180D02*
X119675000Y-82684180D01*
G75*
G02*
X119875000Y-82484180I200000J0D01*
G01*
X120275000Y-82484180D01*
G75*
G02*
X120475000Y-82684180I0J-200000D01*
G01*
X120475000Y-83234180D01*
G75*
G02*
X120275000Y-83434180I-200000J0D01*
G01*
X119875000Y-83434180D01*
G75*
G02*
X119675000Y-83234180I0J200000D01*
G01*
G37*
%TD.AperFunction*%
%TA.AperFunction,SMDPad,CuDef*%
G36*
G01*
X119675000Y-77108672D02*
X119675000Y-76558672D01*
G75*
G02*
X119875000Y-76358672I200000J0D01*
G01*
X120275000Y-76358672D01*
G75*
G02*
X120475000Y-76558672I0J-200000D01*
G01*
X120475000Y-77108672D01*
G75*
G02*
X120275000Y-77308672I-200000J0D01*
G01*
X119875000Y-77308672D01*
G75*
G02*
X119675000Y-77108672I0J200000D01*
G01*
G37*
%TD.AperFunction*%
%TA.AperFunction,SMDPad,CuDef*%
G36*
G01*
X121325000Y-77108672D02*
X121325000Y-76558672D01*
G75*
G02*
X121525000Y-76358672I200000J0D01*
G01*
X121925000Y-76358672D01*
G75*
G02*
X122125000Y-76558672I0J-200000D01*
G01*
X122125000Y-77108672D01*
G75*
G02*
X121925000Y-77308672I-200000J0D01*
G01*
X121525000Y-77308672D01*
G75*
G02*
X121325000Y-77108672I0J200000D01*
G01*
G37*
%TD.AperFunction*%
%TA.AperFunction,SMDPad,CuDef*%
G36*
G01*
X121325000Y-79150508D02*
X121325000Y-78600508D01*
G75*
G02*
X121525000Y-78400508I200000J0D01*
G01*
X121925000Y-78400508D01*
G75*
G02*
X122125000Y-78600508I0J-200000D01*
G01*
X122125000Y-79150508D01*
G75*
G02*
X121925000Y-79350508I-200000J0D01*
G01*
X121525000Y-79350508D01*
G75*
G02*
X121325000Y-79150508I0J200000D01*
G01*
G37*
%TD.AperFunction*%
%TA.AperFunction,SMDPad,CuDef*%
G36*
G01*
X119675000Y-79150508D02*
X119675000Y-78600508D01*
G75*
G02*
X119875000Y-78400508I200000J0D01*
G01*
X120275000Y-78400508D01*
G75*
G02*
X120475000Y-78600508I0J-200000D01*
G01*
X120475000Y-79150508D01*
G75*
G02*
X120275000Y-79350508I-200000J0D01*
G01*
X119875000Y-79350508D01*
G75*
G02*
X119675000Y-79150508I0J200000D01*
G01*
G37*
%TD.AperFunction*%
%TA.AperFunction,SMDPad,CuDef*%
G36*
G01*
X119675000Y-72175000D02*
X119675000Y-71625000D01*
G75*
G02*
X119875000Y-71425000I200000J0D01*
G01*
X120275000Y-71425000D01*
G75*
G02*
X120475000Y-71625000I0J-200000D01*
G01*
X120475000Y-72175000D01*
G75*
G02*
X120275000Y-72375000I-200000J0D01*
G01*
X119875000Y-72375000D01*
G75*
G02*
X119675000Y-72175000I0J200000D01*
G01*
G37*
%TD.AperFunction*%
%TA.AperFunction,SMDPad,CuDef*%
G36*
G01*
X121325000Y-72175000D02*
X121325000Y-71625000D01*
G75*
G02*
X121525000Y-71425000I200000J0D01*
G01*
X121925000Y-71425000D01*
G75*
G02*
X122125000Y-71625000I0J-200000D01*
G01*
X122125000Y-72175000D01*
G75*
G02*
X121925000Y-72375000I-200000J0D01*
G01*
X121525000Y-72375000D01*
G75*
G02*
X121325000Y-72175000I0J200000D01*
G01*
G37*
%TD.AperFunction*%
%TA.AperFunction,SMDPad,CuDef*%
G36*
G01*
X121325000Y-73775000D02*
X121325000Y-73225000D01*
G75*
G02*
X121525000Y-73025000I200000J0D01*
G01*
X121925000Y-73025000D01*
G75*
G02*
X122125000Y-73225000I0J-200000D01*
G01*
X122125000Y-73775000D01*
G75*
G02*
X121925000Y-73975000I-200000J0D01*
G01*
X121525000Y-73975000D01*
G75*
G02*
X121325000Y-73775000I0J200000D01*
G01*
G37*
%TD.AperFunction*%
%TA.AperFunction,SMDPad,CuDef*%
G36*
G01*
X119675000Y-73775000D02*
X119675000Y-73225000D01*
G75*
G02*
X119875000Y-73025000I200000J0D01*
G01*
X120275000Y-73025000D01*
G75*
G02*
X120475000Y-73225000I0J-200000D01*
G01*
X120475000Y-73775000D01*
G75*
G02*
X120275000Y-73975000I-200000J0D01*
G01*
X119875000Y-73975000D01*
G75*
G02*
X119675000Y-73775000I0J200000D01*
G01*
G37*
%TD.AperFunction*%
%TA.AperFunction,SMDPad,CuDef*%
G36*
G01*
X126725000Y-88225000D02*
X126725000Y-88775000D01*
G75*
G02*
X126525000Y-88975000I-200000J0D01*
G01*
X126125000Y-88975000D01*
G75*
G02*
X125925000Y-88775000I0J200000D01*
G01*
X125925000Y-88225000D01*
G75*
G02*
X126125000Y-88025000I200000J0D01*
G01*
X126525000Y-88025000D01*
G75*
G02*
X126725000Y-88225000I0J-200000D01*
G01*
G37*
%TD.AperFunction*%
%TA.AperFunction,SMDPad,CuDef*%
G36*
G01*
X125075000Y-88225000D02*
X125075000Y-88775000D01*
G75*
G02*
X124875000Y-88975000I-200000J0D01*
G01*
X124475000Y-88975000D01*
G75*
G02*
X124275000Y-88775000I0J200000D01*
G01*
X124275000Y-88225000D01*
G75*
G02*
X124475000Y-88025000I200000J0D01*
G01*
X124875000Y-88025000D01*
G75*
G02*
X125075000Y-88225000I0J-200000D01*
G01*
G37*
%TD.AperFunction*%
%TA.AperFunction,SMDPad,CuDef*%
G36*
G01*
X125075000Y-86225000D02*
X125075000Y-86775000D01*
G75*
G02*
X124875000Y-86975000I-200000J0D01*
G01*
X124475000Y-86975000D01*
G75*
G02*
X124275000Y-86775000I0J200000D01*
G01*
X124275000Y-86225000D01*
G75*
G02*
X124475000Y-86025000I200000J0D01*
G01*
X124875000Y-86025000D01*
G75*
G02*
X125075000Y-86225000I0J-200000D01*
G01*
G37*
%TD.AperFunction*%
%TA.AperFunction,SMDPad,CuDef*%
G36*
G01*
X126725000Y-86225000D02*
X126725000Y-86775000D01*
G75*
G02*
X126525000Y-86975000I-200000J0D01*
G01*
X126125000Y-86975000D01*
G75*
G02*
X125925000Y-86775000I0J200000D01*
G01*
X125925000Y-86225000D01*
G75*
G02*
X126125000Y-86025000I200000J0D01*
G01*
X126525000Y-86025000D01*
G75*
G02*
X126725000Y-86225000I0J-200000D01*
G01*
G37*
%TD.AperFunction*%
%TA.AperFunction,SMDPad,CuDef*%
G36*
G01*
X129075000Y-87725000D02*
X129075000Y-88275000D01*
G75*
G02*
X128875000Y-88475000I-200000J0D01*
G01*
X128475000Y-88475000D01*
G75*
G02*
X128275000Y-88275000I0J200000D01*
G01*
X128275000Y-87725000D01*
G75*
G02*
X128475000Y-87525000I200000J0D01*
G01*
X128875000Y-87525000D01*
G75*
G02*
X129075000Y-87725000I0J-200000D01*
G01*
G37*
%TD.AperFunction*%
%TA.AperFunction,SMDPad,CuDef*%
G36*
G01*
X130725000Y-87725000D02*
X130725000Y-88275000D01*
G75*
G02*
X130525000Y-88475000I-200000J0D01*
G01*
X130125000Y-88475000D01*
G75*
G02*
X129925000Y-88275000I0J200000D01*
G01*
X129925000Y-87725000D01*
G75*
G02*
X130125000Y-87525000I200000J0D01*
G01*
X130525000Y-87525000D01*
G75*
G02*
X130725000Y-87725000I0J-200000D01*
G01*
G37*
%TD.AperFunction*%
D13*
X133600000Y-83475000D03*
X133600000Y-82825000D03*
X133600000Y-82175000D03*
X133600000Y-81525000D03*
X133600000Y-80875000D03*
X133600000Y-80225000D03*
X133600000Y-79575000D03*
X133600000Y-78925000D03*
X133600000Y-78275000D03*
X133600000Y-77625000D03*
X133600000Y-76975000D03*
X133600000Y-76325000D03*
X126400000Y-76325000D03*
X126400000Y-76975000D03*
X126400000Y-77625000D03*
X126400000Y-78275000D03*
X126400000Y-78925000D03*
X126400000Y-79575000D03*
X126400000Y-80225000D03*
X126400000Y-80875000D03*
X126400000Y-81525000D03*
X126400000Y-82175000D03*
X126400000Y-82825000D03*
X126400000Y-83475000D03*
D11*
X136712600Y-66900400D03*
X136712600Y-68900400D03*
X134712600Y-66900400D03*
X134712600Y-68900400D03*
X136712600Y-55000400D03*
X136712600Y-57000400D03*
X134712600Y-55000400D03*
X134712600Y-57000400D03*
X136712600Y-43100400D03*
X136712600Y-45100400D03*
X134712600Y-43100400D03*
X134712600Y-45100400D03*
X134712600Y-33200400D03*
X134712600Y-31200400D03*
X136712600Y-33200400D03*
X136712600Y-31200400D03*
X122812600Y-33200400D03*
X122812600Y-31200400D03*
X124812600Y-33200400D03*
X124812600Y-31200400D03*
X124812600Y-43100400D03*
X124812600Y-45100400D03*
X122812600Y-43100400D03*
X122812600Y-45100400D03*
X122812600Y-57000400D03*
X122812600Y-55000400D03*
X124812600Y-57000400D03*
X124812600Y-55000400D03*
D14*
X137000000Y-93750000D03*
D15*
X134460000Y-93750000D03*
X131920000Y-93750000D03*
X129380000Y-93750000D03*
X126840000Y-93750000D03*
X124300000Y-93750000D03*
D16*
X135075014Y-83690823D03*
X128500000Y-86500000D03*
X140025000Y-88475000D03*
X126500000Y-84999992D03*
X120075000Y-88325000D03*
X127012662Y-73987342D03*
X136071928Y-76416863D03*
X133000000Y-69000000D03*
X135346918Y-75675918D03*
X133000000Y-67000004D03*
X136366985Y-78488605D03*
X133400000Y-57000000D03*
X136143606Y-77513861D03*
X133000000Y-55000000D03*
X136335351Y-80736365D03*
X133000000Y-45000000D03*
X136336190Y-79586190D03*
X133000000Y-43000000D03*
X135957015Y-82847552D03*
X133000000Y-33500000D03*
X136249994Y-81750000D03*
X133000000Y-30999994D03*
X124192304Y-80895655D03*
X121099998Y-33000000D03*
X124171929Y-81941350D03*
X121100000Y-31000000D03*
X124359739Y-78825371D03*
X121200000Y-45000000D03*
X124243979Y-79818660D03*
X121200000Y-43000000D03*
X124367944Y-76842625D03*
X121000000Y-57000000D03*
X124231006Y-77833680D03*
X120900000Y-55000000D03*
X125154397Y-75044205D03*
X121100000Y-69000000D03*
X124566795Y-75862583D03*
X121000000Y-67000000D03*
D17*
X135024999Y-83640808D02*
X135075014Y-83690823D01*
X134725000Y-82175000D02*
X135024999Y-82474999D01*
X133600000Y-82175000D02*
X134725000Y-82175000D01*
X135024999Y-82474999D02*
X135024999Y-83640808D01*
X128500000Y-87825000D02*
X128675000Y-88000000D01*
X128500000Y-86500000D02*
X128500000Y-87825000D01*
X131920000Y-91250000D02*
X131920000Y-93750000D01*
X128675000Y-88005000D02*
X131920000Y-91250000D01*
X128675000Y-88000000D02*
X128675000Y-88005000D01*
X130275000Y-85700000D02*
X132525000Y-85700000D01*
X132525000Y-85700000D02*
X132525000Y-87500000D01*
X132525000Y-85700000D02*
X128625000Y-85700000D01*
X127562500Y-84637500D02*
X126400000Y-83475000D01*
X128625000Y-85700000D02*
X127562500Y-84637500D01*
X140025000Y-87042857D02*
X140025000Y-88475000D01*
X140025000Y-88475000D02*
X140025000Y-88475000D01*
X126400000Y-84899992D02*
X126500000Y-84999992D01*
X126400000Y-83475000D02*
X126400000Y-84899992D01*
X120075000Y-87042857D02*
X120075000Y-88325000D01*
X120075000Y-88325000D02*
X120075000Y-88325000D01*
X130325000Y-88000000D02*
X130325000Y-88191410D01*
X120075000Y-90025000D02*
X120750000Y-90700000D01*
X120075000Y-88325000D02*
X120075000Y-90025000D01*
X132525000Y-87500000D02*
X132525000Y-89265000D01*
X131260000Y-88000000D02*
X132525000Y-89265000D01*
X130325000Y-88000000D02*
X131260000Y-88000000D01*
X140000000Y-72025000D02*
X140000000Y-87000000D01*
X140025000Y-72000000D02*
X140000000Y-72025000D01*
X120075000Y-71900000D02*
X120075000Y-87042857D01*
X134460000Y-91210000D02*
X134460000Y-93750000D01*
X132520000Y-89270000D02*
X134460000Y-91210000D01*
X132525000Y-89265000D02*
X132520000Y-89270000D01*
X126987342Y-73987342D02*
X127012662Y-73987342D01*
X125275000Y-72275000D02*
X126987342Y-73987342D01*
X125275000Y-71000000D02*
X125275000Y-72275000D01*
X125787601Y-70487399D02*
X125787601Y-67875401D01*
X125787601Y-67875401D02*
X124812600Y-66900400D01*
X125275000Y-71000000D02*
X125787601Y-70487399D01*
X124812600Y-59437600D02*
X124775000Y-59400000D01*
X124812600Y-66900400D02*
X124812600Y-59437600D01*
X125787601Y-55975401D02*
X124812600Y-55000400D01*
X125787601Y-58387399D02*
X125787601Y-55975401D01*
X124775000Y-59400000D02*
X125787601Y-58387399D01*
X124812600Y-47537600D02*
X124775000Y-47500000D01*
X124812600Y-55000400D02*
X124812600Y-47537600D01*
X125787601Y-44075401D02*
X124812600Y-43100400D01*
X125787601Y-46487399D02*
X125787601Y-44075401D01*
X124775000Y-47500000D02*
X125787601Y-46487399D01*
X124812600Y-36037600D02*
X124775000Y-36000000D01*
X124812600Y-43100400D02*
X124812600Y-36037600D01*
X125787601Y-32175401D02*
X124812600Y-31200400D01*
X125787601Y-34987399D02*
X125787601Y-32175401D01*
X124775000Y-36000000D02*
X125787601Y-34987399D01*
X127313000Y-28700000D02*
X134725000Y-28700000D01*
X124812600Y-31200400D02*
X127313000Y-28700000D01*
X134725000Y-29212800D02*
X136712600Y-31200400D01*
X134725000Y-28700000D02*
X134725000Y-29212800D01*
X135737599Y-39487401D02*
X134725000Y-40500000D01*
X135737599Y-32175401D02*
X135737599Y-39487401D01*
X136712600Y-31200400D02*
X135737599Y-32175401D01*
X134725000Y-41112800D02*
X136712600Y-43100400D01*
X134725000Y-40500000D02*
X134725000Y-41112800D01*
X135687601Y-51537399D02*
X134725000Y-52500000D01*
X135687601Y-44125399D02*
X135687601Y-51537399D01*
X136712600Y-43100400D02*
X135687601Y-44125399D01*
X134725000Y-53012800D02*
X136712600Y-55000400D01*
X134725000Y-52500000D02*
X134725000Y-53012800D01*
X135737599Y-63487401D02*
X134725000Y-64500000D01*
X135737599Y-55975401D02*
X135737599Y-63487401D01*
X136712600Y-55000400D02*
X135737599Y-55975401D01*
X134725000Y-64912800D02*
X136712600Y-66900400D01*
X134725000Y-64500000D02*
X134725000Y-64912800D01*
X133600000Y-82825000D02*
X133600000Y-83475000D01*
X133600000Y-85225000D02*
X134075000Y-85700000D01*
X133600000Y-83475000D02*
X133600000Y-85225000D01*
X134075000Y-85700000D02*
X134075000Y-87500000D01*
X127435002Y-81525000D02*
X126400000Y-81525000D01*
X132635002Y-76325000D02*
X127435002Y-81525000D01*
X133600000Y-76325000D02*
X132635002Y-76325000D01*
X132564998Y-82825000D02*
X133600000Y-82825000D01*
X131264998Y-81525000D02*
X132564998Y-82825000D01*
X126400000Y-81525000D02*
X131264998Y-81525000D01*
X137000000Y-91250000D02*
X137000000Y-93750000D01*
X134075000Y-88325000D02*
X137000000Y-91250000D01*
X134075000Y-87500000D02*
X134075000Y-88325000D01*
X126500000Y-75000000D02*
X123500000Y-72000000D01*
X132500000Y-75000000D02*
X126500000Y-75000000D01*
X133600000Y-76100000D02*
X132500000Y-75000000D01*
X133600000Y-76325000D02*
X133600000Y-76100000D01*
X123500000Y-71225000D02*
X123725000Y-71000000D01*
X123500000Y-72000000D02*
X123500000Y-71225000D01*
X123725000Y-69988000D02*
X124812600Y-68900400D01*
X123725000Y-71000000D02*
X123725000Y-69988000D01*
X123837599Y-60012599D02*
X123225000Y-59400000D01*
X123837599Y-67925399D02*
X123837599Y-60012599D01*
X124812600Y-68900400D02*
X123837599Y-67925399D01*
X123225000Y-58588000D02*
X124812600Y-57000400D01*
X123225000Y-59400000D02*
X123225000Y-58588000D01*
X123837599Y-48112599D02*
X123225000Y-47500000D01*
X123837599Y-56025399D02*
X123837599Y-48112599D01*
X124812600Y-57000400D02*
X123837599Y-56025399D01*
X123225000Y-46688000D02*
X124812600Y-45100400D01*
X123225000Y-47500000D02*
X123225000Y-46688000D01*
X123837599Y-36612599D02*
X123225000Y-36000000D01*
X123837599Y-44125399D02*
X123837599Y-36612599D01*
X124812600Y-45100400D02*
X123837599Y-44125399D01*
X123225000Y-34788000D02*
X124812600Y-33200400D01*
X123225000Y-36000000D02*
X123225000Y-34788000D01*
X135474990Y-27899990D02*
X136275000Y-28700000D01*
X126228008Y-27899990D02*
X135474990Y-27899990D01*
X123837599Y-30290399D02*
X126228008Y-27899990D01*
X123837599Y-32225399D02*
X123837599Y-30290399D01*
X124812600Y-33200400D02*
X123837599Y-32225399D01*
X137687601Y-32225399D02*
X136712600Y-33200400D01*
X137687601Y-30112601D02*
X137687601Y-32225399D01*
X136275000Y-28700000D02*
X137687601Y-30112601D01*
X136712600Y-40062400D02*
X136275000Y-40500000D01*
X136712600Y-33200400D02*
X136712600Y-40062400D01*
X137687601Y-44125399D02*
X136712600Y-45100400D01*
X137687601Y-41912601D02*
X137687601Y-44125399D01*
X136275000Y-40500000D02*
X137687601Y-41912601D01*
X136712600Y-52062400D02*
X136275000Y-52500000D01*
X136712600Y-45100400D02*
X136712600Y-52062400D01*
X137687601Y-56025399D02*
X136712600Y-57000400D01*
X137687601Y-53912601D02*
X137687601Y-56025399D01*
X136275000Y-52500000D02*
X137687601Y-53912601D01*
X136712600Y-64062400D02*
X136275000Y-64500000D01*
X136712600Y-57000400D02*
X136712600Y-64062400D01*
X137687601Y-67925399D02*
X136712600Y-68900400D01*
X137687601Y-65912601D02*
X137687601Y-67925399D01*
X136275000Y-64500000D02*
X137687601Y-65912601D01*
X126325000Y-86025000D02*
X126325000Y-86500000D01*
X125199999Y-83960001D02*
X125200011Y-83960013D01*
X125275000Y-82825000D02*
X125199999Y-82900001D01*
X125200011Y-83960013D02*
X125200011Y-84900011D01*
X126400000Y-82825000D02*
X125275000Y-82825000D01*
X125200011Y-84900011D02*
X126325000Y-86025000D01*
X125199999Y-82900001D02*
X125199999Y-83960001D01*
X129380000Y-90030000D02*
X129380000Y-93750000D01*
X126325000Y-86975000D02*
X129380000Y-90030000D01*
X126325000Y-86500000D02*
X126325000Y-86975000D01*
X126325000Y-87717478D02*
X126325000Y-88500000D01*
X125599990Y-86007532D02*
X125599990Y-86992468D01*
X124750000Y-84146413D02*
X124750000Y-85157542D01*
X124749988Y-84146401D02*
X124750000Y-84146413D01*
X124750000Y-85157542D02*
X125599990Y-86007532D01*
X124749988Y-82803599D02*
X124749988Y-84146401D01*
X124750000Y-82803587D02*
X124749988Y-82803599D01*
X124750000Y-82436281D02*
X124750000Y-82803587D01*
X125011281Y-82175000D02*
X124750000Y-82436281D01*
X125599990Y-86992468D02*
X126325000Y-87717478D01*
X126400000Y-82175000D02*
X125011281Y-82175000D01*
X126840000Y-89015000D02*
X126840000Y-93750000D01*
X126325000Y-88500000D02*
X126840000Y-89015000D01*
X137800000Y-73600000D02*
X136071928Y-75328072D01*
X133600000Y-77625000D02*
X134863791Y-77625000D01*
X134863791Y-77625000D02*
X136071928Y-76416863D01*
X136071928Y-75328072D02*
X136071928Y-76416863D01*
X138375000Y-73600000D02*
X137800000Y-73600000D01*
X134613000Y-69000000D02*
X134712600Y-68900400D01*
X133000000Y-69000000D02*
X134613000Y-69000000D01*
X138375000Y-72000000D02*
X135348796Y-75026204D01*
X135348796Y-75026204D02*
X135348796Y-75675918D01*
X134725000Y-76975000D02*
X135346918Y-76353082D01*
X135348796Y-75675918D02*
X135346918Y-75675918D01*
X133600000Y-76975000D02*
X134725000Y-76975000D01*
X135346918Y-76353082D02*
X135346918Y-75675918D01*
X134612996Y-67000004D02*
X134712600Y-66900400D01*
X133000000Y-67000004D02*
X134612996Y-67000004D01*
X133600000Y-78925000D02*
X135930590Y-78925000D01*
X135930590Y-78925000D02*
X136366985Y-78488605D01*
X136757970Y-78879590D02*
X138375000Y-78879590D01*
X136366985Y-78488605D02*
X136757970Y-78879590D01*
X134712200Y-57000000D02*
X134712600Y-57000400D01*
X133400000Y-57000000D02*
X134712200Y-57000000D01*
X138375000Y-76838774D02*
X136818693Y-76838774D01*
X135382467Y-78275000D02*
X136143606Y-77513861D01*
X133600000Y-78275000D02*
X135382467Y-78275000D01*
X136818693Y-76838774D02*
X136143606Y-77513861D01*
X134712200Y-55000000D02*
X134712600Y-55000400D01*
X133000000Y-55000000D02*
X134712200Y-55000000D01*
X135823986Y-80225000D02*
X136335351Y-80736365D01*
X138375000Y-82776014D02*
X136335351Y-80736365D01*
X133600000Y-80225000D02*
X135823986Y-80225000D01*
X138375000Y-82961222D02*
X138375000Y-82776014D01*
X134612200Y-45000000D02*
X134712600Y-45100400D01*
X133000000Y-45000000D02*
X134612200Y-45000000D01*
X137670406Y-80920406D02*
X136336190Y-79586190D01*
X138375000Y-80920406D02*
X137670406Y-80920406D01*
X133600000Y-79575000D02*
X136325000Y-79575000D01*
X136325000Y-79575000D02*
X136336190Y-79586190D01*
X134612200Y-43000000D02*
X134712600Y-43100400D01*
X133000000Y-43000000D02*
X134612200Y-43000000D01*
X135957015Y-82757015D02*
X135957015Y-82847552D01*
X134725000Y-81525000D02*
X135957015Y-82757015D01*
X133600000Y-81525000D02*
X134725000Y-81525000D01*
X135957015Y-84340944D02*
X135957015Y-82847552D01*
X138375000Y-86758929D02*
X135957015Y-84340944D01*
X138375000Y-87042857D02*
X138375000Y-86758929D01*
X134413000Y-33500000D02*
X134712600Y-33200400D01*
X133000000Y-33500000D02*
X134413000Y-33500000D01*
X133600000Y-80875000D02*
X135374994Y-80875000D01*
X135374994Y-80875000D02*
X136249994Y-81750000D01*
X137502038Y-85002038D02*
X138375000Y-85002038D01*
X136682016Y-84182016D02*
X137502038Y-85002038D01*
X136682016Y-82182022D02*
X136682016Y-84182016D01*
X136249994Y-81750000D02*
X136682016Y-82182022D01*
X134512194Y-30999994D02*
X134712600Y-31200400D01*
X133000000Y-30999994D02*
X134512194Y-30999994D01*
X123188500Y-81899459D02*
X124192304Y-80895655D01*
X121725000Y-85001016D02*
X123188500Y-83537516D01*
X126400000Y-80225000D02*
X124862959Y-80225000D01*
X124862959Y-80225000D02*
X124192304Y-80895655D01*
X123188500Y-83537516D02*
X123188500Y-81899459D01*
X122612200Y-33000000D02*
X122812600Y-33200400D01*
X121099998Y-33000000D02*
X122612200Y-33000000D01*
X123771930Y-82341349D02*
X124171929Y-81941350D01*
X126400000Y-80875000D02*
X125238279Y-80875000D01*
X125238279Y-80875000D02*
X124171929Y-81941350D01*
X121725000Y-87042857D02*
X123771930Y-84995927D01*
X123771930Y-84995927D02*
X123771930Y-82341349D01*
X122612200Y-31000000D02*
X122812600Y-31200400D01*
X121100000Y-31000000D02*
X122612200Y-31000000D01*
X126400000Y-78850000D02*
X126375001Y-78825001D01*
X126400000Y-78925000D02*
X126400000Y-78850000D01*
X122072291Y-80917344D02*
X124164264Y-78825371D01*
X124164264Y-78825371D02*
X124359739Y-78825371D01*
X126400000Y-78925000D02*
X124459368Y-78925000D01*
X121725000Y-80917344D02*
X122072291Y-80917344D01*
X124459368Y-78925000D02*
X124359739Y-78825371D01*
X122712200Y-45000000D02*
X122812600Y-45100400D01*
X121200000Y-45000000D02*
X122712200Y-45000000D01*
X121725000Y-82959180D02*
X121725000Y-82337639D01*
X121725000Y-82337639D02*
X124243979Y-79818660D01*
X126400000Y-79575000D02*
X124487639Y-79575000D01*
X124487639Y-79575000D02*
X124243979Y-79818660D01*
X122712200Y-43000000D02*
X122812600Y-43100400D01*
X121200000Y-43000000D02*
X122712200Y-43000000D01*
X121725000Y-76833672D02*
X124358991Y-76833672D01*
X125150319Y-77625000D02*
X124367944Y-76842625D01*
X124358991Y-76833672D02*
X124367944Y-76842625D01*
X126400000Y-77625000D02*
X125150319Y-77625000D01*
X122812200Y-57000000D02*
X122812600Y-57000400D01*
X121000000Y-57000000D02*
X122812200Y-57000000D01*
X126400000Y-78275000D02*
X124882370Y-78275000D01*
X121725000Y-78875508D02*
X123189178Y-78875508D01*
X123189178Y-78875508D02*
X124231006Y-77833680D01*
X124441050Y-77833680D02*
X124231006Y-77833680D01*
X124882370Y-78275000D02*
X124441050Y-77833680D01*
X122812200Y-55000000D02*
X122812600Y-55000400D01*
X120900000Y-55000000D02*
X122812200Y-55000000D01*
X125154397Y-75079397D02*
X125154397Y-75044205D01*
X126400000Y-76325000D02*
X125154397Y-75079397D01*
X122010192Y-71900000D02*
X125154397Y-75044205D01*
X121725000Y-71900000D02*
X122010192Y-71900000D01*
X122713000Y-69000000D02*
X122812600Y-68900400D01*
X121100000Y-69000000D02*
X122713000Y-69000000D01*
X125092945Y-76388733D02*
X124566795Y-75862583D01*
X125275000Y-76975000D02*
X125092945Y-76792945D01*
X125092945Y-76792945D02*
X125092945Y-76388733D01*
X126400000Y-76975000D02*
X125275000Y-76975000D01*
X122204212Y-73500000D02*
X124566795Y-75862583D01*
X121725000Y-73500000D02*
X122204212Y-73500000D01*
X122713000Y-67000000D02*
X122812600Y-66900400D01*
X121000000Y-67000000D02*
X122713000Y-67000000D01*
X123850000Y-93300000D02*
X124300000Y-93750000D01*
X120750000Y-93300000D02*
X123850000Y-93300000D01*
X124675000Y-86500000D02*
X124675000Y-88500000D01*
X121750000Y-92000000D02*
X120750000Y-92000000D01*
X124675000Y-89075000D02*
X121750000Y-92000000D01*
X124675000Y-88500000D02*
X124675000Y-89075000D01*
M02*
