%TF.GenerationSoftware,KiCad,Pcbnew,(5.1.12)-1*%
%TF.CreationDate,2022-08-18T12:28:12-07:00*%
%TF.ProjectId,HighPressureSensorArray,48696768-5072-4657-9373-75726553656e,rev?*%
%TF.SameCoordinates,Original*%
%TF.FileFunction,Copper,L1,Top*%
%TF.FilePolarity,Positive*%
%FSLAX46Y46*%
G04 Gerber Fmt 4.6, Leading zero omitted, Abs format (unit mm)*
G04 Created by KiCad (PCBNEW (5.1.12)-1) date 2022-08-18 12:28:12*
%MOMM*%
%LPD*%
G01*
G04 APERTURE LIST*
%TA.AperFunction,EtchedComponent*%
%ADD10C,0.100000*%
%TD*%
%TA.AperFunction,SMDPad,CuDef*%
%ADD11R,1.750000X0.450000*%
%TD*%
%TA.AperFunction,SMDPad,CuDef*%
%ADD12R,1.300000X1.300000*%
%TD*%
%TA.AperFunction,SMDPad,CuDef*%
%ADD13R,1.500000X1.000000*%
%TD*%
%TA.AperFunction,ComponentPad*%
%ADD14R,2.200000X2.200000*%
%TD*%
%TA.AperFunction,ComponentPad*%
%ADD15C,2.200000*%
%TD*%
%TA.AperFunction,ViaPad*%
%ADD16C,0.800000*%
%TD*%
%TA.AperFunction,Conductor*%
%ADD17C,0.250000*%
%TD*%
G04 APERTURE END LIST*
D10*
G36*
X121450000Y-93600000D02*
G01*
X121450000Y-93100000D01*
X121850000Y-93100000D01*
X121850000Y-93600000D01*
X121450000Y-93600000D01*
G37*
G36*
X120650000Y-93600000D02*
G01*
X120650000Y-93100000D01*
X121050000Y-93100000D01*
X121050000Y-93600000D01*
X120650000Y-93600000D01*
G37*
%TA.AperFunction,SMDPad,CuDef*%
G36*
G01*
X126325000Y-51550000D02*
X126325000Y-51050000D01*
G75*
G02*
X126550000Y-50825000I225000J0D01*
G01*
X127000000Y-50825000D01*
G75*
G02*
X127225000Y-51050000I0J-225000D01*
G01*
X127225000Y-51550000D01*
G75*
G02*
X127000000Y-51775000I-225000J0D01*
G01*
X126550000Y-51775000D01*
G75*
G02*
X126325000Y-51550000I0J225000D01*
G01*
G37*
%TD.AperFunction*%
%TA.AperFunction,SMDPad,CuDef*%
G36*
G01*
X124775000Y-51550000D02*
X124775000Y-51050000D01*
G75*
G02*
X125000000Y-50825000I225000J0D01*
G01*
X125450000Y-50825000D01*
G75*
G02*
X125675000Y-51050000I0J-225000D01*
G01*
X125675000Y-51550000D01*
G75*
G02*
X125450000Y-51775000I-225000J0D01*
G01*
X125000000Y-51775000D01*
G75*
G02*
X124775000Y-51550000I0J225000D01*
G01*
G37*
%TD.AperFunction*%
%TA.AperFunction,SMDPad,CuDef*%
G36*
G01*
X124775000Y-58350000D02*
X124775000Y-57850000D01*
G75*
G02*
X125000000Y-57625000I225000J0D01*
G01*
X125450000Y-57625000D01*
G75*
G02*
X125675000Y-57850000I0J-225000D01*
G01*
X125675000Y-58350000D01*
G75*
G02*
X125450000Y-58575000I-225000J0D01*
G01*
X125000000Y-58575000D01*
G75*
G02*
X124775000Y-58350000I0J225000D01*
G01*
G37*
%TD.AperFunction*%
%TA.AperFunction,SMDPad,CuDef*%
G36*
G01*
X126325000Y-58350000D02*
X126325000Y-57850000D01*
G75*
G02*
X126550000Y-57625000I225000J0D01*
G01*
X127000000Y-57625000D01*
G75*
G02*
X127225000Y-57850000I0J-225000D01*
G01*
X127225000Y-58350000D01*
G75*
G02*
X127000000Y-58575000I-225000J0D01*
G01*
X126550000Y-58575000D01*
G75*
G02*
X126325000Y-58350000I0J225000D01*
G01*
G37*
%TD.AperFunction*%
%TA.AperFunction,SMDPad,CuDef*%
G36*
G01*
X126325000Y-64850000D02*
X126325000Y-64350000D01*
G75*
G02*
X126550000Y-64125000I225000J0D01*
G01*
X127000000Y-64125000D01*
G75*
G02*
X127225000Y-64350000I0J-225000D01*
G01*
X127225000Y-64850000D01*
G75*
G02*
X127000000Y-65075000I-225000J0D01*
G01*
X126550000Y-65075000D01*
G75*
G02*
X126325000Y-64850000I0J225000D01*
G01*
G37*
%TD.AperFunction*%
%TA.AperFunction,SMDPad,CuDef*%
G36*
G01*
X124775000Y-64850000D02*
X124775000Y-64350000D01*
G75*
G02*
X125000000Y-64125000I225000J0D01*
G01*
X125450000Y-64125000D01*
G75*
G02*
X125675000Y-64350000I0J-225000D01*
G01*
X125675000Y-64850000D01*
G75*
G02*
X125450000Y-65075000I-225000J0D01*
G01*
X125000000Y-65075000D01*
G75*
G02*
X124775000Y-64850000I0J225000D01*
G01*
G37*
%TD.AperFunction*%
%TA.AperFunction,SMDPad,CuDef*%
G36*
G01*
X124875000Y-71650000D02*
X124875000Y-71150000D01*
G75*
G02*
X125100000Y-70925000I225000J0D01*
G01*
X125550000Y-70925000D01*
G75*
G02*
X125775000Y-71150000I0J-225000D01*
G01*
X125775000Y-71650000D01*
G75*
G02*
X125550000Y-71875000I-225000J0D01*
G01*
X125100000Y-71875000D01*
G75*
G02*
X124875000Y-71650000I0J225000D01*
G01*
G37*
%TD.AperFunction*%
%TA.AperFunction,SMDPad,CuDef*%
G36*
G01*
X126425000Y-71650000D02*
X126425000Y-71150000D01*
G75*
G02*
X126650000Y-70925000I225000J0D01*
G01*
X127100000Y-70925000D01*
G75*
G02*
X127325000Y-71150000I0J-225000D01*
G01*
X127325000Y-71650000D01*
G75*
G02*
X127100000Y-71875000I-225000J0D01*
G01*
X126650000Y-71875000D01*
G75*
G02*
X126425000Y-71650000I0J225000D01*
G01*
G37*
%TD.AperFunction*%
%TA.AperFunction,SMDPad,CuDef*%
G36*
G01*
X132275000Y-45150000D02*
X132275000Y-45650000D01*
G75*
G02*
X132050000Y-45875000I-225000J0D01*
G01*
X131600000Y-45875000D01*
G75*
G02*
X131375000Y-45650000I0J225000D01*
G01*
X131375000Y-45150000D01*
G75*
G02*
X131600000Y-44925000I225000J0D01*
G01*
X132050000Y-44925000D01*
G75*
G02*
X132275000Y-45150000I0J-225000D01*
G01*
G37*
%TD.AperFunction*%
%TA.AperFunction,SMDPad,CuDef*%
G36*
G01*
X133825000Y-45150000D02*
X133825000Y-45650000D01*
G75*
G02*
X133600000Y-45875000I-225000J0D01*
G01*
X133150000Y-45875000D01*
G75*
G02*
X132925000Y-45650000I0J225000D01*
G01*
X132925000Y-45150000D01*
G75*
G02*
X133150000Y-44925000I225000J0D01*
G01*
X133600000Y-44925000D01*
G75*
G02*
X133825000Y-45150000I0J-225000D01*
G01*
G37*
%TD.AperFunction*%
%TA.AperFunction,SMDPad,CuDef*%
G36*
G01*
X133825000Y-52050000D02*
X133825000Y-52550000D01*
G75*
G02*
X133600000Y-52775000I-225000J0D01*
G01*
X133150000Y-52775000D01*
G75*
G02*
X132925000Y-52550000I0J225000D01*
G01*
X132925000Y-52050000D01*
G75*
G02*
X133150000Y-51825000I225000J0D01*
G01*
X133600000Y-51825000D01*
G75*
G02*
X133825000Y-52050000I0J-225000D01*
G01*
G37*
%TD.AperFunction*%
%TA.AperFunction,SMDPad,CuDef*%
G36*
G01*
X132275000Y-52050000D02*
X132275000Y-52550000D01*
G75*
G02*
X132050000Y-52775000I-225000J0D01*
G01*
X131600000Y-52775000D01*
G75*
G02*
X131375000Y-52550000I0J225000D01*
G01*
X131375000Y-52050000D01*
G75*
G02*
X131600000Y-51825000I225000J0D01*
G01*
X132050000Y-51825000D01*
G75*
G02*
X132275000Y-52050000I0J-225000D01*
G01*
G37*
%TD.AperFunction*%
%TA.AperFunction,SMDPad,CuDef*%
G36*
G01*
X134025000Y-58950000D02*
X134025000Y-59450000D01*
G75*
G02*
X133800000Y-59675000I-225000J0D01*
G01*
X133350000Y-59675000D01*
G75*
G02*
X133125000Y-59450000I0J225000D01*
G01*
X133125000Y-58950000D01*
G75*
G02*
X133350000Y-58725000I225000J0D01*
G01*
X133800000Y-58725000D01*
G75*
G02*
X134025000Y-58950000I0J-225000D01*
G01*
G37*
%TD.AperFunction*%
%TA.AperFunction,SMDPad,CuDef*%
G36*
G01*
X132475000Y-58950000D02*
X132475000Y-59450000D01*
G75*
G02*
X132250000Y-59675000I-225000J0D01*
G01*
X131800000Y-59675000D01*
G75*
G02*
X131575000Y-59450000I0J225000D01*
G01*
X131575000Y-58950000D01*
G75*
G02*
X131800000Y-58725000I225000J0D01*
G01*
X132250000Y-58725000D01*
G75*
G02*
X132475000Y-58950000I0J-225000D01*
G01*
G37*
%TD.AperFunction*%
%TA.AperFunction,SMDPad,CuDef*%
G36*
G01*
X132375000Y-65650000D02*
X132375000Y-66150000D01*
G75*
G02*
X132150000Y-66375000I-225000J0D01*
G01*
X131700000Y-66375000D01*
G75*
G02*
X131475000Y-66150000I0J225000D01*
G01*
X131475000Y-65650000D01*
G75*
G02*
X131700000Y-65425000I225000J0D01*
G01*
X132150000Y-65425000D01*
G75*
G02*
X132375000Y-65650000I0J-225000D01*
G01*
G37*
%TD.AperFunction*%
%TA.AperFunction,SMDPad,CuDef*%
G36*
G01*
X133925000Y-65650000D02*
X133925000Y-66150000D01*
G75*
G02*
X133700000Y-66375000I-225000J0D01*
G01*
X133250000Y-66375000D01*
G75*
G02*
X133025000Y-66150000I0J225000D01*
G01*
X133025000Y-65650000D01*
G75*
G02*
X133250000Y-65425000I225000J0D01*
G01*
X133700000Y-65425000D01*
G75*
G02*
X133925000Y-65650000I0J-225000D01*
G01*
G37*
%TD.AperFunction*%
%TA.AperFunction,SMDPad,CuDef*%
G36*
G01*
X132075000Y-85950000D02*
X132075000Y-85450000D01*
G75*
G02*
X132300000Y-85225000I225000J0D01*
G01*
X132750000Y-85225000D01*
G75*
G02*
X132975000Y-85450000I0J-225000D01*
G01*
X132975000Y-85950000D01*
G75*
G02*
X132750000Y-86175000I-225000J0D01*
G01*
X132300000Y-86175000D01*
G75*
G02*
X132075000Y-85950000I0J225000D01*
G01*
G37*
%TD.AperFunction*%
%TA.AperFunction,SMDPad,CuDef*%
G36*
G01*
X133625000Y-85950000D02*
X133625000Y-85450000D01*
G75*
G02*
X133850000Y-85225000I225000J0D01*
G01*
X134300000Y-85225000D01*
G75*
G02*
X134525000Y-85450000I0J-225000D01*
G01*
X134525000Y-85950000D01*
G75*
G02*
X134300000Y-86175000I-225000J0D01*
G01*
X133850000Y-86175000D01*
G75*
G02*
X133625000Y-85950000I0J225000D01*
G01*
G37*
%TD.AperFunction*%
%TA.AperFunction,SMDPad,CuDef*%
G36*
G01*
X133625000Y-87750000D02*
X133625000Y-87250000D01*
G75*
G02*
X133850000Y-87025000I225000J0D01*
G01*
X134300000Y-87025000D01*
G75*
G02*
X134525000Y-87250000I0J-225000D01*
G01*
X134525000Y-87750000D01*
G75*
G02*
X134300000Y-87975000I-225000J0D01*
G01*
X133850000Y-87975000D01*
G75*
G02*
X133625000Y-87750000I0J225000D01*
G01*
G37*
%TD.AperFunction*%
%TA.AperFunction,SMDPad,CuDef*%
G36*
G01*
X132075000Y-87750000D02*
X132075000Y-87250000D01*
G75*
G02*
X132300000Y-87025000I225000J0D01*
G01*
X132750000Y-87025000D01*
G75*
G02*
X132975000Y-87250000I0J-225000D01*
G01*
X132975000Y-87750000D01*
G75*
G02*
X132750000Y-87975000I-225000J0D01*
G01*
X132300000Y-87975000D01*
G75*
G02*
X132075000Y-87750000I0J225000D01*
G01*
G37*
%TD.AperFunction*%
%TA.AperFunction,SMDPad,CuDef*%
G36*
G01*
X138775000Y-74522958D02*
X138775000Y-75072958D01*
G75*
G02*
X138575000Y-75272958I-200000J0D01*
G01*
X138175000Y-75272958D01*
G75*
G02*
X137975000Y-75072958I0J200000D01*
G01*
X137975000Y-74522958D01*
G75*
G02*
X138175000Y-74322958I200000J0D01*
G01*
X138575000Y-74322958D01*
G75*
G02*
X138775000Y-74522958I0J-200000D01*
G01*
G37*
%TD.AperFunction*%
%TA.AperFunction,SMDPad,CuDef*%
G36*
G01*
X140425000Y-74522958D02*
X140425000Y-75072958D01*
G75*
G02*
X140225000Y-75272958I-200000J0D01*
G01*
X139825000Y-75272958D01*
G75*
G02*
X139625000Y-75072958I0J200000D01*
G01*
X139625000Y-74522958D01*
G75*
G02*
X139825000Y-74322958I200000J0D01*
G01*
X140225000Y-74322958D01*
G75*
G02*
X140425000Y-74522958I0J-200000D01*
G01*
G37*
%TD.AperFunction*%
%TA.AperFunction,SMDPad,CuDef*%
G36*
G01*
X140425000Y-72482142D02*
X140425000Y-73032142D01*
G75*
G02*
X140225000Y-73232142I-200000J0D01*
G01*
X139825000Y-73232142D01*
G75*
G02*
X139625000Y-73032142I0J200000D01*
G01*
X139625000Y-72482142D01*
G75*
G02*
X139825000Y-72282142I200000J0D01*
G01*
X140225000Y-72282142D01*
G75*
G02*
X140425000Y-72482142I0J-200000D01*
G01*
G37*
%TD.AperFunction*%
%TA.AperFunction,SMDPad,CuDef*%
G36*
G01*
X138775000Y-72482142D02*
X138775000Y-73032142D01*
G75*
G02*
X138575000Y-73232142I-200000J0D01*
G01*
X138175000Y-73232142D01*
G75*
G02*
X137975000Y-73032142I0J200000D01*
G01*
X137975000Y-72482142D01*
G75*
G02*
X138175000Y-72282142I200000J0D01*
G01*
X138575000Y-72282142D01*
G75*
G02*
X138775000Y-72482142I0J-200000D01*
G01*
G37*
%TD.AperFunction*%
%TA.AperFunction,SMDPad,CuDef*%
G36*
G01*
X140425000Y-78604590D02*
X140425000Y-79154590D01*
G75*
G02*
X140225000Y-79354590I-200000J0D01*
G01*
X139825000Y-79354590D01*
G75*
G02*
X139625000Y-79154590I0J200000D01*
G01*
X139625000Y-78604590D01*
G75*
G02*
X139825000Y-78404590I200000J0D01*
G01*
X140225000Y-78404590D01*
G75*
G02*
X140425000Y-78604590I0J-200000D01*
G01*
G37*
%TD.AperFunction*%
%TA.AperFunction,SMDPad,CuDef*%
G36*
G01*
X138775000Y-78604590D02*
X138775000Y-79154590D01*
G75*
G02*
X138575000Y-79354590I-200000J0D01*
G01*
X138175000Y-79354590D01*
G75*
G02*
X137975000Y-79154590I0J200000D01*
G01*
X137975000Y-78604590D01*
G75*
G02*
X138175000Y-78404590I200000J0D01*
G01*
X138575000Y-78404590D01*
G75*
G02*
X138775000Y-78604590I0J-200000D01*
G01*
G37*
%TD.AperFunction*%
%TA.AperFunction,SMDPad,CuDef*%
G36*
G01*
X138775000Y-76563774D02*
X138775000Y-77113774D01*
G75*
G02*
X138575000Y-77313774I-200000J0D01*
G01*
X138175000Y-77313774D01*
G75*
G02*
X137975000Y-77113774I0J200000D01*
G01*
X137975000Y-76563774D01*
G75*
G02*
X138175000Y-76363774I200000J0D01*
G01*
X138575000Y-76363774D01*
G75*
G02*
X138775000Y-76563774I0J-200000D01*
G01*
G37*
%TD.AperFunction*%
%TA.AperFunction,SMDPad,CuDef*%
G36*
G01*
X140425000Y-76563774D02*
X140425000Y-77113774D01*
G75*
G02*
X140225000Y-77313774I-200000J0D01*
G01*
X139825000Y-77313774D01*
G75*
G02*
X139625000Y-77113774I0J200000D01*
G01*
X139625000Y-76563774D01*
G75*
G02*
X139825000Y-76363774I200000J0D01*
G01*
X140225000Y-76363774D01*
G75*
G02*
X140425000Y-76563774I0J-200000D01*
G01*
G37*
%TD.AperFunction*%
%TA.AperFunction,SMDPad,CuDef*%
G36*
G01*
X138775000Y-82686222D02*
X138775000Y-83236222D01*
G75*
G02*
X138575000Y-83436222I-200000J0D01*
G01*
X138175000Y-83436222D01*
G75*
G02*
X137975000Y-83236222I0J200000D01*
G01*
X137975000Y-82686222D01*
G75*
G02*
X138175000Y-82486222I200000J0D01*
G01*
X138575000Y-82486222D01*
G75*
G02*
X138775000Y-82686222I0J-200000D01*
G01*
G37*
%TD.AperFunction*%
%TA.AperFunction,SMDPad,CuDef*%
G36*
G01*
X140425000Y-82686222D02*
X140425000Y-83236222D01*
G75*
G02*
X140225000Y-83436222I-200000J0D01*
G01*
X139825000Y-83436222D01*
G75*
G02*
X139625000Y-83236222I0J200000D01*
G01*
X139625000Y-82686222D01*
G75*
G02*
X139825000Y-82486222I200000J0D01*
G01*
X140225000Y-82486222D01*
G75*
G02*
X140425000Y-82686222I0J-200000D01*
G01*
G37*
%TD.AperFunction*%
%TA.AperFunction,SMDPad,CuDef*%
G36*
G01*
X140425000Y-80645406D02*
X140425000Y-81195406D01*
G75*
G02*
X140225000Y-81395406I-200000J0D01*
G01*
X139825000Y-81395406D01*
G75*
G02*
X139625000Y-81195406I0J200000D01*
G01*
X139625000Y-80645406D01*
G75*
G02*
X139825000Y-80445406I200000J0D01*
G01*
X140225000Y-80445406D01*
G75*
G02*
X140425000Y-80645406I0J-200000D01*
G01*
G37*
%TD.AperFunction*%
%TA.AperFunction,SMDPad,CuDef*%
G36*
G01*
X138775000Y-80645406D02*
X138775000Y-81195406D01*
G75*
G02*
X138575000Y-81395406I-200000J0D01*
G01*
X138175000Y-81395406D01*
G75*
G02*
X137975000Y-81195406I0J200000D01*
G01*
X137975000Y-80645406D01*
G75*
G02*
X138175000Y-80445406I200000J0D01*
G01*
X138575000Y-80445406D01*
G75*
G02*
X138775000Y-80645406I0J-200000D01*
G01*
G37*
%TD.AperFunction*%
%TA.AperFunction,SMDPad,CuDef*%
G36*
G01*
X140425000Y-86767857D02*
X140425000Y-87317857D01*
G75*
G02*
X140225000Y-87517857I-200000J0D01*
G01*
X139825000Y-87517857D01*
G75*
G02*
X139625000Y-87317857I0J200000D01*
G01*
X139625000Y-86767857D01*
G75*
G02*
X139825000Y-86567857I200000J0D01*
G01*
X140225000Y-86567857D01*
G75*
G02*
X140425000Y-86767857I0J-200000D01*
G01*
G37*
%TD.AperFunction*%
%TA.AperFunction,SMDPad,CuDef*%
G36*
G01*
X138775000Y-86767857D02*
X138775000Y-87317857D01*
G75*
G02*
X138575000Y-87517857I-200000J0D01*
G01*
X138175000Y-87517857D01*
G75*
G02*
X137975000Y-87317857I0J200000D01*
G01*
X137975000Y-86767857D01*
G75*
G02*
X138175000Y-86567857I200000J0D01*
G01*
X138575000Y-86567857D01*
G75*
G02*
X138775000Y-86767857I0J-200000D01*
G01*
G37*
%TD.AperFunction*%
%TA.AperFunction,SMDPad,CuDef*%
G36*
G01*
X138775000Y-84727038D02*
X138775000Y-85277038D01*
G75*
G02*
X138575000Y-85477038I-200000J0D01*
G01*
X138175000Y-85477038D01*
G75*
G02*
X137975000Y-85277038I0J200000D01*
G01*
X137975000Y-84727038D01*
G75*
G02*
X138175000Y-84527038I200000J0D01*
G01*
X138575000Y-84527038D01*
G75*
G02*
X138775000Y-84727038I0J-200000D01*
G01*
G37*
%TD.AperFunction*%
%TA.AperFunction,SMDPad,CuDef*%
G36*
G01*
X140425000Y-84727038D02*
X140425000Y-85277038D01*
G75*
G02*
X140225000Y-85477038I-200000J0D01*
G01*
X139825000Y-85477038D01*
G75*
G02*
X139625000Y-85277038I0J200000D01*
G01*
X139625000Y-84727038D01*
G75*
G02*
X139825000Y-84527038I200000J0D01*
G01*
X140225000Y-84527038D01*
G75*
G02*
X140425000Y-84727038I0J-200000D01*
G01*
G37*
%TD.AperFunction*%
%TA.AperFunction,SMDPad,CuDef*%
G36*
G01*
X119675000Y-85276016D02*
X119675000Y-84726016D01*
G75*
G02*
X119875000Y-84526016I200000J0D01*
G01*
X120275000Y-84526016D01*
G75*
G02*
X120475000Y-84726016I0J-200000D01*
G01*
X120475000Y-85276016D01*
G75*
G02*
X120275000Y-85476016I-200000J0D01*
G01*
X119875000Y-85476016D01*
G75*
G02*
X119675000Y-85276016I0J200000D01*
G01*
G37*
%TD.AperFunction*%
%TA.AperFunction,SMDPad,CuDef*%
G36*
G01*
X121325000Y-85276016D02*
X121325000Y-84726016D01*
G75*
G02*
X121525000Y-84526016I200000J0D01*
G01*
X121925000Y-84526016D01*
G75*
G02*
X122125000Y-84726016I0J-200000D01*
G01*
X122125000Y-85276016D01*
G75*
G02*
X121925000Y-85476016I-200000J0D01*
G01*
X121525000Y-85476016D01*
G75*
G02*
X121325000Y-85276016I0J200000D01*
G01*
G37*
%TD.AperFunction*%
%TA.AperFunction,SMDPad,CuDef*%
G36*
G01*
X119675000Y-87317857D02*
X119675000Y-86767857D01*
G75*
G02*
X119875000Y-86567857I200000J0D01*
G01*
X120275000Y-86567857D01*
G75*
G02*
X120475000Y-86767857I0J-200000D01*
G01*
X120475000Y-87317857D01*
G75*
G02*
X120275000Y-87517857I-200000J0D01*
G01*
X119875000Y-87517857D01*
G75*
G02*
X119675000Y-87317857I0J200000D01*
G01*
G37*
%TD.AperFunction*%
%TA.AperFunction,SMDPad,CuDef*%
G36*
G01*
X121325000Y-87317857D02*
X121325000Y-86767857D01*
G75*
G02*
X121525000Y-86567857I200000J0D01*
G01*
X121925000Y-86567857D01*
G75*
G02*
X122125000Y-86767857I0J-200000D01*
G01*
X122125000Y-87317857D01*
G75*
G02*
X121925000Y-87517857I-200000J0D01*
G01*
X121525000Y-87517857D01*
G75*
G02*
X121325000Y-87317857I0J200000D01*
G01*
G37*
%TD.AperFunction*%
%TA.AperFunction,SMDPad,CuDef*%
G36*
G01*
X119675000Y-81192344D02*
X119675000Y-80642344D01*
G75*
G02*
X119875000Y-80442344I200000J0D01*
G01*
X120275000Y-80442344D01*
G75*
G02*
X120475000Y-80642344I0J-200000D01*
G01*
X120475000Y-81192344D01*
G75*
G02*
X120275000Y-81392344I-200000J0D01*
G01*
X119875000Y-81392344D01*
G75*
G02*
X119675000Y-81192344I0J200000D01*
G01*
G37*
%TD.AperFunction*%
%TA.AperFunction,SMDPad,CuDef*%
G36*
G01*
X121325000Y-81192344D02*
X121325000Y-80642344D01*
G75*
G02*
X121525000Y-80442344I200000J0D01*
G01*
X121925000Y-80442344D01*
G75*
G02*
X122125000Y-80642344I0J-200000D01*
G01*
X122125000Y-81192344D01*
G75*
G02*
X121925000Y-81392344I-200000J0D01*
G01*
X121525000Y-81392344D01*
G75*
G02*
X121325000Y-81192344I0J200000D01*
G01*
G37*
%TD.AperFunction*%
%TA.AperFunction,SMDPad,CuDef*%
G36*
G01*
X121325000Y-83234180D02*
X121325000Y-82684180D01*
G75*
G02*
X121525000Y-82484180I200000J0D01*
G01*
X121925000Y-82484180D01*
G75*
G02*
X122125000Y-82684180I0J-200000D01*
G01*
X122125000Y-83234180D01*
G75*
G02*
X121925000Y-83434180I-200000J0D01*
G01*
X121525000Y-83434180D01*
G75*
G02*
X121325000Y-83234180I0J200000D01*
G01*
G37*
%TD.AperFunction*%
%TA.AperFunction,SMDPad,CuDef*%
G36*
G01*
X119675000Y-83234180D02*
X119675000Y-82684180D01*
G75*
G02*
X119875000Y-82484180I200000J0D01*
G01*
X120275000Y-82484180D01*
G75*
G02*
X120475000Y-82684180I0J-200000D01*
G01*
X120475000Y-83234180D01*
G75*
G02*
X120275000Y-83434180I-200000J0D01*
G01*
X119875000Y-83434180D01*
G75*
G02*
X119675000Y-83234180I0J200000D01*
G01*
G37*
%TD.AperFunction*%
%TA.AperFunction,SMDPad,CuDef*%
G36*
G01*
X119675000Y-77108672D02*
X119675000Y-76558672D01*
G75*
G02*
X119875000Y-76358672I200000J0D01*
G01*
X120275000Y-76358672D01*
G75*
G02*
X120475000Y-76558672I0J-200000D01*
G01*
X120475000Y-77108672D01*
G75*
G02*
X120275000Y-77308672I-200000J0D01*
G01*
X119875000Y-77308672D01*
G75*
G02*
X119675000Y-77108672I0J200000D01*
G01*
G37*
%TD.AperFunction*%
%TA.AperFunction,SMDPad,CuDef*%
G36*
G01*
X121325000Y-77108672D02*
X121325000Y-76558672D01*
G75*
G02*
X121525000Y-76358672I200000J0D01*
G01*
X121925000Y-76358672D01*
G75*
G02*
X122125000Y-76558672I0J-200000D01*
G01*
X122125000Y-77108672D01*
G75*
G02*
X121925000Y-77308672I-200000J0D01*
G01*
X121525000Y-77308672D01*
G75*
G02*
X121325000Y-77108672I0J200000D01*
G01*
G37*
%TD.AperFunction*%
%TA.AperFunction,SMDPad,CuDef*%
G36*
G01*
X121325000Y-79150508D02*
X121325000Y-78600508D01*
G75*
G02*
X121525000Y-78400508I200000J0D01*
G01*
X121925000Y-78400508D01*
G75*
G02*
X122125000Y-78600508I0J-200000D01*
G01*
X122125000Y-79150508D01*
G75*
G02*
X121925000Y-79350508I-200000J0D01*
G01*
X121525000Y-79350508D01*
G75*
G02*
X121325000Y-79150508I0J200000D01*
G01*
G37*
%TD.AperFunction*%
%TA.AperFunction,SMDPad,CuDef*%
G36*
G01*
X119675000Y-79150508D02*
X119675000Y-78600508D01*
G75*
G02*
X119875000Y-78400508I200000J0D01*
G01*
X120275000Y-78400508D01*
G75*
G02*
X120475000Y-78600508I0J-200000D01*
G01*
X120475000Y-79150508D01*
G75*
G02*
X120275000Y-79350508I-200000J0D01*
G01*
X119875000Y-79350508D01*
G75*
G02*
X119675000Y-79150508I0J200000D01*
G01*
G37*
%TD.AperFunction*%
%TA.AperFunction,SMDPad,CuDef*%
G36*
G01*
X119675000Y-73025000D02*
X119675000Y-72475000D01*
G75*
G02*
X119875000Y-72275000I200000J0D01*
G01*
X120275000Y-72275000D01*
G75*
G02*
X120475000Y-72475000I0J-200000D01*
G01*
X120475000Y-73025000D01*
G75*
G02*
X120275000Y-73225000I-200000J0D01*
G01*
X119875000Y-73225000D01*
G75*
G02*
X119675000Y-73025000I0J200000D01*
G01*
G37*
%TD.AperFunction*%
%TA.AperFunction,SMDPad,CuDef*%
G36*
G01*
X121325000Y-73025000D02*
X121325000Y-72475000D01*
G75*
G02*
X121525000Y-72275000I200000J0D01*
G01*
X121925000Y-72275000D01*
G75*
G02*
X122125000Y-72475000I0J-200000D01*
G01*
X122125000Y-73025000D01*
G75*
G02*
X121925000Y-73225000I-200000J0D01*
G01*
X121525000Y-73225000D01*
G75*
G02*
X121325000Y-73025000I0J200000D01*
G01*
G37*
%TD.AperFunction*%
%TA.AperFunction,SMDPad,CuDef*%
G36*
G01*
X121325000Y-75066836D02*
X121325000Y-74516836D01*
G75*
G02*
X121525000Y-74316836I200000J0D01*
G01*
X121925000Y-74316836D01*
G75*
G02*
X122125000Y-74516836I0J-200000D01*
G01*
X122125000Y-75066836D01*
G75*
G02*
X121925000Y-75266836I-200000J0D01*
G01*
X121525000Y-75266836D01*
G75*
G02*
X121325000Y-75066836I0J200000D01*
G01*
G37*
%TD.AperFunction*%
%TA.AperFunction,SMDPad,CuDef*%
G36*
G01*
X119675000Y-75066836D02*
X119675000Y-74516836D01*
G75*
G02*
X119875000Y-74316836I200000J0D01*
G01*
X120275000Y-74316836D01*
G75*
G02*
X120475000Y-74516836I0J-200000D01*
G01*
X120475000Y-75066836D01*
G75*
G02*
X120275000Y-75266836I-200000J0D01*
G01*
X119875000Y-75266836D01*
G75*
G02*
X119675000Y-75066836I0J200000D01*
G01*
G37*
%TD.AperFunction*%
%TA.AperFunction,SMDPad,CuDef*%
G36*
G01*
X126725000Y-88225000D02*
X126725000Y-88775000D01*
G75*
G02*
X126525000Y-88975000I-200000J0D01*
G01*
X126125000Y-88975000D01*
G75*
G02*
X125925000Y-88775000I0J200000D01*
G01*
X125925000Y-88225000D01*
G75*
G02*
X126125000Y-88025000I200000J0D01*
G01*
X126525000Y-88025000D01*
G75*
G02*
X126725000Y-88225000I0J-200000D01*
G01*
G37*
%TD.AperFunction*%
%TA.AperFunction,SMDPad,CuDef*%
G36*
G01*
X125075000Y-88225000D02*
X125075000Y-88775000D01*
G75*
G02*
X124875000Y-88975000I-200000J0D01*
G01*
X124475000Y-88975000D01*
G75*
G02*
X124275000Y-88775000I0J200000D01*
G01*
X124275000Y-88225000D01*
G75*
G02*
X124475000Y-88025000I200000J0D01*
G01*
X124875000Y-88025000D01*
G75*
G02*
X125075000Y-88225000I0J-200000D01*
G01*
G37*
%TD.AperFunction*%
%TA.AperFunction,SMDPad,CuDef*%
G36*
G01*
X125075000Y-86225000D02*
X125075000Y-86775000D01*
G75*
G02*
X124875000Y-86975000I-200000J0D01*
G01*
X124475000Y-86975000D01*
G75*
G02*
X124275000Y-86775000I0J200000D01*
G01*
X124275000Y-86225000D01*
G75*
G02*
X124475000Y-86025000I200000J0D01*
G01*
X124875000Y-86025000D01*
G75*
G02*
X125075000Y-86225000I0J-200000D01*
G01*
G37*
%TD.AperFunction*%
%TA.AperFunction,SMDPad,CuDef*%
G36*
G01*
X126725000Y-86225000D02*
X126725000Y-86775000D01*
G75*
G02*
X126525000Y-86975000I-200000J0D01*
G01*
X126125000Y-86975000D01*
G75*
G02*
X125925000Y-86775000I0J200000D01*
G01*
X125925000Y-86225000D01*
G75*
G02*
X126125000Y-86025000I200000J0D01*
G01*
X126525000Y-86025000D01*
G75*
G02*
X126725000Y-86225000I0J-200000D01*
G01*
G37*
%TD.AperFunction*%
%TA.AperFunction,SMDPad,CuDef*%
G36*
G01*
X129075000Y-87725000D02*
X129075000Y-88275000D01*
G75*
G02*
X128875000Y-88475000I-200000J0D01*
G01*
X128475000Y-88475000D01*
G75*
G02*
X128275000Y-88275000I0J200000D01*
G01*
X128275000Y-87725000D01*
G75*
G02*
X128475000Y-87525000I200000J0D01*
G01*
X128875000Y-87525000D01*
G75*
G02*
X129075000Y-87725000I0J-200000D01*
G01*
G37*
%TD.AperFunction*%
%TA.AperFunction,SMDPad,CuDef*%
G36*
G01*
X130725000Y-87725000D02*
X130725000Y-88275000D01*
G75*
G02*
X130525000Y-88475000I-200000J0D01*
G01*
X130125000Y-88475000D01*
G75*
G02*
X129925000Y-88275000I0J200000D01*
G01*
X129925000Y-87725000D01*
G75*
G02*
X130125000Y-87525000I200000J0D01*
G01*
X130525000Y-87525000D01*
G75*
G02*
X130725000Y-87725000I0J-200000D01*
G01*
G37*
%TD.AperFunction*%
D11*
X133600000Y-83475000D03*
X133600000Y-82825000D03*
X133600000Y-82175000D03*
X133600000Y-81525000D03*
X133600000Y-80875000D03*
X133600000Y-80225000D03*
X133600000Y-79575000D03*
X133600000Y-78925000D03*
X133600000Y-78275000D03*
X133600000Y-77625000D03*
X133600000Y-76975000D03*
X133600000Y-76325000D03*
X126400000Y-76325000D03*
X126400000Y-76975000D03*
X126400000Y-77625000D03*
X126400000Y-78275000D03*
X126400000Y-78925000D03*
X126400000Y-79575000D03*
X126400000Y-80225000D03*
X126400000Y-80875000D03*
X126400000Y-81525000D03*
X126400000Y-82175000D03*
X126400000Y-82825000D03*
X126400000Y-83475000D03*
D12*
X133762600Y-67650400D03*
X133762600Y-69650400D03*
X131762600Y-67650400D03*
X131762600Y-69650400D03*
X133762600Y-60900400D03*
X133762600Y-62900400D03*
X131762600Y-60900400D03*
X131762600Y-62900400D03*
X133762600Y-54150400D03*
X133762600Y-56150400D03*
X131762600Y-54150400D03*
X131762600Y-56150400D03*
X131762600Y-49400400D03*
X131762600Y-47400400D03*
X133762600Y-49400400D03*
X133762600Y-47400400D03*
X125012600Y-49400400D03*
X125012600Y-47400400D03*
X127012600Y-49400400D03*
X127012600Y-47400400D03*
X127012600Y-54150400D03*
X127012600Y-56150400D03*
X125012600Y-54150400D03*
X125012600Y-56150400D03*
X125012600Y-62900400D03*
X125012600Y-60900400D03*
X127012600Y-62900400D03*
X127012600Y-60900400D03*
X125012600Y-69650400D03*
X125012600Y-67650400D03*
X127012600Y-69650400D03*
X127012600Y-67650400D03*
D13*
X121250000Y-94000000D03*
X121250000Y-91400000D03*
X121250000Y-92700000D03*
D14*
X137300000Y-94200000D03*
D15*
X134760000Y-94200000D03*
X132220000Y-94200000D03*
X129680000Y-94200000D03*
X127140000Y-94200000D03*
X124600000Y-94200000D03*
D16*
X135075014Y-83690823D03*
X128500000Y-86500000D03*
X140025000Y-88475000D03*
X126500000Y-84999992D03*
X120075000Y-88325000D03*
X126600000Y-73300000D03*
X135957465Y-76531326D03*
X130400000Y-69700000D03*
X135404961Y-75697802D03*
X130300000Y-67999998D03*
X136366985Y-78488605D03*
X130400000Y-62800000D03*
X136143606Y-77513861D03*
X130300000Y-60900000D03*
X136335351Y-80736365D03*
X130400000Y-56100000D03*
X136336190Y-79586190D03*
X130277055Y-54283999D03*
X135957015Y-82847552D03*
X130200000Y-49300000D03*
X136249994Y-81750000D03*
X130100006Y-47500000D03*
X124192304Y-80895655D03*
X123700000Y-49400000D03*
X124171929Y-81941350D03*
X123699996Y-47400000D03*
X124356250Y-78855314D03*
X123700000Y-56100000D03*
X124217049Y-79845590D03*
X123600000Y-54200000D03*
X124334858Y-76867717D03*
X123600002Y-62900000D03*
X124234774Y-77862708D03*
X123600000Y-60900000D03*
X125122606Y-75066477D03*
X123500000Y-69600000D03*
X124560360Y-75893462D03*
X123499996Y-67600000D03*
D17*
X135024999Y-83640808D02*
X135075014Y-83690823D01*
X134725000Y-82175000D02*
X135024999Y-82474999D01*
X133600000Y-82175000D02*
X134725000Y-82175000D01*
X135024999Y-82474999D02*
X135024999Y-83640808D01*
X128500000Y-87825000D02*
X128675000Y-88000000D01*
X128500000Y-86500000D02*
X128500000Y-87825000D01*
X132220000Y-91550000D02*
X132220000Y-94200000D01*
X128675000Y-88005000D02*
X132220000Y-91550000D01*
X128675000Y-88000000D02*
X128675000Y-88005000D01*
X130275000Y-85700000D02*
X132525000Y-85700000D01*
X132525000Y-85700000D02*
X132525000Y-87500000D01*
X132525000Y-85700000D02*
X128625000Y-85700000D01*
X127562500Y-84637500D02*
X126400000Y-83475000D01*
X128625000Y-85700000D02*
X127562500Y-84637500D01*
X140000000Y-72714285D02*
X140000000Y-87000000D01*
X140025000Y-87042857D02*
X140025000Y-88475000D01*
X140025000Y-88475000D02*
X140025000Y-88475000D01*
X120075000Y-72750000D02*
X120075000Y-87042857D01*
X126400000Y-84899992D02*
X126500000Y-84999992D01*
X126400000Y-83475000D02*
X126400000Y-84899992D01*
X120075000Y-87042857D02*
X120075000Y-88325000D01*
X120075000Y-88325000D02*
X120075000Y-88325000D01*
X130325000Y-88000000D02*
X130325000Y-88191410D01*
X130325000Y-88000000D02*
X131210000Y-88000000D01*
X132525000Y-89225000D02*
X132480000Y-89270000D01*
X132525000Y-87500000D02*
X132525000Y-89225000D01*
X131210000Y-88000000D02*
X132480000Y-89270000D01*
X126600000Y-71675000D02*
X126875000Y-71400000D01*
X126600000Y-73300000D02*
X126600000Y-71675000D01*
X127987601Y-68625401D02*
X127012600Y-67650400D01*
X127987601Y-70737399D02*
X127987601Y-68625401D01*
X127325000Y-71400000D02*
X127987601Y-70737399D01*
X126875000Y-71400000D02*
X127325000Y-71400000D01*
X127012600Y-64837600D02*
X126775000Y-64600000D01*
X127012600Y-67650400D02*
X127012600Y-64837600D01*
X127987601Y-61875401D02*
X127012600Y-60900400D01*
X127987601Y-63837399D02*
X127987601Y-61875401D01*
X127225000Y-64600000D02*
X127987601Y-63837399D01*
X126775000Y-64600000D02*
X127225000Y-64600000D01*
X127012600Y-58337600D02*
X126775000Y-58100000D01*
X127012600Y-60900400D02*
X127012600Y-58337600D01*
X127987601Y-55125401D02*
X127012600Y-54150400D01*
X127987601Y-57337399D02*
X127987601Y-55125401D01*
X127225000Y-58100000D02*
X127987601Y-57337399D01*
X126775000Y-58100000D02*
X127225000Y-58100000D01*
X127012600Y-51537600D02*
X126775000Y-51300000D01*
X127012600Y-54150400D02*
X127012600Y-51537600D01*
X127987601Y-48375401D02*
X127012600Y-47400400D01*
X127987601Y-50537399D02*
X127987601Y-48375401D01*
X127225000Y-51300000D02*
X127987601Y-50537399D01*
X126775000Y-51300000D02*
X127225000Y-51300000D01*
X131825000Y-45462800D02*
X133762600Y-47400400D01*
X131825000Y-45400000D02*
X131825000Y-45462800D01*
X131912200Y-52300000D02*
X133762600Y-54150400D01*
X131825000Y-52300000D02*
X131912200Y-52300000D01*
X133762600Y-67440434D02*
X133762600Y-67650400D01*
X132222166Y-65900000D02*
X133762600Y-67440434D01*
X131925000Y-65900000D02*
X132222166Y-65900000D01*
X133762600Y-60640434D02*
X133762600Y-60900400D01*
X132025000Y-59200000D02*
X132322166Y-59200000D01*
X132322166Y-59200000D02*
X133762600Y-60640434D01*
X133762600Y-60900400D02*
X132787599Y-61875401D01*
X132825002Y-63847804D02*
X132825001Y-64999999D01*
X132825001Y-64999999D02*
X131925000Y-65900000D01*
X132787599Y-63810401D02*
X132825002Y-63847804D01*
X132787599Y-61875401D02*
X132787599Y-63810401D01*
X133762600Y-54150400D02*
X132787599Y-55125401D01*
X132787599Y-58437401D02*
X132025000Y-59200000D01*
X132787599Y-55125401D02*
X132787599Y-58437401D01*
X132825001Y-50302411D02*
X132825001Y-51299999D01*
X131799999Y-45374999D02*
X131825000Y-45400000D01*
X132737601Y-48425399D02*
X132737601Y-50215011D01*
X127012600Y-46500400D02*
X128138001Y-45374999D01*
X132737601Y-50215011D02*
X132825001Y-50302411D01*
X127012600Y-47400400D02*
X127012600Y-46500400D01*
X133762600Y-47400400D02*
X132737601Y-48425399D01*
X132825001Y-51299999D02*
X131825000Y-52300000D01*
X128138001Y-45374999D02*
X131799999Y-45374999D01*
X133334999Y-95625001D02*
X134760000Y-94200000D01*
X122875001Y-95625001D02*
X133334999Y-95625001D01*
X121250000Y-94000000D02*
X122875001Y-95625001D01*
X132480000Y-89270000D02*
X134760000Y-91550000D01*
X134760000Y-91550000D02*
X134760000Y-94200000D01*
X133600000Y-82825000D02*
X133600000Y-83475000D01*
X133600000Y-85225000D02*
X134075000Y-85700000D01*
X133600000Y-83475000D02*
X133600000Y-85225000D01*
X134075000Y-85700000D02*
X134075000Y-87500000D01*
X127435002Y-81525000D02*
X126400000Y-81525000D01*
X132635002Y-76325000D02*
X127435002Y-81525000D01*
X133600000Y-76325000D02*
X132635002Y-76325000D01*
X132564998Y-82825000D02*
X133600000Y-82825000D01*
X131264998Y-81525000D02*
X132564998Y-82825000D01*
X126400000Y-81525000D02*
X131264998Y-81525000D01*
X128451997Y-76325000D02*
X133600000Y-76325000D01*
X125325000Y-73198003D02*
X128451997Y-76325000D01*
X125325000Y-71400000D02*
X125325000Y-73198003D01*
X125325000Y-71338000D02*
X127012600Y-69650400D01*
X125325000Y-71400000D02*
X125325000Y-71338000D01*
X125987601Y-65362601D02*
X125225000Y-64600000D01*
X125987601Y-68625401D02*
X125987601Y-65362601D01*
X127012600Y-69650400D02*
X125987601Y-68625401D01*
X125313000Y-64600000D02*
X127012600Y-62900400D01*
X125225000Y-64600000D02*
X125313000Y-64600000D01*
X125987601Y-58862601D02*
X125225000Y-58100000D01*
X125987601Y-62775401D02*
X125987601Y-58862601D01*
X126112600Y-62900400D02*
X125987601Y-62775401D01*
X127012600Y-62900400D02*
X126112600Y-62900400D01*
X125225000Y-57938000D02*
X127012600Y-56150400D01*
X125225000Y-58100000D02*
X125225000Y-57938000D01*
X126037599Y-55175399D02*
X126037599Y-52112599D01*
X126037599Y-52112599D02*
X125225000Y-51300000D01*
X127012600Y-56150400D02*
X126037599Y-55175399D01*
X125225000Y-51188000D02*
X127012600Y-49400400D01*
X125225000Y-51300000D02*
X125225000Y-51188000D01*
X132574990Y-44599990D02*
X133375000Y-45400000D01*
X127928008Y-44599990D02*
X132574990Y-44599990D01*
X126037599Y-46490399D02*
X127928008Y-44599990D01*
X126037599Y-48425399D02*
X126037599Y-46490399D01*
X127012600Y-49400400D02*
X126037599Y-48425399D01*
X134672601Y-66675399D02*
X134737601Y-66740399D01*
X134737601Y-68675399D02*
X133762600Y-69650400D01*
X133475000Y-65900000D02*
X134250399Y-66675399D01*
X134737601Y-66740399D02*
X134737601Y-68675399D01*
X134250399Y-66675399D02*
X134672601Y-66675399D01*
X134737601Y-61702009D02*
X133762600Y-62677010D01*
X133762600Y-62900400D02*
X134025002Y-63162802D01*
X134025000Y-59200000D02*
X134737601Y-59912601D01*
X133762600Y-62677010D02*
X133762600Y-62900400D01*
X134025002Y-63162802D02*
X134025002Y-65349998D01*
X133575000Y-59200000D02*
X134025000Y-59200000D01*
X134737601Y-59912601D02*
X134737601Y-61702009D01*
X134025002Y-65349998D02*
X133475000Y-65900000D01*
X133946585Y-58828415D02*
X133575000Y-59200000D01*
X133762600Y-56150400D02*
X133946585Y-56334385D01*
X133946585Y-56334385D02*
X133946585Y-58828415D01*
X133762600Y-49164398D02*
X133762600Y-49400400D01*
X134737601Y-48189397D02*
X133762600Y-49164398D01*
X133375000Y-45400000D02*
X133825000Y-45400000D01*
X133825000Y-52300000D02*
X133375000Y-52300000D01*
X134737601Y-46312601D02*
X134737601Y-48189397D01*
X133825000Y-45400000D02*
X134737601Y-46312601D01*
X133625102Y-52499898D02*
X133625102Y-53175399D01*
X133625102Y-53175399D02*
X134672601Y-53175399D01*
X133577634Y-49585366D02*
X133577634Y-52052634D01*
X133577634Y-52052634D02*
X133825000Y-52300000D01*
X134737601Y-53240399D02*
X134737601Y-55175399D01*
X133825000Y-52300000D02*
X133625102Y-52499898D01*
X134672601Y-53175399D02*
X134737601Y-53240399D01*
X134737601Y-55175399D02*
X133762600Y-56150400D01*
X133762600Y-49400400D02*
X133577634Y-49585366D01*
X137300000Y-91550000D02*
X137300000Y-94200000D01*
X134075000Y-88325000D02*
X137300000Y-91550000D01*
X134075000Y-87500000D02*
X134075000Y-88325000D01*
X126325000Y-86025000D02*
X126325000Y-86500000D01*
X125199999Y-83960001D02*
X125200011Y-83960013D01*
X125275000Y-82825000D02*
X125199999Y-82900001D01*
X125200011Y-83960013D02*
X125200011Y-84900011D01*
X126400000Y-82825000D02*
X125275000Y-82825000D01*
X125200011Y-84900011D02*
X126325000Y-86025000D01*
X125199999Y-82900001D02*
X125199999Y-83960001D01*
X129630000Y-94150000D02*
X129630000Y-90400000D01*
X129680000Y-90330000D02*
X129680000Y-94200000D01*
X129680000Y-94200000D02*
X129630000Y-94150000D01*
X126325000Y-86975000D02*
X129680000Y-90330000D01*
X126325000Y-86500000D02*
X126325000Y-86975000D01*
X126325000Y-87717478D02*
X126325000Y-88500000D01*
X125599990Y-86007532D02*
X125599990Y-86992468D01*
X124750000Y-84146413D02*
X124750000Y-85157542D01*
X124749988Y-84146401D02*
X124750000Y-84146413D01*
X124750000Y-85157542D02*
X125599990Y-86007532D01*
X124749988Y-82803599D02*
X124749988Y-84146401D01*
X124750000Y-82803587D02*
X124749988Y-82803599D01*
X124750000Y-82436281D02*
X124750000Y-82803587D01*
X125011281Y-82175000D02*
X124750000Y-82436281D01*
X125599990Y-86992468D02*
X126325000Y-87717478D01*
X126400000Y-82175000D02*
X125011281Y-82175000D01*
X127250000Y-94090000D02*
X127140000Y-94200000D01*
X127250000Y-89425000D02*
X127250000Y-94090000D01*
X126325000Y-88500000D02*
X127250000Y-89425000D01*
X138375000Y-74797958D02*
X137690833Y-74797958D01*
X134863791Y-77625000D02*
X135957465Y-76531326D01*
X133600000Y-77625000D02*
X134863791Y-77625000D01*
X137690833Y-74797958D02*
X135957465Y-76531326D01*
X131713000Y-69700000D02*
X131762600Y-69650400D01*
X130400000Y-69700000D02*
X131713000Y-69700000D01*
X135909340Y-75697802D02*
X135404961Y-75697802D01*
X133600000Y-76975000D02*
X134725000Y-76975000D01*
X138375000Y-72757142D02*
X138375000Y-73232142D01*
X135232464Y-75870299D02*
X135404961Y-75697802D01*
X138375000Y-73232142D02*
X135909340Y-75697802D01*
X134725000Y-76975000D02*
X135232464Y-76467536D01*
X135232464Y-76467536D02*
X135232464Y-75870299D01*
X131413002Y-67999998D02*
X131762600Y-67650400D01*
X130300000Y-67999998D02*
X131413002Y-67999998D01*
X133600000Y-78925000D02*
X135930590Y-78925000D01*
X135930590Y-78925000D02*
X136366985Y-78488605D01*
X136757970Y-78879590D02*
X138375000Y-78879590D01*
X136366985Y-78488605D02*
X136757970Y-78879590D01*
X131662200Y-62800000D02*
X131762600Y-62900400D01*
X130400000Y-62800000D02*
X131662200Y-62800000D01*
X138375000Y-76838774D02*
X136818693Y-76838774D01*
X135382467Y-78275000D02*
X136143606Y-77513861D01*
X133600000Y-78275000D02*
X135382467Y-78275000D01*
X136818693Y-76838774D02*
X136143606Y-77513861D01*
X131762200Y-60900000D02*
X131762600Y-60900400D01*
X130300000Y-60900000D02*
X131762200Y-60900000D01*
X135823986Y-80225000D02*
X136335351Y-80736365D01*
X138375000Y-82776014D02*
X136335351Y-80736365D01*
X133600000Y-80225000D02*
X135823986Y-80225000D01*
X138375000Y-82961222D02*
X138375000Y-82776014D01*
X131712200Y-56100000D02*
X131762600Y-56150400D01*
X130400000Y-56100000D02*
X131712200Y-56100000D01*
X137670406Y-80920406D02*
X136336190Y-79586190D01*
X138375000Y-80920406D02*
X137670406Y-80920406D01*
X133600000Y-79575000D02*
X136325000Y-79575000D01*
X136325000Y-79575000D02*
X136336190Y-79586190D01*
X131629001Y-54283999D02*
X131762600Y-54150400D01*
X130277055Y-54283999D02*
X131629001Y-54283999D01*
X135957015Y-82757015D02*
X135957015Y-82847552D01*
X134725000Y-81525000D02*
X135957015Y-82757015D01*
X133600000Y-81525000D02*
X134725000Y-81525000D01*
X135957015Y-84340944D02*
X135957015Y-82847552D01*
X138375000Y-86758929D02*
X135957015Y-84340944D01*
X138375000Y-87042857D02*
X138375000Y-86758929D01*
X131662200Y-49300000D02*
X131762600Y-49400400D01*
X130200000Y-49300000D02*
X131662200Y-49300000D01*
X133600000Y-80875000D02*
X135374994Y-80875000D01*
X135374994Y-80875000D02*
X136249994Y-81750000D01*
X137502038Y-85002038D02*
X138375000Y-85002038D01*
X136682016Y-84182016D02*
X137502038Y-85002038D01*
X136682016Y-82182022D02*
X136682016Y-84182016D01*
X136249994Y-81750000D02*
X136682016Y-82182022D01*
X131663000Y-47500000D02*
X131762600Y-47400400D01*
X130100006Y-47500000D02*
X131663000Y-47500000D01*
X123188500Y-81899459D02*
X124192304Y-80895655D01*
X121725000Y-85001016D02*
X123188500Y-83537516D01*
X126400000Y-80225000D02*
X124862959Y-80225000D01*
X124862959Y-80225000D02*
X124192304Y-80895655D01*
X123188500Y-83537516D02*
X123188500Y-81899459D01*
X125012200Y-49400000D02*
X125012600Y-49400400D01*
X123700000Y-49400000D02*
X125012200Y-49400000D01*
X123771930Y-82341349D02*
X124171929Y-81941350D01*
X126400000Y-80875000D02*
X125238279Y-80875000D01*
X125238279Y-80875000D02*
X124171929Y-81941350D01*
X121725000Y-87042857D02*
X123771930Y-84995927D01*
X123771930Y-84995927D02*
X123771930Y-82341349D01*
X125012200Y-47400000D02*
X125012600Y-47400400D01*
X123699996Y-47400000D02*
X125012200Y-47400000D01*
X126400000Y-78850000D02*
X126375001Y-78825001D01*
X126400000Y-78925000D02*
X126400000Y-78850000D01*
X124134321Y-78855314D02*
X124356250Y-78855314D01*
X124425936Y-78925000D02*
X124356250Y-78855314D01*
X126400000Y-78925000D02*
X124425936Y-78925000D01*
X121725000Y-80917344D02*
X122072291Y-80917344D01*
X122072291Y-80917344D02*
X124134321Y-78855314D01*
X124962200Y-56100000D02*
X125012600Y-56150400D01*
X123700000Y-56100000D02*
X124962200Y-56100000D01*
X124487639Y-79575000D02*
X124217049Y-79845590D01*
X126400000Y-79575000D02*
X124487639Y-79575000D01*
X121725000Y-82337639D02*
X124217049Y-79845590D01*
X121725000Y-82959180D02*
X121725000Y-82337639D01*
X124963000Y-54200000D02*
X125012600Y-54150400D01*
X123600000Y-54200000D02*
X124963000Y-54200000D01*
X125092141Y-77625000D02*
X124334858Y-76867717D01*
X126400000Y-77625000D02*
X125092141Y-77625000D01*
X121725000Y-76833672D02*
X124300813Y-76833672D01*
X124300813Y-76833672D02*
X124334858Y-76867717D01*
X125012200Y-62900000D02*
X125012600Y-62900400D01*
X123600002Y-62900000D02*
X125012200Y-62900000D01*
X126400000Y-78275000D02*
X124813583Y-78275000D01*
X124813583Y-78275000D02*
X124401291Y-77862708D01*
X124401291Y-77862708D02*
X124234774Y-77862708D01*
X123221974Y-78875508D02*
X124234774Y-77862708D01*
X121725000Y-78875508D02*
X123221974Y-78875508D01*
X125012200Y-60900000D02*
X125012600Y-60900400D01*
X123600000Y-60900000D02*
X125012200Y-60900000D01*
X121725000Y-72750000D02*
X122806129Y-72750000D01*
X122806129Y-72750000D02*
X125122606Y-75066477D01*
X126381129Y-76325000D02*
X125122606Y-75066477D01*
X126400000Y-76325000D02*
X126381129Y-76325000D01*
X124962200Y-69600000D02*
X125012600Y-69650400D01*
X123500000Y-69600000D02*
X124962200Y-69600000D01*
X125475000Y-76975000D02*
X124560360Y-76060360D01*
X123458734Y-74791836D02*
X124560360Y-75893462D01*
X126400000Y-76975000D02*
X125475000Y-76975000D01*
X124560360Y-76060360D02*
X124560360Y-75893462D01*
X121725000Y-74791836D02*
X123458734Y-74791836D01*
X124962200Y-67600000D02*
X125012600Y-67650400D01*
X123499996Y-67600000D02*
X124962200Y-67600000D01*
X121800000Y-91400000D02*
X124600000Y-94200000D01*
X121250000Y-91400000D02*
X121800000Y-91400000D01*
X124675000Y-86500000D02*
X124675000Y-88500000D01*
X120250000Y-92700000D02*
X121250000Y-92700000D01*
X120174999Y-92624999D02*
X120250000Y-92700000D01*
X120174999Y-90639999D02*
X120174999Y-92624999D01*
X122314998Y-88500000D02*
X120174999Y-90639999D01*
X124675000Y-88500000D02*
X122314998Y-88500000D01*
M02*
