%TF.GenerationSoftware,KiCad,Pcbnew,(5.1.12)-1*%
%TF.CreationDate,2022-08-18T12:28:12-07:00*%
%TF.ProjectId,HighPressureSensorArray,48696768-5072-4657-9373-75726553656e,rev?*%
%TF.SameCoordinates,Original*%
%TF.FileFunction,Copper,L2,Bot*%
%TF.FilePolarity,Positive*%
%FSLAX46Y46*%
G04 Gerber Fmt 4.6, Leading zero omitted, Abs format (unit mm)*
G04 Created by KiCad (PCBNEW (5.1.12)-1) date 2022-08-18 12:28:12*
%MOMM*%
%LPD*%
G01*
G04 APERTURE LIST*
%TA.AperFunction,ComponentPad*%
%ADD10R,2.200000X2.200000*%
%TD*%
%TA.AperFunction,ComponentPad*%
%ADD11C,2.200000*%
%TD*%
%TA.AperFunction,ViaPad*%
%ADD12C,0.800000*%
%TD*%
%TA.AperFunction,Conductor*%
%ADD13C,0.250000*%
%TD*%
G04 APERTURE END LIST*
D10*
X137300000Y-94200000D03*
D11*
X134760000Y-94200000D03*
X132220000Y-94200000D03*
X129680000Y-94200000D03*
X127140000Y-94200000D03*
X124600000Y-94200000D03*
D12*
X135075014Y-83690823D03*
X128500000Y-86500000D03*
X140025000Y-88475000D03*
X126500000Y-84999992D03*
X120075000Y-88325000D03*
X126600000Y-73300000D03*
X135957465Y-76531326D03*
X130400000Y-69700000D03*
X135404961Y-75697802D03*
X130300000Y-67999998D03*
X136366985Y-78488605D03*
X130400000Y-62800000D03*
X136143606Y-77513861D03*
X130300000Y-60900000D03*
X136335351Y-80736365D03*
X130400000Y-56100000D03*
X136336190Y-79586190D03*
X130277055Y-54283999D03*
X135957015Y-82847552D03*
X130200000Y-49300000D03*
X136249994Y-81750000D03*
X130100006Y-47500000D03*
X124192304Y-80895655D03*
X123700000Y-49400000D03*
X124171929Y-81941350D03*
X123699996Y-47400000D03*
X124356250Y-78855314D03*
X123700000Y-56100000D03*
X124217049Y-79845590D03*
X123600000Y-54200000D03*
X124334858Y-76867717D03*
X123600002Y-62900000D03*
X124234774Y-77862708D03*
X123600000Y-60900000D03*
X125122606Y-75066477D03*
X123500000Y-69600000D03*
X124560360Y-75893462D03*
X123499996Y-67600000D03*
D13*
X135075014Y-83690823D02*
X132265837Y-86500000D01*
X132265837Y-86500000D02*
X128500000Y-86500000D01*
X123174992Y-88325000D02*
X126500000Y-84999992D01*
X120075000Y-88325000D02*
X123174992Y-88325000D01*
X126500000Y-73400000D02*
X126600000Y-73300000D01*
X126500000Y-84999992D02*
X126500000Y-73400000D01*
X134760000Y-90740000D02*
X134760000Y-94200000D01*
X137025000Y-88475000D02*
X134760000Y-90740000D01*
X140025000Y-88475000D02*
X137025000Y-88475000D01*
X130965685Y-69700000D02*
X130400000Y-69700000D01*
X135957465Y-76531326D02*
X136225001Y-76263790D01*
X136225001Y-76263790D02*
X136225001Y-74959316D01*
X136225001Y-74959316D02*
X130965685Y-69700000D01*
X129574998Y-68725000D02*
X130300000Y-67999998D01*
X129574998Y-70433524D02*
X129574998Y-68725000D01*
X135404961Y-75697802D02*
X134839276Y-75697802D01*
X134839276Y-75697802D02*
X129574998Y-70433524D01*
X137300000Y-69700000D02*
X130400000Y-62800000D01*
X137300000Y-77555590D02*
X137300000Y-69700000D01*
X136366985Y-78488605D02*
X137300000Y-77555590D01*
X129474998Y-61725002D02*
X130300000Y-60900000D01*
X129474998Y-63174998D02*
X129474998Y-61725002D01*
X136700000Y-70400000D02*
X129474998Y-63174998D01*
X136700000Y-76957467D02*
X136700000Y-70400000D01*
X136143606Y-77513861D02*
X136700000Y-76957467D01*
X130500000Y-56100000D02*
X130400000Y-56100000D01*
X139000000Y-64600000D02*
X130500000Y-56100000D01*
X139000000Y-78071716D02*
X139000000Y-64600000D01*
X136335351Y-80736365D02*
X139000000Y-78071716D01*
X138374054Y-65147058D02*
X129674998Y-56448002D01*
X129674998Y-56448002D02*
X129674998Y-54886056D01*
X138374054Y-77548326D02*
X138374054Y-65147058D01*
X129674998Y-54886056D02*
X130277055Y-54283999D01*
X136336190Y-79586190D02*
X138374054Y-77548326D01*
X140499999Y-78870253D02*
X140499999Y-59599999D01*
X140499999Y-59599999D02*
X130200000Y-49300000D01*
X136522700Y-82847552D02*
X140499999Y-78870253D01*
X135957015Y-82847552D02*
X136522700Y-82847552D01*
X129474998Y-48125008D02*
X130100006Y-47500000D01*
X129474998Y-49848002D02*
X129474998Y-48125008D01*
X139799999Y-60173003D02*
X129474998Y-49848002D01*
X139799999Y-78765680D02*
X139799999Y-60173003D01*
X136815679Y-81750000D02*
X139799999Y-78765680D01*
X136249994Y-81750000D02*
X136815679Y-81750000D01*
X120100000Y-53000000D02*
X123700000Y-49400000D01*
X123626619Y-80895655D02*
X120100000Y-77369036D01*
X120100000Y-77369036D02*
X120100000Y-53000000D01*
X124192304Y-80895655D02*
X123626619Y-80895655D01*
X119600000Y-51499996D02*
X123699996Y-47400000D01*
X119600000Y-77935106D02*
X119600000Y-51499996D01*
X123606244Y-81941350D02*
X119600000Y-77935106D01*
X124171929Y-81941350D02*
X123606244Y-81941350D01*
X121100000Y-58700000D02*
X123700000Y-56100000D01*
X121100000Y-76164749D02*
X121100000Y-58700000D01*
X123790565Y-78855314D02*
X121100000Y-76164749D01*
X124356250Y-78855314D02*
X123790565Y-78855314D01*
X120600000Y-76794226D02*
X120600000Y-57200000D01*
X123651364Y-79845590D02*
X120600000Y-76794226D01*
X120600000Y-57200000D02*
X123600000Y-54200000D01*
X124217049Y-79845590D02*
X123651364Y-79845590D01*
X122100000Y-64400002D02*
X123600002Y-62900000D01*
X122100000Y-74632859D02*
X122100000Y-64400002D01*
X124334858Y-76867717D02*
X122100000Y-74632859D01*
X123200001Y-61299999D02*
X123600000Y-60900000D01*
X121600000Y-62900000D02*
X123200001Y-61299999D01*
X121600000Y-75227934D02*
X121600000Y-62900000D01*
X124234774Y-77862708D02*
X121600000Y-75227934D01*
X125122606Y-75066477D02*
X123500000Y-73443871D01*
X123500000Y-73443871D02*
X123500000Y-69600000D01*
X122600000Y-68499996D02*
X123499996Y-67600000D01*
X122600000Y-73933102D02*
X122600000Y-68499996D01*
X124560360Y-75893462D02*
X122600000Y-73933102D01*
M02*
