%TF.GenerationSoftware,KiCad,Pcbnew,(5.1.12)-1*%
%TF.CreationDate,2022-08-18T11:38:46-07:00*%
%TF.ProjectId,HighPressureSensorArray,48696768-5072-4657-9373-75726553656e,rev?*%
%TF.SameCoordinates,Original*%
%TF.FileFunction,Legend,Top*%
%TF.FilePolarity,Positive*%
%FSLAX46Y46*%
G04 Gerber Fmt 4.6, Leading zero omitted, Abs format (unit mm)*
G04 Created by KiCad (PCBNEW (5.1.12)-1) date 2022-08-18 11:38:46*
%MOMM*%
%LPD*%
G01*
G04 APERTURE LIST*
%ADD10C,0.120000*%
%ADD11C,0.400000*%
%ADD12C,0.050000*%
%ADD13C,0.150000*%
%ADD14C,0.062500*%
%ADD15C,2.100000*%
%ADD16R,2.200000X2.200000*%
%ADD17C,2.200000*%
%ADD18R,1.300000X1.300000*%
G04 APERTURE END LIST*
D10*
X103640580Y-67010000D02*
X103359420Y-67010000D01*
X103640580Y-65990000D02*
X103359420Y-65990000D01*
X98440000Y-82600000D02*
X109180000Y-82600000D01*
X98440000Y-77300000D02*
X109180000Y-77300000D01*
X98440000Y-76840000D02*
X109180000Y-76840000D01*
X98440000Y-83160000D02*
X109180000Y-83160000D01*
X98440000Y-76840000D02*
X98440000Y-83160000D01*
X109180000Y-76840000D02*
X109180000Y-83160000D01*
X98200000Y-82660000D02*
X98200000Y-83400000D01*
X98200000Y-83400000D02*
X98700000Y-83400000D01*
X98237258Y-70022500D02*
X97762742Y-70022500D01*
X98237258Y-68977500D02*
X97762742Y-68977500D01*
X98237258Y-66477500D02*
X97762742Y-66477500D01*
X98237258Y-67522500D02*
X97762742Y-67522500D01*
D11*
X106113000Y-65350000D02*
G75*
G03*
X106113000Y-65350000I-200000J0D01*
G01*
D12*
X102062600Y-61550400D02*
X102062600Y-64850400D01*
X102062600Y-61550400D02*
X105362600Y-61550400D01*
X102062600Y-64850400D02*
X105362600Y-64850400D01*
X105362600Y-61550400D02*
X105362600Y-64850400D01*
D13*
X105833333Y-66857142D02*
X105785714Y-66904761D01*
X105642857Y-66952380D01*
X105547619Y-66952380D01*
X105404761Y-66904761D01*
X105309523Y-66809523D01*
X105261904Y-66714285D01*
X105214285Y-66523809D01*
X105214285Y-66380952D01*
X105261904Y-66190476D01*
X105309523Y-66095238D01*
X105404761Y-66000000D01*
X105547619Y-65952380D01*
X105642857Y-65952380D01*
X105785714Y-66000000D01*
X105833333Y-66047619D01*
X106785714Y-66952380D02*
X106214285Y-66952380D01*
X106500000Y-66952380D02*
X106500000Y-65952380D01*
X106404761Y-66095238D01*
X106309523Y-66190476D01*
X106214285Y-66238095D01*
X91238095Y-78252380D02*
X91238095Y-77252380D01*
X91238095Y-77728571D02*
X91809523Y-77728571D01*
X91809523Y-78252380D02*
X91809523Y-77252380D01*
X92809523Y-78252380D02*
X92238095Y-78252380D01*
X92523809Y-78252380D02*
X92523809Y-77252380D01*
X92428571Y-77395238D01*
X92333333Y-77490476D01*
X92238095Y-77538095D01*
X91238095Y-48752380D02*
X91238095Y-47752380D01*
X91238095Y-48228571D02*
X91809523Y-48228571D01*
X91809523Y-48752380D02*
X91809523Y-47752380D01*
X92238095Y-47847619D02*
X92285714Y-47800000D01*
X92380952Y-47752380D01*
X92619047Y-47752380D01*
X92714285Y-47800000D01*
X92761904Y-47847619D01*
X92809523Y-47942857D01*
X92809523Y-48038095D01*
X92761904Y-48180952D01*
X92190476Y-48752380D01*
X92809523Y-48752380D01*
X114238095Y-48752380D02*
X114238095Y-47752380D01*
X114238095Y-48228571D02*
X114809523Y-48228571D01*
X114809523Y-48752380D02*
X114809523Y-47752380D01*
X115190476Y-47752380D02*
X115809523Y-47752380D01*
X115476190Y-48133333D01*
X115619047Y-48133333D01*
X115714285Y-48180952D01*
X115761904Y-48228571D01*
X115809523Y-48323809D01*
X115809523Y-48561904D01*
X115761904Y-48657142D01*
X115714285Y-48704761D01*
X115619047Y-48752380D01*
X115333333Y-48752380D01*
X115238095Y-48704761D01*
X115190476Y-48657142D01*
X114238095Y-78252380D02*
X114238095Y-77252380D01*
X114238095Y-77728571D02*
X114809523Y-77728571D01*
X114809523Y-78252380D02*
X114809523Y-77252380D01*
X115714285Y-77585714D02*
X115714285Y-78252380D01*
X115476190Y-77204761D02*
X115238095Y-77919047D01*
X115857142Y-77919047D01*
X100833333Y-69952380D02*
X100500000Y-69476190D01*
X100261904Y-69952380D02*
X100261904Y-68952380D01*
X100642857Y-68952380D01*
X100738095Y-69000000D01*
X100785714Y-69047619D01*
X100833333Y-69142857D01*
X100833333Y-69285714D01*
X100785714Y-69380952D01*
X100738095Y-69428571D01*
X100642857Y-69476190D01*
X100261904Y-69476190D01*
X101214285Y-69047619D02*
X101261904Y-69000000D01*
X101357142Y-68952380D01*
X101595238Y-68952380D01*
X101690476Y-69000000D01*
X101738095Y-69047619D01*
X101785714Y-69142857D01*
X101785714Y-69238095D01*
X101738095Y-69380952D01*
X101166666Y-69952380D01*
X101785714Y-69952380D01*
X100833333Y-67452380D02*
X100500000Y-66976190D01*
X100261904Y-67452380D02*
X100261904Y-66452380D01*
X100642857Y-66452380D01*
X100738095Y-66500000D01*
X100785714Y-66547619D01*
X100833333Y-66642857D01*
X100833333Y-66785714D01*
X100785714Y-66880952D01*
X100738095Y-66928571D01*
X100642857Y-66976190D01*
X100261904Y-66976190D01*
X101785714Y-67452380D02*
X101214285Y-67452380D01*
X101500000Y-67452380D02*
X101500000Y-66452380D01*
X101404761Y-66595238D01*
X101309523Y-66690476D01*
X101214285Y-66738095D01*
X102738095Y-59722380D02*
X102738095Y-60531904D01*
X102785714Y-60627142D01*
X102833333Y-60674761D01*
X102928571Y-60722380D01*
X103119047Y-60722380D01*
X103214285Y-60674761D01*
X103261904Y-60627142D01*
X103309523Y-60531904D01*
X103309523Y-59722380D01*
X104309523Y-60722380D02*
X103738095Y-60722380D01*
X104023809Y-60722380D02*
X104023809Y-59722380D01*
X103928571Y-59865238D01*
X103833333Y-59960476D01*
X103738095Y-60008095D01*
D14*
X102323428Y-63304095D02*
X102323428Y-63054095D01*
X102406761Y-63232666D01*
X102490095Y-63054095D01*
X102490095Y-63304095D01*
X102597238Y-63292190D02*
X102632952Y-63304095D01*
X102692476Y-63304095D01*
X102716285Y-63292190D01*
X102728190Y-63280285D01*
X102740095Y-63256476D01*
X102740095Y-63232666D01*
X102728190Y-63208857D01*
X102716285Y-63196952D01*
X102692476Y-63185047D01*
X102644857Y-63173142D01*
X102621047Y-63161238D01*
X102609142Y-63149333D01*
X102597238Y-63125523D01*
X102597238Y-63101714D01*
X102609142Y-63077904D01*
X102621047Y-63066000D01*
X102644857Y-63054095D01*
X102704380Y-63054095D01*
X102740095Y-63066000D01*
X102966285Y-63054095D02*
X102847238Y-63054095D01*
X102835333Y-63173142D01*
X102847238Y-63161238D01*
X102871047Y-63149333D01*
X102930571Y-63149333D01*
X102954380Y-63161238D01*
X102966285Y-63173142D01*
X102978190Y-63196952D01*
X102978190Y-63256476D01*
X102966285Y-63280285D01*
X102954380Y-63292190D01*
X102930571Y-63304095D01*
X102871047Y-63304095D01*
X102847238Y-63292190D01*
X102835333Y-63280285D01*
X103121047Y-63161238D02*
X103097238Y-63149333D01*
X103085333Y-63137428D01*
X103073428Y-63113619D01*
X103073428Y-63101714D01*
X103085333Y-63077904D01*
X103097238Y-63066000D01*
X103121047Y-63054095D01*
X103168666Y-63054095D01*
X103192476Y-63066000D01*
X103204380Y-63077904D01*
X103216285Y-63101714D01*
X103216285Y-63113619D01*
X103204380Y-63137428D01*
X103192476Y-63149333D01*
X103168666Y-63161238D01*
X103121047Y-63161238D01*
X103097238Y-63173142D01*
X103085333Y-63185047D01*
X103073428Y-63208857D01*
X103073428Y-63256476D01*
X103085333Y-63280285D01*
X103097238Y-63292190D01*
X103121047Y-63304095D01*
X103168666Y-63304095D01*
X103192476Y-63292190D01*
X103204380Y-63280285D01*
X103216285Y-63256476D01*
X103216285Y-63208857D01*
X103204380Y-63185047D01*
X103192476Y-63173142D01*
X103168666Y-63161238D01*
X103299619Y-63054095D02*
X103454380Y-63054095D01*
X103371047Y-63149333D01*
X103406761Y-63149333D01*
X103430571Y-63161238D01*
X103442476Y-63173142D01*
X103454380Y-63196952D01*
X103454380Y-63256476D01*
X103442476Y-63280285D01*
X103430571Y-63292190D01*
X103406761Y-63304095D01*
X103335333Y-63304095D01*
X103311523Y-63292190D01*
X103299619Y-63280285D01*
X103537714Y-63054095D02*
X103704380Y-63054095D01*
X103597238Y-63304095D01*
X103799619Y-63208857D02*
X103990095Y-63208857D01*
X104085333Y-63054095D02*
X104240095Y-63054095D01*
X104156761Y-63149333D01*
X104192476Y-63149333D01*
X104216285Y-63161238D01*
X104228190Y-63173142D01*
X104240095Y-63196952D01*
X104240095Y-63256476D01*
X104228190Y-63280285D01*
X104216285Y-63292190D01*
X104192476Y-63304095D01*
X104121047Y-63304095D01*
X104097238Y-63292190D01*
X104085333Y-63280285D01*
X104394857Y-63054095D02*
X104418666Y-63054095D01*
X104442476Y-63066000D01*
X104454380Y-63077904D01*
X104466285Y-63101714D01*
X104478190Y-63149333D01*
X104478190Y-63208857D01*
X104466285Y-63256476D01*
X104454380Y-63280285D01*
X104442476Y-63292190D01*
X104418666Y-63304095D01*
X104394857Y-63304095D01*
X104371047Y-63292190D01*
X104359142Y-63280285D01*
X104347238Y-63256476D01*
X104335333Y-63208857D01*
X104335333Y-63149333D01*
X104347238Y-63101714D01*
X104359142Y-63077904D01*
X104371047Y-63066000D01*
X104394857Y-63054095D01*
X104668666Y-63173142D02*
X104704380Y-63185047D01*
X104716285Y-63196952D01*
X104728190Y-63220761D01*
X104728190Y-63256476D01*
X104716285Y-63280285D01*
X104704380Y-63292190D01*
X104680571Y-63304095D01*
X104585333Y-63304095D01*
X104585333Y-63054095D01*
X104668666Y-63054095D01*
X104692476Y-63066000D01*
X104704380Y-63077904D01*
X104716285Y-63101714D01*
X104716285Y-63125523D01*
X104704380Y-63149333D01*
X104692476Y-63161238D01*
X104668666Y-63173142D01*
X104585333Y-63173142D01*
X104823428Y-63232666D02*
X104942476Y-63232666D01*
X104799619Y-63304095D02*
X104882952Y-63054095D01*
X104966285Y-63304095D01*
%LPC*%
G36*
G01*
X104725000Y-66250000D02*
X104725000Y-66750000D01*
G75*
G02*
X104500000Y-66975000I-225000J0D01*
G01*
X104050000Y-66975000D01*
G75*
G02*
X103825000Y-66750000I0J225000D01*
G01*
X103825000Y-66250000D01*
G75*
G02*
X104050000Y-66025000I225000J0D01*
G01*
X104500000Y-66025000D01*
G75*
G02*
X104725000Y-66250000I0J-225000D01*
G01*
G37*
G36*
G01*
X103175000Y-66250000D02*
X103175000Y-66750000D01*
G75*
G02*
X102950000Y-66975000I-225000J0D01*
G01*
X102500000Y-66975000D01*
G75*
G02*
X102275000Y-66750000I0J225000D01*
G01*
X102275000Y-66250000D01*
G75*
G02*
X102500000Y-66025000I225000J0D01*
G01*
X102950000Y-66025000D01*
G75*
G02*
X103175000Y-66250000I0J-225000D01*
G01*
G37*
D15*
X92000000Y-81000000D03*
X92000000Y-51500000D03*
X115000000Y-51500000D03*
X115000000Y-81000000D03*
D16*
X100000000Y-80000000D03*
D17*
X102540000Y-80000000D03*
X105080000Y-80000000D03*
X107620000Y-80000000D03*
G36*
G01*
X99225000Y-69225000D02*
X99225000Y-69775000D01*
G75*
G02*
X99025000Y-69975000I-200000J0D01*
G01*
X98625000Y-69975000D01*
G75*
G02*
X98425000Y-69775000I0J200000D01*
G01*
X98425000Y-69225000D01*
G75*
G02*
X98625000Y-69025000I200000J0D01*
G01*
X99025000Y-69025000D01*
G75*
G02*
X99225000Y-69225000I0J-200000D01*
G01*
G37*
G36*
G01*
X97575000Y-69225000D02*
X97575000Y-69775000D01*
G75*
G02*
X97375000Y-69975000I-200000J0D01*
G01*
X96975000Y-69975000D01*
G75*
G02*
X96775000Y-69775000I0J200000D01*
G01*
X96775000Y-69225000D01*
G75*
G02*
X96975000Y-69025000I200000J0D01*
G01*
X97375000Y-69025000D01*
G75*
G02*
X97575000Y-69225000I0J-200000D01*
G01*
G37*
G36*
G01*
X97575000Y-66725000D02*
X97575000Y-67275000D01*
G75*
G02*
X97375000Y-67475000I-200000J0D01*
G01*
X96975000Y-67475000D01*
G75*
G02*
X96775000Y-67275000I0J200000D01*
G01*
X96775000Y-66725000D01*
G75*
G02*
X96975000Y-66525000I200000J0D01*
G01*
X97375000Y-66525000D01*
G75*
G02*
X97575000Y-66725000I0J-200000D01*
G01*
G37*
G36*
G01*
X99225000Y-66725000D02*
X99225000Y-67275000D01*
G75*
G02*
X99025000Y-67475000I-200000J0D01*
G01*
X98625000Y-67475000D01*
G75*
G02*
X98425000Y-67275000I0J200000D01*
G01*
X98425000Y-66725000D01*
G75*
G02*
X98625000Y-66525000I200000J0D01*
G01*
X99025000Y-66525000D01*
G75*
G02*
X99225000Y-66725000I0J-200000D01*
G01*
G37*
D18*
X102712600Y-64200400D03*
X102712600Y-62200400D03*
X104712600Y-64200400D03*
X104712600Y-62200400D03*
M02*
